M48
; DRILL file {KiCad 7.0.1} date Wed Apr  5 13:45:40 2023
; FORMAT={-:-/ absolute / metric / decimal}
; #@! TF.CreationDate,2023-04-05T13:45:40+02:00
; #@! TF.GenerationSoftware,Kicad,Pcbnew,7.0.1
; #@! TF.FileFunction,Plated,1,2,PTH
FMAT,2
METRIC
; #@! TA.AperFunction,Plated,PTH,ViaDrill
T1C0.300
; #@! TA.AperFunction,Plated,PTH,ComponentDrill
T2C1.000
%
G90
G05
T1
X117.65Y-66.8
X118.05Y-68.5
X123.575Y-65.05
X123.575Y-65.625
X123.575Y-66.225
X123.575Y-66.8
X123.575Y-67.375
X123.6Y-64.45
X123.675Y-69.575
X123.7Y-73.85
X124.075Y-61.925
X124.2Y-68.85
X124.275Y-72.525
X124.5Y-62.425
X124.5Y-68.4
X124.541Y-70.715
X124.587Y-71.575
X124.985Y-72.11
X125.0Y-62.9
X125.07Y-72.757
X125.118Y-70.539
X125.425Y-63.3
X125.737Y-71.387
X125.875Y-64.625
X126.0Y-72.798
X126.175Y-69.025
X126.325Y-63.7
X126.4Y-73.525
X126.625Y-69.5
X126.725Y-64.1
X126.9Y-68.7
X126.9Y-73.05
X127.2Y-69.9
X127.4Y-69.25
X127.825Y-64.1
X128.05Y-73.525
X128.075Y-64.625
X128.3Y-63.7
X128.325Y-72.652
X129.275Y-63.3
X129.3Y-53.5
X129.3Y-64.6
X129.725Y-75.75
X129.775Y-62.9
X129.856Y-53.494
X130.156Y-65.831
X130.35Y-62.425
X130.438Y-53.512
X130.45Y-74.125
X130.6Y-71.377
X130.775Y-65.6
X130.825Y-61.925
X130.85Y-63.15
X130.875Y-66.325
X130.9Y-63.85
X130.985Y-66.858
X131.0Y-64.925
X131.025Y-75.075
X131.35Y-73.525
X131.4Y-71.175
X131.525Y-71.775
X131.633Y-64.204
X131.825Y-67.2
X131.85Y-53.5
X131.95Y-69.025
X132.018Y-63.819
X132.425Y-53.475
X132.599Y-64.401
X132.798Y-65.685
X133.025Y-53.475
X133.05Y-59.675
X133.256Y-62.581
X133.275Y-71.8
X133.6Y-53.475
X133.6Y-59.675
X133.65Y-60.375
X133.65Y-63.313
X133.65Y-67.928
X134.3Y-56.075
X134.3Y-59.675
X134.45Y-76.6
X134.7Y-78.575
X134.775Y-60.025
X134.875Y-53.475
X134.875Y-59.225
X135.3Y-56.075
X135.725Y-62.575
X135.725Y-64.575
X135.725Y-66.575
X135.725Y-68.575
X135.725Y-70.575
X135.725Y-72.575
X135.725Y-74.575
X135.725Y-76.575
X135.725Y-78.575
X135.725Y-80.575
X136.125Y-60.575
X137.425Y-55.152
X137.725Y-62.575
X137.725Y-64.575
X137.725Y-66.575
X137.725Y-68.575
X137.725Y-70.575
X137.725Y-72.575
X137.725Y-74.575
X137.725Y-76.575
X137.725Y-78.575
X137.725Y-80.575
X138.125Y-60.575
X138.8Y-55.15
X139.725Y-62.575
X139.725Y-64.575
X139.725Y-66.575
X139.725Y-68.575
X139.725Y-70.575
X139.725Y-72.575
X139.725Y-74.575
X139.725Y-76.575
X139.725Y-78.575
X139.725Y-80.575
X140.125Y-60.575
X141.725Y-62.575
X141.725Y-64.575
X141.725Y-66.575
X141.725Y-68.575
X141.725Y-70.575
X141.725Y-72.575
X141.725Y-74.575
X141.725Y-76.575
X141.725Y-78.575
X141.725Y-80.575
X142.125Y-60.575
X142.325Y-56.075
X143.725Y-62.575
X143.725Y-64.575
X143.725Y-66.575
X143.725Y-68.575
X143.725Y-70.575
X143.725Y-72.575
X143.725Y-74.575
X143.725Y-76.575
X143.725Y-78.575
X143.725Y-80.575
X144.125Y-60.575
X145.725Y-62.575
X145.725Y-64.575
X145.725Y-66.575
X145.725Y-68.575
X145.725Y-70.575
X145.725Y-72.575
X145.725Y-74.575
X145.725Y-76.575
X145.725Y-78.575
X145.725Y-80.575
X146.125Y-60.575
T2
X113.9Y-58.61
X113.9Y-61.15
X113.9Y-63.69
X113.9Y-66.23
X113.9Y-68.77
X113.9Y-71.31
X113.9Y-73.85
X113.9Y-76.39
T0
M30
