%TF.GenerationSoftware,KiCad,Pcbnew,7.0.1*%
%TF.CreationDate,2023-04-06T12:09:14+02:00*%
%TF.ProjectId,LED_Dogtag_HW,4c45445f-446f-4677-9461-675f48572e6b,1.0*%
%TF.SameCoordinates,Original*%
%TF.FileFunction,Paste,Top*%
%TF.FilePolarity,Positive*%
%FSLAX46Y46*%
G04 Gerber Fmt 4.6, Leading zero omitted, Abs format (unit mm)*
G04 Created by KiCad (PCBNEW 7.0.1) date 2023-04-06 12:09:14*
%MOMM*%
%LPD*%
G01*
G04 APERTURE LIST*
G04 Aperture macros list*
%AMRoundRect*
0 Rectangle with rounded corners*
0 $1 Rounding radius*
0 $2 $3 $4 $5 $6 $7 $8 $9 X,Y pos of 4 corners*
0 Add a 4 corners polygon primitive as box body*
4,1,4,$2,$3,$4,$5,$6,$7,$8,$9,$2,$3,0*
0 Add four circle primitives for the rounded corners*
1,1,$1+$1,$2,$3*
1,1,$1+$1,$4,$5*
1,1,$1+$1,$6,$7*
1,1,$1+$1,$8,$9*
0 Add four rect primitives between the rounded corners*
20,1,$1+$1,$2,$3,$4,$5,0*
20,1,$1+$1,$4,$5,$6,$7,0*
20,1,$1+$1,$6,$7,$8,$9,0*
20,1,$1+$1,$8,$9,$2,$3,0*%
G04 Aperture macros list end*
%ADD10RoundRect,0.112500X0.112500X0.112500X-0.112500X0.112500X-0.112500X-0.112500X0.112500X-0.112500X0*%
%ADD11RoundRect,0.112500X-0.112500X-0.112500X0.112500X-0.112500X0.112500X0.112500X-0.112500X0.112500X0*%
G04 APERTURE END LIST*
D10*
%TO.C,D296*%
X103475000Y-56475000D03*
X102625000Y-56475000D03*
X102625000Y-55625000D03*
X103475000Y-55625000D03*
%TD*%
D11*
%TO.C,D32*%
X95125000Y-51125000D03*
X95975000Y-51125000D03*
X95975000Y-51975000D03*
X95125000Y-51975000D03*
%TD*%
D10*
%TO.C,D275*%
X100475000Y-54975000D03*
X99625000Y-54975000D03*
X99625000Y-54125000D03*
X100475000Y-54125000D03*
%TD*%
%TO.C,D352*%
X110975000Y-54975000D03*
X110125000Y-54975000D03*
X110125000Y-54125000D03*
X110975000Y-54125000D03*
%TD*%
%TO.C,D353*%
X112475000Y-69975000D03*
X111625000Y-69975000D03*
X111625000Y-69125000D03*
X112475000Y-69125000D03*
%TD*%
%TO.C,D310*%
X106475000Y-68475000D03*
X105625000Y-68475000D03*
X105625000Y-67625000D03*
X106475000Y-67625000D03*
%TD*%
%TO.C,D378*%
X115475000Y-65475000D03*
X114625000Y-65475000D03*
X114625000Y-64625000D03*
X115475000Y-64625000D03*
%TD*%
D11*
%TO.C,D83*%
X105625000Y-45125000D03*
X106475000Y-45125000D03*
X106475000Y-45975000D03*
X105625000Y-45975000D03*
%TD*%
%TO.C,D2*%
X98125000Y-39125000D03*
X98975000Y-39125000D03*
X98975000Y-39975000D03*
X98125000Y-39975000D03*
%TD*%
D10*
%TO.C,D243*%
X97475000Y-69975000D03*
X96625000Y-69975000D03*
X96625000Y-69125000D03*
X97475000Y-69125000D03*
%TD*%
%TO.C,D295*%
X103475000Y-57975000D03*
X102625000Y-57975000D03*
X102625000Y-57125000D03*
X103475000Y-57125000D03*
%TD*%
%TO.C,D274*%
X100475000Y-56475000D03*
X99625000Y-56475000D03*
X99625000Y-55625000D03*
X100475000Y-55625000D03*
%TD*%
D11*
%TO.C,D147*%
X114625000Y-42125000D03*
X115475000Y-42125000D03*
X115475000Y-42975000D03*
X114625000Y-42975000D03*
%TD*%
D10*
%TO.C,D386*%
X116975000Y-69975000D03*
X116125000Y-69975000D03*
X116125000Y-69125000D03*
X116975000Y-69125000D03*
%TD*%
D11*
%TO.C,D79*%
X105625000Y-39125000D03*
X106475000Y-39125000D03*
X106475000Y-39975000D03*
X105625000Y-39975000D03*
%TD*%
%TO.C,D58*%
X90625000Y-40625000D03*
X91475000Y-40625000D03*
X91475000Y-41475000D03*
X90625000Y-41475000D03*
%TD*%
%TO.C,D122*%
X99625000Y-37625000D03*
X100475000Y-37625000D03*
X100475000Y-38475000D03*
X99625000Y-38475000D03*
%TD*%
D10*
%TO.C,D333*%
X109475000Y-66975000D03*
X108625000Y-66975000D03*
X108625000Y-66125000D03*
X109475000Y-66125000D03*
%TD*%
D11*
%TO.C,D167*%
X111625000Y-39125000D03*
X112475000Y-39125000D03*
X112475000Y-39975000D03*
X111625000Y-39975000D03*
%TD*%
D10*
%TO.C,D284*%
X101975000Y-57975000D03*
X101125000Y-57975000D03*
X101125000Y-57125000D03*
X101975000Y-57125000D03*
%TD*%
%TO.C,D359*%
X112475000Y-60975000D03*
X111625000Y-60975000D03*
X111625000Y-60125000D03*
X112475000Y-60125000D03*
%TD*%
D11*
%TO.C,D29*%
X95125000Y-46625000D03*
X95975000Y-46625000D03*
X95975000Y-47475000D03*
X95125000Y-47475000D03*
%TD*%
%TO.C,D161*%
X113125000Y-46625000D03*
X113975000Y-46625000D03*
X113975000Y-47475000D03*
X113125000Y-47475000D03*
%TD*%
%TO.C,D90*%
X104125000Y-39125000D03*
X104975000Y-39125000D03*
X104975000Y-39975000D03*
X104125000Y-39975000D03*
%TD*%
%TO.C,D33*%
X95125000Y-52625000D03*
X95975000Y-52625000D03*
X95975000Y-53475000D03*
X95125000Y-53475000D03*
%TD*%
D10*
%TO.C,D362*%
X112475000Y-56475000D03*
X111625000Y-56475000D03*
X111625000Y-55625000D03*
X112475000Y-55625000D03*
%TD*%
D11*
%TO.C,D102*%
X102625000Y-40625000D03*
X103475000Y-40625000D03*
X103475000Y-41475000D03*
X102625000Y-41475000D03*
%TD*%
%TO.C,D34*%
X93625000Y-37625000D03*
X94475000Y-37625000D03*
X94475000Y-38475000D03*
X93625000Y-38475000D03*
%TD*%
D10*
%TO.C,D233*%
X95975000Y-68475000D03*
X95125000Y-68475000D03*
X95125000Y-67625000D03*
X95975000Y-67625000D03*
%TD*%
D11*
%TO.C,D193*%
X108625000Y-45125000D03*
X109475000Y-45125000D03*
X109475000Y-45975000D03*
X108625000Y-45975000D03*
%TD*%
D10*
%TO.C,D338*%
X109475000Y-59475000D03*
X108625000Y-59475000D03*
X108625000Y-58625000D03*
X109475000Y-58625000D03*
%TD*%
D11*
%TO.C,D135*%
X116125000Y-40625000D03*
X116975000Y-40625000D03*
X116975000Y-41475000D03*
X116125000Y-41475000D03*
%TD*%
%TO.C,D65*%
X90625000Y-51125000D03*
X91475000Y-51125000D03*
X91475000Y-51975000D03*
X90625000Y-51975000D03*
%TD*%
%TO.C,D50*%
X92125000Y-45125000D03*
X92975000Y-45125000D03*
X92975000Y-45975000D03*
X92125000Y-45975000D03*
%TD*%
D10*
%TO.C,D325*%
X107975000Y-62475000D03*
X107125000Y-62475000D03*
X107125000Y-61625000D03*
X107975000Y-61625000D03*
%TD*%
D11*
%TO.C,D26*%
X95125000Y-42125000D03*
X95975000Y-42125000D03*
X95975000Y-42975000D03*
X95125000Y-42975000D03*
%TD*%
D10*
%TO.C,D221*%
X94475000Y-69975000D03*
X93625000Y-69975000D03*
X93625000Y-69125000D03*
X94475000Y-69125000D03*
%TD*%
%TO.C,D335*%
X109475000Y-63975000D03*
X108625000Y-63975000D03*
X108625000Y-63125000D03*
X109475000Y-63125000D03*
%TD*%
%TO.C,D396*%
X116975000Y-54975000D03*
X116125000Y-54975000D03*
X116125000Y-54125000D03*
X116975000Y-54125000D03*
%TD*%
%TO.C,D300*%
X104975000Y-66975000D03*
X104125000Y-66975000D03*
X104125000Y-66125000D03*
X104975000Y-66125000D03*
%TD*%
D11*
%TO.C,D176*%
X111625000Y-52625000D03*
X112475000Y-52625000D03*
X112475000Y-53475000D03*
X111625000Y-53475000D03*
%TD*%
D10*
%TO.C,D248*%
X97475000Y-62475000D03*
X96625000Y-62475000D03*
X96625000Y-61625000D03*
X97475000Y-61625000D03*
%TD*%
D11*
%TO.C,D89*%
X104125000Y-37625000D03*
X104975000Y-37625000D03*
X104975000Y-38475000D03*
X104125000Y-38475000D03*
%TD*%
D10*
%TO.C,D285*%
X101975000Y-56475000D03*
X101125000Y-56475000D03*
X101125000Y-55625000D03*
X101975000Y-55625000D03*
%TD*%
%TO.C,D214*%
X92975000Y-63975000D03*
X92125000Y-63975000D03*
X92125000Y-63125000D03*
X92975000Y-63125000D03*
%TD*%
%TO.C,D245*%
X97475000Y-66975000D03*
X96625000Y-66975000D03*
X96625000Y-66125000D03*
X97475000Y-66125000D03*
%TD*%
D11*
%TO.C,D128*%
X99625000Y-46625000D03*
X100475000Y-46625000D03*
X100475000Y-47475000D03*
X99625000Y-47475000D03*
%TD*%
%TO.C,D121*%
X101125000Y-52625000D03*
X101975000Y-52625000D03*
X101975000Y-53475000D03*
X101125000Y-53475000D03*
%TD*%
%TO.C,D93*%
X104125000Y-43625000D03*
X104975000Y-43625000D03*
X104975000Y-44475000D03*
X104125000Y-44475000D03*
%TD*%
D10*
%TO.C,D272*%
X100475000Y-59475000D03*
X99625000Y-59475000D03*
X99625000Y-58625000D03*
X100475000Y-58625000D03*
%TD*%
D11*
%TO.C,D59*%
X90625000Y-42125000D03*
X91475000Y-42125000D03*
X91475000Y-42975000D03*
X90625000Y-42975000D03*
%TD*%
%TO.C,D57*%
X90625000Y-39125000D03*
X91475000Y-39125000D03*
X91475000Y-39975000D03*
X90625000Y-39975000D03*
%TD*%
D10*
%TO.C,D339*%
X109475000Y-57975000D03*
X108625000Y-57975000D03*
X108625000Y-57125000D03*
X109475000Y-57125000D03*
%TD*%
%TO.C,D364*%
X113975000Y-69975000D03*
X113125000Y-69975000D03*
X113125000Y-69125000D03*
X113975000Y-69125000D03*
%TD*%
D11*
%TO.C,D195*%
X108625000Y-48125000D03*
X109475000Y-48125000D03*
X109475000Y-48975000D03*
X108625000Y-48975000D03*
%TD*%
D10*
%TO.C,D205*%
X91475000Y-60975000D03*
X90625000Y-60975000D03*
X90625000Y-60125000D03*
X91475000Y-60125000D03*
%TD*%
%TO.C,D297*%
X103475000Y-54975000D03*
X102625000Y-54975000D03*
X102625000Y-54125000D03*
X103475000Y-54125000D03*
%TD*%
D11*
%TO.C,D6*%
X98125000Y-45125000D03*
X98975000Y-45125000D03*
X98975000Y-45975000D03*
X98125000Y-45975000D03*
%TD*%
D10*
%TO.C,D256*%
X98975000Y-66975000D03*
X98125000Y-66975000D03*
X98125000Y-66125000D03*
X98975000Y-66125000D03*
%TD*%
%TO.C,D222*%
X94475000Y-68475000D03*
X93625000Y-68475000D03*
X93625000Y-67625000D03*
X94475000Y-67625000D03*
%TD*%
D11*
%TO.C,D109*%
X102625000Y-51125000D03*
X103475000Y-51125000D03*
X103475000Y-51975000D03*
X102625000Y-51975000D03*
%TD*%
%TO.C,D39*%
X93625000Y-45125000D03*
X94475000Y-45125000D03*
X94475000Y-45975000D03*
X93625000Y-45975000D03*
%TD*%
%TO.C,D138*%
X116125000Y-45125000D03*
X116975000Y-45125000D03*
X116975000Y-45975000D03*
X116125000Y-45975000D03*
%TD*%
D10*
%TO.C,D365*%
X113975000Y-68475000D03*
X113125000Y-68475000D03*
X113125000Y-67625000D03*
X113975000Y-67625000D03*
%TD*%
D11*
%TO.C,D162*%
X113125000Y-48125000D03*
X113975000Y-48125000D03*
X113975000Y-48975000D03*
X113125000Y-48975000D03*
%TD*%
%TO.C,D63*%
X90625000Y-48125000D03*
X91475000Y-48125000D03*
X91475000Y-48975000D03*
X90625000Y-48975000D03*
%TD*%
%TO.C,D110*%
X102625000Y-52625000D03*
X103475000Y-52625000D03*
X103475000Y-53475000D03*
X102625000Y-53475000D03*
%TD*%
D10*
%TO.C,D395*%
X116975000Y-56475000D03*
X116125000Y-56475000D03*
X116125000Y-55625000D03*
X116975000Y-55625000D03*
%TD*%
%TO.C,D218*%
X92975000Y-57975000D03*
X92125000Y-57975000D03*
X92125000Y-57125000D03*
X92975000Y-57125000D03*
%TD*%
%TO.C,D361*%
X112475000Y-57975000D03*
X111625000Y-57975000D03*
X111625000Y-57125000D03*
X112475000Y-57125000D03*
%TD*%
D11*
%TO.C,D40*%
X93625000Y-46625000D03*
X94475000Y-46625000D03*
X94475000Y-47475000D03*
X93625000Y-47475000D03*
%TD*%
%TO.C,D86*%
X105625000Y-49625000D03*
X106475000Y-49625000D03*
X106475000Y-50475000D03*
X105625000Y-50475000D03*
%TD*%
%TO.C,D194*%
X108625000Y-46625000D03*
X109475000Y-46625000D03*
X109475000Y-47475000D03*
X108625000Y-47475000D03*
%TD*%
D10*
%TO.C,D382*%
X115475000Y-59475000D03*
X114625000Y-59475000D03*
X114625000Y-58625000D03*
X115475000Y-58625000D03*
%TD*%
%TO.C,D308*%
X104975000Y-54975000D03*
X104125000Y-54975000D03*
X104125000Y-54125000D03*
X104975000Y-54125000D03*
%TD*%
%TO.C,D299*%
X104975000Y-68475000D03*
X104125000Y-68475000D03*
X104125000Y-67625000D03*
X104975000Y-67625000D03*
%TD*%
D11*
%TO.C,D105*%
X102625000Y-45125000D03*
X103475000Y-45125000D03*
X103475000Y-45975000D03*
X102625000Y-45975000D03*
%TD*%
D10*
%TO.C,D327*%
X107975000Y-59475000D03*
X107125000Y-59475000D03*
X107125000Y-58625000D03*
X107975000Y-58625000D03*
%TD*%
%TO.C,D213*%
X92975000Y-65475000D03*
X92125000Y-65475000D03*
X92125000Y-64625000D03*
X92975000Y-64625000D03*
%TD*%
D11*
%TO.C,D114*%
X101125000Y-42125000D03*
X101975000Y-42125000D03*
X101975000Y-42975000D03*
X101125000Y-42975000D03*
%TD*%
%TO.C,D108*%
X102625000Y-49625000D03*
X103475000Y-49625000D03*
X103475000Y-50475000D03*
X102625000Y-50475000D03*
%TD*%
%TO.C,D133*%
X116125000Y-37625000D03*
X116975000Y-37625000D03*
X116975000Y-38475000D03*
X116125000Y-38475000D03*
%TD*%
D10*
%TO.C,D230*%
X94475000Y-56475000D03*
X93625000Y-56475000D03*
X93625000Y-55625000D03*
X94475000Y-55625000D03*
%TD*%
D11*
%TO.C,D56*%
X90625000Y-37625000D03*
X91475000Y-37625000D03*
X91475000Y-38475000D03*
X90625000Y-38475000D03*
%TD*%
D10*
%TO.C,D268*%
X100475000Y-65475000D03*
X99625000Y-65475000D03*
X99625000Y-64625000D03*
X100475000Y-64625000D03*
%TD*%
%TO.C,D307*%
X104975000Y-56475000D03*
X104125000Y-56475000D03*
X104125000Y-55625000D03*
X104975000Y-55625000D03*
%TD*%
D11*
%TO.C,D144*%
X114625000Y-37625000D03*
X115475000Y-37625000D03*
X115475000Y-38475000D03*
X114625000Y-38475000D03*
%TD*%
%TO.C,D71*%
X107125000Y-43625000D03*
X107975000Y-43625000D03*
X107975000Y-44475000D03*
X107125000Y-44475000D03*
%TD*%
D10*
%TO.C,D347*%
X110975000Y-62475000D03*
X110125000Y-62475000D03*
X110125000Y-61625000D03*
X110975000Y-61625000D03*
%TD*%
%TO.C,D329*%
X107975000Y-56475000D03*
X107125000Y-56475000D03*
X107125000Y-55625000D03*
X107975000Y-55625000D03*
%TD*%
D11*
%TO.C,D20*%
X96625000Y-49625000D03*
X97475000Y-49625000D03*
X97475000Y-50475000D03*
X96625000Y-50475000D03*
%TD*%
%TO.C,D136*%
X116125000Y-42125000D03*
X116975000Y-42125000D03*
X116975000Y-42975000D03*
X116125000Y-42975000D03*
%TD*%
%TO.C,D75*%
X107125000Y-49625000D03*
X107975000Y-49625000D03*
X107975000Y-50475000D03*
X107125000Y-50475000D03*
%TD*%
D10*
%TO.C,D204*%
X91475000Y-62475000D03*
X90625000Y-62475000D03*
X90625000Y-61625000D03*
X91475000Y-61625000D03*
%TD*%
%TO.C,D303*%
X104975000Y-62475000D03*
X104125000Y-62475000D03*
X104125000Y-61625000D03*
X104975000Y-61625000D03*
%TD*%
%TO.C,D247*%
X97475000Y-63975000D03*
X96625000Y-63975000D03*
X96625000Y-63125000D03*
X97475000Y-63125000D03*
%TD*%
%TO.C,D219*%
X92975000Y-56475000D03*
X92125000Y-56475000D03*
X92125000Y-55625000D03*
X92975000Y-55625000D03*
%TD*%
%TO.C,D302*%
X104975000Y-63975000D03*
X104125000Y-63975000D03*
X104125000Y-63125000D03*
X104975000Y-63125000D03*
%TD*%
D11*
%TO.C,D16*%
X96625000Y-43625000D03*
X97475000Y-43625000D03*
X97475000Y-44475000D03*
X96625000Y-44475000D03*
%TD*%
D10*
%TO.C,D250*%
X97475000Y-59475000D03*
X96625000Y-59475000D03*
X96625000Y-58625000D03*
X97475000Y-58625000D03*
%TD*%
%TO.C,D277*%
X101975000Y-68475000D03*
X101125000Y-68475000D03*
X101125000Y-67625000D03*
X101975000Y-67625000D03*
%TD*%
D11*
%TO.C,D42*%
X93625000Y-49625000D03*
X94475000Y-49625000D03*
X94475000Y-50475000D03*
X93625000Y-50475000D03*
%TD*%
D10*
%TO.C,D315*%
X106475000Y-60975000D03*
X105625000Y-60975000D03*
X105625000Y-60125000D03*
X106475000Y-60125000D03*
%TD*%
D11*
%TO.C,D177*%
X110125000Y-37625000D03*
X110975000Y-37625000D03*
X110975000Y-38475000D03*
X110125000Y-38475000D03*
%TD*%
%TO.C,D18*%
X96625000Y-46625000D03*
X97475000Y-46625000D03*
X97475000Y-47475000D03*
X96625000Y-47475000D03*
%TD*%
%TO.C,D77*%
X107125000Y-52625000D03*
X107975000Y-52625000D03*
X107975000Y-53475000D03*
X107125000Y-53475000D03*
%TD*%
%TO.C,D186*%
X110125000Y-51125000D03*
X110975000Y-51125000D03*
X110975000Y-51975000D03*
X110125000Y-51975000D03*
%TD*%
%TO.C,D169*%
X111625000Y-42125000D03*
X112475000Y-42125000D03*
X112475000Y-42975000D03*
X111625000Y-42975000D03*
%TD*%
%TO.C,D100*%
X102625000Y-37625000D03*
X103475000Y-37625000D03*
X103475000Y-38475000D03*
X102625000Y-38475000D03*
%TD*%
%TO.C,D46*%
X92125000Y-39125000D03*
X92975000Y-39125000D03*
X92975000Y-39975000D03*
X92125000Y-39975000D03*
%TD*%
D10*
%TO.C,D278*%
X101975000Y-66975000D03*
X101125000Y-66975000D03*
X101125000Y-66125000D03*
X101975000Y-66125000D03*
%TD*%
%TO.C,D276*%
X101975000Y-69975000D03*
X101125000Y-69975000D03*
X101125000Y-69125000D03*
X101975000Y-69125000D03*
%TD*%
%TO.C,D251*%
X97475000Y-57975000D03*
X96625000Y-57975000D03*
X96625000Y-57125000D03*
X97475000Y-57125000D03*
%TD*%
D11*
%TO.C,D81*%
X105625000Y-42125000D03*
X106475000Y-42125000D03*
X106475000Y-42975000D03*
X105625000Y-42975000D03*
%TD*%
D10*
%TO.C,D323*%
X107975000Y-65475000D03*
X107125000Y-65475000D03*
X107125000Y-64625000D03*
X107975000Y-64625000D03*
%TD*%
%TO.C,D286*%
X101975000Y-54975000D03*
X101125000Y-54975000D03*
X101125000Y-54125000D03*
X101975000Y-54125000D03*
%TD*%
D11*
%TO.C,D118*%
X101125000Y-48125000D03*
X101975000Y-48125000D03*
X101975000Y-48975000D03*
X101125000Y-48975000D03*
%TD*%
%TO.C,D19*%
X96625000Y-48125000D03*
X97475000Y-48125000D03*
X97475000Y-48975000D03*
X96625000Y-48975000D03*
%TD*%
%TO.C,D182*%
X110125000Y-45125000D03*
X110975000Y-45125000D03*
X110975000Y-45975000D03*
X110125000Y-45975000D03*
%TD*%
%TO.C,D159*%
X113125000Y-43625000D03*
X113975000Y-43625000D03*
X113975000Y-44475000D03*
X113125000Y-44475000D03*
%TD*%
D10*
%TO.C,D202*%
X91475000Y-65475000D03*
X90625000Y-65475000D03*
X90625000Y-64625000D03*
X91475000Y-64625000D03*
%TD*%
%TO.C,D265*%
X100475000Y-69975000D03*
X99625000Y-69975000D03*
X99625000Y-69125000D03*
X100475000Y-69125000D03*
%TD*%
D11*
%TO.C,D189*%
X108625000Y-39125000D03*
X109475000Y-39125000D03*
X109475000Y-39975000D03*
X108625000Y-39975000D03*
%TD*%
D10*
%TO.C,D290*%
X103475000Y-65475000D03*
X102625000Y-65475000D03*
X102625000Y-64625000D03*
X103475000Y-64625000D03*
%TD*%
D11*
%TO.C,D70*%
X107125000Y-42125000D03*
X107975000Y-42125000D03*
X107975000Y-42975000D03*
X107125000Y-42975000D03*
%TD*%
D10*
%TO.C,D331*%
X109475000Y-69975000D03*
X108625000Y-69975000D03*
X108625000Y-69125000D03*
X109475000Y-69125000D03*
%TD*%
%TO.C,D283*%
X101975000Y-59475000D03*
X101125000Y-59475000D03*
X101125000Y-58625000D03*
X101975000Y-58625000D03*
%TD*%
%TO.C,D234*%
X95975000Y-66975000D03*
X95125000Y-66975000D03*
X95125000Y-66125000D03*
X95975000Y-66125000D03*
%TD*%
%TO.C,D392*%
X116975000Y-60975000D03*
X116125000Y-60975000D03*
X116125000Y-60125000D03*
X116975000Y-60125000D03*
%TD*%
%TO.C,D270*%
X100475000Y-62475000D03*
X99625000Y-62475000D03*
X99625000Y-61625000D03*
X100475000Y-61625000D03*
%TD*%
%TO.C,D337*%
X109475000Y-60975000D03*
X108625000Y-60975000D03*
X108625000Y-60125000D03*
X109475000Y-60125000D03*
%TD*%
D11*
%TO.C,D62*%
X90625000Y-46625000D03*
X91475000Y-46625000D03*
X91475000Y-47475000D03*
X90625000Y-47475000D03*
%TD*%
%TO.C,D115*%
X101125000Y-43625000D03*
X101975000Y-43625000D03*
X101975000Y-44475000D03*
X101125000Y-44475000D03*
%TD*%
D10*
%TO.C,D292*%
X103475000Y-62475000D03*
X102625000Y-62475000D03*
X102625000Y-61625000D03*
X103475000Y-61625000D03*
%TD*%
%TO.C,D281*%
X101975000Y-62475000D03*
X101125000Y-62475000D03*
X101125000Y-61625000D03*
X101975000Y-61625000D03*
%TD*%
%TO.C,D215*%
X92975000Y-62475000D03*
X92125000Y-62475000D03*
X92125000Y-61625000D03*
X92975000Y-61625000D03*
%TD*%
%TO.C,D255*%
X98975000Y-68475000D03*
X98125000Y-68475000D03*
X98125000Y-67625000D03*
X98975000Y-67625000D03*
%TD*%
%TO.C,D375*%
X115475000Y-69975000D03*
X114625000Y-69975000D03*
X114625000Y-69125000D03*
X115475000Y-69125000D03*
%TD*%
%TO.C,D324*%
X107975000Y-63975000D03*
X107125000Y-63975000D03*
X107125000Y-63125000D03*
X107975000Y-63125000D03*
%TD*%
%TO.C,D366*%
X113975000Y-66975000D03*
X113125000Y-66975000D03*
X113125000Y-66125000D03*
X113975000Y-66125000D03*
%TD*%
D11*
%TO.C,D171*%
X111625000Y-45125000D03*
X112475000Y-45125000D03*
X112475000Y-45975000D03*
X111625000Y-45975000D03*
%TD*%
%TO.C,D185*%
X110125000Y-49625000D03*
X110975000Y-49625000D03*
X110975000Y-50475000D03*
X110125000Y-50475000D03*
%TD*%
%TO.C,D165*%
X113125000Y-52625000D03*
X113975000Y-52625000D03*
X113975000Y-53475000D03*
X113125000Y-53475000D03*
%TD*%
D10*
%TO.C,D309*%
X106475000Y-69975000D03*
X105625000Y-69975000D03*
X105625000Y-69125000D03*
X106475000Y-69125000D03*
%TD*%
%TO.C,D305*%
X104975000Y-59475000D03*
X104125000Y-59475000D03*
X104125000Y-58625000D03*
X104975000Y-58625000D03*
%TD*%
D11*
%TO.C,D3*%
X98125000Y-40625000D03*
X98975000Y-40625000D03*
X98975000Y-41475000D03*
X98125000Y-41475000D03*
%TD*%
D10*
%TO.C,D372*%
X113975000Y-57975000D03*
X113125000Y-57975000D03*
X113125000Y-57125000D03*
X113975000Y-57125000D03*
%TD*%
%TO.C,D390*%
X116975000Y-63975000D03*
X116125000Y-63975000D03*
X116125000Y-63125000D03*
X116975000Y-63125000D03*
%TD*%
D11*
%TO.C,D12*%
X96625000Y-37625000D03*
X97475000Y-37625000D03*
X97475000Y-38475000D03*
X96625000Y-38475000D03*
%TD*%
%TO.C,D174*%
X111625000Y-49625000D03*
X112475000Y-49625000D03*
X112475000Y-50475000D03*
X111625000Y-50475000D03*
%TD*%
D10*
%TO.C,D334*%
X109475000Y-65475000D03*
X108625000Y-65475000D03*
X108625000Y-64625000D03*
X109475000Y-64625000D03*
%TD*%
%TO.C,D356*%
X112475000Y-65475000D03*
X111625000Y-65475000D03*
X111625000Y-64625000D03*
X112475000Y-64625000D03*
%TD*%
%TO.C,D280*%
X101975000Y-63975000D03*
X101125000Y-63975000D03*
X101125000Y-63125000D03*
X101975000Y-63125000D03*
%TD*%
%TO.C,D217*%
X92975000Y-59475000D03*
X92125000Y-59475000D03*
X92125000Y-58625000D03*
X92975000Y-58625000D03*
%TD*%
%TO.C,D376*%
X115475000Y-68475000D03*
X114625000Y-68475000D03*
X114625000Y-67625000D03*
X115475000Y-67625000D03*
%TD*%
D11*
%TO.C,D107*%
X102625000Y-48125000D03*
X103475000Y-48125000D03*
X103475000Y-48975000D03*
X102625000Y-48975000D03*
%TD*%
%TO.C,D142*%
X116125000Y-51125000D03*
X116975000Y-51125000D03*
X116975000Y-51975000D03*
X116125000Y-51975000D03*
%TD*%
%TO.C,D125*%
X99625000Y-42125000D03*
X100475000Y-42125000D03*
X100475000Y-42975000D03*
X99625000Y-42975000D03*
%TD*%
%TO.C,D150*%
X114625000Y-46625000D03*
X115475000Y-46625000D03*
X115475000Y-47475000D03*
X114625000Y-47475000D03*
%TD*%
D10*
%TO.C,D394*%
X116975000Y-57975000D03*
X116125000Y-57975000D03*
X116125000Y-57125000D03*
X116975000Y-57125000D03*
%TD*%
%TO.C,D348*%
X110975000Y-60975000D03*
X110125000Y-60975000D03*
X110125000Y-60125000D03*
X110975000Y-60125000D03*
%TD*%
%TO.C,D330*%
X107975000Y-54975000D03*
X107125000Y-54975000D03*
X107125000Y-54125000D03*
X107975000Y-54125000D03*
%TD*%
%TO.C,D279*%
X101975000Y-65475000D03*
X101125000Y-65475000D03*
X101125000Y-64625000D03*
X101975000Y-64625000D03*
%TD*%
D11*
%TO.C,D141*%
X116125000Y-49625000D03*
X116975000Y-49625000D03*
X116975000Y-50475000D03*
X116125000Y-50475000D03*
%TD*%
D10*
%TO.C,D259*%
X98975000Y-62475000D03*
X98125000Y-62475000D03*
X98125000Y-61625000D03*
X98975000Y-61625000D03*
%TD*%
D11*
%TO.C,D61*%
X90625000Y-45125000D03*
X91475000Y-45125000D03*
X91475000Y-45975000D03*
X90625000Y-45975000D03*
%TD*%
%TO.C,D41*%
X93625000Y-48125000D03*
X94475000Y-48125000D03*
X94475000Y-48975000D03*
X93625000Y-48975000D03*
%TD*%
%TO.C,D53*%
X92125000Y-49625000D03*
X92975000Y-49625000D03*
X92975000Y-50475000D03*
X92125000Y-50475000D03*
%TD*%
%TO.C,D76*%
X107125000Y-51125000D03*
X107975000Y-51125000D03*
X107975000Y-51975000D03*
X107125000Y-51975000D03*
%TD*%
%TO.C,D151*%
X114625000Y-48125000D03*
X115475000Y-48125000D03*
X115475000Y-48975000D03*
X114625000Y-48975000D03*
%TD*%
D10*
%TO.C,D262*%
X98975000Y-57975000D03*
X98125000Y-57975000D03*
X98125000Y-57125000D03*
X98975000Y-57125000D03*
%TD*%
D11*
%TO.C,D10*%
X98125000Y-51125000D03*
X98975000Y-51125000D03*
X98975000Y-51975000D03*
X98125000Y-51975000D03*
%TD*%
D10*
%TO.C,D208*%
X91475000Y-56475000D03*
X90625000Y-56475000D03*
X90625000Y-55625000D03*
X91475000Y-55625000D03*
%TD*%
D11*
%TO.C,D157*%
X113125000Y-40625000D03*
X113975000Y-40625000D03*
X113975000Y-41475000D03*
X113125000Y-41475000D03*
%TD*%
D10*
%TO.C,D389*%
X116975000Y-65475000D03*
X116125000Y-65475000D03*
X116125000Y-64625000D03*
X116975000Y-64625000D03*
%TD*%
%TO.C,D314*%
X106475000Y-62475000D03*
X105625000Y-62475000D03*
X105625000Y-61625000D03*
X106475000Y-61625000D03*
%TD*%
%TO.C,D258*%
X98975000Y-63975000D03*
X98125000Y-63975000D03*
X98125000Y-63125000D03*
X98975000Y-63125000D03*
%TD*%
D11*
%TO.C,D173*%
X111625000Y-48125000D03*
X112475000Y-48125000D03*
X112475000Y-48975000D03*
X111625000Y-48975000D03*
%TD*%
D10*
%TO.C,D253*%
X97475000Y-54975000D03*
X96625000Y-54975000D03*
X96625000Y-54125000D03*
X97475000Y-54125000D03*
%TD*%
D11*
%TO.C,D123*%
X99625000Y-39125000D03*
X100475000Y-39125000D03*
X100475000Y-39975000D03*
X99625000Y-39975000D03*
%TD*%
%TO.C,D37*%
X93625000Y-42125000D03*
X94475000Y-42125000D03*
X94475000Y-42975000D03*
X93625000Y-42975000D03*
%TD*%
D10*
%TO.C,D289*%
X103475000Y-66975000D03*
X102625000Y-66975000D03*
X102625000Y-66125000D03*
X103475000Y-66125000D03*
%TD*%
%TO.C,D341*%
X109475000Y-54975000D03*
X108625000Y-54975000D03*
X108625000Y-54125000D03*
X109475000Y-54125000D03*
%TD*%
%TO.C,D294*%
X103475000Y-59475000D03*
X102625000Y-59475000D03*
X102625000Y-58625000D03*
X103475000Y-58625000D03*
%TD*%
%TO.C,D246*%
X97475000Y-65475000D03*
X96625000Y-65475000D03*
X96625000Y-64625000D03*
X97475000Y-64625000D03*
%TD*%
%TO.C,D206*%
X91475000Y-59475000D03*
X90625000Y-59475000D03*
X90625000Y-58625000D03*
X91475000Y-58625000D03*
%TD*%
%TO.C,D238*%
X95975000Y-60975000D03*
X95125000Y-60975000D03*
X95125000Y-60125000D03*
X95975000Y-60125000D03*
%TD*%
D11*
%TO.C,D48*%
X92125000Y-42125000D03*
X92975000Y-42125000D03*
X92975000Y-42975000D03*
X92125000Y-42975000D03*
%TD*%
%TO.C,D13*%
X96625000Y-39125000D03*
X97475000Y-39125000D03*
X97475000Y-39975000D03*
X96625000Y-39975000D03*
%TD*%
D10*
%TO.C,D387*%
X116975000Y-68475000D03*
X116125000Y-68475000D03*
X116125000Y-67625000D03*
X116975000Y-67625000D03*
%TD*%
%TO.C,D391*%
X116975000Y-62475000D03*
X116125000Y-62475000D03*
X116125000Y-61625000D03*
X116975000Y-61625000D03*
%TD*%
%TO.C,D257*%
X98975000Y-65475000D03*
X98125000Y-65475000D03*
X98125000Y-64625000D03*
X98975000Y-64625000D03*
%TD*%
D11*
%TO.C,D47*%
X92125000Y-40625000D03*
X92975000Y-40625000D03*
X92975000Y-41475000D03*
X92125000Y-41475000D03*
%TD*%
D10*
%TO.C,D320*%
X107975000Y-69975000D03*
X107125000Y-69975000D03*
X107125000Y-69125000D03*
X107975000Y-69125000D03*
%TD*%
D11*
%TO.C,D96*%
X104125000Y-48125000D03*
X104975000Y-48125000D03*
X104975000Y-48975000D03*
X104125000Y-48975000D03*
%TD*%
D10*
%TO.C,D201*%
X91475000Y-66975000D03*
X90625000Y-66975000D03*
X90625000Y-66125000D03*
X91475000Y-66125000D03*
%TD*%
%TO.C,D241*%
X95975000Y-56475000D03*
X95125000Y-56475000D03*
X95125000Y-55625000D03*
X95975000Y-55625000D03*
%TD*%
D11*
%TO.C,D178*%
X110125000Y-39125000D03*
X110975000Y-39125000D03*
X110975000Y-39975000D03*
X110125000Y-39975000D03*
%TD*%
%TO.C,D152*%
X114625000Y-49625000D03*
X115475000Y-49625000D03*
X115475000Y-50475000D03*
X114625000Y-50475000D03*
%TD*%
D10*
%TO.C,D264*%
X98975000Y-54975000D03*
X98125000Y-54975000D03*
X98125000Y-54125000D03*
X98975000Y-54125000D03*
%TD*%
D11*
%TO.C,D1*%
X98125000Y-37625000D03*
X98975000Y-37625000D03*
X98975000Y-38475000D03*
X98125000Y-38475000D03*
%TD*%
%TO.C,D130*%
X99625000Y-49625000D03*
X100475000Y-49625000D03*
X100475000Y-50475000D03*
X99625000Y-50475000D03*
%TD*%
D10*
%TO.C,D311*%
X106475000Y-66975000D03*
X105625000Y-66975000D03*
X105625000Y-66125000D03*
X106475000Y-66125000D03*
%TD*%
%TO.C,D288*%
X103475000Y-68475000D03*
X102625000Y-68475000D03*
X102625000Y-67625000D03*
X103475000Y-67625000D03*
%TD*%
D11*
%TO.C,D111*%
X101125000Y-37625000D03*
X101975000Y-37625000D03*
X101975000Y-38475000D03*
X101125000Y-38475000D03*
%TD*%
%TO.C,D153*%
X114625000Y-51125000D03*
X115475000Y-51125000D03*
X115475000Y-51975000D03*
X114625000Y-51975000D03*
%TD*%
%TO.C,D54*%
X92125000Y-51125000D03*
X92975000Y-51125000D03*
X92975000Y-51975000D03*
X92125000Y-51975000D03*
%TD*%
D10*
%TO.C,D328*%
X107975000Y-57975000D03*
X107125000Y-57975000D03*
X107125000Y-57125000D03*
X107975000Y-57125000D03*
%TD*%
%TO.C,D317*%
X106475000Y-57975000D03*
X105625000Y-57975000D03*
X105625000Y-57125000D03*
X106475000Y-57125000D03*
%TD*%
D11*
%TO.C,D127*%
X99625000Y-45125000D03*
X100475000Y-45125000D03*
X100475000Y-45975000D03*
X99625000Y-45975000D03*
%TD*%
%TO.C,D22*%
X96625000Y-52625000D03*
X97475000Y-52625000D03*
X97475000Y-53475000D03*
X96625000Y-53475000D03*
%TD*%
%TO.C,D66*%
X90625000Y-52625000D03*
X91475000Y-52625000D03*
X91475000Y-53475000D03*
X90625000Y-53475000D03*
%TD*%
D10*
%TO.C,D239*%
X95975000Y-59475000D03*
X95125000Y-59475000D03*
X95125000Y-58625000D03*
X95975000Y-58625000D03*
%TD*%
%TO.C,D301*%
X104975000Y-65475000D03*
X104125000Y-65475000D03*
X104125000Y-64625000D03*
X104975000Y-64625000D03*
%TD*%
D11*
%TO.C,D158*%
X113125000Y-42125000D03*
X113975000Y-42125000D03*
X113975000Y-42975000D03*
X113125000Y-42975000D03*
%TD*%
D10*
%TO.C,D373*%
X113975000Y-56475000D03*
X113125000Y-56475000D03*
X113125000Y-55625000D03*
X113975000Y-55625000D03*
%TD*%
D11*
%TO.C,D64*%
X90625000Y-49625000D03*
X91475000Y-49625000D03*
X91475000Y-50475000D03*
X90625000Y-50475000D03*
%TD*%
%TO.C,D134*%
X116125000Y-39125000D03*
X116975000Y-39125000D03*
X116975000Y-39975000D03*
X116125000Y-39975000D03*
%TD*%
%TO.C,D5*%
X98125000Y-43625000D03*
X98975000Y-43625000D03*
X98975000Y-44475000D03*
X98125000Y-44475000D03*
%TD*%
%TO.C,D183*%
X110125000Y-46625000D03*
X110975000Y-46625000D03*
X110975000Y-47475000D03*
X110125000Y-47475000D03*
%TD*%
%TO.C,D87*%
X105625000Y-51125000D03*
X106475000Y-51125000D03*
X106475000Y-51975000D03*
X105625000Y-51975000D03*
%TD*%
D10*
%TO.C,D240*%
X95975000Y-57975000D03*
X95125000Y-57975000D03*
X95125000Y-57125000D03*
X95975000Y-57125000D03*
%TD*%
D11*
%TO.C,D85*%
X105625000Y-48125000D03*
X106475000Y-48125000D03*
X106475000Y-48975000D03*
X105625000Y-48975000D03*
%TD*%
D10*
%TO.C,D393*%
X116975000Y-59475000D03*
X116125000Y-59475000D03*
X116125000Y-58625000D03*
X116975000Y-58625000D03*
%TD*%
D11*
%TO.C,D137*%
X116125000Y-43625000D03*
X116975000Y-43625000D03*
X116975000Y-44475000D03*
X116125000Y-44475000D03*
%TD*%
%TO.C,D187*%
X110125000Y-52625000D03*
X110975000Y-52625000D03*
X110975000Y-53475000D03*
X110125000Y-53475000D03*
%TD*%
%TO.C,D72*%
X107125000Y-45125000D03*
X107975000Y-45125000D03*
X107975000Y-45975000D03*
X107125000Y-45975000D03*
%TD*%
%TO.C,D97*%
X104125000Y-49625000D03*
X104975000Y-49625000D03*
X104975000Y-50475000D03*
X104125000Y-50475000D03*
%TD*%
D10*
%TO.C,D220*%
X92975000Y-54975000D03*
X92125000Y-54975000D03*
X92125000Y-54125000D03*
X92975000Y-54125000D03*
%TD*%
D11*
%TO.C,D94*%
X104125000Y-45125000D03*
X104975000Y-45125000D03*
X104975000Y-45975000D03*
X104125000Y-45975000D03*
%TD*%
D10*
%TO.C,D306*%
X104975000Y-57975000D03*
X104125000Y-57975000D03*
X104125000Y-57125000D03*
X104975000Y-57125000D03*
%TD*%
D11*
%TO.C,D143*%
X116125000Y-52625000D03*
X116975000Y-52625000D03*
X116975000Y-53475000D03*
X116125000Y-53475000D03*
%TD*%
D10*
%TO.C,D344*%
X110975000Y-66975000D03*
X110125000Y-66975000D03*
X110125000Y-66125000D03*
X110975000Y-66125000D03*
%TD*%
%TO.C,D321*%
X107975000Y-68475000D03*
X107125000Y-68475000D03*
X107125000Y-67625000D03*
X107975000Y-67625000D03*
%TD*%
%TO.C,D332*%
X109475000Y-68475000D03*
X108625000Y-68475000D03*
X108625000Y-67625000D03*
X109475000Y-67625000D03*
%TD*%
%TO.C,D319*%
X106475000Y-54975000D03*
X105625000Y-54975000D03*
X105625000Y-54125000D03*
X106475000Y-54125000D03*
%TD*%
%TO.C,D226*%
X94475000Y-62475000D03*
X93625000Y-62475000D03*
X93625000Y-61625000D03*
X94475000Y-61625000D03*
%TD*%
%TO.C,D242*%
X95975000Y-54975000D03*
X95125000Y-54975000D03*
X95125000Y-54125000D03*
X95975000Y-54125000D03*
%TD*%
D11*
%TO.C,D14*%
X96625000Y-40625000D03*
X97475000Y-40625000D03*
X97475000Y-41475000D03*
X96625000Y-41475000D03*
%TD*%
%TO.C,D27*%
X95125000Y-43625000D03*
X95975000Y-43625000D03*
X95975000Y-44475000D03*
X95125000Y-44475000D03*
%TD*%
D10*
%TO.C,D261*%
X98975000Y-59475000D03*
X98125000Y-59475000D03*
X98125000Y-58625000D03*
X98975000Y-58625000D03*
%TD*%
%TO.C,D318*%
X106475000Y-56475000D03*
X105625000Y-56475000D03*
X105625000Y-55625000D03*
X106475000Y-55625000D03*
%TD*%
D11*
%TO.C,D43*%
X93625000Y-51125000D03*
X94475000Y-51125000D03*
X94475000Y-51975000D03*
X93625000Y-51975000D03*
%TD*%
D10*
%TO.C,D209*%
X91475000Y-54975000D03*
X90625000Y-54975000D03*
X90625000Y-54125000D03*
X91475000Y-54125000D03*
%TD*%
%TO.C,D313*%
X106475000Y-63975000D03*
X105625000Y-63975000D03*
X105625000Y-63125000D03*
X106475000Y-63125000D03*
%TD*%
%TO.C,D384*%
X115475000Y-56475000D03*
X114625000Y-56475000D03*
X114625000Y-55625000D03*
X115475000Y-55625000D03*
%TD*%
D11*
%TO.C,D181*%
X110125000Y-43625000D03*
X110975000Y-43625000D03*
X110975000Y-44475000D03*
X110125000Y-44475000D03*
%TD*%
D10*
%TO.C,D343*%
X110975000Y-68475000D03*
X110125000Y-68475000D03*
X110125000Y-67625000D03*
X110975000Y-67625000D03*
%TD*%
D11*
%TO.C,D36*%
X93625000Y-40625000D03*
X94475000Y-40625000D03*
X94475000Y-41475000D03*
X93625000Y-41475000D03*
%TD*%
D10*
%TO.C,D363*%
X112475000Y-54975000D03*
X111625000Y-54975000D03*
X111625000Y-54125000D03*
X112475000Y-54125000D03*
%TD*%
D11*
%TO.C,D74*%
X107125000Y-48125000D03*
X107975000Y-48125000D03*
X107975000Y-48975000D03*
X107125000Y-48975000D03*
%TD*%
D10*
%TO.C,D326*%
X107975000Y-60975000D03*
X107125000Y-60975000D03*
X107125000Y-60125000D03*
X107975000Y-60125000D03*
%TD*%
D11*
%TO.C,D196*%
X108625000Y-49625000D03*
X109475000Y-49625000D03*
X109475000Y-50475000D03*
X108625000Y-50475000D03*
%TD*%
D10*
%TO.C,D340*%
X109475000Y-56475000D03*
X108625000Y-56475000D03*
X108625000Y-55625000D03*
X109475000Y-55625000D03*
%TD*%
%TO.C,D388*%
X116975000Y-66975000D03*
X116125000Y-66975000D03*
X116125000Y-66125000D03*
X116975000Y-66125000D03*
%TD*%
D11*
%TO.C,D49*%
X92125000Y-43625000D03*
X92975000Y-43625000D03*
X92975000Y-44475000D03*
X92125000Y-44475000D03*
%TD*%
D10*
%TO.C,D316*%
X106475000Y-59475000D03*
X105625000Y-59475000D03*
X105625000Y-58625000D03*
X106475000Y-58625000D03*
%TD*%
D11*
%TO.C,D119*%
X101125000Y-49625000D03*
X101975000Y-49625000D03*
X101975000Y-50475000D03*
X101125000Y-50475000D03*
%TD*%
%TO.C,D104*%
X102625000Y-43625000D03*
X103475000Y-43625000D03*
X103475000Y-44475000D03*
X102625000Y-44475000D03*
%TD*%
%TO.C,D170*%
X111625000Y-43625000D03*
X112475000Y-43625000D03*
X112475000Y-44475000D03*
X111625000Y-44475000D03*
%TD*%
D10*
%TO.C,D235*%
X95975000Y-65475000D03*
X95125000Y-65475000D03*
X95125000Y-64625000D03*
X95975000Y-64625000D03*
%TD*%
%TO.C,D287*%
X103475000Y-69975000D03*
X102625000Y-69975000D03*
X102625000Y-69125000D03*
X103475000Y-69125000D03*
%TD*%
D11*
%TO.C,D69*%
X107125000Y-40625000D03*
X107975000Y-40625000D03*
X107975000Y-41475000D03*
X107125000Y-41475000D03*
%TD*%
D10*
%TO.C,D237*%
X95975000Y-62475000D03*
X95125000Y-62475000D03*
X95125000Y-61625000D03*
X95975000Y-61625000D03*
%TD*%
D11*
%TO.C,D155*%
X113125000Y-37625000D03*
X113975000Y-37625000D03*
X113975000Y-38475000D03*
X113125000Y-38475000D03*
%TD*%
%TO.C,D95*%
X104125000Y-46625000D03*
X104975000Y-46625000D03*
X104975000Y-47475000D03*
X104125000Y-47475000D03*
%TD*%
%TO.C,D21*%
X96625000Y-51125000D03*
X97475000Y-51125000D03*
X97475000Y-51975000D03*
X96625000Y-51975000D03*
%TD*%
D10*
%TO.C,D371*%
X113975000Y-59475000D03*
X113125000Y-59475000D03*
X113125000Y-58625000D03*
X113975000Y-58625000D03*
%TD*%
%TO.C,D273*%
X100475000Y-57975000D03*
X99625000Y-57975000D03*
X99625000Y-57125000D03*
X100475000Y-57125000D03*
%TD*%
D11*
%TO.C,D148*%
X114625000Y-43625000D03*
X115475000Y-43625000D03*
X115475000Y-44475000D03*
X114625000Y-44475000D03*
%TD*%
D10*
%TO.C,D291*%
X103475000Y-63975000D03*
X102625000Y-63975000D03*
X102625000Y-63125000D03*
X103475000Y-63125000D03*
%TD*%
%TO.C,D199*%
X91475000Y-69975000D03*
X90625000Y-69975000D03*
X90625000Y-69125000D03*
X91475000Y-69125000D03*
%TD*%
%TO.C,D210*%
X92975000Y-69975000D03*
X92125000Y-69975000D03*
X92125000Y-69125000D03*
X92975000Y-69125000D03*
%TD*%
%TO.C,D346*%
X110975000Y-63975000D03*
X110125000Y-63975000D03*
X110125000Y-63125000D03*
X110975000Y-63125000D03*
%TD*%
%TO.C,D360*%
X112475000Y-59475000D03*
X111625000Y-59475000D03*
X111625000Y-58625000D03*
X112475000Y-58625000D03*
%TD*%
D11*
%TO.C,D44*%
X93625000Y-52625000D03*
X94475000Y-52625000D03*
X94475000Y-53475000D03*
X93625000Y-53475000D03*
%TD*%
D10*
%TO.C,D271*%
X100475000Y-60975000D03*
X99625000Y-60975000D03*
X99625000Y-60125000D03*
X100475000Y-60125000D03*
%TD*%
D11*
%TO.C,D164*%
X113125000Y-51125000D03*
X113975000Y-51125000D03*
X113975000Y-51975000D03*
X113125000Y-51975000D03*
%TD*%
D10*
%TO.C,D367*%
X113975000Y-65475000D03*
X113125000Y-65475000D03*
X113125000Y-64625000D03*
X113975000Y-64625000D03*
%TD*%
D11*
%TO.C,D55*%
X92125000Y-52625000D03*
X92975000Y-52625000D03*
X92975000Y-53475000D03*
X92125000Y-53475000D03*
%TD*%
%TO.C,D106*%
X102625000Y-46625000D03*
X103475000Y-46625000D03*
X103475000Y-47475000D03*
X102625000Y-47475000D03*
%TD*%
%TO.C,D129*%
X99625000Y-48125000D03*
X100475000Y-48125000D03*
X100475000Y-48975000D03*
X99625000Y-48975000D03*
%TD*%
%TO.C,D166*%
X111625000Y-37625000D03*
X112475000Y-37625000D03*
X112475000Y-38475000D03*
X111625000Y-38475000D03*
%TD*%
%TO.C,D78*%
X105625000Y-37625000D03*
X106475000Y-37625000D03*
X106475000Y-38475000D03*
X105625000Y-38475000D03*
%TD*%
D10*
%TO.C,D231*%
X94475000Y-54975000D03*
X93625000Y-54975000D03*
X93625000Y-54125000D03*
X94475000Y-54125000D03*
%TD*%
%TO.C,D385*%
X115475000Y-54975000D03*
X114625000Y-54975000D03*
X114625000Y-54125000D03*
X115475000Y-54125000D03*
%TD*%
D11*
%TO.C,D67*%
X107125000Y-37625000D03*
X107975000Y-37625000D03*
X107975000Y-38475000D03*
X107125000Y-38475000D03*
%TD*%
D10*
%TO.C,D212*%
X92975000Y-66975000D03*
X92125000Y-66975000D03*
X92125000Y-66125000D03*
X92975000Y-66125000D03*
%TD*%
%TO.C,D349*%
X110975000Y-59475000D03*
X110125000Y-59475000D03*
X110125000Y-58625000D03*
X110975000Y-58625000D03*
%TD*%
D11*
%TO.C,D30*%
X95125000Y-48125000D03*
X95975000Y-48125000D03*
X95975000Y-48975000D03*
X95125000Y-48975000D03*
%TD*%
%TO.C,D38*%
X93625000Y-43625000D03*
X94475000Y-43625000D03*
X94475000Y-44475000D03*
X93625000Y-44475000D03*
%TD*%
D10*
%TO.C,D228*%
X94475000Y-59475000D03*
X93625000Y-59475000D03*
X93625000Y-58625000D03*
X94475000Y-58625000D03*
%TD*%
D11*
%TO.C,D68*%
X107125000Y-39125000D03*
X107975000Y-39125000D03*
X107975000Y-39975000D03*
X107125000Y-39975000D03*
%TD*%
D10*
%TO.C,D254*%
X98975000Y-69975000D03*
X98125000Y-69975000D03*
X98125000Y-69125000D03*
X98975000Y-69125000D03*
%TD*%
D11*
%TO.C,D191*%
X108625000Y-42125000D03*
X109475000Y-42125000D03*
X109475000Y-42975000D03*
X108625000Y-42975000D03*
%TD*%
%TO.C,D80*%
X105625000Y-40625000D03*
X106475000Y-40625000D03*
X106475000Y-41475000D03*
X105625000Y-41475000D03*
%TD*%
%TO.C,D198*%
X108625000Y-52625000D03*
X109475000Y-52625000D03*
X109475000Y-53475000D03*
X108625000Y-53475000D03*
%TD*%
D10*
%TO.C,D211*%
X92975000Y-68475000D03*
X92125000Y-68475000D03*
X92125000Y-67625000D03*
X92975000Y-67625000D03*
%TD*%
%TO.C,D260*%
X98975000Y-60975000D03*
X98125000Y-60975000D03*
X98125000Y-60125000D03*
X98975000Y-60125000D03*
%TD*%
%TO.C,D342*%
X110975000Y-69975000D03*
X110125000Y-69975000D03*
X110125000Y-69125000D03*
X110975000Y-69125000D03*
%TD*%
%TO.C,D357*%
X112475000Y-63975000D03*
X111625000Y-63975000D03*
X111625000Y-63125000D03*
X112475000Y-63125000D03*
%TD*%
D11*
%TO.C,D4*%
X98125000Y-42125000D03*
X98975000Y-42125000D03*
X98975000Y-42975000D03*
X98125000Y-42975000D03*
%TD*%
%TO.C,D51*%
X92125000Y-46625000D03*
X92975000Y-46625000D03*
X92975000Y-47475000D03*
X92125000Y-47475000D03*
%TD*%
%TO.C,D60*%
X90625000Y-43625000D03*
X91475000Y-43625000D03*
X91475000Y-44475000D03*
X90625000Y-44475000D03*
%TD*%
%TO.C,D15*%
X96625000Y-42125000D03*
X97475000Y-42125000D03*
X97475000Y-42975000D03*
X96625000Y-42975000D03*
%TD*%
%TO.C,D17*%
X96625000Y-45125000D03*
X97475000Y-45125000D03*
X97475000Y-45975000D03*
X96625000Y-45975000D03*
%TD*%
%TO.C,D103*%
X102625000Y-42125000D03*
X103475000Y-42125000D03*
X103475000Y-42975000D03*
X102625000Y-42975000D03*
%TD*%
%TO.C,D28*%
X95125000Y-45125000D03*
X95975000Y-45125000D03*
X95975000Y-45975000D03*
X95125000Y-45975000D03*
%TD*%
D10*
%TO.C,D383*%
X115475000Y-57975000D03*
X114625000Y-57975000D03*
X114625000Y-57125000D03*
X115475000Y-57125000D03*
%TD*%
D11*
%TO.C,D140*%
X116125000Y-48125000D03*
X116975000Y-48125000D03*
X116975000Y-48975000D03*
X116125000Y-48975000D03*
%TD*%
D10*
%TO.C,D369*%
X113975000Y-62475000D03*
X113125000Y-62475000D03*
X113125000Y-61625000D03*
X113975000Y-61625000D03*
%TD*%
D11*
%TO.C,D24*%
X95125000Y-39125000D03*
X95975000Y-39125000D03*
X95975000Y-39975000D03*
X95125000Y-39975000D03*
%TD*%
D10*
%TO.C,D380*%
X115475000Y-62475000D03*
X114625000Y-62475000D03*
X114625000Y-61625000D03*
X115475000Y-61625000D03*
%TD*%
%TO.C,D269*%
X100475000Y-63975000D03*
X99625000Y-63975000D03*
X99625000Y-63125000D03*
X100475000Y-63125000D03*
%TD*%
%TO.C,D227*%
X94475000Y-60975000D03*
X93625000Y-60975000D03*
X93625000Y-60125000D03*
X94475000Y-60125000D03*
%TD*%
D11*
%TO.C,D117*%
X101125000Y-46625000D03*
X101975000Y-46625000D03*
X101975000Y-47475000D03*
X101125000Y-47475000D03*
%TD*%
%TO.C,D82*%
X105625000Y-43625000D03*
X106475000Y-43625000D03*
X106475000Y-44475000D03*
X105625000Y-44475000D03*
%TD*%
%TO.C,D192*%
X108625000Y-43625000D03*
X109475000Y-43625000D03*
X109475000Y-44475000D03*
X108625000Y-44475000D03*
%TD*%
%TO.C,D180*%
X110125000Y-42125000D03*
X110975000Y-42125000D03*
X110975000Y-42975000D03*
X110125000Y-42975000D03*
%TD*%
D10*
%TO.C,D370*%
X113975000Y-60975000D03*
X113125000Y-60975000D03*
X113125000Y-60125000D03*
X113975000Y-60125000D03*
%TD*%
D11*
%TO.C,D11*%
X98125000Y-52625000D03*
X98975000Y-52625000D03*
X98975000Y-53475000D03*
X98125000Y-53475000D03*
%TD*%
%TO.C,D52*%
X92125000Y-48125000D03*
X92975000Y-48125000D03*
X92975000Y-48975000D03*
X92125000Y-48975000D03*
%TD*%
D10*
%TO.C,D374*%
X113975000Y-54975000D03*
X113125000Y-54975000D03*
X113125000Y-54125000D03*
X113975000Y-54125000D03*
%TD*%
D11*
%TO.C,D113*%
X101125000Y-40625000D03*
X101975000Y-40625000D03*
X101975000Y-41475000D03*
X101125000Y-41475000D03*
%TD*%
D10*
%TO.C,D350*%
X110975000Y-57975000D03*
X110125000Y-57975000D03*
X110125000Y-57125000D03*
X110975000Y-57125000D03*
%TD*%
D11*
%TO.C,D101*%
X102625000Y-39125000D03*
X103475000Y-39125000D03*
X103475000Y-39975000D03*
X102625000Y-39975000D03*
%TD*%
%TO.C,D120*%
X101125000Y-51125000D03*
X101975000Y-51125000D03*
X101975000Y-51975000D03*
X101125000Y-51975000D03*
%TD*%
%TO.C,D45*%
X92125000Y-37625000D03*
X92975000Y-37625000D03*
X92975000Y-38475000D03*
X92125000Y-38475000D03*
%TD*%
%TO.C,D9*%
X98125000Y-49625000D03*
X98975000Y-49625000D03*
X98975000Y-50475000D03*
X98125000Y-50475000D03*
%TD*%
D10*
%TO.C,D236*%
X95975000Y-63975000D03*
X95125000Y-63975000D03*
X95125000Y-63125000D03*
X95975000Y-63125000D03*
%TD*%
%TO.C,D377*%
X115475000Y-66975000D03*
X114625000Y-66975000D03*
X114625000Y-66125000D03*
X115475000Y-66125000D03*
%TD*%
D11*
%TO.C,D126*%
X99625000Y-43625000D03*
X100475000Y-43625000D03*
X100475000Y-44475000D03*
X99625000Y-44475000D03*
%TD*%
D10*
%TO.C,D203*%
X91475000Y-63975000D03*
X90625000Y-63975000D03*
X90625000Y-63125000D03*
X91475000Y-63125000D03*
%TD*%
%TO.C,D298*%
X104975000Y-69975000D03*
X104125000Y-69975000D03*
X104125000Y-69125000D03*
X104975000Y-69125000D03*
%TD*%
D11*
%TO.C,D73*%
X107125000Y-46625000D03*
X107975000Y-46625000D03*
X107975000Y-47475000D03*
X107125000Y-47475000D03*
%TD*%
D10*
%TO.C,D200*%
X91475000Y-68475000D03*
X90625000Y-68475000D03*
X90625000Y-67625000D03*
X91475000Y-67625000D03*
%TD*%
%TO.C,D263*%
X98975000Y-56475000D03*
X98125000Y-56475000D03*
X98125000Y-55625000D03*
X98975000Y-55625000D03*
%TD*%
D11*
%TO.C,D7*%
X98125000Y-46625000D03*
X98975000Y-46625000D03*
X98975000Y-47475000D03*
X98125000Y-47475000D03*
%TD*%
%TO.C,D172*%
X111625000Y-46625000D03*
X112475000Y-46625000D03*
X112475000Y-47475000D03*
X111625000Y-47475000D03*
%TD*%
%TO.C,D116*%
X101125000Y-45125000D03*
X101975000Y-45125000D03*
X101975000Y-45975000D03*
X101125000Y-45975000D03*
%TD*%
%TO.C,D31*%
X95125000Y-49625000D03*
X95975000Y-49625000D03*
X95975000Y-50475000D03*
X95125000Y-50475000D03*
%TD*%
D10*
%TO.C,D207*%
X91475000Y-57975000D03*
X90625000Y-57975000D03*
X90625000Y-57125000D03*
X91475000Y-57125000D03*
%TD*%
%TO.C,D358*%
X112475000Y-62475000D03*
X111625000Y-62475000D03*
X111625000Y-61625000D03*
X112475000Y-61625000D03*
%TD*%
D11*
%TO.C,D145*%
X114625000Y-39125000D03*
X115475000Y-39125000D03*
X115475000Y-39975000D03*
X114625000Y-39975000D03*
%TD*%
%TO.C,D146*%
X114625000Y-40625000D03*
X115475000Y-40625000D03*
X115475000Y-41475000D03*
X114625000Y-41475000D03*
%TD*%
D10*
%TO.C,D381*%
X115475000Y-60975000D03*
X114625000Y-60975000D03*
X114625000Y-60125000D03*
X115475000Y-60125000D03*
%TD*%
D11*
%TO.C,D132*%
X99625000Y-52625000D03*
X100475000Y-52625000D03*
X100475000Y-53475000D03*
X99625000Y-53475000D03*
%TD*%
D10*
%TO.C,D312*%
X106475000Y-65475000D03*
X105625000Y-65475000D03*
X105625000Y-64625000D03*
X106475000Y-64625000D03*
%TD*%
D11*
%TO.C,D35*%
X93625000Y-39125000D03*
X94475000Y-39125000D03*
X94475000Y-39975000D03*
X93625000Y-39975000D03*
%TD*%
%TO.C,D154*%
X114625000Y-52625000D03*
X115475000Y-52625000D03*
X115475000Y-53475000D03*
X114625000Y-53475000D03*
%TD*%
%TO.C,D98*%
X104125000Y-51125000D03*
X104975000Y-51125000D03*
X104975000Y-51975000D03*
X104125000Y-51975000D03*
%TD*%
%TO.C,D149*%
X114625000Y-45125000D03*
X115475000Y-45125000D03*
X115475000Y-45975000D03*
X114625000Y-45975000D03*
%TD*%
%TO.C,D84*%
X105625000Y-46625000D03*
X106475000Y-46625000D03*
X106475000Y-47475000D03*
X105625000Y-47475000D03*
%TD*%
D10*
%TO.C,D304*%
X104975000Y-60975000D03*
X104125000Y-60975000D03*
X104125000Y-60125000D03*
X104975000Y-60125000D03*
%TD*%
D11*
%TO.C,D99*%
X104125000Y-52625000D03*
X104975000Y-52625000D03*
X104975000Y-53475000D03*
X104125000Y-53475000D03*
%TD*%
%TO.C,D160*%
X113125000Y-45125000D03*
X113975000Y-45125000D03*
X113975000Y-45975000D03*
X113125000Y-45975000D03*
%TD*%
D10*
%TO.C,D216*%
X92975000Y-60975000D03*
X92125000Y-60975000D03*
X92125000Y-60125000D03*
X92975000Y-60125000D03*
%TD*%
%TO.C,D223*%
X94475000Y-66975000D03*
X93625000Y-66975000D03*
X93625000Y-66125000D03*
X94475000Y-66125000D03*
%TD*%
%TO.C,D225*%
X94475000Y-63975000D03*
X93625000Y-63975000D03*
X93625000Y-63125000D03*
X94475000Y-63125000D03*
%TD*%
%TO.C,D232*%
X95975000Y-69975000D03*
X95125000Y-69975000D03*
X95125000Y-69125000D03*
X95975000Y-69125000D03*
%TD*%
D11*
%TO.C,D112*%
X101125000Y-39125000D03*
X101975000Y-39125000D03*
X101975000Y-39975000D03*
X101125000Y-39975000D03*
%TD*%
%TO.C,D190*%
X108625000Y-40625000D03*
X109475000Y-40625000D03*
X109475000Y-41475000D03*
X108625000Y-41475000D03*
%TD*%
%TO.C,D139*%
X116125000Y-46625000D03*
X116975000Y-46625000D03*
X116975000Y-47475000D03*
X116125000Y-47475000D03*
%TD*%
D10*
%TO.C,D282*%
X101975000Y-60975000D03*
X101125000Y-60975000D03*
X101125000Y-60125000D03*
X101975000Y-60125000D03*
%TD*%
%TO.C,D224*%
X94475000Y-65475000D03*
X93625000Y-65475000D03*
X93625000Y-64625000D03*
X94475000Y-64625000D03*
%TD*%
%TO.C,D368*%
X113975000Y-63975000D03*
X113125000Y-63975000D03*
X113125000Y-63125000D03*
X113975000Y-63125000D03*
%TD*%
D11*
%TO.C,D91*%
X104125000Y-40625000D03*
X104975000Y-40625000D03*
X104975000Y-41475000D03*
X104125000Y-41475000D03*
%TD*%
D10*
%TO.C,D351*%
X110975000Y-56475000D03*
X110125000Y-56475000D03*
X110125000Y-55625000D03*
X110975000Y-55625000D03*
%TD*%
D11*
%TO.C,D168*%
X111625000Y-40625000D03*
X112475000Y-40625000D03*
X112475000Y-41475000D03*
X111625000Y-41475000D03*
%TD*%
%TO.C,D175*%
X111625000Y-51125000D03*
X112475000Y-51125000D03*
X112475000Y-51975000D03*
X111625000Y-51975000D03*
%TD*%
%TO.C,D163*%
X113125000Y-49625000D03*
X113975000Y-49625000D03*
X113975000Y-50475000D03*
X113125000Y-50475000D03*
%TD*%
D10*
%TO.C,D249*%
X97475000Y-60975000D03*
X96625000Y-60975000D03*
X96625000Y-60125000D03*
X97475000Y-60125000D03*
%TD*%
%TO.C,D322*%
X107975000Y-66975000D03*
X107125000Y-66975000D03*
X107125000Y-66125000D03*
X107975000Y-66125000D03*
%TD*%
D11*
%TO.C,D92*%
X104125000Y-42125000D03*
X104975000Y-42125000D03*
X104975000Y-42975000D03*
X104125000Y-42975000D03*
%TD*%
%TO.C,D25*%
X95125000Y-40625000D03*
X95975000Y-40625000D03*
X95975000Y-41475000D03*
X95125000Y-41475000D03*
%TD*%
D10*
%TO.C,D336*%
X109475000Y-62475000D03*
X108625000Y-62475000D03*
X108625000Y-61625000D03*
X109475000Y-61625000D03*
%TD*%
%TO.C,D379*%
X115475000Y-63975000D03*
X114625000Y-63975000D03*
X114625000Y-63125000D03*
X115475000Y-63125000D03*
%TD*%
%TO.C,D252*%
X97475000Y-56475000D03*
X96625000Y-56475000D03*
X96625000Y-55625000D03*
X97475000Y-55625000D03*
%TD*%
%TO.C,D354*%
X112475000Y-68475000D03*
X111625000Y-68475000D03*
X111625000Y-67625000D03*
X112475000Y-67625000D03*
%TD*%
%TO.C,D229*%
X94475000Y-57975000D03*
X93625000Y-57975000D03*
X93625000Y-57125000D03*
X94475000Y-57125000D03*
%TD*%
D11*
%TO.C,D23*%
X95125000Y-37625000D03*
X95975000Y-37625000D03*
X95975000Y-38475000D03*
X95125000Y-38475000D03*
%TD*%
D10*
%TO.C,D345*%
X110975000Y-65475000D03*
X110125000Y-65475000D03*
X110125000Y-64625000D03*
X110975000Y-64625000D03*
%TD*%
%TO.C,D266*%
X100475000Y-68475000D03*
X99625000Y-68475000D03*
X99625000Y-67625000D03*
X100475000Y-67625000D03*
%TD*%
D11*
%TO.C,D197*%
X108625000Y-51125000D03*
X109475000Y-51125000D03*
X109475000Y-51975000D03*
X108625000Y-51975000D03*
%TD*%
D10*
%TO.C,D355*%
X112475000Y-66975000D03*
X111625000Y-66975000D03*
X111625000Y-66125000D03*
X112475000Y-66125000D03*
%TD*%
%TO.C,D267*%
X100475000Y-66975000D03*
X99625000Y-66975000D03*
X99625000Y-66125000D03*
X100475000Y-66125000D03*
%TD*%
D11*
%TO.C,D184*%
X110125000Y-48125000D03*
X110975000Y-48125000D03*
X110975000Y-48975000D03*
X110125000Y-48975000D03*
%TD*%
%TO.C,D124*%
X99625000Y-40625000D03*
X100475000Y-40625000D03*
X100475000Y-41475000D03*
X99625000Y-41475000D03*
%TD*%
%TO.C,D179*%
X110125000Y-40625000D03*
X110975000Y-40625000D03*
X110975000Y-41475000D03*
X110125000Y-41475000D03*
%TD*%
D10*
%TO.C,D244*%
X97475000Y-68475000D03*
X96625000Y-68475000D03*
X96625000Y-67625000D03*
X97475000Y-67625000D03*
%TD*%
%TO.C,D293*%
X103475000Y-60975000D03*
X102625000Y-60975000D03*
X102625000Y-60125000D03*
X103475000Y-60125000D03*
%TD*%
D11*
%TO.C,D156*%
X113125000Y-39125000D03*
X113975000Y-39125000D03*
X113975000Y-39975000D03*
X113125000Y-39975000D03*
%TD*%
%TO.C,D188*%
X108625000Y-37625000D03*
X109475000Y-37625000D03*
X109475000Y-38475000D03*
X108625000Y-38475000D03*
%TD*%
%TO.C,D88*%
X105625000Y-52625000D03*
X106475000Y-52625000D03*
X106475000Y-53475000D03*
X105625000Y-53475000D03*
%TD*%
%TO.C,D131*%
X99625000Y-51125000D03*
X100475000Y-51125000D03*
X100475000Y-51975000D03*
X99625000Y-51975000D03*
%TD*%
%TO.C,D8*%
X98125000Y-48125000D03*
X98975000Y-48125000D03*
X98975000Y-48975000D03*
X98125000Y-48975000D03*
%TD*%
M02*
