%TF.GenerationSoftware,KiCad,Pcbnew,7.0.1*%
%TF.CreationDate,2023-04-05T13:45:37+02:00*%
%TF.ProjectId,LED_Driver_Evaluation,4c45445f-4472-4697-9665-725f4576616c,1.0*%
%TF.SameCoordinates,Original*%
%TF.FileFunction,Copper,L2,Bot*%
%TF.FilePolarity,Positive*%
%FSLAX46Y46*%
G04 Gerber Fmt 4.6, Leading zero omitted, Abs format (unit mm)*
G04 Created by KiCad (PCBNEW 7.0.1) date 2023-04-05 13:45:37*
%MOMM*%
%LPD*%
G01*
G04 APERTURE LIST*
%TA.AperFunction,ComponentPad*%
%ADD10R,1.700000X1.700000*%
%TD*%
%TA.AperFunction,ComponentPad*%
%ADD11O,1.700000X1.700000*%
%TD*%
%TA.AperFunction,ViaPad*%
%ADD12C,0.420000*%
%TD*%
%TA.AperFunction,Conductor*%
%ADD13C,0.127000*%
%TD*%
%TA.AperFunction,Conductor*%
%ADD14C,0.250000*%
%TD*%
G04 APERTURE END LIST*
D10*
%TO.P,J1,1,Pin_1*%
%TO.N,/SYNC*%
X113900000Y-58610000D03*
D11*
%TO.P,J1,2,Pin_2*%
%TO.N,/MISO*%
X113900000Y-61150000D03*
%TO.P,J1,3,Pin_3*%
%TO.N,/MOSI*%
X113900000Y-63690000D03*
%TO.P,J1,4,Pin_4*%
%TO.N,/SCK*%
X113900000Y-66230000D03*
%TO.P,J1,5,Pin_5*%
%TO.N,/SDB*%
X113900000Y-68770000D03*
%TO.P,J1,6,Pin_6*%
%TO.N,/CS*%
X113900000Y-71310000D03*
%TO.P,J1,7,Pin_7*%
%TO.N,/VCC*%
X113900000Y-73850000D03*
%TO.P,J1,8,Pin_8*%
%TO.N,GND*%
X113900000Y-76390000D03*
%TD*%
D12*
%TO.N,/VCC*%
X131825000Y-67200000D03*
X125736967Y-71386967D03*
X123675000Y-69575000D03*
X124540793Y-70715335D03*
X124587319Y-71575000D03*
%TO.N,GND*%
X130850000Y-63150000D03*
X124500000Y-68400000D03*
X124200000Y-68850000D03*
X127200000Y-69900000D03*
X127400000Y-69250000D03*
X126175000Y-69025000D03*
X130900000Y-63850000D03*
X126900000Y-68700000D03*
X126625000Y-69500000D03*
%TO.N,/SDB*%
X117650000Y-66800000D03*
X130875000Y-66325000D03*
X123575000Y-66800000D03*
X118050000Y-68500000D03*
%TO.N,Net-(D1-A)*%
X146125000Y-60575000D03*
X136125000Y-60575000D03*
X138125000Y-60575000D03*
X125069929Y-72757071D03*
X140125000Y-60575000D03*
X144125000Y-60575000D03*
X142125000Y-60575000D03*
%TO.N,Net-(D13-A)*%
X145725000Y-62575000D03*
X141725000Y-62575000D03*
X139725000Y-62575000D03*
X124985319Y-72109603D03*
X137725000Y-62575000D03*
X143725000Y-62575000D03*
X135725000Y-62575000D03*
%TO.N,Net-(D14-A)*%
X137725000Y-64575000D03*
X135725000Y-64575000D03*
X141725000Y-64575000D03*
X139725000Y-64575000D03*
X143725000Y-64575000D03*
X145725000Y-64575000D03*
X126000289Y-72798289D03*
%TO.N,Net-(D15-A)*%
X145725000Y-66575000D03*
X143725000Y-66575000D03*
X132798000Y-65684804D03*
X125117696Y-70538696D03*
X141725000Y-66575000D03*
X131632838Y-64204304D03*
X135725000Y-66575000D03*
X139725000Y-66575000D03*
X137725000Y-66575000D03*
%TO.N,Net-(D16-A)*%
X126400000Y-73525000D03*
X135725000Y-68575000D03*
X145725000Y-68575000D03*
X128325000Y-72652000D03*
X139725000Y-68575000D03*
X143725000Y-68575000D03*
X137725000Y-68575000D03*
X128050000Y-73525000D03*
X141725000Y-68575000D03*
%TO.N,Net-(D17-A)*%
X143725000Y-70575000D03*
X145725000Y-70575000D03*
X139725000Y-70575000D03*
X141725000Y-70575000D03*
X135725000Y-70575000D03*
X137725000Y-70575000D03*
X133275000Y-71800000D03*
X131525000Y-71775000D03*
X124275000Y-72525000D03*
%TO.N,Net-(D18-A)*%
X126900000Y-73050000D03*
X141725000Y-72575000D03*
X137725000Y-72575000D03*
X139725000Y-72575000D03*
X143725000Y-72575000D03*
X145725000Y-72575000D03*
X135725000Y-72575000D03*
%TO.N,Net-(D19-A)*%
X139725000Y-74575000D03*
X145725000Y-74575000D03*
X135725000Y-74575000D03*
X123700000Y-73850000D03*
X141725000Y-74575000D03*
X137725000Y-74575000D03*
X143725000Y-74575000D03*
%TO.N,Net-(D20-A)*%
X141725000Y-76575000D03*
X134450000Y-76600000D03*
X143725000Y-76575000D03*
X139725000Y-76575000D03*
X145725000Y-76575000D03*
X135725000Y-76575000D03*
X137725000Y-76575000D03*
%TO.N,Net-(D10-A)*%
X139725000Y-78575000D03*
X145725000Y-78575000D03*
X141725000Y-78575000D03*
X143725000Y-78575000D03*
X134700000Y-78575000D03*
X137725000Y-78575000D03*
X135725000Y-78575000D03*
%TO.N,Net-(D11-A)*%
X143725000Y-80575000D03*
X137725000Y-80575000D03*
X145725000Y-80575000D03*
X141725000Y-80575000D03*
X135725000Y-80575000D03*
X139725000Y-80575000D03*
X129725000Y-75750000D03*
%TO.N,/MOSI*%
X130155954Y-65830954D03*
X123575000Y-65625000D03*
%TO.N,/SCK*%
X123575000Y-66225000D03*
X130775000Y-65600000D03*
%TO.N,/CS*%
X130984652Y-66858345D03*
X123575000Y-67375000D03*
%TO.N,/MISO*%
X123575000Y-65050000D03*
X131000000Y-64925000D03*
%TO.N,/SYNC*%
X123600000Y-64450000D03*
X129300000Y-64600000D03*
%TO.N,Net-(U1-CS18)*%
X130450000Y-74125000D03*
X129856429Y-53493571D03*
%TO.N,Net-(U1-CS17)*%
X129300000Y-53500000D03*
X131025000Y-75075000D03*
%TO.N,Net-(U1-CS16)*%
X130437751Y-53512036D03*
X131350000Y-73525000D03*
%TO.N,Net-(U1-CS15)*%
X130600000Y-71377000D03*
X131950000Y-69025000D03*
X133256071Y-62581071D03*
X132425000Y-53475000D03*
%TO.N,Net-(U1-CS14)*%
X131400000Y-71175000D03*
X133650000Y-63312857D03*
X132599288Y-64400711D03*
X133650000Y-67927880D03*
X132017860Y-63819282D03*
X131850000Y-53500000D03*
%TO.N,Net-(U1-CS13)*%
X133050000Y-59675000D03*
X133650000Y-60375000D03*
X134775000Y-60025000D03*
X133025000Y-53475000D03*
%TO.N,Net-(U1-CS12)*%
X134300000Y-59675000D03*
X142325000Y-56075000D03*
X135300000Y-56075000D03*
X134300000Y-56075000D03*
%TO.N,Net-(U1-CS11)*%
X133600000Y-59675000D03*
X133600000Y-53475000D03*
%TO.N,Net-(U1-CS10)*%
X134875000Y-59225000D03*
X134875000Y-53475000D03*
%TO.N,Net-(U1-CS7)*%
X127825000Y-64100000D03*
X126725000Y-64100000D03*
%TO.N,Net-(U1-CS6)*%
X128300000Y-63700000D03*
X126325000Y-63700000D03*
%TO.N,Net-(U1-CS5)*%
X125875000Y-64625000D03*
X138800000Y-55150000D03*
X137425000Y-55152000D03*
X128075000Y-64625000D03*
%TO.N,Net-(U1-CS4)*%
X125425000Y-63300000D03*
X129275000Y-63300000D03*
%TO.N,Net-(U1-CS3)*%
X125000000Y-62900000D03*
X129775000Y-62900000D03*
%TO.N,Net-(U1-CS2)*%
X130350000Y-62425000D03*
X124500000Y-62425000D03*
%TO.N,Net-(U1-CS1)*%
X130825000Y-61925000D03*
X124075000Y-61925000D03*
%TD*%
D13*
%TO.N,/VCC*%
X124048500Y-67801500D02*
X123675000Y-68175000D01*
X130830025Y-67801500D02*
X124048500Y-67801500D01*
X124540793Y-70715335D02*
X124540793Y-70440793D01*
X124540793Y-70440793D02*
X123675000Y-69575000D01*
X123675000Y-68175000D02*
X123675000Y-69575000D01*
X124775352Y-71386967D02*
X124587319Y-71575000D01*
X125736967Y-71386967D02*
X124775352Y-71386967D01*
X131825000Y-67200000D02*
X131431525Y-67200000D01*
X131431525Y-67200000D02*
X130830025Y-67801500D01*
%TO.N,/SDB*%
X117650000Y-68100000D02*
X117650000Y-66800000D01*
X130875000Y-66325000D02*
X130400000Y-66800000D01*
X118050000Y-68500000D02*
X117650000Y-68100000D01*
X130400000Y-66800000D02*
X123575000Y-66800000D01*
D14*
%TO.N,Net-(D1-A)*%
X140125000Y-60575000D02*
X138125000Y-60575000D01*
D13*
X124100000Y-71850000D02*
X124100000Y-71498754D01*
D14*
X144125000Y-60575000D02*
X142125000Y-60575000D01*
D13*
X124100000Y-71498754D02*
X124422254Y-71176500D01*
X124422254Y-71176500D02*
X124566457Y-71176500D01*
X133785643Y-62914357D02*
X136125000Y-60575000D01*
X133484935Y-62914357D02*
X133785643Y-62914357D01*
X128244289Y-71100000D02*
X131221789Y-68122500D01*
D14*
X142125000Y-60575000D02*
X140125000Y-60575000D01*
X146125000Y-60575000D02*
X144125000Y-60575000D01*
D13*
X132692500Y-66855633D02*
X131895500Y-66058633D01*
X125069929Y-72757071D02*
X124439358Y-72126500D01*
X126013565Y-71100000D02*
X128244289Y-71100000D01*
X124439358Y-72126500D02*
X124376500Y-72126500D01*
X133251500Y-63147792D02*
X133484935Y-62914357D01*
X124376500Y-72126500D02*
X124100000Y-71850000D01*
X131895500Y-64540934D02*
X133251500Y-63184934D01*
X125902032Y-70988467D02*
X126013565Y-71100000D01*
X131895500Y-66058633D02*
X131895500Y-64540934D01*
X124642957Y-71100000D02*
X125460369Y-71100000D01*
X133251500Y-63184934D02*
X133251500Y-63147792D01*
X124566457Y-71176500D02*
X124642957Y-71100000D01*
X125571902Y-70988467D02*
X125902032Y-70988467D01*
X125460369Y-71100000D02*
X125571902Y-70988467D01*
X131221789Y-68122500D02*
X131989736Y-68122500D01*
X131989736Y-68122500D02*
X132692500Y-67419736D01*
X132692500Y-67419736D02*
X132692500Y-66855633D01*
D14*
X136125000Y-60575000D02*
X138125000Y-60575000D01*
%TO.N,Net-(D13-A)*%
X139725000Y-62575000D02*
X141725000Y-62575000D01*
D13*
X134988565Y-62575000D02*
X135725000Y-62575000D01*
X132944500Y-67524118D02*
X132944500Y-66751251D01*
D14*
X141725000Y-62575000D02*
X143725000Y-62575000D01*
D13*
X124985319Y-72109603D02*
X125250716Y-72375000D01*
X132944500Y-66751251D02*
X132147500Y-65954251D01*
D14*
X143725000Y-62575000D02*
X145725000Y-62575000D01*
D13*
X127553171Y-72147500D02*
X131326171Y-68374500D01*
D14*
X135725000Y-62575000D02*
X137725000Y-62575000D01*
D13*
X125250716Y-72375000D02*
X126273671Y-72375000D01*
D14*
X137725000Y-62575000D02*
X139725000Y-62575000D01*
D13*
X132094118Y-68374500D02*
X132944500Y-67524118D01*
X131326171Y-68374500D02*
X132094118Y-68374500D01*
X126501171Y-72147500D02*
X127553171Y-72147500D01*
X132147500Y-65416065D02*
X134988565Y-62575000D01*
X132147500Y-65954251D02*
X132147500Y-65416065D01*
X126273671Y-72375000D02*
X126501171Y-72147500D01*
D14*
%TO.N,Net-(D14-A)*%
X135725000Y-64575000D02*
X137725000Y-64575000D01*
D13*
X133344947Y-64575000D02*
X135725000Y-64575000D01*
D14*
X141725000Y-64575000D02*
X139725000Y-64575000D01*
D13*
X133196500Y-67628500D02*
X133196500Y-66646869D01*
D14*
X137725000Y-64575000D02*
X139725000Y-64575000D01*
D13*
X132399500Y-65520447D02*
X133344947Y-64575000D01*
X132198500Y-68626500D02*
X133196500Y-67628500D01*
X126605553Y-72399500D02*
X127657553Y-72399500D01*
D14*
X145725000Y-64575000D02*
X143725000Y-64575000D01*
D13*
X126000289Y-72798289D02*
X126206764Y-72798289D01*
X133196500Y-66646869D02*
X132399500Y-65849869D01*
X126206764Y-72798289D02*
X126605553Y-72399500D01*
X132399500Y-65849869D02*
X132399500Y-65520447D01*
D14*
X143725000Y-64575000D02*
X141725000Y-64575000D01*
D13*
X127657553Y-72399500D02*
X131430553Y-68626500D01*
X131430553Y-68626500D02*
X132198500Y-68626500D01*
%TO.N,Net-(D15-A)*%
X135189143Y-67110857D02*
X135725000Y-66575000D01*
X125202000Y-70623000D02*
X128364907Y-70623000D01*
X131885354Y-67870500D02*
X132440500Y-67315354D01*
X134224053Y-67110857D02*
X135189143Y-67110857D01*
D14*
X141725000Y-66575000D02*
X143725000Y-66575000D01*
D13*
X132440500Y-67315354D02*
X132440500Y-66960014D01*
X128364907Y-70623000D02*
X131117407Y-67870500D01*
D14*
X139725000Y-66575000D02*
X141725000Y-66575000D01*
D13*
X132798000Y-65684804D02*
X134224053Y-67110857D01*
D14*
X135725000Y-66575000D02*
X137725000Y-66575000D01*
D13*
X125117696Y-70538696D02*
X125202000Y-70623000D01*
X131632838Y-66152352D02*
X131632838Y-64204304D01*
D14*
X143725000Y-66575000D02*
X145725000Y-66575000D01*
D13*
X132440500Y-66960014D02*
X131632838Y-66152352D01*
D14*
X137725000Y-66575000D02*
X139725000Y-66575000D01*
D13*
X131117407Y-67870500D02*
X131885354Y-67870500D01*
%TO.N,Net-(D16-A)*%
X128325000Y-72652000D02*
X131648000Y-72652000D01*
D14*
X141725000Y-68575000D02*
X143725000Y-68575000D01*
X139725000Y-68575000D02*
X137725000Y-68575000D01*
X139725000Y-68575000D02*
X141725000Y-68575000D01*
X137725000Y-68575000D02*
X135725000Y-68575000D01*
X145725000Y-68575000D02*
X143725000Y-68575000D01*
D13*
X131648000Y-72652000D02*
X135725000Y-68575000D01*
X126400000Y-73525000D02*
X128050000Y-73525000D01*
D14*
%TO.N,Net-(D17-A)*%
X135725000Y-70575000D02*
X137725000Y-70575000D01*
D13*
X126709935Y-72651500D02*
X127761935Y-72651500D01*
D14*
X143725000Y-70575000D02*
X145725000Y-70575000D01*
D13*
X127761935Y-72651500D02*
X128638435Y-71775000D01*
X124275000Y-72525000D02*
X124975000Y-73225000D01*
D14*
X141725000Y-70575000D02*
X143725000Y-70575000D01*
D13*
X134500000Y-71800000D02*
X135725000Y-70575000D01*
X128638435Y-71775000D02*
X131525000Y-71775000D01*
D14*
X139725000Y-70575000D02*
X141725000Y-70575000D01*
D13*
X124975000Y-73225000D02*
X126136435Y-73225000D01*
X133275000Y-71800000D02*
X134500000Y-71800000D01*
X126136435Y-73225000D02*
X126709935Y-72651500D01*
D14*
X137725000Y-70575000D02*
X139725000Y-70575000D01*
%TO.N,Net-(D18-A)*%
X143725000Y-72575000D02*
X141725000Y-72575000D01*
X145725000Y-72575000D02*
X143725000Y-72575000D01*
D13*
X126900000Y-73050000D02*
X135250000Y-73050000D01*
X135250000Y-73050000D02*
X135725000Y-72575000D01*
D14*
X137725000Y-72575000D02*
X135725000Y-72575000D01*
X139725000Y-72575000D02*
X137725000Y-72575000D01*
X141725000Y-72575000D02*
X139725000Y-72575000D01*
%TO.N,Net-(D19-A)*%
X141725000Y-74575000D02*
X143725000Y-74575000D01*
X139725000Y-74575000D02*
X141725000Y-74575000D01*
X135725000Y-74575000D02*
X137725000Y-74575000D01*
X137725000Y-74575000D02*
X139725000Y-74575000D01*
D13*
X123700000Y-73850000D02*
X124425000Y-74575000D01*
D14*
X143725000Y-74575000D02*
X145725000Y-74575000D01*
D13*
X124425000Y-74575000D02*
X135725000Y-74575000D01*
D14*
%TO.N,Net-(D20-A)*%
X143725000Y-76575000D02*
X141725000Y-76575000D01*
X139725000Y-76575000D02*
X141725000Y-76575000D01*
X143725000Y-76575000D02*
X145725000Y-76575000D01*
D13*
X135700000Y-76600000D02*
X135725000Y-76575000D01*
D14*
X135725000Y-76575000D02*
X137725000Y-76575000D01*
D13*
X134450000Y-76600000D02*
X135700000Y-76600000D01*
D14*
X139725000Y-76575000D02*
X137725000Y-76575000D01*
%TO.N,Net-(D10-A)*%
X143725000Y-78575000D02*
X145725000Y-78575000D01*
D13*
X134700000Y-78575000D02*
X135725000Y-78575000D01*
D14*
X143725000Y-78575000D02*
X141725000Y-78575000D01*
X139725000Y-78575000D02*
X137725000Y-78575000D01*
X135725000Y-78575000D02*
X137725000Y-78575000D01*
X139725000Y-78575000D02*
X141725000Y-78575000D01*
%TO.N,Net-(D11-A)*%
X143725000Y-80575000D02*
X145725000Y-80575000D01*
X135725000Y-80575000D02*
X137725000Y-80575000D01*
X143725000Y-80575000D02*
X141725000Y-80575000D01*
X137725000Y-80575000D02*
X139725000Y-80575000D01*
D13*
X130900000Y-75750000D02*
X135725000Y-80575000D01*
D14*
X139725000Y-80575000D02*
X141725000Y-80575000D01*
D13*
X129725000Y-75750000D02*
X130900000Y-75750000D01*
%TO.N,/MOSI*%
X130155954Y-65830954D02*
X129950000Y-65625000D01*
X129950000Y-65625000D02*
X123575000Y-65625000D01*
%TO.N,/SCK*%
X130775000Y-65775473D02*
X130321019Y-66229454D01*
X130321019Y-66229454D02*
X123579454Y-66229454D01*
X130775000Y-65600000D02*
X130775000Y-65775473D01*
X123579454Y-66229454D02*
X123575000Y-66225000D01*
%TO.N,/CS*%
X130467997Y-67375000D02*
X123575000Y-67375000D01*
X130984652Y-66858345D02*
X130467997Y-67375000D01*
%TO.N,/MISO*%
X123800000Y-65275000D02*
X123575000Y-65050000D01*
X131000000Y-64925000D02*
X130502382Y-64925000D01*
X130152382Y-65275000D02*
X123800000Y-65275000D01*
X130502382Y-64925000D02*
X130152382Y-65275000D01*
%TO.N,/SYNC*%
X123600000Y-64450000D02*
X123625000Y-64475000D01*
X125161435Y-64475000D02*
X125709935Y-65023500D01*
X123625000Y-64475000D02*
X125161435Y-64475000D01*
X128876500Y-65023500D02*
X129300000Y-64600000D01*
X125709935Y-65023500D02*
X128876500Y-65023500D01*
%TO.N,Net-(U1-CS18)*%
X123750000Y-60825000D02*
X122625000Y-61950000D01*
X122625000Y-72211435D02*
X124663565Y-74250000D01*
X129175000Y-60825000D02*
X123750000Y-60825000D01*
X129850000Y-60150000D02*
X129175000Y-60825000D01*
X129850000Y-53500000D02*
X129850000Y-60150000D01*
X130325000Y-74250000D02*
X130450000Y-74125000D01*
X124663565Y-74250000D02*
X130325000Y-74250000D01*
X122625000Y-61950000D02*
X122625000Y-72211435D01*
X129856429Y-53493571D02*
X129850000Y-53500000D01*
%TO.N,Net-(U1-CS17)*%
X129300000Y-59900000D02*
X128975000Y-60225000D01*
X124361435Y-75075000D02*
X131025000Y-75075000D01*
X129300000Y-53500000D02*
X129300000Y-59900000D01*
X122125000Y-72838565D02*
X124361435Y-75075000D01*
X123750000Y-60225000D02*
X122125000Y-61850000D01*
X122125000Y-61850000D02*
X122125000Y-72838565D01*
X128975000Y-60225000D02*
X123750000Y-60225000D01*
%TO.N,Net-(U1-CS16)*%
X123800000Y-61325000D02*
X123100000Y-62025000D01*
X123100000Y-62025000D02*
X123100000Y-71913565D01*
X123100000Y-71913565D02*
X125109935Y-73923500D01*
X130450000Y-53524285D02*
X130450000Y-60200000D01*
X130087935Y-73923500D02*
X130486435Y-73525000D01*
X125109935Y-73923500D02*
X130087935Y-73923500D01*
X130486435Y-73525000D02*
X131350000Y-73525000D01*
X130450000Y-60200000D02*
X129325000Y-61325000D01*
X129325000Y-61325000D02*
X123800000Y-61325000D01*
X130437751Y-53512036D02*
X130450000Y-53524285D01*
%TO.N,Net-(U1-CS15)*%
X133256071Y-62581071D02*
X132425000Y-61750000D01*
X131950000Y-69025000D02*
X131950000Y-70027000D01*
X131950000Y-70027000D02*
X130600000Y-71377000D01*
X132425000Y-61750000D02*
X132425000Y-53475000D01*
%TO.N,Net-(U1-CS14)*%
X132017860Y-63819282D02*
X131850000Y-63651422D01*
X131850000Y-63651422D02*
X131850000Y-53500000D01*
X132599288Y-64400711D02*
X133650000Y-63349999D01*
X133650000Y-63349999D02*
X133650000Y-63312857D01*
X133650000Y-67927880D02*
X133650000Y-68925000D01*
X133650000Y-68925000D02*
X131400000Y-71175000D01*
%TO.N,Net-(U1-CS13)*%
X133050000Y-53500000D02*
X133050000Y-59675000D01*
X133650000Y-60375000D02*
X134425000Y-60375000D01*
X133025000Y-53475000D02*
X133050000Y-53500000D01*
X134425000Y-60375000D02*
X134775000Y-60025000D01*
%TO.N,Net-(U1-CS12)*%
X134300000Y-56075000D02*
X134300000Y-59675000D01*
X142325000Y-56075000D02*
X135300000Y-56075000D01*
%TO.N,Net-(U1-CS11)*%
X133600000Y-53475000D02*
X133600000Y-59675000D01*
%TO.N,Net-(U1-CS10)*%
X134875000Y-53475000D02*
X134875000Y-59225000D01*
%TO.N,Net-(U1-CS7)*%
X126725000Y-64100000D02*
X127825000Y-64100000D01*
%TO.N,Net-(U1-CS6)*%
X126325000Y-63700000D02*
X128300000Y-63700000D01*
%TO.N,Net-(U1-CS5)*%
X137425000Y-55152000D02*
X138798000Y-55152000D01*
X138798000Y-55152000D02*
X138800000Y-55150000D01*
X125875000Y-64625000D02*
X128075000Y-64625000D01*
%TO.N,Net-(U1-CS4)*%
X125425000Y-63300000D02*
X129275000Y-63300000D01*
%TO.N,Net-(U1-CS3)*%
X125000000Y-62900000D02*
X129775000Y-62900000D01*
%TO.N,Net-(U1-CS2)*%
X124500000Y-62425000D02*
X130350000Y-62425000D01*
%TO.N,Net-(U1-CS1)*%
X124075000Y-61925000D02*
X130825000Y-61925000D01*
%TD*%
%TA.AperFunction,Conductor*%
%TO.N,GND*%
G36*
X130185277Y-68129015D02*
G01*
X130229300Y-68166615D01*
X130251455Y-68220102D01*
X130246913Y-68277818D01*
X130216663Y-68327181D01*
X128271163Y-70272681D01*
X128230935Y-70299561D01*
X128183482Y-70309000D01*
X125584621Y-70309000D01*
X125533110Y-70297795D01*
X125490909Y-70266203D01*
X125422361Y-70187096D01*
X125422360Y-70187095D01*
X125310962Y-70115503D01*
X125247433Y-70096849D01*
X125183907Y-70078196D01*
X125183906Y-70078196D01*
X125051486Y-70078196D01*
X125051485Y-70078196D01*
X124924431Y-70115502D01*
X124847251Y-70165103D01*
X124794933Y-70183910D01*
X124739655Y-70177967D01*
X124692531Y-70148468D01*
X124172973Y-69628910D01*
X124149770Y-69596733D01*
X124137917Y-69558878D01*
X124121390Y-69443928D01*
X124085722Y-69365827D01*
X124066381Y-69323475D01*
X124025698Y-69276525D01*
X124019286Y-69269125D01*
X123996818Y-69231257D01*
X123989000Y-69187923D01*
X123989000Y-68356425D01*
X123998439Y-68308972D01*
X124025319Y-68268744D01*
X124142244Y-68151819D01*
X124182472Y-68124939D01*
X124229925Y-68115500D01*
X130128982Y-68115500D01*
X130185277Y-68129015D01*
G37*
%TD.AperFunction*%
%TA.AperFunction,Conductor*%
G36*
X147937500Y-51017113D02*
G01*
X147982887Y-51062500D01*
X147999500Y-51124500D01*
X147999500Y-82875500D01*
X147982887Y-82937500D01*
X147937500Y-82982887D01*
X147875500Y-82999500D01*
X112124500Y-82999500D01*
X112062500Y-82982887D01*
X112017113Y-82937500D01*
X112000500Y-82875500D01*
X112000500Y-76640000D01*
X112569364Y-76640000D01*
X112626569Y-76853492D01*
X112726399Y-77067576D01*
X112861893Y-77261081D01*
X113028918Y-77428106D01*
X113222423Y-77563600D01*
X113436507Y-77663430D01*
X113649999Y-77720635D01*
X113650000Y-77720636D01*
X113650000Y-76640000D01*
X114150000Y-76640000D01*
X114150000Y-77720635D01*
X114363492Y-77663430D01*
X114577576Y-77563600D01*
X114771081Y-77428106D01*
X114938106Y-77261081D01*
X115073600Y-77067576D01*
X115173430Y-76853492D01*
X115230636Y-76640000D01*
X114150000Y-76640000D01*
X113650000Y-76640000D01*
X112569364Y-76640000D01*
X112000500Y-76640000D01*
X112000500Y-76140000D01*
X112569364Y-76140000D01*
X115230636Y-76140000D01*
X115230635Y-76139999D01*
X115173430Y-75926507D01*
X115073599Y-75712421D01*
X114938109Y-75518921D01*
X114771081Y-75351893D01*
X114577576Y-75216399D01*
X114363488Y-75116567D01*
X114324413Y-75106097D01*
X114270736Y-75075873D01*
X114238228Y-75023549D01*
X114234910Y-74962037D01*
X114261601Y-74906519D01*
X114311713Y-74870697D01*
X114392637Y-74839348D01*
X114566041Y-74731981D01*
X114716764Y-74594579D01*
X114839673Y-74431821D01*
X114839673Y-74431819D01*
X114839675Y-74431818D01*
X114893622Y-74323476D01*
X114930582Y-74249250D01*
X114986397Y-74053083D01*
X115005215Y-73850000D01*
X114986397Y-73646917D01*
X114930582Y-73450750D01*
X114887386Y-73364000D01*
X114839675Y-73268181D01*
X114716763Y-73105419D01*
X114566041Y-72968018D01*
X114401849Y-72866355D01*
X121807368Y-72866355D01*
X121816750Y-72901369D01*
X121819091Y-72911925D01*
X121825625Y-72948978D01*
X121835238Y-72972182D01*
X121836029Y-72973312D01*
X121836030Y-72973314D01*
X121850260Y-72993637D01*
X121856814Y-73002997D01*
X121862627Y-73012121D01*
X121880751Y-73043514D01*
X121908518Y-73066813D01*
X121916494Y-73074122D01*
X124125871Y-75283499D01*
X124133179Y-75291473D01*
X124156486Y-75319249D01*
X124187871Y-75337369D01*
X124196995Y-75343181D01*
X124227825Y-75364769D01*
X124251014Y-75374373D01*
X124252382Y-75374614D01*
X124252384Y-75374615D01*
X124288083Y-75380909D01*
X124298627Y-75383246D01*
X124333646Y-75392631D01*
X124333646Y-75392630D01*
X124333647Y-75392631D01*
X124352135Y-75391013D01*
X124369754Y-75389471D01*
X124380561Y-75389000D01*
X129190667Y-75389000D01*
X129250094Y-75404168D01*
X129294983Y-75445961D01*
X129314351Y-75504155D01*
X129303461Y-75564512D01*
X129278609Y-75618927D01*
X129259765Y-75750000D01*
X129278609Y-75881072D01*
X129299359Y-75926507D01*
X129333619Y-76001525D01*
X129420336Y-76101601D01*
X129531734Y-76173193D01*
X129629950Y-76202031D01*
X129658789Y-76210500D01*
X129658790Y-76210500D01*
X129791210Y-76210500D01*
X129791211Y-76210500D01*
X129828673Y-76199500D01*
X129918266Y-76173193D01*
X129951543Y-76151807D01*
X130044663Y-76091963D01*
X130044765Y-76092122D01*
X130067364Y-76075206D01*
X130118875Y-76064000D01*
X130718575Y-76064000D01*
X130766028Y-76073439D01*
X130806256Y-76100319D01*
X135227026Y-80521089D01*
X135250229Y-80553266D01*
X135262083Y-80591123D01*
X135278609Y-80706072D01*
X135333618Y-80826523D01*
X135333619Y-80826525D01*
X135420336Y-80926601D01*
X135531734Y-80998193D01*
X135629950Y-81027031D01*
X135658789Y-81035500D01*
X135658790Y-81035500D01*
X135791210Y-81035500D01*
X135791211Y-81035500D01*
X135833562Y-81023064D01*
X135918266Y-80998193D01*
X135961848Y-80970183D01*
X136028887Y-80950500D01*
X137421113Y-80950500D01*
X137488151Y-80970183D01*
X137531734Y-80998193D01*
X137595261Y-81016846D01*
X137658789Y-81035500D01*
X137658790Y-81035500D01*
X137791210Y-81035500D01*
X137791211Y-81035500D01*
X137833562Y-81023064D01*
X137918266Y-80998193D01*
X137961848Y-80970183D01*
X138028887Y-80950500D01*
X139421113Y-80950500D01*
X139488151Y-80970183D01*
X139531734Y-80998193D01*
X139595261Y-81016846D01*
X139658789Y-81035500D01*
X139658790Y-81035500D01*
X139791210Y-81035500D01*
X139791211Y-81035500D01*
X139833562Y-81023064D01*
X139918266Y-80998193D01*
X139961848Y-80970183D01*
X140028887Y-80950500D01*
X141421113Y-80950500D01*
X141488151Y-80970183D01*
X141531734Y-80998193D01*
X141595261Y-81016846D01*
X141658789Y-81035500D01*
X141658790Y-81035500D01*
X141791210Y-81035500D01*
X141791211Y-81035500D01*
X141833562Y-81023064D01*
X141918266Y-80998193D01*
X141961848Y-80970183D01*
X142028887Y-80950500D01*
X143421113Y-80950500D01*
X143488151Y-80970183D01*
X143531734Y-80998193D01*
X143595261Y-81016846D01*
X143658789Y-81035500D01*
X143658790Y-81035500D01*
X143791210Y-81035500D01*
X143791211Y-81035500D01*
X143833562Y-81023064D01*
X143918266Y-80998193D01*
X143961848Y-80970183D01*
X144028887Y-80950500D01*
X145421113Y-80950500D01*
X145488151Y-80970183D01*
X145531734Y-80998193D01*
X145595261Y-81016846D01*
X145658789Y-81035500D01*
X145658790Y-81035500D01*
X145791210Y-81035500D01*
X145791211Y-81035500D01*
X145814714Y-81028598D01*
X145918266Y-80998193D01*
X146029664Y-80926601D01*
X146116381Y-80826525D01*
X146171390Y-80706072D01*
X146190235Y-80575000D01*
X146171390Y-80443928D01*
X146116381Y-80323475D01*
X146029664Y-80223399D01*
X146029663Y-80223398D01*
X145961848Y-80179816D01*
X145918266Y-80151807D01*
X145854738Y-80133153D01*
X145791211Y-80114500D01*
X145791210Y-80114500D01*
X145658790Y-80114500D01*
X145658789Y-80114500D01*
X145531735Y-80151806D01*
X145488152Y-80179816D01*
X145421113Y-80199500D01*
X144028887Y-80199500D01*
X143961848Y-80179816D01*
X143918264Y-80151806D01*
X143791211Y-80114500D01*
X143791210Y-80114500D01*
X143658790Y-80114500D01*
X143658789Y-80114500D01*
X143531735Y-80151806D01*
X143488152Y-80179816D01*
X143421113Y-80199500D01*
X142028887Y-80199500D01*
X141961848Y-80179816D01*
X141918264Y-80151806D01*
X141791211Y-80114500D01*
X141791210Y-80114500D01*
X141658790Y-80114500D01*
X141658789Y-80114500D01*
X141531735Y-80151806D01*
X141488152Y-80179816D01*
X141421113Y-80199500D01*
X140028887Y-80199500D01*
X139961848Y-80179816D01*
X139918264Y-80151806D01*
X139791211Y-80114500D01*
X139791210Y-80114500D01*
X139658790Y-80114500D01*
X139658789Y-80114500D01*
X139531735Y-80151806D01*
X139488152Y-80179816D01*
X139421113Y-80199500D01*
X138028887Y-80199500D01*
X137961848Y-80179816D01*
X137918264Y-80151806D01*
X137791211Y-80114500D01*
X137791210Y-80114500D01*
X137658790Y-80114500D01*
X137658789Y-80114500D01*
X137531735Y-80151806D01*
X137488152Y-80179816D01*
X137421113Y-80199500D01*
X136028887Y-80199500D01*
X135961848Y-80179816D01*
X135918264Y-80151806D01*
X135791211Y-80114500D01*
X135791210Y-80114500D01*
X135759925Y-80114500D01*
X135712472Y-80105061D01*
X135672244Y-80078181D01*
X134808357Y-79214294D01*
X134776456Y-79159418D01*
X134775890Y-79095946D01*
X134806807Y-79040510D01*
X134861100Y-79007637D01*
X134893266Y-78998193D01*
X134899506Y-78994182D01*
X135019663Y-78916963D01*
X135019765Y-78917122D01*
X135042364Y-78900206D01*
X135093875Y-78889000D01*
X135331125Y-78889000D01*
X135382636Y-78900206D01*
X135405234Y-78917122D01*
X135405337Y-78916963D01*
X135531732Y-78998192D01*
X135531734Y-78998193D01*
X135563891Y-79007635D01*
X135658789Y-79035500D01*
X135658790Y-79035500D01*
X135791210Y-79035500D01*
X135791211Y-79035500D01*
X135833561Y-79023064D01*
X135918266Y-78998193D01*
X135961848Y-78970183D01*
X136028887Y-78950500D01*
X137421113Y-78950500D01*
X137488151Y-78970183D01*
X137531734Y-78998193D01*
X137563891Y-79007635D01*
X137658789Y-79035500D01*
X137658790Y-79035500D01*
X137791210Y-79035500D01*
X137791211Y-79035500D01*
X137833561Y-79023064D01*
X137918266Y-78998193D01*
X137961848Y-78970183D01*
X138028887Y-78950500D01*
X139421113Y-78950500D01*
X139488151Y-78970183D01*
X139531734Y-78998193D01*
X139563891Y-79007635D01*
X139658789Y-79035500D01*
X139658790Y-79035500D01*
X139791210Y-79035500D01*
X139791211Y-79035500D01*
X139833561Y-79023064D01*
X139918266Y-78998193D01*
X139961848Y-78970183D01*
X140028887Y-78950500D01*
X141421113Y-78950500D01*
X141488151Y-78970183D01*
X141531734Y-78998193D01*
X141563891Y-79007635D01*
X141658789Y-79035500D01*
X141658790Y-79035500D01*
X141791210Y-79035500D01*
X141791211Y-79035500D01*
X141833561Y-79023064D01*
X141918266Y-78998193D01*
X141961848Y-78970183D01*
X142028887Y-78950500D01*
X143421113Y-78950500D01*
X143488151Y-78970183D01*
X143531734Y-78998193D01*
X143563891Y-79007635D01*
X143658789Y-79035500D01*
X143658790Y-79035500D01*
X143791210Y-79035500D01*
X143791211Y-79035500D01*
X143833561Y-79023064D01*
X143918266Y-78998193D01*
X143961848Y-78970183D01*
X144028887Y-78950500D01*
X145421113Y-78950500D01*
X145488151Y-78970183D01*
X145531734Y-78998193D01*
X145563891Y-79007635D01*
X145658789Y-79035500D01*
X145658790Y-79035500D01*
X145791210Y-79035500D01*
X145791211Y-79035500D01*
X145814714Y-79028598D01*
X145918266Y-78998193D01*
X146029664Y-78926601D01*
X146116381Y-78826525D01*
X146171390Y-78706072D01*
X146190235Y-78575000D01*
X146171390Y-78443928D01*
X146164798Y-78429494D01*
X146116381Y-78323476D01*
X146116381Y-78323475D01*
X146029664Y-78223399D01*
X146029663Y-78223398D01*
X145961848Y-78179816D01*
X145918266Y-78151807D01*
X145854738Y-78133153D01*
X145791211Y-78114500D01*
X145791210Y-78114500D01*
X145658790Y-78114500D01*
X145658789Y-78114500D01*
X145531735Y-78151806D01*
X145488152Y-78179816D01*
X145421113Y-78199500D01*
X144028887Y-78199500D01*
X143961848Y-78179816D01*
X143918264Y-78151806D01*
X143791211Y-78114500D01*
X143791210Y-78114500D01*
X143658790Y-78114500D01*
X143658789Y-78114500D01*
X143531735Y-78151806D01*
X143488152Y-78179816D01*
X143421113Y-78199500D01*
X142028887Y-78199500D01*
X141961848Y-78179816D01*
X141918264Y-78151806D01*
X141791211Y-78114500D01*
X141791210Y-78114500D01*
X141658790Y-78114500D01*
X141658789Y-78114500D01*
X141531735Y-78151806D01*
X141488152Y-78179816D01*
X141421113Y-78199500D01*
X140028887Y-78199500D01*
X139961848Y-78179816D01*
X139918264Y-78151806D01*
X139791211Y-78114500D01*
X139791210Y-78114500D01*
X139658790Y-78114500D01*
X139658789Y-78114500D01*
X139531735Y-78151806D01*
X139488152Y-78179816D01*
X139421113Y-78199500D01*
X138028887Y-78199500D01*
X137961848Y-78179816D01*
X137918264Y-78151806D01*
X137791211Y-78114500D01*
X137791210Y-78114500D01*
X137658790Y-78114500D01*
X137658789Y-78114500D01*
X137531735Y-78151806D01*
X137488152Y-78179816D01*
X137421113Y-78199500D01*
X136028887Y-78199500D01*
X135961848Y-78179816D01*
X135918264Y-78151806D01*
X135791211Y-78114500D01*
X135791210Y-78114500D01*
X135658790Y-78114500D01*
X135658789Y-78114500D01*
X135531732Y-78151807D01*
X135405337Y-78233037D01*
X135405234Y-78232877D01*
X135382636Y-78249794D01*
X135331125Y-78261000D01*
X135093875Y-78261000D01*
X135042364Y-78249794D01*
X135019765Y-78232877D01*
X135019663Y-78233037D01*
X134893267Y-78151807D01*
X134766211Y-78114500D01*
X134766210Y-78114500D01*
X134633790Y-78114500D01*
X134633789Y-78114500D01*
X134506734Y-78151807D01*
X134395336Y-78223398D01*
X134308618Y-78323476D01*
X134260201Y-78429494D01*
X134223477Y-78475907D01*
X134169423Y-78500012D01*
X134110354Y-78496317D01*
X134059726Y-78465663D01*
X132194063Y-76600000D01*
X133984765Y-76600000D01*
X134003609Y-76731072D01*
X134047201Y-76826523D01*
X134058619Y-76851525D01*
X134145336Y-76951601D01*
X134256734Y-77023193D01*
X134354950Y-77052031D01*
X134383789Y-77060500D01*
X134383790Y-77060500D01*
X134516210Y-77060500D01*
X134516211Y-77060500D01*
X134553518Y-77049545D01*
X134643266Y-77023193D01*
X134669162Y-77006549D01*
X134769663Y-76941963D01*
X134769765Y-76942122D01*
X134792364Y-76925206D01*
X134843875Y-76914000D01*
X135364318Y-76914000D01*
X135431357Y-76933685D01*
X135531732Y-76998192D01*
X135531734Y-76998193D01*
X135605973Y-77019991D01*
X135658789Y-77035500D01*
X135658790Y-77035500D01*
X135791210Y-77035500D01*
X135791211Y-77035500D01*
X135833561Y-77023064D01*
X135918266Y-76998193D01*
X135961848Y-76970183D01*
X136028887Y-76950500D01*
X137421113Y-76950500D01*
X137488151Y-76970183D01*
X137531734Y-76998193D01*
X137595262Y-77016846D01*
X137658789Y-77035500D01*
X137658790Y-77035500D01*
X137791210Y-77035500D01*
X137791211Y-77035500D01*
X137833561Y-77023064D01*
X137918266Y-76998193D01*
X137961848Y-76970183D01*
X138028887Y-76950500D01*
X139421113Y-76950500D01*
X139488151Y-76970183D01*
X139531734Y-76998193D01*
X139595262Y-77016846D01*
X139658789Y-77035500D01*
X139658790Y-77035500D01*
X139791210Y-77035500D01*
X139791211Y-77035500D01*
X139833561Y-77023064D01*
X139918266Y-76998193D01*
X139961848Y-76970183D01*
X140028887Y-76950500D01*
X141421113Y-76950500D01*
X141488151Y-76970183D01*
X141531734Y-76998193D01*
X141595262Y-77016846D01*
X141658789Y-77035500D01*
X141658790Y-77035500D01*
X141791210Y-77035500D01*
X141791211Y-77035500D01*
X141833561Y-77023064D01*
X141918266Y-76998193D01*
X141961848Y-76970183D01*
X142028887Y-76950500D01*
X143421113Y-76950500D01*
X143488151Y-76970183D01*
X143531734Y-76998193D01*
X143595262Y-77016846D01*
X143658789Y-77035500D01*
X143658790Y-77035500D01*
X143791210Y-77035500D01*
X143791211Y-77035500D01*
X143833561Y-77023064D01*
X143918266Y-76998193D01*
X143961848Y-76970183D01*
X144028887Y-76950500D01*
X145421113Y-76950500D01*
X145488151Y-76970183D01*
X145531734Y-76998193D01*
X145595262Y-77016846D01*
X145658789Y-77035500D01*
X145658790Y-77035500D01*
X145791210Y-77035500D01*
X145791211Y-77035500D01*
X145814714Y-77028598D01*
X145918266Y-76998193D01*
X146029664Y-76926601D01*
X146116381Y-76826525D01*
X146171390Y-76706072D01*
X146190235Y-76575000D01*
X146171390Y-76443928D01*
X146116381Y-76323475D01*
X146029664Y-76223399D01*
X146029663Y-76223398D01*
X145957166Y-76176807D01*
X145918266Y-76151807D01*
X145854738Y-76133153D01*
X145791211Y-76114500D01*
X145791210Y-76114500D01*
X145658790Y-76114500D01*
X145658789Y-76114500D01*
X145531735Y-76151806D01*
X145488152Y-76179816D01*
X145421113Y-76199500D01*
X144028887Y-76199500D01*
X143961848Y-76179816D01*
X143918264Y-76151806D01*
X143791211Y-76114500D01*
X143791210Y-76114500D01*
X143658790Y-76114500D01*
X143658789Y-76114500D01*
X143531735Y-76151806D01*
X143488152Y-76179816D01*
X143421113Y-76199500D01*
X142028887Y-76199500D01*
X141961848Y-76179816D01*
X141918264Y-76151806D01*
X141791211Y-76114500D01*
X141791210Y-76114500D01*
X141658790Y-76114500D01*
X141658789Y-76114500D01*
X141531735Y-76151806D01*
X141488152Y-76179816D01*
X141421113Y-76199500D01*
X140028887Y-76199500D01*
X139961848Y-76179816D01*
X139918264Y-76151806D01*
X139791211Y-76114500D01*
X139791210Y-76114500D01*
X139658790Y-76114500D01*
X139658789Y-76114500D01*
X139531735Y-76151806D01*
X139488152Y-76179816D01*
X139421113Y-76199500D01*
X138028887Y-76199500D01*
X137961848Y-76179816D01*
X137918264Y-76151806D01*
X137791211Y-76114500D01*
X137791210Y-76114500D01*
X137658790Y-76114500D01*
X137658789Y-76114500D01*
X137531735Y-76151806D01*
X137488152Y-76179816D01*
X137421113Y-76199500D01*
X136028887Y-76199500D01*
X135961848Y-76179816D01*
X135918264Y-76151806D01*
X135791211Y-76114500D01*
X135791210Y-76114500D01*
X135658790Y-76114500D01*
X135658789Y-76114500D01*
X135531734Y-76151807D01*
X135420336Y-76223398D01*
X135403176Y-76243203D01*
X135360974Y-76274795D01*
X135309463Y-76286000D01*
X134843875Y-76286000D01*
X134792364Y-76274794D01*
X134769765Y-76257877D01*
X134769663Y-76258037D01*
X134643267Y-76176807D01*
X134516211Y-76139500D01*
X134516210Y-76139500D01*
X134383790Y-76139500D01*
X134383789Y-76139500D01*
X134256734Y-76176807D01*
X134145336Y-76248398D01*
X134058618Y-76348476D01*
X134003609Y-76468927D01*
X133984765Y-76600000D01*
X132194063Y-76600000D01*
X131250360Y-75656297D01*
X131221104Y-75609869D01*
X131214751Y-75555361D01*
X131232546Y-75503449D01*
X131271002Y-75464301D01*
X131329664Y-75426601D01*
X131416381Y-75326525D01*
X131471390Y-75206072D01*
X131490235Y-75075000D01*
X131483858Y-75030646D01*
X131493802Y-74961488D01*
X131539557Y-74908684D01*
X131606596Y-74889000D01*
X135331125Y-74889000D01*
X135382636Y-74900206D01*
X135405234Y-74917122D01*
X135405337Y-74916963D01*
X135531732Y-74998192D01*
X135531734Y-74998193D01*
X135605973Y-75019991D01*
X135658789Y-75035500D01*
X135658790Y-75035500D01*
X135791210Y-75035500D01*
X135791211Y-75035500D01*
X135833562Y-75023064D01*
X135918266Y-74998193D01*
X135961848Y-74970183D01*
X136028887Y-74950500D01*
X137421113Y-74950500D01*
X137488151Y-74970183D01*
X137531734Y-74998193D01*
X137595262Y-75016846D01*
X137658789Y-75035500D01*
X137658790Y-75035500D01*
X137791210Y-75035500D01*
X137791211Y-75035500D01*
X137833562Y-75023064D01*
X137918266Y-74998193D01*
X137961848Y-74970183D01*
X138028887Y-74950500D01*
X139421113Y-74950500D01*
X139488151Y-74970183D01*
X139531734Y-74998193D01*
X139595262Y-75016846D01*
X139658789Y-75035500D01*
X139658790Y-75035500D01*
X139791210Y-75035500D01*
X139791211Y-75035500D01*
X139833562Y-75023064D01*
X139918266Y-74998193D01*
X139961848Y-74970183D01*
X140028887Y-74950500D01*
X141421113Y-74950500D01*
X141488151Y-74970183D01*
X141531734Y-74998193D01*
X141595262Y-75016846D01*
X141658789Y-75035500D01*
X141658790Y-75035500D01*
X141791210Y-75035500D01*
X141791211Y-75035500D01*
X141833562Y-75023064D01*
X141918266Y-74998193D01*
X141961848Y-74970183D01*
X142028887Y-74950500D01*
X143421113Y-74950500D01*
X143488151Y-74970183D01*
X143531734Y-74998193D01*
X143595262Y-75016846D01*
X143658789Y-75035500D01*
X143658790Y-75035500D01*
X143791210Y-75035500D01*
X143791211Y-75035500D01*
X143833562Y-75023064D01*
X143918266Y-74998193D01*
X143961848Y-74970183D01*
X144028887Y-74950500D01*
X145421113Y-74950500D01*
X145488151Y-74970183D01*
X145531734Y-74998193D01*
X145595262Y-75016846D01*
X145658789Y-75035500D01*
X145658790Y-75035500D01*
X145791210Y-75035500D01*
X145791211Y-75035500D01*
X145831911Y-75023549D01*
X145918266Y-74998193D01*
X146029664Y-74926601D01*
X146116381Y-74826525D01*
X146171390Y-74706072D01*
X146190235Y-74575000D01*
X146171390Y-74443928D01*
X146116381Y-74323475D01*
X146029664Y-74223399D01*
X146029663Y-74223398D01*
X145989856Y-74197816D01*
X145918266Y-74151807D01*
X145826970Y-74125000D01*
X145791211Y-74114500D01*
X145791210Y-74114500D01*
X145658790Y-74114500D01*
X145658789Y-74114500D01*
X145531735Y-74151806D01*
X145488152Y-74179816D01*
X145421113Y-74199500D01*
X144028887Y-74199500D01*
X143961848Y-74179816D01*
X143918264Y-74151806D01*
X143791211Y-74114500D01*
X143791210Y-74114500D01*
X143658790Y-74114500D01*
X143658789Y-74114500D01*
X143531735Y-74151806D01*
X143488152Y-74179816D01*
X143421113Y-74199500D01*
X142028887Y-74199500D01*
X141961848Y-74179816D01*
X141918264Y-74151806D01*
X141791211Y-74114500D01*
X141791210Y-74114500D01*
X141658790Y-74114500D01*
X141658789Y-74114500D01*
X141531735Y-74151806D01*
X141488152Y-74179816D01*
X141421113Y-74199500D01*
X140028887Y-74199500D01*
X139961848Y-74179816D01*
X139918264Y-74151806D01*
X139791211Y-74114500D01*
X139791210Y-74114500D01*
X139658790Y-74114500D01*
X139658789Y-74114500D01*
X139531735Y-74151806D01*
X139488152Y-74179816D01*
X139421113Y-74199500D01*
X138028887Y-74199500D01*
X137961848Y-74179816D01*
X137918264Y-74151806D01*
X137791211Y-74114500D01*
X137791210Y-74114500D01*
X137658790Y-74114500D01*
X137658789Y-74114500D01*
X137531735Y-74151806D01*
X137488152Y-74179816D01*
X137421113Y-74199500D01*
X136028887Y-74199500D01*
X135961848Y-74179816D01*
X135918264Y-74151806D01*
X135791211Y-74114500D01*
X135791210Y-74114500D01*
X135658790Y-74114500D01*
X135658789Y-74114500D01*
X135531732Y-74151807D01*
X135405337Y-74233037D01*
X135405234Y-74232877D01*
X135382636Y-74249794D01*
X135331125Y-74261000D01*
X131038785Y-74261000D01*
X130971747Y-74241316D01*
X130925992Y-74188514D01*
X130919363Y-74142418D01*
X130917772Y-74142647D01*
X130901281Y-74027948D01*
X130911225Y-73958789D01*
X130956980Y-73905986D01*
X131024019Y-73886301D01*
X131091058Y-73905986D01*
X131156732Y-73948192D01*
X131156734Y-73948193D01*
X131192821Y-73958789D01*
X131283789Y-73985500D01*
X131283790Y-73985500D01*
X131416210Y-73985500D01*
X131416211Y-73985500D01*
X131439714Y-73978598D01*
X131543266Y-73948193D01*
X131654664Y-73876601D01*
X131741381Y-73776525D01*
X131796390Y-73656072D01*
X131815235Y-73525000D01*
X131812452Y-73505644D01*
X131816213Y-73453066D01*
X131841477Y-73406798D01*
X131883678Y-73375206D01*
X131935190Y-73364000D01*
X135230874Y-73364000D01*
X135241680Y-73364471D01*
X135277789Y-73367631D01*
X135277789Y-73367630D01*
X135277790Y-73367631D01*
X135312799Y-73358249D01*
X135323338Y-73355911D01*
X135359051Y-73349615D01*
X135359055Y-73349612D01*
X135360420Y-73349372D01*
X135383609Y-73339767D01*
X135384746Y-73338970D01*
X135384749Y-73338970D01*
X135414447Y-73318174D01*
X135423542Y-73312380D01*
X135454949Y-73294249D01*
X135478260Y-73266466D01*
X135485536Y-73258525D01*
X135672246Y-73071816D01*
X135712473Y-73044939D01*
X135759925Y-73035500D01*
X135791211Y-73035500D01*
X135833561Y-73023064D01*
X135918266Y-72998193D01*
X135961848Y-72970183D01*
X136028887Y-72950500D01*
X137421113Y-72950500D01*
X137488151Y-72970183D01*
X137531734Y-72998193D01*
X137595261Y-73016846D01*
X137658789Y-73035500D01*
X137658790Y-73035500D01*
X137791210Y-73035500D01*
X137791211Y-73035500D01*
X137833561Y-73023064D01*
X137918266Y-72998193D01*
X137961848Y-72970183D01*
X138028887Y-72950500D01*
X139421113Y-72950500D01*
X139488151Y-72970183D01*
X139531734Y-72998193D01*
X139595261Y-73016846D01*
X139658789Y-73035500D01*
X139658790Y-73035500D01*
X139791210Y-73035500D01*
X139791211Y-73035500D01*
X139833561Y-73023064D01*
X139918266Y-72998193D01*
X139961848Y-72970183D01*
X140028887Y-72950500D01*
X141421113Y-72950500D01*
X141488151Y-72970183D01*
X141531734Y-72998193D01*
X141595261Y-73016846D01*
X141658789Y-73035500D01*
X141658790Y-73035500D01*
X141791210Y-73035500D01*
X141791211Y-73035500D01*
X141833561Y-73023064D01*
X141918266Y-72998193D01*
X141961848Y-72970183D01*
X142028887Y-72950500D01*
X143421113Y-72950500D01*
X143488151Y-72970183D01*
X143531734Y-72998193D01*
X143595261Y-73016846D01*
X143658789Y-73035500D01*
X143658790Y-73035500D01*
X143791210Y-73035500D01*
X143791211Y-73035500D01*
X143833561Y-73023064D01*
X143918266Y-72998193D01*
X143961848Y-72970183D01*
X144028887Y-72950500D01*
X145421113Y-72950500D01*
X145488151Y-72970183D01*
X145531734Y-72998193D01*
X145595261Y-73016846D01*
X145658789Y-73035500D01*
X145658790Y-73035500D01*
X145791210Y-73035500D01*
X145791211Y-73035500D01*
X145814714Y-73028598D01*
X145918266Y-72998193D01*
X146029664Y-72926601D01*
X146116381Y-72826525D01*
X146171390Y-72706072D01*
X146190235Y-72575000D01*
X146171390Y-72443928D01*
X146116381Y-72323475D01*
X146029664Y-72223399D01*
X146029663Y-72223398D01*
X145961848Y-72179816D01*
X145918266Y-72151807D01*
X145850030Y-72131771D01*
X145791211Y-72114500D01*
X145791210Y-72114500D01*
X145658790Y-72114500D01*
X145658789Y-72114500D01*
X145531735Y-72151806D01*
X145488152Y-72179816D01*
X145421113Y-72199500D01*
X144028887Y-72199500D01*
X143961848Y-72179816D01*
X143918266Y-72151807D01*
X143918265Y-72151806D01*
X143918264Y-72151806D01*
X143791211Y-72114500D01*
X143791210Y-72114500D01*
X143658790Y-72114500D01*
X143658789Y-72114500D01*
X143531735Y-72151806D01*
X143488152Y-72179816D01*
X143421113Y-72199500D01*
X142028887Y-72199500D01*
X141961848Y-72179816D01*
X141918266Y-72151807D01*
X141918265Y-72151806D01*
X141918264Y-72151806D01*
X141791211Y-72114500D01*
X141791210Y-72114500D01*
X141658790Y-72114500D01*
X141658789Y-72114500D01*
X141531735Y-72151806D01*
X141488152Y-72179816D01*
X141421113Y-72199500D01*
X140028887Y-72199500D01*
X139961848Y-72179816D01*
X139918266Y-72151807D01*
X139918265Y-72151806D01*
X139918264Y-72151806D01*
X139791211Y-72114500D01*
X139791210Y-72114500D01*
X139658790Y-72114500D01*
X139658789Y-72114500D01*
X139531735Y-72151806D01*
X139488152Y-72179816D01*
X139421113Y-72199500D01*
X138028887Y-72199500D01*
X137961848Y-72179816D01*
X137918266Y-72151807D01*
X137918265Y-72151806D01*
X137918264Y-72151806D01*
X137791211Y-72114500D01*
X137791210Y-72114500D01*
X137658790Y-72114500D01*
X137658789Y-72114500D01*
X137531735Y-72151806D01*
X137488152Y-72179816D01*
X137421113Y-72199500D01*
X136028887Y-72199500D01*
X135961848Y-72179816D01*
X135918266Y-72151807D01*
X135918265Y-72151806D01*
X135918264Y-72151806D01*
X135791211Y-72114500D01*
X135791210Y-72114500D01*
X135658790Y-72114500D01*
X135658789Y-72114500D01*
X135531734Y-72151807D01*
X135420336Y-72223398D01*
X135333618Y-72323476D01*
X135278609Y-72443927D01*
X135262083Y-72558874D01*
X135250229Y-72596731D01*
X135227027Y-72628907D01*
X135156256Y-72699680D01*
X135116028Y-72726561D01*
X135068574Y-72736000D01*
X132307425Y-72736000D01*
X132251130Y-72722485D01*
X132207107Y-72684885D01*
X132184952Y-72631398D01*
X132189494Y-72573682D01*
X132219744Y-72524319D01*
X132700735Y-72043327D01*
X132759182Y-72010503D01*
X132826172Y-72012896D01*
X132882129Y-72049805D01*
X132883618Y-72051524D01*
X132883619Y-72051525D01*
X132970336Y-72151601D01*
X133081734Y-72223193D01*
X133179950Y-72252031D01*
X133208789Y-72260500D01*
X133208790Y-72260500D01*
X133341210Y-72260500D01*
X133341211Y-72260500D01*
X133378518Y-72249545D01*
X133468266Y-72223193D01*
X133505133Y-72199500D01*
X133594663Y-72141963D01*
X133594765Y-72142122D01*
X133617364Y-72125206D01*
X133668875Y-72114000D01*
X134480874Y-72114000D01*
X134491680Y-72114471D01*
X134527789Y-72117631D01*
X134527789Y-72117630D01*
X134527790Y-72117631D01*
X134562799Y-72108249D01*
X134573338Y-72105911D01*
X134609051Y-72099615D01*
X134609055Y-72099612D01*
X134610420Y-72099372D01*
X134633609Y-72089767D01*
X134634746Y-72088970D01*
X134634749Y-72088970D01*
X134664447Y-72068174D01*
X134673542Y-72062380D01*
X134704949Y-72044249D01*
X134728260Y-72016466D01*
X134735547Y-72008514D01*
X135672243Y-71071819D01*
X135712472Y-71044939D01*
X135759925Y-71035500D01*
X135791211Y-71035500D01*
X135833562Y-71023064D01*
X135918266Y-70998193D01*
X135961848Y-70970183D01*
X136028887Y-70950500D01*
X137421113Y-70950500D01*
X137488151Y-70970183D01*
X137531734Y-70998193D01*
X137580514Y-71012516D01*
X137658789Y-71035500D01*
X137658790Y-71035500D01*
X137791210Y-71035500D01*
X137791211Y-71035500D01*
X137833562Y-71023064D01*
X137918266Y-70998193D01*
X137961848Y-70970183D01*
X138028887Y-70950500D01*
X139421113Y-70950500D01*
X139488151Y-70970183D01*
X139531734Y-70998193D01*
X139580514Y-71012516D01*
X139658789Y-71035500D01*
X139658790Y-71035500D01*
X139791210Y-71035500D01*
X139791211Y-71035500D01*
X139833562Y-71023064D01*
X139918266Y-70998193D01*
X139961848Y-70970183D01*
X140028887Y-70950500D01*
X141421113Y-70950500D01*
X141488151Y-70970183D01*
X141531734Y-70998193D01*
X141580514Y-71012516D01*
X141658789Y-71035500D01*
X141658790Y-71035500D01*
X141791210Y-71035500D01*
X141791211Y-71035500D01*
X141833562Y-71023064D01*
X141918266Y-70998193D01*
X141961848Y-70970183D01*
X142028887Y-70950500D01*
X143421113Y-70950500D01*
X143488151Y-70970183D01*
X143531734Y-70998193D01*
X143580514Y-71012516D01*
X143658789Y-71035500D01*
X143658790Y-71035500D01*
X143791210Y-71035500D01*
X143791211Y-71035500D01*
X143833562Y-71023064D01*
X143918266Y-70998193D01*
X143961848Y-70970183D01*
X144028887Y-70950500D01*
X145421113Y-70950500D01*
X145488151Y-70970183D01*
X145531734Y-70998193D01*
X145580514Y-71012516D01*
X145658789Y-71035500D01*
X145658790Y-71035500D01*
X145791210Y-71035500D01*
X145791211Y-71035500D01*
X145814714Y-71028598D01*
X145918266Y-70998193D01*
X146029664Y-70926601D01*
X146116381Y-70826525D01*
X146171390Y-70706072D01*
X146190235Y-70575000D01*
X146171390Y-70443928D01*
X146116381Y-70323475D01*
X146029664Y-70223399D01*
X146029663Y-70223398D01*
X145973176Y-70187096D01*
X145918266Y-70151807D01*
X145854737Y-70133153D01*
X145791211Y-70114500D01*
X145791210Y-70114500D01*
X145658790Y-70114500D01*
X145658789Y-70114500D01*
X145531735Y-70151806D01*
X145488152Y-70179816D01*
X145421113Y-70199500D01*
X144028887Y-70199500D01*
X143961848Y-70179816D01*
X143958971Y-70177967D01*
X143918266Y-70151807D01*
X143918265Y-70151806D01*
X143918264Y-70151806D01*
X143791211Y-70114500D01*
X143791210Y-70114500D01*
X143658790Y-70114500D01*
X143658789Y-70114500D01*
X143531735Y-70151806D01*
X143488152Y-70179816D01*
X143421113Y-70199500D01*
X142028887Y-70199500D01*
X141961848Y-70179816D01*
X141958971Y-70177967D01*
X141918266Y-70151807D01*
X141918265Y-70151806D01*
X141918264Y-70151806D01*
X141791211Y-70114500D01*
X141791210Y-70114500D01*
X141658790Y-70114500D01*
X141658789Y-70114500D01*
X141531735Y-70151806D01*
X141488152Y-70179816D01*
X141421113Y-70199500D01*
X140028887Y-70199500D01*
X139961848Y-70179816D01*
X139958971Y-70177967D01*
X139918266Y-70151807D01*
X139918265Y-70151806D01*
X139918264Y-70151806D01*
X139791211Y-70114500D01*
X139791210Y-70114500D01*
X139658790Y-70114500D01*
X139658789Y-70114500D01*
X139531735Y-70151806D01*
X139488152Y-70179816D01*
X139421113Y-70199500D01*
X138028887Y-70199500D01*
X137961848Y-70179816D01*
X137958971Y-70177967D01*
X137918266Y-70151807D01*
X137918265Y-70151806D01*
X137918264Y-70151806D01*
X137791211Y-70114500D01*
X137791210Y-70114500D01*
X137658790Y-70114500D01*
X137658789Y-70114500D01*
X137531735Y-70151806D01*
X137488152Y-70179816D01*
X137421113Y-70199500D01*
X136028887Y-70199500D01*
X135961848Y-70179816D01*
X135958971Y-70177967D01*
X135918266Y-70151807D01*
X135918265Y-70151806D01*
X135918264Y-70151806D01*
X135791211Y-70114500D01*
X135791210Y-70114500D01*
X135658790Y-70114500D01*
X135658789Y-70114500D01*
X135531734Y-70151807D01*
X135420336Y-70223398D01*
X135333618Y-70323476D01*
X135278609Y-70443927D01*
X135262083Y-70558875D01*
X135250229Y-70596732D01*
X135227026Y-70628909D01*
X134406256Y-71449681D01*
X134366028Y-71476561D01*
X134318575Y-71486000D01*
X133668875Y-71486000D01*
X133617364Y-71474794D01*
X133594764Y-71457877D01*
X133594662Y-71458037D01*
X133536220Y-71420478D01*
X133497764Y-71381329D01*
X133479970Y-71329418D01*
X133486323Y-71274910D01*
X133515577Y-71228484D01*
X135672243Y-69071819D01*
X135712472Y-69044939D01*
X135759925Y-69035500D01*
X135791211Y-69035500D01*
X135833561Y-69023064D01*
X135918266Y-68998193D01*
X135961848Y-68970183D01*
X136028887Y-68950500D01*
X137421113Y-68950500D01*
X137488151Y-68970183D01*
X137531734Y-68998193D01*
X137588626Y-69014898D01*
X137658789Y-69035500D01*
X137658790Y-69035500D01*
X137791210Y-69035500D01*
X137791211Y-69035500D01*
X137833561Y-69023064D01*
X137918266Y-68998193D01*
X137961848Y-68970183D01*
X138028887Y-68950500D01*
X139421113Y-68950500D01*
X139488151Y-68970183D01*
X139531734Y-68998193D01*
X139588626Y-69014898D01*
X139658789Y-69035500D01*
X139658790Y-69035500D01*
X139791210Y-69035500D01*
X139791211Y-69035500D01*
X139833561Y-69023064D01*
X139918266Y-68998193D01*
X139961848Y-68970183D01*
X140028887Y-68950500D01*
X141421113Y-68950500D01*
X141488151Y-68970183D01*
X141531734Y-68998193D01*
X141588626Y-69014898D01*
X141658789Y-69035500D01*
X141658790Y-69035500D01*
X141791210Y-69035500D01*
X141791211Y-69035500D01*
X141833561Y-69023064D01*
X141918266Y-68998193D01*
X141961848Y-68970183D01*
X142028887Y-68950500D01*
X143421113Y-68950500D01*
X143488151Y-68970183D01*
X143531734Y-68998193D01*
X143588626Y-69014898D01*
X143658789Y-69035500D01*
X143658790Y-69035500D01*
X143791210Y-69035500D01*
X143791211Y-69035500D01*
X143833561Y-69023064D01*
X143918266Y-68998193D01*
X143961848Y-68970183D01*
X144028887Y-68950500D01*
X145421113Y-68950500D01*
X145488151Y-68970183D01*
X145531734Y-68998193D01*
X145588626Y-69014898D01*
X145658789Y-69035500D01*
X145658790Y-69035500D01*
X145791210Y-69035500D01*
X145791211Y-69035500D01*
X145814714Y-69028598D01*
X145918266Y-68998193D01*
X146029664Y-68926601D01*
X146116381Y-68826525D01*
X146171390Y-68706072D01*
X146190235Y-68575000D01*
X146171390Y-68443928D01*
X146116381Y-68323475D01*
X146029664Y-68223399D01*
X146029663Y-68223398D01*
X145961848Y-68179816D01*
X145918266Y-68151807D01*
X145826762Y-68124939D01*
X145791211Y-68114500D01*
X145791210Y-68114500D01*
X145658790Y-68114500D01*
X145658789Y-68114500D01*
X145531735Y-68151806D01*
X145506659Y-68167921D01*
X145488792Y-68179405D01*
X145488152Y-68179816D01*
X145421113Y-68199500D01*
X144028887Y-68199500D01*
X143961848Y-68179816D01*
X143918266Y-68151807D01*
X143918265Y-68151806D01*
X143918264Y-68151806D01*
X143791211Y-68114500D01*
X143791210Y-68114500D01*
X143658790Y-68114500D01*
X143658789Y-68114500D01*
X143531735Y-68151806D01*
X143506659Y-68167921D01*
X143488792Y-68179405D01*
X143488152Y-68179816D01*
X143421113Y-68199500D01*
X142028887Y-68199500D01*
X141961848Y-68179816D01*
X141918266Y-68151807D01*
X141918265Y-68151806D01*
X141918264Y-68151806D01*
X141791211Y-68114500D01*
X141791210Y-68114500D01*
X141658790Y-68114500D01*
X141658789Y-68114500D01*
X141531735Y-68151806D01*
X141506659Y-68167921D01*
X141488792Y-68179405D01*
X141488152Y-68179816D01*
X141421113Y-68199500D01*
X140028887Y-68199500D01*
X139961848Y-68179816D01*
X139918266Y-68151807D01*
X139918265Y-68151806D01*
X139918264Y-68151806D01*
X139791211Y-68114500D01*
X139791210Y-68114500D01*
X139658790Y-68114500D01*
X139658789Y-68114500D01*
X139531735Y-68151806D01*
X139506659Y-68167921D01*
X139488792Y-68179405D01*
X139488152Y-68179816D01*
X139421113Y-68199500D01*
X138028887Y-68199500D01*
X137961848Y-68179816D01*
X137918266Y-68151807D01*
X137918265Y-68151806D01*
X137918264Y-68151806D01*
X137791211Y-68114500D01*
X137791210Y-68114500D01*
X137658790Y-68114500D01*
X137658789Y-68114500D01*
X137531735Y-68151806D01*
X137506659Y-68167921D01*
X137488792Y-68179405D01*
X137488152Y-68179816D01*
X137421113Y-68199500D01*
X136028887Y-68199500D01*
X135961848Y-68179816D01*
X135918266Y-68151807D01*
X135918265Y-68151806D01*
X135918264Y-68151806D01*
X135791211Y-68114500D01*
X135791210Y-68114500D01*
X135658790Y-68114500D01*
X135658789Y-68114500D01*
X135531734Y-68151807D01*
X135420336Y-68223398D01*
X135333618Y-68323476D01*
X135278609Y-68443927D01*
X135262083Y-68558875D01*
X135250229Y-68596732D01*
X135227026Y-68628909D01*
X132173111Y-71682824D01*
X132122483Y-71713478D01*
X132063414Y-71717173D01*
X132009360Y-71693068D01*
X131972636Y-71646655D01*
X131916380Y-71523473D01*
X131857715Y-71455771D01*
X131834247Y-71415124D01*
X131827568Y-71368666D01*
X131838632Y-71323057D01*
X131846390Y-71306072D01*
X131862917Y-71191117D01*
X131874770Y-71153265D01*
X131897970Y-71121091D01*
X133858514Y-69160547D01*
X133866466Y-69153260D01*
X133894249Y-69129949D01*
X133912372Y-69098557D01*
X133918171Y-69089452D01*
X133938971Y-69059749D01*
X133938971Y-69059746D01*
X133939768Y-69058609D01*
X133949371Y-69035424D01*
X133949612Y-69034055D01*
X133949615Y-69034051D01*
X133955910Y-68998342D01*
X133958250Y-68987794D01*
X133962193Y-68973083D01*
X133967631Y-68952789D01*
X133964471Y-68916680D01*
X133964000Y-68905874D01*
X133964000Y-68314957D01*
X133971818Y-68271623D01*
X133994287Y-68233754D01*
X134003260Y-68223399D01*
X134041381Y-68179405D01*
X134096390Y-68058952D01*
X134115235Y-67927880D01*
X134096390Y-67796808D01*
X134041381Y-67676355D01*
X133984896Y-67611168D01*
X133957657Y-67557286D01*
X133959094Y-67496924D01*
X133988867Y-67444397D01*
X134039918Y-67412158D01*
X134100143Y-67407851D01*
X134114999Y-67410470D01*
X134115002Y-67410472D01*
X134150699Y-67416766D01*
X134161247Y-67419105D01*
X134162625Y-67419474D01*
X134196262Y-67428488D01*
X134196262Y-67428487D01*
X134196263Y-67428488D01*
X134219905Y-67426419D01*
X134232368Y-67425329D01*
X134243176Y-67424857D01*
X135170017Y-67424857D01*
X135180823Y-67425328D01*
X135216932Y-67428488D01*
X135216932Y-67428487D01*
X135216933Y-67428488D01*
X135251942Y-67419106D01*
X135262481Y-67416768D01*
X135298194Y-67410472D01*
X135298198Y-67410469D01*
X135299563Y-67410229D01*
X135322752Y-67400624D01*
X135323889Y-67399827D01*
X135323892Y-67399827D01*
X135353590Y-67379031D01*
X135362685Y-67373237D01*
X135394092Y-67355106D01*
X135417403Y-67327323D01*
X135424679Y-67319382D01*
X135672246Y-67071816D01*
X135712472Y-67044939D01*
X135759925Y-67035500D01*
X135791211Y-67035500D01*
X135834469Y-67022798D01*
X135918266Y-66998193D01*
X135961848Y-66970183D01*
X136028887Y-66950500D01*
X137421113Y-66950500D01*
X137488151Y-66970183D01*
X137531734Y-66998193D01*
X137595261Y-67016846D01*
X137658789Y-67035500D01*
X137658790Y-67035500D01*
X137791210Y-67035500D01*
X137791211Y-67035500D01*
X137834469Y-67022798D01*
X137918266Y-66998193D01*
X137961848Y-66970183D01*
X138028887Y-66950500D01*
X139421113Y-66950500D01*
X139488151Y-66970183D01*
X139531734Y-66998193D01*
X139595261Y-67016846D01*
X139658789Y-67035500D01*
X139658790Y-67035500D01*
X139791210Y-67035500D01*
X139791211Y-67035500D01*
X139834469Y-67022798D01*
X139918266Y-66998193D01*
X139961848Y-66970183D01*
X140028887Y-66950500D01*
X141421113Y-66950500D01*
X141488151Y-66970183D01*
X141531734Y-66998193D01*
X141595261Y-67016846D01*
X141658789Y-67035500D01*
X141658790Y-67035500D01*
X141791210Y-67035500D01*
X141791211Y-67035500D01*
X141834469Y-67022798D01*
X141918266Y-66998193D01*
X141961848Y-66970183D01*
X142028887Y-66950500D01*
X143421113Y-66950500D01*
X143488151Y-66970183D01*
X143531734Y-66998193D01*
X143595261Y-67016846D01*
X143658789Y-67035500D01*
X143658790Y-67035500D01*
X143791210Y-67035500D01*
X143791211Y-67035500D01*
X143834469Y-67022798D01*
X143918266Y-66998193D01*
X143961848Y-66970183D01*
X144028887Y-66950500D01*
X145421113Y-66950500D01*
X145488151Y-66970183D01*
X145531734Y-66998193D01*
X145595261Y-67016846D01*
X145658789Y-67035500D01*
X145658790Y-67035500D01*
X145791210Y-67035500D01*
X145791211Y-67035500D01*
X145814714Y-67028598D01*
X145918266Y-66998193D01*
X146029664Y-66926601D01*
X146116381Y-66826525D01*
X146171390Y-66706072D01*
X146190235Y-66575000D01*
X146171390Y-66443928D01*
X146166437Y-66433083D01*
X146116381Y-66323476D01*
X146116381Y-66323475D01*
X146029664Y-66223399D01*
X146029663Y-66223398D01*
X145989857Y-66197816D01*
X145918266Y-66151807D01*
X145854737Y-66133153D01*
X145791211Y-66114500D01*
X145791210Y-66114500D01*
X145658790Y-66114500D01*
X145658789Y-66114500D01*
X145531735Y-66151806D01*
X145488152Y-66179816D01*
X145421113Y-66199500D01*
X144028887Y-66199500D01*
X143961848Y-66179816D01*
X143918264Y-66151806D01*
X143791211Y-66114500D01*
X143791210Y-66114500D01*
X143658790Y-66114500D01*
X143658789Y-66114500D01*
X143531735Y-66151806D01*
X143488152Y-66179816D01*
X143421113Y-66199500D01*
X142028887Y-66199500D01*
X141961848Y-66179816D01*
X141918264Y-66151806D01*
X141791211Y-66114500D01*
X141791210Y-66114500D01*
X141658790Y-66114500D01*
X141658789Y-66114500D01*
X141531735Y-66151806D01*
X141488152Y-66179816D01*
X141421113Y-66199500D01*
X140028887Y-66199500D01*
X139961848Y-66179816D01*
X139918264Y-66151806D01*
X139791211Y-66114500D01*
X139791210Y-66114500D01*
X139658790Y-66114500D01*
X139658789Y-66114500D01*
X139531735Y-66151806D01*
X139488152Y-66179816D01*
X139421113Y-66199500D01*
X138028887Y-66199500D01*
X137961848Y-66179816D01*
X137918264Y-66151806D01*
X137791211Y-66114500D01*
X137791210Y-66114500D01*
X137658790Y-66114500D01*
X137658789Y-66114500D01*
X137531735Y-66151806D01*
X137488152Y-66179816D01*
X137421113Y-66199500D01*
X136028887Y-66199500D01*
X135961848Y-66179816D01*
X135918264Y-66151806D01*
X135791211Y-66114500D01*
X135791210Y-66114500D01*
X135658790Y-66114500D01*
X135658789Y-66114500D01*
X135531734Y-66151807D01*
X135420336Y-66223398D01*
X135333618Y-66323476D01*
X135278609Y-66443927D01*
X135262083Y-66558875D01*
X135250229Y-66596732D01*
X135227026Y-66628909D01*
X135095396Y-66760540D01*
X135055171Y-66787418D01*
X135007718Y-66796857D01*
X134405478Y-66796857D01*
X134358025Y-66787418D01*
X134317797Y-66760538D01*
X133295973Y-65738714D01*
X133272770Y-65706537D01*
X133260917Y-65668682D01*
X133244390Y-65553732D01*
X133189381Y-65433279D01*
X133144905Y-65381951D01*
X133117453Y-65327110D01*
X133119642Y-65265816D01*
X133150934Y-65213074D01*
X133438693Y-64925316D01*
X133478919Y-64898439D01*
X133526372Y-64889000D01*
X135331125Y-64889000D01*
X135382636Y-64900206D01*
X135405234Y-64917122D01*
X135405337Y-64916963D01*
X135531732Y-64998192D01*
X135531734Y-64998193D01*
X135605973Y-65019991D01*
X135658789Y-65035500D01*
X135658790Y-65035500D01*
X135791210Y-65035500D01*
X135791211Y-65035500D01*
X135833562Y-65023064D01*
X135918266Y-64998193D01*
X135961848Y-64970183D01*
X136028887Y-64950500D01*
X137421113Y-64950500D01*
X137488151Y-64970183D01*
X137531734Y-64998193D01*
X137595261Y-65016846D01*
X137658789Y-65035500D01*
X137658790Y-65035500D01*
X137791210Y-65035500D01*
X137791211Y-65035500D01*
X137833562Y-65023064D01*
X137918266Y-64998193D01*
X137961848Y-64970183D01*
X138028887Y-64950500D01*
X139421113Y-64950500D01*
X139488151Y-64970183D01*
X139531734Y-64998193D01*
X139595261Y-65016846D01*
X139658789Y-65035500D01*
X139658790Y-65035500D01*
X139791210Y-65035500D01*
X139791211Y-65035500D01*
X139833562Y-65023064D01*
X139918266Y-64998193D01*
X139961848Y-64970183D01*
X140028887Y-64950500D01*
X141421113Y-64950500D01*
X141488151Y-64970183D01*
X141531734Y-64998193D01*
X141595261Y-65016846D01*
X141658789Y-65035500D01*
X141658790Y-65035500D01*
X141791210Y-65035500D01*
X141791211Y-65035500D01*
X141833562Y-65023064D01*
X141918266Y-64998193D01*
X141961848Y-64970183D01*
X142028887Y-64950500D01*
X143421113Y-64950500D01*
X143488151Y-64970183D01*
X143531734Y-64998193D01*
X143595261Y-65016846D01*
X143658789Y-65035500D01*
X143658790Y-65035500D01*
X143791210Y-65035500D01*
X143791211Y-65035500D01*
X143833562Y-65023064D01*
X143918266Y-64998193D01*
X143961848Y-64970183D01*
X144028887Y-64950500D01*
X145421113Y-64950500D01*
X145488151Y-64970183D01*
X145531734Y-64998193D01*
X145595261Y-65016846D01*
X145658789Y-65035500D01*
X145658790Y-65035500D01*
X145791210Y-65035500D01*
X145791211Y-65035500D01*
X145814714Y-65028598D01*
X145918266Y-64998193D01*
X146029664Y-64926601D01*
X146116381Y-64826525D01*
X146171390Y-64706072D01*
X146190235Y-64575000D01*
X146171390Y-64443928D01*
X146167120Y-64434579D01*
X146134235Y-64362570D01*
X146116381Y-64323475D01*
X146029664Y-64223399D01*
X146029663Y-64223398D01*
X145970285Y-64185238D01*
X145918266Y-64151807D01*
X145820809Y-64123191D01*
X145791211Y-64114500D01*
X145791210Y-64114500D01*
X145658790Y-64114500D01*
X145658789Y-64114500D01*
X145531735Y-64151806D01*
X145508482Y-64166750D01*
X145495047Y-64175385D01*
X145488152Y-64179816D01*
X145421113Y-64199500D01*
X144028887Y-64199500D01*
X143961848Y-64179816D01*
X143955327Y-64175625D01*
X143918266Y-64151807D01*
X143918265Y-64151806D01*
X143918264Y-64151806D01*
X143791211Y-64114500D01*
X143791210Y-64114500D01*
X143658790Y-64114500D01*
X143658789Y-64114500D01*
X143531735Y-64151806D01*
X143508482Y-64166750D01*
X143495047Y-64175385D01*
X143488152Y-64179816D01*
X143421113Y-64199500D01*
X142028887Y-64199500D01*
X141961848Y-64179816D01*
X141955327Y-64175625D01*
X141918266Y-64151807D01*
X141918265Y-64151806D01*
X141918264Y-64151806D01*
X141791211Y-64114500D01*
X141791210Y-64114500D01*
X141658790Y-64114500D01*
X141658789Y-64114500D01*
X141531735Y-64151806D01*
X141508482Y-64166750D01*
X141495047Y-64175385D01*
X141488152Y-64179816D01*
X141421113Y-64199500D01*
X140028887Y-64199500D01*
X139961848Y-64179816D01*
X139955327Y-64175625D01*
X139918266Y-64151807D01*
X139918265Y-64151806D01*
X139918264Y-64151806D01*
X139791211Y-64114500D01*
X139791210Y-64114500D01*
X139658790Y-64114500D01*
X139658789Y-64114500D01*
X139531735Y-64151806D01*
X139508482Y-64166750D01*
X139495047Y-64175385D01*
X139488152Y-64179816D01*
X139421113Y-64199500D01*
X138028887Y-64199500D01*
X137961848Y-64179816D01*
X137955327Y-64175625D01*
X137918266Y-64151807D01*
X137918265Y-64151806D01*
X137918264Y-64151806D01*
X137791211Y-64114500D01*
X137791210Y-64114500D01*
X137658790Y-64114500D01*
X137658789Y-64114500D01*
X137531735Y-64151806D01*
X137508482Y-64166750D01*
X137495047Y-64175385D01*
X137488152Y-64179816D01*
X137421113Y-64199500D01*
X136028887Y-64199500D01*
X135961848Y-64179816D01*
X135955327Y-64175625D01*
X135918266Y-64151807D01*
X135918265Y-64151806D01*
X135918264Y-64151806D01*
X135791211Y-64114500D01*
X135791210Y-64114500D01*
X135658790Y-64114500D01*
X135658789Y-64114500D01*
X135531732Y-64151807D01*
X135405337Y-64233037D01*
X135405234Y-64232877D01*
X135382636Y-64249794D01*
X135331125Y-64261000D01*
X134045990Y-64261000D01*
X133989695Y-64247485D01*
X133945672Y-64209885D01*
X133923517Y-64156398D01*
X133928059Y-64098682D01*
X133958309Y-64049319D01*
X135082309Y-62925319D01*
X135122537Y-62898439D01*
X135169990Y-62889000D01*
X135331125Y-62889000D01*
X135382636Y-62900206D01*
X135405234Y-62917122D01*
X135405337Y-62916963D01*
X135531732Y-62998192D01*
X135531734Y-62998193D01*
X135604565Y-63019578D01*
X135658789Y-63035500D01*
X135658790Y-63035500D01*
X135791210Y-63035500D01*
X135791211Y-63035500D01*
X135845435Y-63019578D01*
X135918266Y-62998193D01*
X135961848Y-62970183D01*
X136028887Y-62950500D01*
X137421113Y-62950500D01*
X137488151Y-62970183D01*
X137531734Y-62998193D01*
X137595261Y-63016846D01*
X137658789Y-63035500D01*
X137658790Y-63035500D01*
X137791210Y-63035500D01*
X137791211Y-63035500D01*
X137845435Y-63019578D01*
X137918266Y-62998193D01*
X137961848Y-62970183D01*
X138028887Y-62950500D01*
X139421113Y-62950500D01*
X139488151Y-62970183D01*
X139531734Y-62998193D01*
X139595261Y-63016846D01*
X139658789Y-63035500D01*
X139658790Y-63035500D01*
X139791210Y-63035500D01*
X139791211Y-63035500D01*
X139845435Y-63019578D01*
X139918266Y-62998193D01*
X139961848Y-62970183D01*
X140028887Y-62950500D01*
X141421113Y-62950500D01*
X141488151Y-62970183D01*
X141531734Y-62998193D01*
X141595261Y-63016846D01*
X141658789Y-63035500D01*
X141658790Y-63035500D01*
X141791210Y-63035500D01*
X141791211Y-63035500D01*
X141845435Y-63019578D01*
X141918266Y-62998193D01*
X141961848Y-62970183D01*
X142028887Y-62950500D01*
X143421113Y-62950500D01*
X143488151Y-62970183D01*
X143531734Y-62998193D01*
X143595261Y-63016846D01*
X143658789Y-63035500D01*
X143658790Y-63035500D01*
X143791210Y-63035500D01*
X143791211Y-63035500D01*
X143845435Y-63019578D01*
X143918266Y-62998193D01*
X143961848Y-62970183D01*
X144028887Y-62950500D01*
X145421113Y-62950500D01*
X145488151Y-62970183D01*
X145531734Y-62998193D01*
X145595261Y-63016846D01*
X145658789Y-63035500D01*
X145658790Y-63035500D01*
X145791210Y-63035500D01*
X145791211Y-63035500D01*
X145821551Y-63026591D01*
X145918266Y-62998193D01*
X146029664Y-62926601D01*
X146116381Y-62826525D01*
X146171390Y-62706072D01*
X146190235Y-62575000D01*
X146171390Y-62443928D01*
X146170316Y-62441577D01*
X146127669Y-62348192D01*
X146116381Y-62323475D01*
X146029664Y-62223399D01*
X146029663Y-62223398D01*
X145961848Y-62179816D01*
X145918266Y-62151807D01*
X145851174Y-62132107D01*
X145791211Y-62114500D01*
X145791210Y-62114500D01*
X145658790Y-62114500D01*
X145658789Y-62114500D01*
X145531735Y-62151806D01*
X145524590Y-62156398D01*
X145493273Y-62176525D01*
X145488152Y-62179816D01*
X145421113Y-62199500D01*
X144028887Y-62199500D01*
X143961848Y-62179816D01*
X143918266Y-62151807D01*
X143918265Y-62151806D01*
X143918264Y-62151806D01*
X143791211Y-62114500D01*
X143791210Y-62114500D01*
X143658790Y-62114500D01*
X143658789Y-62114500D01*
X143531735Y-62151806D01*
X143524590Y-62156398D01*
X143493273Y-62176525D01*
X143488152Y-62179816D01*
X143421113Y-62199500D01*
X142028887Y-62199500D01*
X141961848Y-62179816D01*
X141918266Y-62151807D01*
X141918265Y-62151806D01*
X141918264Y-62151806D01*
X141791211Y-62114500D01*
X141791210Y-62114500D01*
X141658790Y-62114500D01*
X141658789Y-62114500D01*
X141531735Y-62151806D01*
X141524590Y-62156398D01*
X141493273Y-62176525D01*
X141488152Y-62179816D01*
X141421113Y-62199500D01*
X140028887Y-62199500D01*
X139961848Y-62179816D01*
X139918266Y-62151807D01*
X139918265Y-62151806D01*
X139918264Y-62151806D01*
X139791211Y-62114500D01*
X139791210Y-62114500D01*
X139658790Y-62114500D01*
X139658789Y-62114500D01*
X139531735Y-62151806D01*
X139524590Y-62156398D01*
X139493273Y-62176525D01*
X139488152Y-62179816D01*
X139421113Y-62199500D01*
X138028887Y-62199500D01*
X137961848Y-62179816D01*
X137918266Y-62151807D01*
X137918265Y-62151806D01*
X137918264Y-62151806D01*
X137791211Y-62114500D01*
X137791210Y-62114500D01*
X137658790Y-62114500D01*
X137658789Y-62114500D01*
X137531735Y-62151806D01*
X137524590Y-62156398D01*
X137493273Y-62176525D01*
X137488152Y-62179816D01*
X137421113Y-62199500D01*
X136028887Y-62199500D01*
X135961848Y-62179816D01*
X135918266Y-62151807D01*
X135918265Y-62151806D01*
X135918264Y-62151806D01*
X135791211Y-62114500D01*
X135791210Y-62114500D01*
X135658790Y-62114500D01*
X135658789Y-62114500D01*
X135531732Y-62151807D01*
X135405337Y-62233037D01*
X135405234Y-62232877D01*
X135382636Y-62249794D01*
X135331125Y-62261000D01*
X135182424Y-62261000D01*
X135126129Y-62247485D01*
X135082106Y-62209885D01*
X135059951Y-62156398D01*
X135064493Y-62098682D01*
X135094743Y-62049319D01*
X135487807Y-61656256D01*
X136072243Y-61071819D01*
X136112472Y-61044939D01*
X136159925Y-61035500D01*
X136191211Y-61035500D01*
X136233561Y-61023064D01*
X136318266Y-60998193D01*
X136361848Y-60970183D01*
X136428887Y-60950500D01*
X137821113Y-60950500D01*
X137888151Y-60970183D01*
X137931734Y-60998193D01*
X137995261Y-61016846D01*
X138058789Y-61035500D01*
X138058790Y-61035500D01*
X138191210Y-61035500D01*
X138191211Y-61035500D01*
X138233561Y-61023064D01*
X138318266Y-60998193D01*
X138361848Y-60970183D01*
X138428887Y-60950500D01*
X139821113Y-60950500D01*
X139888151Y-60970183D01*
X139931734Y-60998193D01*
X139995261Y-61016846D01*
X140058789Y-61035500D01*
X140058790Y-61035500D01*
X140191210Y-61035500D01*
X140191211Y-61035500D01*
X140233561Y-61023064D01*
X140318266Y-60998193D01*
X140361848Y-60970183D01*
X140428887Y-60950500D01*
X141821113Y-60950500D01*
X141888151Y-60970183D01*
X141931734Y-60998193D01*
X141995261Y-61016846D01*
X142058789Y-61035500D01*
X142058790Y-61035500D01*
X142191210Y-61035500D01*
X142191211Y-61035500D01*
X142233561Y-61023064D01*
X142318266Y-60998193D01*
X142361848Y-60970183D01*
X142428887Y-60950500D01*
X143821113Y-60950500D01*
X143888151Y-60970183D01*
X143931734Y-60998193D01*
X143995261Y-61016846D01*
X144058789Y-61035500D01*
X144058790Y-61035500D01*
X144191210Y-61035500D01*
X144191211Y-61035500D01*
X144233561Y-61023064D01*
X144318266Y-60998193D01*
X144361848Y-60970183D01*
X144428887Y-60950500D01*
X145821113Y-60950500D01*
X145888151Y-60970183D01*
X145931734Y-60998193D01*
X145995261Y-61016846D01*
X146058789Y-61035500D01*
X146058790Y-61035500D01*
X146191210Y-61035500D01*
X146191211Y-61035500D01*
X146214714Y-61028598D01*
X146318266Y-60998193D01*
X146429664Y-60926601D01*
X146516381Y-60826525D01*
X146571390Y-60706072D01*
X146590235Y-60575000D01*
X146571390Y-60443928D01*
X146564229Y-60428248D01*
X146535082Y-60364424D01*
X146516381Y-60323475D01*
X146429664Y-60223399D01*
X146429663Y-60223398D01*
X146380317Y-60191685D01*
X146318266Y-60151807D01*
X146244002Y-60130001D01*
X146191211Y-60114500D01*
X146191210Y-60114500D01*
X146058790Y-60114500D01*
X146058789Y-60114500D01*
X145931735Y-60151806D01*
X145888152Y-60179816D01*
X145821113Y-60199500D01*
X144428887Y-60199500D01*
X144361848Y-60179816D01*
X144318266Y-60151807D01*
X144318265Y-60151806D01*
X144318264Y-60151806D01*
X144191211Y-60114500D01*
X144191210Y-60114500D01*
X144058790Y-60114500D01*
X144058789Y-60114500D01*
X143931735Y-60151806D01*
X143888152Y-60179816D01*
X143821113Y-60199500D01*
X142428887Y-60199500D01*
X142361848Y-60179816D01*
X142318266Y-60151807D01*
X142318265Y-60151806D01*
X142318264Y-60151806D01*
X142191211Y-60114500D01*
X142191210Y-60114500D01*
X142058790Y-60114500D01*
X142058789Y-60114500D01*
X141931735Y-60151806D01*
X141888152Y-60179816D01*
X141821113Y-60199500D01*
X140428887Y-60199500D01*
X140361848Y-60179816D01*
X140318266Y-60151807D01*
X140318265Y-60151806D01*
X140318264Y-60151806D01*
X140191211Y-60114500D01*
X140191210Y-60114500D01*
X140058790Y-60114500D01*
X140058789Y-60114500D01*
X139931735Y-60151806D01*
X139888152Y-60179816D01*
X139821113Y-60199500D01*
X138428887Y-60199500D01*
X138361848Y-60179816D01*
X138318266Y-60151807D01*
X138318265Y-60151806D01*
X138318264Y-60151806D01*
X138191211Y-60114500D01*
X138191210Y-60114500D01*
X138058790Y-60114500D01*
X138058789Y-60114500D01*
X137931735Y-60151806D01*
X137888152Y-60179816D01*
X137821113Y-60199500D01*
X136428887Y-60199500D01*
X136361848Y-60179816D01*
X136318266Y-60151807D01*
X136318265Y-60151806D01*
X136318264Y-60151806D01*
X136191211Y-60114500D01*
X136191210Y-60114500D01*
X136058790Y-60114500D01*
X136058789Y-60114500D01*
X135931734Y-60151807D01*
X135820336Y-60223398D01*
X135733618Y-60323476D01*
X135678609Y-60443927D01*
X135662083Y-60558875D01*
X135650229Y-60596732D01*
X135627026Y-60628909D01*
X133861186Y-62394749D01*
X133810558Y-62425403D01*
X133751488Y-62429098D01*
X133697434Y-62404992D01*
X133660712Y-62358581D01*
X133647452Y-62329546D01*
X133560735Y-62229470D01*
X133560734Y-62229469D01*
X133514101Y-62199500D01*
X133449337Y-62157878D01*
X133361569Y-62132107D01*
X133322282Y-62120571D01*
X133322281Y-62120571D01*
X133290997Y-62120571D01*
X133243544Y-62111132D01*
X133203316Y-62084252D01*
X132775319Y-61656256D01*
X132748439Y-61616028D01*
X132739000Y-61568575D01*
X132739000Y-60229268D01*
X132752116Y-60173763D01*
X132788690Y-60130001D01*
X132840983Y-60107238D01*
X132897935Y-60110291D01*
X132983789Y-60135500D01*
X133076096Y-60135500D01*
X133143135Y-60155184D01*
X133188890Y-60207988D01*
X133198834Y-60277147D01*
X133184765Y-60375000D01*
X133203609Y-60506072D01*
X133245013Y-60596732D01*
X133258619Y-60626525D01*
X133345336Y-60726601D01*
X133456734Y-60798193D01*
X133553217Y-60826523D01*
X133583789Y-60835500D01*
X133583790Y-60835500D01*
X133716210Y-60835500D01*
X133716211Y-60835500D01*
X133753518Y-60824545D01*
X133843266Y-60798193D01*
X133869162Y-60781549D01*
X133969663Y-60716963D01*
X133969765Y-60717122D01*
X133992364Y-60700206D01*
X134043875Y-60689000D01*
X134405874Y-60689000D01*
X134416680Y-60689471D01*
X134452789Y-60692631D01*
X134452789Y-60692630D01*
X134452790Y-60692631D01*
X134487799Y-60683249D01*
X134498338Y-60680911D01*
X134534051Y-60674615D01*
X134534055Y-60674612D01*
X134535420Y-60674372D01*
X134558609Y-60664767D01*
X134559746Y-60663970D01*
X134559749Y-60663970D01*
X134589447Y-60643174D01*
X134598542Y-60637380D01*
X134629949Y-60619249D01*
X134653244Y-60591485D01*
X134660554Y-60583508D01*
X134722245Y-60521818D01*
X134762474Y-60494939D01*
X134809926Y-60485500D01*
X134841211Y-60485500D01*
X134864714Y-60478598D01*
X134968266Y-60448193D01*
X135079664Y-60376601D01*
X135166381Y-60276525D01*
X135221390Y-60156072D01*
X135240235Y-60025000D01*
X135223758Y-59910403D01*
X135221390Y-59893927D01*
X135193885Y-59833701D01*
X135166381Y-59773475D01*
X135155270Y-59760652D01*
X135130006Y-59714384D01*
X135126246Y-59661800D01*
X135144670Y-59612406D01*
X135174375Y-59582703D01*
X135179660Y-59576603D01*
X135179664Y-59576601D01*
X135266381Y-59476525D01*
X135321390Y-59356072D01*
X135340235Y-59225000D01*
X135321390Y-59093928D01*
X135266381Y-58973475D01*
X135219286Y-58919125D01*
X135196818Y-58881257D01*
X135189000Y-58837923D01*
X135189000Y-56659500D01*
X135205613Y-56597500D01*
X135251000Y-56552113D01*
X135313000Y-56535500D01*
X135366211Y-56535500D01*
X135403517Y-56524545D01*
X135493266Y-56498193D01*
X135519162Y-56481549D01*
X135619663Y-56416963D01*
X135619765Y-56417122D01*
X135642364Y-56400206D01*
X135693875Y-56389000D01*
X141931125Y-56389000D01*
X141982636Y-56400206D01*
X142005234Y-56417122D01*
X142005337Y-56416963D01*
X142131732Y-56498192D01*
X142131734Y-56498193D01*
X142205973Y-56519991D01*
X142258789Y-56535500D01*
X142258790Y-56535500D01*
X142391210Y-56535500D01*
X142391211Y-56535500D01*
X142414714Y-56528598D01*
X142518266Y-56498193D01*
X142629664Y-56426601D01*
X142716381Y-56326525D01*
X142771390Y-56206072D01*
X142790235Y-56075000D01*
X142771390Y-55943928D01*
X142716381Y-55823475D01*
X142629664Y-55723399D01*
X142629663Y-55723398D01*
X142586001Y-55695338D01*
X142518266Y-55651807D01*
X142436002Y-55627652D01*
X142391211Y-55614500D01*
X142391210Y-55614500D01*
X142258790Y-55614500D01*
X142258789Y-55614500D01*
X142131732Y-55651807D01*
X142005337Y-55733037D01*
X142005234Y-55732877D01*
X141982636Y-55749794D01*
X141931125Y-55761000D01*
X139123336Y-55761000D01*
X139062361Y-55744973D01*
X139017149Y-55701033D01*
X138999387Y-55640541D01*
X139013666Y-55579133D01*
X139056294Y-55532686D01*
X139104664Y-55501601D01*
X139191381Y-55401525D01*
X139246390Y-55281072D01*
X139265235Y-55150000D01*
X139246678Y-55020928D01*
X139246390Y-55018927D01*
X139218885Y-54958701D01*
X139191381Y-54898475D01*
X139104664Y-54798399D01*
X139104663Y-54798398D01*
X139064857Y-54772816D01*
X138993266Y-54726807D01*
X138929738Y-54708153D01*
X138866211Y-54689500D01*
X138866210Y-54689500D01*
X138733790Y-54689500D01*
X138733789Y-54689500D01*
X138606732Y-54726807D01*
X138484742Y-54805206D01*
X138455903Y-54826794D01*
X138404392Y-54838000D01*
X137818875Y-54838000D01*
X137767364Y-54826794D01*
X137744765Y-54809877D01*
X137744663Y-54810037D01*
X137618267Y-54728807D01*
X137491211Y-54691500D01*
X137491210Y-54691500D01*
X137358790Y-54691500D01*
X137358789Y-54691500D01*
X137231734Y-54728807D01*
X137120336Y-54800398D01*
X137033618Y-54900476D01*
X136978609Y-55020927D01*
X136959765Y-55152000D01*
X136978609Y-55283072D01*
X137032705Y-55401523D01*
X137033619Y-55403525D01*
X137120336Y-55503601D01*
X137165593Y-55532686D01*
X137208222Y-55579133D01*
X137222501Y-55640541D01*
X137204739Y-55701033D01*
X137159527Y-55744973D01*
X137098552Y-55761000D01*
X135693875Y-55761000D01*
X135642364Y-55749794D01*
X135619765Y-55732877D01*
X135619663Y-55733037D01*
X135493267Y-55651807D01*
X135366211Y-55614500D01*
X135366210Y-55614500D01*
X135313000Y-55614500D01*
X135251000Y-55597887D01*
X135205613Y-55552500D01*
X135189000Y-55490500D01*
X135189000Y-53862077D01*
X135196818Y-53818743D01*
X135219287Y-53780874D01*
X135234289Y-53763561D01*
X135266381Y-53726525D01*
X135321390Y-53606072D01*
X135340235Y-53475000D01*
X135321390Y-53343928D01*
X135266381Y-53223475D01*
X135179664Y-53123399D01*
X135179663Y-53123398D01*
X135120072Y-53085101D01*
X135068266Y-53051807D01*
X135004457Y-53033071D01*
X134941211Y-53014500D01*
X134941210Y-53014500D01*
X134808790Y-53014500D01*
X134808789Y-53014500D01*
X134681734Y-53051807D01*
X134570336Y-53123398D01*
X134483618Y-53223476D01*
X134428609Y-53343927D01*
X134409765Y-53475000D01*
X134428609Y-53606072D01*
X134483618Y-53726524D01*
X134530713Y-53780874D01*
X134553182Y-53818743D01*
X134561000Y-53862077D01*
X134561000Y-55506051D01*
X134547884Y-55561556D01*
X134511310Y-55605318D01*
X134459016Y-55628081D01*
X134402065Y-55625028D01*
X134366210Y-55614500D01*
X134233790Y-55614500D01*
X134233789Y-55614500D01*
X134106734Y-55651807D01*
X134105040Y-55652896D01*
X134042426Y-55672502D01*
X133978573Y-55657413D01*
X133931358Y-55611855D01*
X133914000Y-55548581D01*
X133914000Y-53862077D01*
X133921818Y-53818743D01*
X133944287Y-53780874D01*
X133959289Y-53763561D01*
X133991381Y-53726525D01*
X134046390Y-53606072D01*
X134065235Y-53475000D01*
X134046390Y-53343928D01*
X133991381Y-53223475D01*
X133904664Y-53123399D01*
X133904663Y-53123398D01*
X133845072Y-53085101D01*
X133793266Y-53051807D01*
X133729457Y-53033071D01*
X133666211Y-53014500D01*
X133666210Y-53014500D01*
X133533790Y-53014500D01*
X133533789Y-53014500D01*
X133406732Y-53051807D01*
X133379538Y-53069284D01*
X133312500Y-53088968D01*
X133245462Y-53069284D01*
X133218267Y-53051807D01*
X133091211Y-53014500D01*
X133091210Y-53014500D01*
X132958790Y-53014500D01*
X132958789Y-53014500D01*
X132831732Y-53051807D01*
X132792039Y-53077317D01*
X132725000Y-53097002D01*
X132657961Y-53077317D01*
X132618267Y-53051807D01*
X132491211Y-53014500D01*
X132491210Y-53014500D01*
X132358790Y-53014500D01*
X132358789Y-53014500D01*
X132231732Y-53051807D01*
X132185087Y-53081784D01*
X132118049Y-53101468D01*
X132051011Y-53081784D01*
X132043267Y-53076807D01*
X131916211Y-53039500D01*
X131916210Y-53039500D01*
X131783790Y-53039500D01*
X131783789Y-53039500D01*
X131656734Y-53076807D01*
X131545336Y-53148398D01*
X131458618Y-53248476D01*
X131403609Y-53368927D01*
X131384765Y-53500000D01*
X131403609Y-53631072D01*
X131458618Y-53751524D01*
X131505713Y-53805874D01*
X131528182Y-53843743D01*
X131536000Y-53887077D01*
X131536000Y-61900587D01*
X131529768Y-61925000D01*
X131536000Y-61949413D01*
X131536000Y-63632296D01*
X131535528Y-63643099D01*
X131534785Y-63651601D01*
X131533042Y-63671512D01*
X131519122Y-63718685D01*
X131487958Y-63756735D01*
X131444453Y-63779677D01*
X131439573Y-63781110D01*
X131328174Y-63852702D01*
X131241456Y-63952780D01*
X131186447Y-64073231D01*
X131167603Y-64204304D01*
X131184647Y-64322854D01*
X131174703Y-64392012D01*
X131128948Y-64444816D01*
X131061909Y-64464500D01*
X130933789Y-64464500D01*
X130806732Y-64501807D01*
X130680337Y-64583037D01*
X130680234Y-64582877D01*
X130657636Y-64599794D01*
X130606125Y-64611000D01*
X130521508Y-64611000D01*
X130510701Y-64610528D01*
X130507677Y-64610263D01*
X130474592Y-64607368D01*
X130439577Y-64616751D01*
X130429017Y-64619092D01*
X130391968Y-64625624D01*
X130368768Y-64635234D01*
X130337936Y-64656822D01*
X130328817Y-64662630D01*
X130297434Y-64680749D01*
X130274132Y-64708519D01*
X130266825Y-64716492D01*
X130058635Y-64924683D01*
X130018410Y-64951561D01*
X129970957Y-64961000D01*
X129834333Y-64961000D01*
X129774906Y-64945832D01*
X129730017Y-64904039D01*
X129710649Y-64845845D01*
X129721539Y-64785488D01*
X129746390Y-64731072D01*
X129748486Y-64716492D01*
X129765235Y-64600000D01*
X129746390Y-64468928D01*
X129735378Y-64444816D01*
X129711264Y-64392012D01*
X129691381Y-64348475D01*
X129604664Y-64248399D01*
X129604663Y-64248398D01*
X129544806Y-64209930D01*
X129493266Y-64176807D01*
X129408124Y-64151807D01*
X129366211Y-64139500D01*
X129366210Y-64139500D01*
X129233790Y-64139500D01*
X129233789Y-64139500D01*
X129106734Y-64176807D01*
X128995336Y-64248398D01*
X128908618Y-64348476D01*
X128853609Y-64468927D01*
X128837083Y-64583874D01*
X128825230Y-64621729D01*
X128802031Y-64653904D01*
X128782760Y-64673177D01*
X128742530Y-64700060D01*
X128695074Y-64709500D01*
X128659831Y-64709500D01*
X128603011Y-64695716D01*
X128558823Y-64657427D01*
X128537093Y-64603146D01*
X128521390Y-64493927D01*
X128493885Y-64433701D01*
X128466381Y-64373475D01*
X128425302Y-64326068D01*
X128397850Y-64271223D01*
X128400039Y-64209930D01*
X128431336Y-64157183D01*
X128484080Y-64125890D01*
X128493266Y-64123193D01*
X128604664Y-64051601D01*
X128691381Y-63951525D01*
X128746390Y-63831072D01*
X128761750Y-63724232D01*
X128782129Y-63671891D01*
X128823513Y-63633909D01*
X128877409Y-63618083D01*
X128932758Y-63627662D01*
X128954415Y-63643397D01*
X128955337Y-63641963D01*
X129066614Y-63713476D01*
X129081734Y-63723193D01*
X129155973Y-63744991D01*
X129208789Y-63760500D01*
X129208790Y-63760500D01*
X129341210Y-63760500D01*
X129341211Y-63760500D01*
X129364714Y-63753598D01*
X129468266Y-63723193D01*
X129579664Y-63651601D01*
X129666381Y-63551525D01*
X129690402Y-63498924D01*
X129720515Y-63432989D01*
X129747739Y-63394757D01*
X129787223Y-63369382D01*
X129833309Y-63360500D01*
X129841211Y-63360500D01*
X129881005Y-63348815D01*
X129968266Y-63323193D01*
X130079664Y-63251601D01*
X130166381Y-63151525D01*
X130221390Y-63031072D01*
X130226117Y-62998193D01*
X130227029Y-62991853D01*
X130248760Y-62937573D01*
X130292947Y-62899284D01*
X130349767Y-62885500D01*
X130416211Y-62885500D01*
X130439714Y-62878598D01*
X130543266Y-62848193D01*
X130654664Y-62776601D01*
X130741381Y-62676525D01*
X130796390Y-62556072D01*
X130806475Y-62485928D01*
X130821824Y-62441577D01*
X130852560Y-62406106D01*
X130894274Y-62384600D01*
X131018266Y-62348193D01*
X131129664Y-62276601D01*
X131216381Y-62176525D01*
X131271390Y-62056072D01*
X131289262Y-61931766D01*
X131292064Y-61924999D01*
X131289262Y-61918233D01*
X131271390Y-61793927D01*
X131216381Y-61673476D01*
X131216381Y-61673475D01*
X131129664Y-61573399D01*
X131129663Y-61573398D01*
X131073548Y-61537335D01*
X131018266Y-61501807D01*
X130954738Y-61483153D01*
X130891211Y-61464500D01*
X130891210Y-61464500D01*
X130758790Y-61464500D01*
X130758789Y-61464500D01*
X130631732Y-61501807D01*
X130505337Y-61583037D01*
X130505234Y-61582877D01*
X130482636Y-61599794D01*
X130431125Y-61611000D01*
X129782424Y-61611000D01*
X129726129Y-61597485D01*
X129682106Y-61559885D01*
X129659951Y-61506398D01*
X129664493Y-61448682D01*
X129694743Y-61399319D01*
X130167461Y-60926601D01*
X130658513Y-60435548D01*
X130666466Y-60428260D01*
X130694249Y-60404949D01*
X130712380Y-60373542D01*
X130718174Y-60364447D01*
X130738970Y-60334749D01*
X130738970Y-60334746D01*
X130739767Y-60333609D01*
X130749372Y-60310420D01*
X130749612Y-60309055D01*
X130749615Y-60309051D01*
X130755911Y-60273338D01*
X130758243Y-60262820D01*
X130767631Y-60227789D01*
X130764472Y-60191685D01*
X130764000Y-60180877D01*
X130764000Y-53884977D01*
X130771818Y-53841643D01*
X130794287Y-53803774D01*
X130814130Y-53780874D01*
X130829132Y-53763561D01*
X130884141Y-53643108D01*
X130902986Y-53512036D01*
X130884141Y-53380964D01*
X130878644Y-53368928D01*
X130829132Y-53260512D01*
X130829132Y-53260511D01*
X130742415Y-53160435D01*
X130742414Y-53160434D01*
X130687723Y-53125286D01*
X130631017Y-53088843D01*
X130564405Y-53069284D01*
X130503962Y-53051536D01*
X130503961Y-53051536D01*
X130371541Y-53051536D01*
X130371540Y-53051536D01*
X130244484Y-53088843D01*
X130228491Y-53099121D01*
X130161453Y-53118803D01*
X130094416Y-53099118D01*
X130049696Y-53070378D01*
X129922640Y-53033071D01*
X129922639Y-53033071D01*
X129790219Y-53033071D01*
X129790218Y-53033071D01*
X129663162Y-53070378D01*
X129640249Y-53085103D01*
X129573210Y-53104786D01*
X129506172Y-53085101D01*
X129493266Y-53076807D01*
X129366211Y-53039500D01*
X129366210Y-53039500D01*
X129233790Y-53039500D01*
X129233789Y-53039500D01*
X129106734Y-53076807D01*
X128995336Y-53148398D01*
X128908618Y-53248476D01*
X128853609Y-53368927D01*
X128834765Y-53500000D01*
X128853609Y-53631072D01*
X128908618Y-53751524D01*
X128955713Y-53805874D01*
X128978182Y-53843743D01*
X128986000Y-53887077D01*
X128986000Y-59718575D01*
X128976561Y-59766028D01*
X128949681Y-59806256D01*
X128881256Y-59874681D01*
X128841028Y-59901561D01*
X128793575Y-59911000D01*
X123769126Y-59911000D01*
X123758319Y-59910528D01*
X123755295Y-59910263D01*
X123722210Y-59907368D01*
X123687198Y-59916750D01*
X123676639Y-59919091D01*
X123639591Y-59925624D01*
X123616384Y-59935236D01*
X123585562Y-59956817D01*
X123576445Y-59962624D01*
X123545052Y-59980749D01*
X123521750Y-60008519D01*
X123514444Y-60016491D01*
X121916491Y-61614444D01*
X121908519Y-61621750D01*
X121880749Y-61645052D01*
X121862624Y-61676445D01*
X121856817Y-61685562D01*
X121835236Y-61716384D01*
X121825624Y-61739591D01*
X121819091Y-61776639D01*
X121816750Y-61787198D01*
X121807368Y-61822210D01*
X121810528Y-61858318D01*
X121811000Y-61869126D01*
X121811000Y-72819439D01*
X121810528Y-72830247D01*
X121807368Y-72866355D01*
X114401849Y-72866355D01*
X114392638Y-72860652D01*
X114202457Y-72786976D01*
X114135629Y-72774483D01*
X114001976Y-72749500D01*
X113798024Y-72749500D01*
X113697784Y-72768237D01*
X113597542Y-72786976D01*
X113407361Y-72860652D01*
X113233958Y-72968018D01*
X113083236Y-73105419D01*
X112960324Y-73268181D01*
X112869418Y-73450748D01*
X112813602Y-73646916D01*
X112794785Y-73850000D01*
X112813602Y-74053083D01*
X112869418Y-74249251D01*
X112960324Y-74431818D01*
X113083236Y-74594580D01*
X113233958Y-74731981D01*
X113386653Y-74826525D01*
X113407363Y-74839348D01*
X113488286Y-74870697D01*
X113538398Y-74906519D01*
X113565089Y-74962037D01*
X113561771Y-75023548D01*
X113529263Y-75075873D01*
X113475586Y-75106097D01*
X113436511Y-75116567D01*
X113222421Y-75216400D01*
X113028921Y-75351890D01*
X112861890Y-75518921D01*
X112726400Y-75712421D01*
X112626569Y-75926507D01*
X112569364Y-76139999D01*
X112569364Y-76140000D01*
X112000500Y-76140000D01*
X112000500Y-71309999D01*
X112794785Y-71309999D01*
X112813602Y-71513083D01*
X112869418Y-71709251D01*
X112960324Y-71891818D01*
X113083236Y-72054580D01*
X113233958Y-72191981D01*
X113391795Y-72289709D01*
X113407363Y-72299348D01*
X113597544Y-72373024D01*
X113798024Y-72410500D01*
X114001974Y-72410500D01*
X114001976Y-72410500D01*
X114202456Y-72373024D01*
X114392637Y-72299348D01*
X114566041Y-72191981D01*
X114708217Y-72062371D01*
X114716763Y-72054580D01*
X114726780Y-72041315D01*
X114839673Y-71891821D01*
X114839673Y-71891819D01*
X114839675Y-71891818D01*
X114893609Y-71783502D01*
X114930582Y-71709250D01*
X114986397Y-71513083D01*
X115005215Y-71310000D01*
X114986397Y-71106917D01*
X114930582Y-70910750D01*
X114915361Y-70880181D01*
X114839675Y-70728181D01*
X114716763Y-70565419D01*
X114566041Y-70428018D01*
X114392638Y-70320652D01*
X114202457Y-70246976D01*
X114076329Y-70223399D01*
X114001976Y-70209500D01*
X113798024Y-70209500D01*
X113723676Y-70223398D01*
X113597542Y-70246976D01*
X113407361Y-70320652D01*
X113233958Y-70428018D01*
X113083236Y-70565419D01*
X112960324Y-70728181D01*
X112869418Y-70910748D01*
X112813602Y-71106916D01*
X112794785Y-71309999D01*
X112000500Y-71309999D01*
X112000500Y-68770000D01*
X112794785Y-68770000D01*
X112813602Y-68973083D01*
X112869418Y-69169251D01*
X112960324Y-69351818D01*
X113083236Y-69514580D01*
X113233958Y-69651981D01*
X113295439Y-69690048D01*
X113407363Y-69759348D01*
X113597544Y-69833024D01*
X113798024Y-69870500D01*
X114001974Y-69870500D01*
X114001976Y-69870500D01*
X114202456Y-69833024D01*
X114392637Y-69759348D01*
X114566041Y-69651981D01*
X114716764Y-69514579D01*
X114839673Y-69351821D01*
X114839673Y-69351819D01*
X114839675Y-69351818D01*
X114921284Y-69187923D01*
X114930582Y-69169250D01*
X114986397Y-68973083D01*
X115005215Y-68770000D01*
X114986397Y-68566917D01*
X114930582Y-68370750D01*
X114909419Y-68328248D01*
X114839675Y-68188181D01*
X114716763Y-68025419D01*
X114566041Y-67888018D01*
X114392638Y-67780652D01*
X114202457Y-67706976D01*
X114135629Y-67694484D01*
X114001976Y-67669500D01*
X113798024Y-67669500D01*
X113697783Y-67688238D01*
X113597542Y-67706976D01*
X113407361Y-67780652D01*
X113233958Y-67888018D01*
X113083236Y-68025419D01*
X112960324Y-68188181D01*
X112869418Y-68370748D01*
X112813602Y-68566916D01*
X112794785Y-68770000D01*
X112000500Y-68770000D01*
X112000500Y-66229999D01*
X112794785Y-66229999D01*
X112813602Y-66433083D01*
X112869418Y-66629251D01*
X112960324Y-66811818D01*
X113083236Y-66974580D01*
X113233958Y-67111981D01*
X113285256Y-67143743D01*
X113407363Y-67219348D01*
X113597544Y-67293024D01*
X113798024Y-67330500D01*
X114001974Y-67330500D01*
X114001976Y-67330500D01*
X114202456Y-67293024D01*
X114392637Y-67219348D01*
X114566041Y-67111981D01*
X114716764Y-66974579D01*
X114839673Y-66811821D01*
X114839673Y-66811819D01*
X114839675Y-66811818D01*
X114845560Y-66799999D01*
X117184765Y-66799999D01*
X117203609Y-66931072D01*
X117258618Y-67051524D01*
X117305713Y-67105874D01*
X117328182Y-67143743D01*
X117336000Y-67187077D01*
X117336000Y-68080874D01*
X117335528Y-68091682D01*
X117332368Y-68127790D01*
X117341750Y-68162804D01*
X117344091Y-68173360D01*
X117350625Y-68210413D01*
X117360238Y-68233617D01*
X117361029Y-68234747D01*
X117361030Y-68234749D01*
X117370641Y-68248475D01*
X117381814Y-68264432D01*
X117387623Y-68273551D01*
X117405750Y-68304948D01*
X117405751Y-68304949D01*
X117433518Y-68328248D01*
X117441494Y-68335557D01*
X117552026Y-68446089D01*
X117575229Y-68478266D01*
X117587083Y-68516123D01*
X117603609Y-68631072D01*
X117637861Y-68706072D01*
X117658619Y-68751525D01*
X117745336Y-68851601D01*
X117856734Y-68923193D01*
X117949733Y-68950500D01*
X117983789Y-68960500D01*
X117983790Y-68960500D01*
X118116210Y-68960500D01*
X118116211Y-68960500D01*
X118142471Y-68952789D01*
X118243266Y-68923193D01*
X118354664Y-68851601D01*
X118441381Y-68751525D01*
X118496390Y-68631072D01*
X118515235Y-68500000D01*
X118496390Y-68368928D01*
X118441381Y-68248475D01*
X118354664Y-68148399D01*
X118354663Y-68148398D01*
X118301917Y-68114500D01*
X118243266Y-68076807D01*
X118179738Y-68058153D01*
X118116211Y-68039500D01*
X118116210Y-68039500D01*
X118088000Y-68039500D01*
X118026000Y-68022887D01*
X117980613Y-67977500D01*
X117964000Y-67915500D01*
X117964000Y-67187077D01*
X117971818Y-67143743D01*
X117994287Y-67105874D01*
X118012865Y-67084434D01*
X118041381Y-67051525D01*
X118096390Y-66931072D01*
X118115235Y-66800000D01*
X118096390Y-66668928D01*
X118041381Y-66548475D01*
X117954664Y-66448399D01*
X117954663Y-66448398D01*
X117914857Y-66422816D01*
X117843266Y-66376807D01*
X117776835Y-66357301D01*
X117716211Y-66339500D01*
X117716210Y-66339500D01*
X117583790Y-66339500D01*
X117583789Y-66339500D01*
X117456734Y-66376807D01*
X117345336Y-66448398D01*
X117258618Y-66548476D01*
X117203609Y-66668927D01*
X117184765Y-66799999D01*
X114845560Y-66799999D01*
X114910825Y-66668927D01*
X114930582Y-66629250D01*
X114986397Y-66433083D01*
X115005215Y-66230000D01*
X114986397Y-66026917D01*
X114930582Y-65830750D01*
X114867127Y-65703314D01*
X114839675Y-65648181D01*
X114716763Y-65485419D01*
X114566041Y-65348018D01*
X114392638Y-65240652D01*
X114202457Y-65166976D01*
X114135629Y-65154484D01*
X114001976Y-65129500D01*
X113798024Y-65129500D01*
X113697784Y-65148237D01*
X113597542Y-65166976D01*
X113407361Y-65240652D01*
X113233958Y-65348018D01*
X113083236Y-65485419D01*
X112960324Y-65648181D01*
X112869418Y-65830748D01*
X112813602Y-66026916D01*
X112794785Y-66229999D01*
X112000500Y-66229999D01*
X112000500Y-63689999D01*
X112794785Y-63689999D01*
X112813602Y-63893083D01*
X112869418Y-64089251D01*
X112960324Y-64271818D01*
X113083236Y-64434580D01*
X113233958Y-64571981D01*
X113397396Y-64673177D01*
X113407363Y-64679348D01*
X113597544Y-64753024D01*
X113798024Y-64790500D01*
X114001974Y-64790500D01*
X114001976Y-64790500D01*
X114202456Y-64753024D01*
X114392637Y-64679348D01*
X114566041Y-64571981D01*
X114716764Y-64434579D01*
X114839673Y-64271821D01*
X114839673Y-64271819D01*
X114839675Y-64271818D01*
X114896663Y-64157368D01*
X114930582Y-64089250D01*
X114986397Y-63893083D01*
X115005215Y-63690000D01*
X114986397Y-63486917D01*
X114930582Y-63290750D01*
X114861256Y-63151523D01*
X114839675Y-63108181D01*
X114716763Y-62945419D01*
X114566041Y-62808018D01*
X114392638Y-62700652D01*
X114202457Y-62626976D01*
X114135629Y-62614484D01*
X114001976Y-62589500D01*
X113798024Y-62589500D01*
X113697784Y-62608237D01*
X113597542Y-62626976D01*
X113407361Y-62700652D01*
X113233958Y-62808018D01*
X113083236Y-62945419D01*
X112960324Y-63108181D01*
X112869418Y-63290748D01*
X112813602Y-63486916D01*
X112794785Y-63689999D01*
X112000500Y-63689999D01*
X112000500Y-61149999D01*
X112794785Y-61149999D01*
X112813602Y-61353083D01*
X112869418Y-61549251D01*
X112960324Y-61731818D01*
X113083236Y-61894580D01*
X113233958Y-62031981D01*
X113407361Y-62139347D01*
X113407363Y-62139348D01*
X113597544Y-62213024D01*
X113798024Y-62250500D01*
X114001974Y-62250500D01*
X114001976Y-62250500D01*
X114202456Y-62213024D01*
X114392637Y-62139348D01*
X114566041Y-62031981D01*
X114716764Y-61894579D01*
X114839673Y-61731821D01*
X114839673Y-61731819D01*
X114839675Y-61731818D01*
X114885313Y-61640161D01*
X114930582Y-61549250D01*
X114986397Y-61353083D01*
X115005215Y-61150000D01*
X114986397Y-60946917D01*
X114930582Y-60750750D01*
X114918557Y-60726601D01*
X114839675Y-60568181D01*
X114716763Y-60405419D01*
X114566041Y-60268018D01*
X114392638Y-60160652D01*
X114202457Y-60086976D01*
X114135629Y-60074483D01*
X114001976Y-60049500D01*
X113798024Y-60049500D01*
X113697784Y-60068237D01*
X113597542Y-60086976D01*
X113407361Y-60160652D01*
X113233958Y-60268018D01*
X113083236Y-60405419D01*
X112960324Y-60568181D01*
X112869418Y-60750748D01*
X112813602Y-60946916D01*
X112794785Y-61149999D01*
X112000500Y-61149999D01*
X112000500Y-59484675D01*
X112799500Y-59484675D01*
X112814033Y-59557738D01*
X112814033Y-59557739D01*
X112814034Y-59557740D01*
X112869399Y-59640601D01*
X112952260Y-59695966D01*
X112988792Y-59703232D01*
X113025325Y-59710500D01*
X113025326Y-59710500D01*
X114774674Y-59710500D01*
X114774675Y-59710500D01*
X114799029Y-59705655D01*
X114847740Y-59695966D01*
X114930601Y-59640601D01*
X114985966Y-59557740D01*
X115000500Y-59484674D01*
X115000500Y-57735326D01*
X114985966Y-57662260D01*
X114930601Y-57579399D01*
X114847740Y-57524034D01*
X114847739Y-57524033D01*
X114847738Y-57524033D01*
X114774675Y-57509500D01*
X114774674Y-57509500D01*
X113025326Y-57509500D01*
X113025325Y-57509500D01*
X112952261Y-57524033D01*
X112869399Y-57579399D01*
X112814033Y-57662261D01*
X112799500Y-57735325D01*
X112799500Y-59484675D01*
X112000500Y-59484675D01*
X112000500Y-51124500D01*
X112017113Y-51062500D01*
X112062500Y-51017113D01*
X112124500Y-51000500D01*
X147875500Y-51000500D01*
X147937500Y-51017113D01*
G37*
%TD.AperFunction*%
%TD*%
M02*
