%TF.GenerationSoftware,KiCad,Pcbnew,7.0.1*%
%TF.CreationDate,2023-04-06T12:09:14+02:00*%
%TF.ProjectId,LED_Dogtag_HW,4c45445f-446f-4677-9461-675f48572e6b,1.0*%
%TF.SameCoordinates,Original*%
%TF.FileFunction,Copper,L3,Inr*%
%TF.FilePolarity,Positive*%
%FSLAX46Y46*%
G04 Gerber Fmt 4.6, Leading zero omitted, Abs format (unit mm)*
G04 Created by KiCad (PCBNEW 7.0.1) date 2023-04-06 12:09:14*
%MOMM*%
%LPD*%
G01*
G04 APERTURE LIST*
%TA.AperFunction,ViaPad*%
%ADD10C,0.400000*%
%TD*%
G04 APERTURE END LIST*
D10*
%TO.N,Net-(D254-BK)*%
X99075000Y-70950000D03*
%TO.N,Net-(D254-GK)*%
X98050000Y-70500000D03*
%TO.N,Net-(D254-RK)*%
X98275000Y-70950000D03*
%TO.N,Net-(D243-BK)*%
X97575000Y-70950000D03*
%TO.N,Net-(D243-GK)*%
X96550000Y-70500000D03*
%TO.N,Net-(D243-RK)*%
X96775000Y-70950000D03*
%TO.N,Net-(D232-BK)*%
X96075000Y-70950000D03*
%TO.N,Net-(D232-GK)*%
X95050000Y-70500000D03*
%TO.N,Net-(D232-RK)*%
X95275000Y-70950000D03*
%TO.N,Net-(D221-BK)*%
X94575000Y-70950000D03*
%TO.N,Net-(D221-GK)*%
X93550000Y-70500000D03*
%TO.N,Net-(D221-RK)*%
X93775000Y-70950000D03*
%TO.N,Net-(D210-BK)*%
X93075000Y-70950000D03*
%TO.N,Net-(D210-GK)*%
X92050000Y-70500000D03*
%TO.N,Net-(D210-RK)*%
X92275000Y-70950000D03*
%TO.N,Net-(D209-A)*%
X98500000Y-71400000D03*
%TO.N,Net-(D208-A)*%
X97350000Y-70500000D03*
%TO.N,Net-(D207-A)*%
X97000000Y-71400000D03*
%TO.N,Net-(D206-A)*%
X95850000Y-70500000D03*
%TO.N,Net-(D205-A)*%
X95500000Y-71400000D03*
%TO.N,Net-(D204-A)*%
X94350000Y-70500000D03*
%TO.N,Net-(D203-A)*%
X94000000Y-71400000D03*
%TO.N,Net-(D202-A)*%
X92850000Y-70500000D03*
%TO.N,Net-(D201-A)*%
X92500000Y-71400000D03*
%TO.N,Net-(D200-A)*%
X91350000Y-70500000D03*
%TO.N,Net-(D199-BK)*%
X91575000Y-70950000D03*
%TO.N,Net-(D199-GK)*%
X90550000Y-70500000D03*
%TO.N,Net-(D199-RK)*%
X90775000Y-70950000D03*
%TO.N,Net-(D320-BK)*%
X108075000Y-70950000D03*
%TO.N,Net-(D320-GK)*%
X107050000Y-70500000D03*
%TO.N,Net-(D320-RK)*%
X107275000Y-70950000D03*
%TO.N,Net-(D309-BK)*%
X106575000Y-70950000D03*
%TO.N,Net-(D309-GK)*%
X105550000Y-70500000D03*
%TO.N,Net-(D309-RK)*%
X105775000Y-70950000D03*
%TO.N,Net-(D298-BK)*%
X105075000Y-70950000D03*
%TO.N,Net-(D298-GK)*%
X104050000Y-70500000D03*
%TO.N,Net-(D298-RK)*%
X104275000Y-70950000D03*
%TO.N,Net-(D287-BK)*%
X103575000Y-70950000D03*
%TO.N,Net-(D287-GK)*%
X102550000Y-70500000D03*
%TO.N,Net-(D287-RK)*%
X102775000Y-70950000D03*
%TO.N,Net-(D276-BK)*%
X102075000Y-70950000D03*
%TO.N,Net-(D276-GK)*%
X101050000Y-70500000D03*
%TO.N,Net-(D276-RK)*%
X101275000Y-70950000D03*
%TO.N,Net-(D275-A)*%
X107500000Y-71400000D03*
%TO.N,Net-(D274-A)*%
X106350000Y-70500000D03*
%TO.N,Net-(D273-A)*%
X106000000Y-71400000D03*
%TO.N,Net-(D272-A)*%
X104850000Y-70500000D03*
%TO.N,Net-(D271-A)*%
X104500000Y-71400000D03*
%TO.N,Net-(D270-A)*%
X103350000Y-70500000D03*
%TO.N,Net-(D269-A)*%
X103000000Y-71400000D03*
%TO.N,Net-(D268-A)*%
X101850000Y-70500000D03*
%TO.N,Net-(D267-A)*%
X101500000Y-71400000D03*
%TO.N,Net-(D266-A)*%
X100350000Y-70500000D03*
%TO.N,Net-(D265-BK)*%
X100575000Y-70950000D03*
%TO.N,Net-(D265-GK)*%
X99550000Y-70500000D03*
%TO.N,Net-(D265-RK)*%
X99775000Y-70950000D03*
%TO.N,Net-(D386-BK)*%
X117075000Y-70950000D03*
%TO.N,Net-(D386-GK)*%
X116050000Y-70500000D03*
%TO.N,Net-(D386-RK)*%
X116275000Y-70950000D03*
%TO.N,Net-(D375-BK)*%
X115575000Y-70950000D03*
%TO.N,Net-(D375-GK)*%
X114550000Y-70500000D03*
%TO.N,Net-(D375-RK)*%
X114775000Y-70950000D03*
%TO.N,Net-(D364-BK)*%
X114075000Y-70950000D03*
%TO.N,Net-(D364-GK)*%
X113050000Y-70500000D03*
%TO.N,Net-(D364-RK)*%
X113275000Y-70950000D03*
%TO.N,Net-(D353-BK)*%
X112575000Y-70950000D03*
%TO.N,Net-(D353-GK)*%
X111550000Y-70500000D03*
%TO.N,Net-(D353-RK)*%
X111775000Y-70950000D03*
%TO.N,Net-(D342-BK)*%
X111075000Y-70950000D03*
%TO.N,Net-(D342-GK)*%
X110050000Y-70500000D03*
%TO.N,Net-(D342-RK)*%
X110275000Y-70950000D03*
%TO.N,Net-(D341-A)*%
X116500000Y-71400000D03*
%TO.N,Net-(D340-A)*%
X115350000Y-70500000D03*
%TO.N,Net-(D339-A)*%
X115000000Y-71400000D03*
%TO.N,Net-(D338-A)*%
X113850000Y-70500000D03*
%TO.N,Net-(D337-A)*%
X113500000Y-71400000D03*
%TO.N,Net-(D336-A)*%
X112350000Y-70500000D03*
%TO.N,Net-(D335-A)*%
X112000000Y-71400000D03*
%TO.N,Net-(D334-A)*%
X110850000Y-70500000D03*
%TO.N,Net-(D333-A)*%
X110500000Y-71400000D03*
%TO.N,Net-(D332-A)*%
X109350000Y-70500000D03*
%TO.N,Net-(D331-BK)*%
X109575000Y-70950000D03*
%TO.N,Net-(D331-GK)*%
X108550000Y-70500000D03*
%TO.N,Net-(D331-RK)*%
X108775000Y-70950000D03*
%TO.N,Net-(D188-BK)*%
X108525000Y-36650000D03*
%TO.N,Net-(D188-GK)*%
X109550000Y-37100000D03*
%TO.N,Net-(D188-RK)*%
X109325000Y-36650000D03*
%TO.N,Net-(D177-BK)*%
X110025000Y-36650000D03*
%TO.N,Net-(D177-GK)*%
X111050000Y-37100000D03*
%TO.N,Net-(D177-RK)*%
X110825000Y-36650000D03*
%TO.N,Net-(D166-BK)*%
X111525000Y-36650000D03*
%TO.N,Net-(D166-GK)*%
X112550000Y-37100000D03*
%TO.N,Net-(D166-RK)*%
X112325000Y-36650000D03*
%TO.N,Net-(D155-BK)*%
X113025000Y-36650000D03*
%TO.N,Net-(D155-GK)*%
X114050000Y-37100000D03*
%TO.N,Net-(D155-RK)*%
X113825000Y-36650000D03*
%TO.N,Net-(D144-BK)*%
X114525000Y-36650000D03*
%TO.N,Net-(D144-GK)*%
X115550000Y-37100000D03*
%TO.N,Net-(D144-RK)*%
X115325000Y-36650000D03*
%TO.N,Net-(D143-A)*%
X109100000Y-36200000D03*
%TO.N,Net-(D142-A)*%
X110250000Y-37100000D03*
%TO.N,Net-(D141-A)*%
X110600000Y-36200000D03*
%TO.N,Net-(D140-A)*%
X111750000Y-37100000D03*
%TO.N,Net-(D139-A)*%
X112100000Y-36200000D03*
%TO.N,Net-(D138-A)*%
X113250000Y-37100000D03*
%TO.N,Net-(D137-A)*%
X113600000Y-36200000D03*
%TO.N,Net-(D136-A)*%
X114750000Y-37100000D03*
%TO.N,Net-(D135-A)*%
X115100000Y-36200000D03*
%TO.N,Net-(D134-A)*%
X116250000Y-37100000D03*
%TO.N,Net-(D133-BK)*%
X116025000Y-36650000D03*
%TO.N,Net-(D133-GK)*%
X117050000Y-37100000D03*
%TO.N,Net-(D133-RK)*%
X116825000Y-36650000D03*
%TO.N,Net-(D122-BK)*%
X99525000Y-36650000D03*
%TO.N,Net-(D122-GK)*%
X100550000Y-37100000D03*
%TO.N,Net-(D122-RK)*%
X100325000Y-36650000D03*
%TO.N,Net-(D111-BK)*%
X101025000Y-36650000D03*
%TO.N,Net-(D111-GK)*%
X102050000Y-37100000D03*
%TO.N,Net-(D111-RK)*%
X101825000Y-36650000D03*
%TO.N,Net-(D100-BK)*%
X102525000Y-36650000D03*
%TO.N,Net-(D100-GK)*%
X103550000Y-37100000D03*
%TO.N,Net-(D100-RK)*%
X103325000Y-36650000D03*
%TO.N,Net-(D89-BK)*%
X104025000Y-36650000D03*
%TO.N,Net-(D89-GK)*%
X105050000Y-37100000D03*
%TO.N,Net-(D89-RK)*%
X104825000Y-36650000D03*
%TO.N,Net-(D78-BK)*%
X105525000Y-36650000D03*
%TO.N,Net-(D78-GK)*%
X106550000Y-37100000D03*
%TO.N,Net-(D78-RK)*%
X106325000Y-36650000D03*
%TO.N,Net-(D110-A)*%
X100100000Y-36200000D03*
%TO.N,Net-(D109-A)*%
X101250000Y-37100000D03*
%TO.N,Net-(D108-A)*%
X101600000Y-36200000D03*
%TO.N,Net-(D107-A)*%
X102750000Y-37100000D03*
%TO.N,Net-(D106-A)*%
X103100000Y-36200000D03*
%TO.N,Net-(D105-A)*%
X104250000Y-37100000D03*
%TO.N,Net-(D104-A)*%
X104600000Y-36200000D03*
%TO.N,Net-(D103-A)*%
X105750000Y-37100000D03*
%TO.N,Net-(D102-A)*%
X106100000Y-36200000D03*
%TO.N,Net-(D101-A)*%
X107250000Y-37100000D03*
%TO.N,Net-(D67-BK)*%
X107025000Y-36650000D03*
%TO.N,Net-(D67-GK)*%
X108050000Y-37100000D03*
%TO.N,Net-(D67-RK)*%
X107825000Y-36650000D03*
%TO.N,Net-(D1-RK)*%
X98825000Y-36650000D03*
%TO.N,Net-(D1-GK)*%
X99050000Y-37100000D03*
%TO.N,Net-(D1-BK)*%
X98025000Y-36650000D03*
%TO.N,Net-(D13-A)*%
X98250000Y-37100000D03*
%TO.N,Net-(D14-A)*%
X97100000Y-36200000D03*
%TO.N,Net-(D15-A)*%
X96750000Y-37100000D03*
%TO.N,Net-(D16-A)*%
X95600000Y-36200000D03*
%TO.N,Net-(D17-A)*%
X95250000Y-37100000D03*
%TO.N,Net-(D18-A)*%
X94100000Y-36200000D03*
%TO.N,Net-(D19-A)*%
X93750000Y-37100000D03*
%TO.N,Net-(D20-A)*%
X92600000Y-36200000D03*
%TO.N,Net-(D10-A)*%
X92250000Y-37100000D03*
%TO.N,Net-(D11-A)*%
X91100000Y-36200000D03*
%TO.N,Net-(D12-RK)*%
X97325000Y-36650000D03*
%TO.N,Net-(D12-GK)*%
X97550000Y-37100000D03*
%TO.N,Net-(D12-BK)*%
X96525000Y-36650000D03*
%TO.N,Net-(D23-RK)*%
X95825000Y-36650000D03*
%TO.N,Net-(D23-GK)*%
X96050000Y-37100000D03*
%TO.N,Net-(D23-BK)*%
X95025000Y-36650000D03*
%TO.N,Net-(D34-RK)*%
X94325000Y-36650000D03*
%TO.N,Net-(D34-GK)*%
X94550000Y-37100000D03*
%TO.N,Net-(D34-BK)*%
X93525000Y-36650000D03*
%TO.N,Net-(D45-RK)*%
X92825000Y-36650000D03*
%TO.N,Net-(D45-GK)*%
X93050000Y-37100000D03*
%TO.N,Net-(D45-BK)*%
X92025000Y-36650000D03*
%TO.N,Net-(D56-RK)*%
X91325000Y-36650000D03*
%TO.N,Net-(D56-GK)*%
X91550000Y-37100000D03*
%TO.N,Net-(D56-BK)*%
X90525000Y-36650000D03*
%TD*%
M02*
