%TF.GenerationSoftware,KiCad,Pcbnew,7.0.1*%
%TF.CreationDate,2023-04-06T12:09:15+02:00*%
%TF.ProjectId,LED_Dogtag_HW,4c45445f-446f-4677-9461-675f48572e6b,1.0*%
%TF.SameCoordinates,Original*%
%TF.FileFunction,Soldermask,Bot*%
%TF.FilePolarity,Negative*%
%FSLAX46Y46*%
G04 Gerber Fmt 4.6, Leading zero omitted, Abs format (unit mm)*
G04 Created by KiCad (PCBNEW 7.0.1) date 2023-04-06 12:09:15*
%MOMM*%
%LPD*%
G01*
G04 APERTURE LIST*
G04 Aperture macros list*
%AMRoundRect*
0 Rectangle with rounded corners*
0 $1 Rounding radius*
0 $2 $3 $4 $5 $6 $7 $8 $9 X,Y pos of 4 corners*
0 Add a 4 corners polygon primitive as box body*
4,1,4,$2,$3,$4,$5,$6,$7,$8,$9,$2,$3,0*
0 Add four circle primitives for the rounded corners*
1,1,$1+$1,$2,$3*
1,1,$1+$1,$4,$5*
1,1,$1+$1,$6,$7*
1,1,$1+$1,$8,$9*
0 Add four rect primitives between the rounded corners*
20,1,$1+$1,$2,$3,$4,$5,0*
20,1,$1+$1,$4,$5,$6,$7,0*
20,1,$1+$1,$6,$7,$8,$9,0*
20,1,$1+$1,$8,$9,$2,$3,0*%
G04 Aperture macros list end*
%ADD10RoundRect,0.050000X0.325000X0.050000X-0.325000X0.050000X-0.325000X-0.050000X0.325000X-0.050000X0*%
%ADD11RoundRect,0.050000X0.050000X0.325000X-0.050000X0.325000X-0.050000X-0.325000X0.050000X-0.325000X0*%
%ADD12R,3.800000X3.800000*%
%ADD13RoundRect,0.050000X-0.325000X-0.050000X0.325000X-0.050000X0.325000X0.050000X-0.325000X0.050000X0*%
%ADD14RoundRect,0.050000X-0.050000X-0.325000X0.050000X-0.325000X0.050000X0.325000X-0.050000X0.325000X0*%
G04 APERTURE END LIST*
D10*
%TO.C,U1*%
X97275000Y-43750000D03*
X97275000Y-44150000D03*
X97275000Y-44550000D03*
X97275000Y-44950000D03*
X97275000Y-45350000D03*
X97275000Y-45750000D03*
X97275000Y-46150000D03*
X97275000Y-46550000D03*
X97275000Y-46950000D03*
X97275000Y-47350000D03*
D11*
X96600000Y-48025000D03*
X96200000Y-48025000D03*
X95800000Y-48025000D03*
X95400000Y-48025000D03*
X95000000Y-48025000D03*
X94600000Y-48025000D03*
X94200000Y-48025000D03*
X93800000Y-48025000D03*
X93400000Y-48025000D03*
X93000000Y-48025000D03*
D10*
X92325000Y-47350000D03*
X92325000Y-46950000D03*
X92325000Y-46550000D03*
X92325000Y-46150000D03*
X92325000Y-45750000D03*
X92325000Y-45350000D03*
X92325000Y-44950000D03*
X92325000Y-44550000D03*
X92325000Y-44150000D03*
X92325000Y-43750000D03*
D11*
X93000000Y-43075000D03*
X93400000Y-43075000D03*
X93800000Y-43075000D03*
X94200000Y-43075000D03*
X94600000Y-43075000D03*
X95000000Y-43075000D03*
X95400000Y-43075000D03*
X95800000Y-43075000D03*
X96200000Y-43075000D03*
X96600000Y-43075000D03*
D12*
X94800000Y-45550000D03*
%TD*%
D13*
%TO.C,U5*%
X101325000Y-63850000D03*
X101325000Y-63450000D03*
X101325000Y-63050000D03*
X101325000Y-62650000D03*
X101325000Y-62250000D03*
X101325000Y-61850000D03*
X101325000Y-61450000D03*
X101325000Y-61050000D03*
X101325000Y-60650000D03*
X101325000Y-60250000D03*
D14*
X102000000Y-59575000D03*
X102400000Y-59575000D03*
X102800000Y-59575000D03*
X103200000Y-59575000D03*
X103600000Y-59575000D03*
X104000000Y-59575000D03*
X104400000Y-59575000D03*
X104800000Y-59575000D03*
X105200000Y-59575000D03*
X105600000Y-59575000D03*
D13*
X106275000Y-60250000D03*
X106275000Y-60650000D03*
X106275000Y-61050000D03*
X106275000Y-61450000D03*
X106275000Y-61850000D03*
X106275000Y-62250000D03*
X106275000Y-62650000D03*
X106275000Y-63050000D03*
X106275000Y-63450000D03*
X106275000Y-63850000D03*
D14*
X105600000Y-64525000D03*
X105200000Y-64525000D03*
X104800000Y-64525000D03*
X104400000Y-64525000D03*
X104000000Y-64525000D03*
X103600000Y-64525000D03*
X103200000Y-64525000D03*
X102800000Y-64525000D03*
X102400000Y-64525000D03*
X102000000Y-64525000D03*
D12*
X103800000Y-62050000D03*
%TD*%
D13*
%TO.C,U6*%
X110325000Y-63850000D03*
X110325000Y-63450000D03*
X110325000Y-63050000D03*
X110325000Y-62650000D03*
X110325000Y-62250000D03*
X110325000Y-61850000D03*
X110325000Y-61450000D03*
X110325000Y-61050000D03*
X110325000Y-60650000D03*
X110325000Y-60250000D03*
D14*
X111000000Y-59575000D03*
X111400000Y-59575000D03*
X111800000Y-59575000D03*
X112200000Y-59575000D03*
X112600000Y-59575000D03*
X113000000Y-59575000D03*
X113400000Y-59575000D03*
X113800000Y-59575000D03*
X114200000Y-59575000D03*
X114600000Y-59575000D03*
D13*
X115275000Y-60250000D03*
X115275000Y-60650000D03*
X115275000Y-61050000D03*
X115275000Y-61450000D03*
X115275000Y-61850000D03*
X115275000Y-62250000D03*
X115275000Y-62650000D03*
X115275000Y-63050000D03*
X115275000Y-63450000D03*
X115275000Y-63850000D03*
D14*
X114600000Y-64525000D03*
X114200000Y-64525000D03*
X113800000Y-64525000D03*
X113400000Y-64525000D03*
X113000000Y-64525000D03*
X112600000Y-64525000D03*
X112200000Y-64525000D03*
X111800000Y-64525000D03*
X111400000Y-64525000D03*
X111000000Y-64525000D03*
D12*
X112800000Y-62050000D03*
%TD*%
D13*
%TO.C,U4*%
X92325000Y-63850000D03*
X92325000Y-63450000D03*
X92325000Y-63050000D03*
X92325000Y-62650000D03*
X92325000Y-62250000D03*
X92325000Y-61850000D03*
X92325000Y-61450000D03*
X92325000Y-61050000D03*
X92325000Y-60650000D03*
X92325000Y-60250000D03*
D14*
X93000000Y-59575000D03*
X93400000Y-59575000D03*
X93800000Y-59575000D03*
X94200000Y-59575000D03*
X94600000Y-59575000D03*
X95000000Y-59575000D03*
X95400000Y-59575000D03*
X95800000Y-59575000D03*
X96200000Y-59575000D03*
X96600000Y-59575000D03*
D13*
X97275000Y-60250000D03*
X97275000Y-60650000D03*
X97275000Y-61050000D03*
X97275000Y-61450000D03*
X97275000Y-61850000D03*
X97275000Y-62250000D03*
X97275000Y-62650000D03*
X97275000Y-63050000D03*
X97275000Y-63450000D03*
X97275000Y-63850000D03*
D14*
X96600000Y-64525000D03*
X96200000Y-64525000D03*
X95800000Y-64525000D03*
X95400000Y-64525000D03*
X95000000Y-64525000D03*
X94600000Y-64525000D03*
X94200000Y-64525000D03*
X93800000Y-64525000D03*
X93400000Y-64525000D03*
X93000000Y-64525000D03*
D12*
X94800000Y-62050000D03*
%TD*%
D10*
%TO.C,U3*%
X115275000Y-43750000D03*
X115275000Y-44150000D03*
X115275000Y-44550000D03*
X115275000Y-44950000D03*
X115275000Y-45350000D03*
X115275000Y-45750000D03*
X115275000Y-46150000D03*
X115275000Y-46550000D03*
X115275000Y-46950000D03*
X115275000Y-47350000D03*
D11*
X114600000Y-48025000D03*
X114200000Y-48025000D03*
X113800000Y-48025000D03*
X113400000Y-48025000D03*
X113000000Y-48025000D03*
X112600000Y-48025000D03*
X112200000Y-48025000D03*
X111800000Y-48025000D03*
X111400000Y-48025000D03*
X111000000Y-48025000D03*
D10*
X110325000Y-47350000D03*
X110325000Y-46950000D03*
X110325000Y-46550000D03*
X110325000Y-46150000D03*
X110325000Y-45750000D03*
X110325000Y-45350000D03*
X110325000Y-44950000D03*
X110325000Y-44550000D03*
X110325000Y-44150000D03*
X110325000Y-43750000D03*
D11*
X111000000Y-43075000D03*
X111400000Y-43075000D03*
X111800000Y-43075000D03*
X112200000Y-43075000D03*
X112600000Y-43075000D03*
X113000000Y-43075000D03*
X113400000Y-43075000D03*
X113800000Y-43075000D03*
X114200000Y-43075000D03*
X114600000Y-43075000D03*
D12*
X112800000Y-45550000D03*
%TD*%
D10*
%TO.C,U2*%
X106275000Y-43750000D03*
X106275000Y-44150000D03*
X106275000Y-44550000D03*
X106275000Y-44950000D03*
X106275000Y-45350000D03*
X106275000Y-45750000D03*
X106275000Y-46150000D03*
X106275000Y-46550000D03*
X106275000Y-46950000D03*
X106275000Y-47350000D03*
D11*
X105600000Y-48025000D03*
X105200000Y-48025000D03*
X104800000Y-48025000D03*
X104400000Y-48025000D03*
X104000000Y-48025000D03*
X103600000Y-48025000D03*
X103200000Y-48025000D03*
X102800000Y-48025000D03*
X102400000Y-48025000D03*
X102000000Y-48025000D03*
D10*
X101325000Y-47350000D03*
X101325000Y-46950000D03*
X101325000Y-46550000D03*
X101325000Y-46150000D03*
X101325000Y-45750000D03*
X101325000Y-45350000D03*
X101325000Y-44950000D03*
X101325000Y-44550000D03*
X101325000Y-44150000D03*
X101325000Y-43750000D03*
D11*
X102000000Y-43075000D03*
X102400000Y-43075000D03*
X102800000Y-43075000D03*
X103200000Y-43075000D03*
X103600000Y-43075000D03*
X104000000Y-43075000D03*
X104400000Y-43075000D03*
X104800000Y-43075000D03*
X105200000Y-43075000D03*
X105600000Y-43075000D03*
D12*
X103800000Y-45550000D03*
%TD*%
M02*
