%TF.GenerationSoftware,KiCad,Pcbnew,7.0.1*%
%TF.CreationDate,2023-04-06T12:09:14+02:00*%
%TF.ProjectId,LED_Dogtag_HW,4c45445f-446f-4677-9461-675f48572e6b,1.0*%
%TF.SameCoordinates,Original*%
%TF.FileFunction,Copper,L1,Top*%
%TF.FilePolarity,Positive*%
%FSLAX46Y46*%
G04 Gerber Fmt 4.6, Leading zero omitted, Abs format (unit mm)*
G04 Created by KiCad (PCBNEW 7.0.1) date 2023-04-06 12:09:14*
%MOMM*%
%LPD*%
G01*
G04 APERTURE LIST*
G04 Aperture macros list*
%AMRoundRect*
0 Rectangle with rounded corners*
0 $1 Rounding radius*
0 $2 $3 $4 $5 $6 $7 $8 $9 X,Y pos of 4 corners*
0 Add a 4 corners polygon primitive as box body*
4,1,4,$2,$3,$4,$5,$6,$7,$8,$9,$2,$3,0*
0 Add four circle primitives for the rounded corners*
1,1,$1+$1,$2,$3*
1,1,$1+$1,$4,$5*
1,1,$1+$1,$6,$7*
1,1,$1+$1,$8,$9*
0 Add four rect primitives between the rounded corners*
20,1,$1+$1,$2,$3,$4,$5,0*
20,1,$1+$1,$4,$5,$6,$7,0*
20,1,$1+$1,$6,$7,$8,$9,0*
20,1,$1+$1,$8,$9,$2,$3,0*%
G04 Aperture macros list end*
%TA.AperFunction,SMDPad,CuDef*%
%ADD10RoundRect,0.112500X0.112500X0.112500X-0.112500X0.112500X-0.112500X-0.112500X0.112500X-0.112500X0*%
%TD*%
%TA.AperFunction,SMDPad,CuDef*%
%ADD11RoundRect,0.112500X-0.112500X-0.112500X0.112500X-0.112500X0.112500X0.112500X-0.112500X0.112500X0*%
%TD*%
%TA.AperFunction,ViaPad*%
%ADD12C,0.150000*%
%TD*%
%TA.AperFunction,ViaPad*%
%ADD13C,0.400000*%
%TD*%
%TA.AperFunction,Conductor*%
%ADD14C,0.200000*%
%TD*%
G04 APERTURE END LIST*
D10*
%TO.P,D296,1,A*%
%TO.N,Net-(D274-A)*%
X103475000Y-56475000D03*
%TO.P,D296,2,RK*%
%TO.N,Net-(D287-RK)*%
X102625000Y-56475000D03*
%TO.P,D296,3,GK*%
%TO.N,Net-(D287-GK)*%
X102625000Y-55625000D03*
%TO.P,D296,4,BK*%
%TO.N,Net-(D287-BK)*%
X103475000Y-55625000D03*
%TD*%
D11*
%TO.P,D32,1,A*%
%TO.N,Net-(D10-A)*%
X95125000Y-51125000D03*
%TO.P,D32,2,RK*%
%TO.N,Net-(D23-RK)*%
X95975000Y-51125000D03*
%TO.P,D32,3,GK*%
%TO.N,Net-(D23-GK)*%
X95975000Y-51975000D03*
%TO.P,D32,4,BK*%
%TO.N,Net-(D23-BK)*%
X95125000Y-51975000D03*
%TD*%
D10*
%TO.P,D275,1,A*%
%TO.N,Net-(D275-A)*%
X100475000Y-54975000D03*
%TO.P,D275,2,RK*%
%TO.N,Net-(D265-RK)*%
X99625000Y-54975000D03*
%TO.P,D275,3,GK*%
%TO.N,Net-(D265-GK)*%
X99625000Y-54125000D03*
%TO.P,D275,4,BK*%
%TO.N,Net-(D265-BK)*%
X100475000Y-54125000D03*
%TD*%
%TO.P,D352,1,A*%
%TO.N,Net-(D341-A)*%
X110975000Y-54975000D03*
%TO.P,D352,2,RK*%
%TO.N,Net-(D342-RK)*%
X110125000Y-54975000D03*
%TO.P,D352,3,GK*%
%TO.N,Net-(D342-GK)*%
X110125000Y-54125000D03*
%TO.P,D352,4,BK*%
%TO.N,Net-(D342-BK)*%
X110975000Y-54125000D03*
%TD*%
%TO.P,D353,1,A*%
%TO.N,Net-(D331-A)*%
X112475000Y-69975000D03*
%TO.P,D353,2,RK*%
%TO.N,Net-(D353-RK)*%
X111625000Y-69975000D03*
%TO.P,D353,3,GK*%
%TO.N,Net-(D353-GK)*%
X111625000Y-69125000D03*
%TO.P,D353,4,BK*%
%TO.N,Net-(D353-BK)*%
X112475000Y-69125000D03*
%TD*%
%TO.P,D310,1,A*%
%TO.N,Net-(D266-A)*%
X106475000Y-68475000D03*
%TO.P,D310,2,RK*%
%TO.N,Net-(D309-RK)*%
X105625000Y-68475000D03*
%TO.P,D310,3,GK*%
%TO.N,Net-(D309-GK)*%
X105625000Y-67625000D03*
%TO.P,D310,4,BK*%
%TO.N,Net-(D309-BK)*%
X106475000Y-67625000D03*
%TD*%
%TO.P,D378,1,A*%
%TO.N,Net-(D334-A)*%
X115475000Y-65475000D03*
%TO.P,D378,2,RK*%
%TO.N,Net-(D375-RK)*%
X114625000Y-65475000D03*
%TO.P,D378,3,GK*%
%TO.N,Net-(D375-GK)*%
X114625000Y-64625000D03*
%TO.P,D378,4,BK*%
%TO.N,Net-(D375-BK)*%
X115475000Y-64625000D03*
%TD*%
D11*
%TO.P,D83,1,A*%
%TO.N,Net-(D105-A)*%
X105625000Y-45125000D03*
%TO.P,D83,2,RK*%
%TO.N,Net-(D78-RK)*%
X106475000Y-45125000D03*
%TO.P,D83,3,GK*%
%TO.N,Net-(D78-GK)*%
X106475000Y-45975000D03*
%TO.P,D83,4,BK*%
%TO.N,Net-(D78-BK)*%
X105625000Y-45975000D03*
%TD*%
%TO.P,D2,1,A*%
%TO.N,Net-(D13-A)*%
X98125000Y-39125000D03*
%TO.P,D2,2,RK*%
%TO.N,Net-(D1-RK)*%
X98975000Y-39125000D03*
%TO.P,D2,3,GK*%
%TO.N,Net-(D1-GK)*%
X98975000Y-39975000D03*
%TO.P,D2,4,BK*%
%TO.N,Net-(D1-BK)*%
X98125000Y-39975000D03*
%TD*%
D10*
%TO.P,D243,1,A*%
%TO.N,Net-(D199-A)*%
X97475000Y-69975000D03*
%TO.P,D243,2,RK*%
%TO.N,Net-(D243-RK)*%
X96625000Y-69975000D03*
%TO.P,D243,3,GK*%
%TO.N,Net-(D243-GK)*%
X96625000Y-69125000D03*
%TO.P,D243,4,BK*%
%TO.N,Net-(D243-BK)*%
X97475000Y-69125000D03*
%TD*%
%TO.P,D295,1,A*%
%TO.N,Net-(D273-A)*%
X103475000Y-57975000D03*
%TO.P,D295,2,RK*%
%TO.N,Net-(D287-RK)*%
X102625000Y-57975000D03*
%TO.P,D295,3,GK*%
%TO.N,Net-(D287-GK)*%
X102625000Y-57125000D03*
%TO.P,D295,4,BK*%
%TO.N,Net-(D287-BK)*%
X103475000Y-57125000D03*
%TD*%
%TO.P,D274,1,A*%
%TO.N,Net-(D274-A)*%
X100475000Y-56475000D03*
%TO.P,D274,2,RK*%
%TO.N,Net-(D265-RK)*%
X99625000Y-56475000D03*
%TO.P,D274,3,GK*%
%TO.N,Net-(D265-GK)*%
X99625000Y-55625000D03*
%TO.P,D274,4,BK*%
%TO.N,Net-(D265-BK)*%
X100475000Y-55625000D03*
%TD*%
D11*
%TO.P,D147,1,A*%
%TO.N,Net-(D136-A)*%
X114625000Y-42125000D03*
%TO.P,D147,2,RK*%
%TO.N,Net-(D144-RK)*%
X115475000Y-42125000D03*
%TO.P,D147,3,GK*%
%TO.N,Net-(D144-GK)*%
X115475000Y-42975000D03*
%TO.P,D147,4,BK*%
%TO.N,Net-(D144-BK)*%
X114625000Y-42975000D03*
%TD*%
D10*
%TO.P,D386,1,A*%
%TO.N,Net-(D331-A)*%
X116975000Y-69975000D03*
%TO.P,D386,2,RK*%
%TO.N,Net-(D386-RK)*%
X116125000Y-69975000D03*
%TO.P,D386,3,GK*%
%TO.N,Net-(D386-GK)*%
X116125000Y-69125000D03*
%TO.P,D386,4,BK*%
%TO.N,Net-(D386-BK)*%
X116975000Y-69125000D03*
%TD*%
D11*
%TO.P,D79,1,A*%
%TO.N,Net-(D101-A)*%
X105625000Y-39125000D03*
%TO.P,D79,2,RK*%
%TO.N,Net-(D78-RK)*%
X106475000Y-39125000D03*
%TO.P,D79,3,GK*%
%TO.N,Net-(D78-GK)*%
X106475000Y-39975000D03*
%TO.P,D79,4,BK*%
%TO.N,Net-(D78-BK)*%
X105625000Y-39975000D03*
%TD*%
%TO.P,D58,1,A*%
%TO.N,Net-(D14-A)*%
X90625000Y-40625000D03*
%TO.P,D58,2,RK*%
%TO.N,Net-(D56-RK)*%
X91475000Y-40625000D03*
%TO.P,D58,3,GK*%
%TO.N,Net-(D56-GK)*%
X91475000Y-41475000D03*
%TO.P,D58,4,BK*%
%TO.N,Net-(D56-BK)*%
X90625000Y-41475000D03*
%TD*%
%TO.P,D122,1,A*%
%TO.N,Net-(D100-A)*%
X99625000Y-37625000D03*
%TO.P,D122,2,RK*%
%TO.N,Net-(D122-RK)*%
X100475000Y-37625000D03*
%TO.P,D122,3,GK*%
%TO.N,Net-(D122-GK)*%
X100475000Y-38475000D03*
%TO.P,D122,4,BK*%
%TO.N,Net-(D122-BK)*%
X99625000Y-38475000D03*
%TD*%
D10*
%TO.P,D333,1,A*%
%TO.N,Net-(D333-A)*%
X109475000Y-66975000D03*
%TO.P,D333,2,RK*%
%TO.N,Net-(D331-RK)*%
X108625000Y-66975000D03*
%TO.P,D333,3,GK*%
%TO.N,Net-(D331-GK)*%
X108625000Y-66125000D03*
%TO.P,D333,4,BK*%
%TO.N,Net-(D331-BK)*%
X109475000Y-66125000D03*
%TD*%
D11*
%TO.P,D167,1,A*%
%TO.N,Net-(D134-A)*%
X111625000Y-39125000D03*
%TO.P,D167,2,RK*%
%TO.N,Net-(D166-RK)*%
X112475000Y-39125000D03*
%TO.P,D167,3,GK*%
%TO.N,Net-(D166-GK)*%
X112475000Y-39975000D03*
%TO.P,D167,4,BK*%
%TO.N,Net-(D166-BK)*%
X111625000Y-39975000D03*
%TD*%
D10*
%TO.P,D284,1,A*%
%TO.N,Net-(D273-A)*%
X101975000Y-57975000D03*
%TO.P,D284,2,RK*%
%TO.N,Net-(D276-RK)*%
X101125000Y-57975000D03*
%TO.P,D284,3,GK*%
%TO.N,Net-(D276-GK)*%
X101125000Y-57125000D03*
%TO.P,D284,4,BK*%
%TO.N,Net-(D276-BK)*%
X101975000Y-57125000D03*
%TD*%
%TO.P,D359,1,A*%
%TO.N,Net-(D337-A)*%
X112475000Y-60975000D03*
%TO.P,D359,2,RK*%
%TO.N,Net-(D353-RK)*%
X111625000Y-60975000D03*
%TO.P,D359,3,GK*%
%TO.N,Net-(D353-GK)*%
X111625000Y-60125000D03*
%TO.P,D359,4,BK*%
%TO.N,Net-(D353-BK)*%
X112475000Y-60125000D03*
%TD*%
D11*
%TO.P,D29,1,A*%
%TO.N,Net-(D18-A)*%
X95125000Y-46625000D03*
%TO.P,D29,2,RK*%
%TO.N,Net-(D23-RK)*%
X95975000Y-46625000D03*
%TO.P,D29,3,GK*%
%TO.N,Net-(D23-GK)*%
X95975000Y-47475000D03*
%TO.P,D29,4,BK*%
%TO.N,Net-(D23-BK)*%
X95125000Y-47475000D03*
%TD*%
%TO.P,D161,1,A*%
%TO.N,Net-(D139-A)*%
X113125000Y-46625000D03*
%TO.P,D161,2,RK*%
%TO.N,Net-(D155-RK)*%
X113975000Y-46625000D03*
%TO.P,D161,3,GK*%
%TO.N,Net-(D155-GK)*%
X113975000Y-47475000D03*
%TO.P,D161,4,BK*%
%TO.N,Net-(D155-BK)*%
X113125000Y-47475000D03*
%TD*%
%TO.P,D90,1,A*%
%TO.N,Net-(D101-A)*%
X104125000Y-39125000D03*
%TO.P,D90,2,RK*%
%TO.N,Net-(D89-RK)*%
X104975000Y-39125000D03*
%TO.P,D90,3,GK*%
%TO.N,Net-(D89-GK)*%
X104975000Y-39975000D03*
%TO.P,D90,4,BK*%
%TO.N,Net-(D89-BK)*%
X104125000Y-39975000D03*
%TD*%
%TO.P,D33,1,A*%
%TO.N,Net-(D11-A)*%
X95125000Y-52625000D03*
%TO.P,D33,2,RK*%
%TO.N,Net-(D23-RK)*%
X95975000Y-52625000D03*
%TO.P,D33,3,GK*%
%TO.N,Net-(D23-GK)*%
X95975000Y-53475000D03*
%TO.P,D33,4,BK*%
%TO.N,Net-(D23-BK)*%
X95125000Y-53475000D03*
%TD*%
D10*
%TO.P,D362,1,A*%
%TO.N,Net-(D340-A)*%
X112475000Y-56475000D03*
%TO.P,D362,2,RK*%
%TO.N,Net-(D353-RK)*%
X111625000Y-56475000D03*
%TO.P,D362,3,GK*%
%TO.N,Net-(D353-GK)*%
X111625000Y-55625000D03*
%TO.P,D362,4,BK*%
%TO.N,Net-(D353-BK)*%
X112475000Y-55625000D03*
%TD*%
D11*
%TO.P,D102,1,A*%
%TO.N,Net-(D102-A)*%
X102625000Y-40625000D03*
%TO.P,D102,2,RK*%
%TO.N,Net-(D100-RK)*%
X103475000Y-40625000D03*
%TO.P,D102,3,GK*%
%TO.N,Net-(D100-GK)*%
X103475000Y-41475000D03*
%TO.P,D102,4,BK*%
%TO.N,Net-(D100-BK)*%
X102625000Y-41475000D03*
%TD*%
%TO.P,D34,1,A*%
%TO.N,Net-(D1-A)*%
X93625000Y-37625000D03*
%TO.P,D34,2,RK*%
%TO.N,Net-(D34-RK)*%
X94475000Y-37625000D03*
%TO.P,D34,3,GK*%
%TO.N,Net-(D34-GK)*%
X94475000Y-38475000D03*
%TO.P,D34,4,BK*%
%TO.N,Net-(D34-BK)*%
X93625000Y-38475000D03*
%TD*%
D10*
%TO.P,D233,1,A*%
%TO.N,Net-(D200-A)*%
X95975000Y-68475000D03*
%TO.P,D233,2,RK*%
%TO.N,Net-(D232-RK)*%
X95125000Y-68475000D03*
%TO.P,D233,3,GK*%
%TO.N,Net-(D232-GK)*%
X95125000Y-67625000D03*
%TO.P,D233,4,BK*%
%TO.N,Net-(D232-BK)*%
X95975000Y-67625000D03*
%TD*%
D11*
%TO.P,D193,1,A*%
%TO.N,Net-(D138-A)*%
X108625000Y-45125000D03*
%TO.P,D193,2,RK*%
%TO.N,Net-(D188-RK)*%
X109475000Y-45125000D03*
%TO.P,D193,3,GK*%
%TO.N,Net-(D188-GK)*%
X109475000Y-45975000D03*
%TO.P,D193,4,BK*%
%TO.N,Net-(D188-BK)*%
X108625000Y-45975000D03*
%TD*%
D10*
%TO.P,D338,1,A*%
%TO.N,Net-(D338-A)*%
X109475000Y-59475000D03*
%TO.P,D338,2,RK*%
%TO.N,Net-(D331-RK)*%
X108625000Y-59475000D03*
%TO.P,D338,3,GK*%
%TO.N,Net-(D331-GK)*%
X108625000Y-58625000D03*
%TO.P,D338,4,BK*%
%TO.N,Net-(D331-BK)*%
X109475000Y-58625000D03*
%TD*%
D11*
%TO.P,D135,1,A*%
%TO.N,Net-(D135-A)*%
X116125000Y-40625000D03*
%TO.P,D135,2,RK*%
%TO.N,Net-(D133-RK)*%
X116975000Y-40625000D03*
%TO.P,D135,3,GK*%
%TO.N,Net-(D133-GK)*%
X116975000Y-41475000D03*
%TO.P,D135,4,BK*%
%TO.N,Net-(D133-BK)*%
X116125000Y-41475000D03*
%TD*%
%TO.P,D65,1,A*%
%TO.N,Net-(D10-A)*%
X90625000Y-51125000D03*
%TO.P,D65,2,RK*%
%TO.N,Net-(D56-RK)*%
X91475000Y-51125000D03*
%TO.P,D65,3,GK*%
%TO.N,Net-(D56-GK)*%
X91475000Y-51975000D03*
%TO.P,D65,4,BK*%
%TO.N,Net-(D56-BK)*%
X90625000Y-51975000D03*
%TD*%
%TO.P,D50,1,A*%
%TO.N,Net-(D17-A)*%
X92125000Y-45125000D03*
%TO.P,D50,2,RK*%
%TO.N,Net-(D45-RK)*%
X92975000Y-45125000D03*
%TO.P,D50,3,GK*%
%TO.N,Net-(D45-GK)*%
X92975000Y-45975000D03*
%TO.P,D50,4,BK*%
%TO.N,Net-(D45-BK)*%
X92125000Y-45975000D03*
%TD*%
D10*
%TO.P,D325,1,A*%
%TO.N,Net-(D270-A)*%
X107975000Y-62475000D03*
%TO.P,D325,2,RK*%
%TO.N,Net-(D320-RK)*%
X107125000Y-62475000D03*
%TO.P,D325,3,GK*%
%TO.N,Net-(D320-GK)*%
X107125000Y-61625000D03*
%TO.P,D325,4,BK*%
%TO.N,Net-(D320-BK)*%
X107975000Y-61625000D03*
%TD*%
D11*
%TO.P,D26,1,A*%
%TO.N,Net-(D15-A)*%
X95125000Y-42125000D03*
%TO.P,D26,2,RK*%
%TO.N,Net-(D23-RK)*%
X95975000Y-42125000D03*
%TO.P,D26,3,GK*%
%TO.N,Net-(D23-GK)*%
X95975000Y-42975000D03*
%TO.P,D26,4,BK*%
%TO.N,Net-(D23-BK)*%
X95125000Y-42975000D03*
%TD*%
D10*
%TO.P,D221,1,A*%
%TO.N,Net-(D199-A)*%
X94475000Y-69975000D03*
%TO.P,D221,2,RK*%
%TO.N,Net-(D221-RK)*%
X93625000Y-69975000D03*
%TO.P,D221,3,GK*%
%TO.N,Net-(D221-GK)*%
X93625000Y-69125000D03*
%TO.P,D221,4,BK*%
%TO.N,Net-(D221-BK)*%
X94475000Y-69125000D03*
%TD*%
%TO.P,D335,1,A*%
%TO.N,Net-(D335-A)*%
X109475000Y-63975000D03*
%TO.P,D335,2,RK*%
%TO.N,Net-(D331-RK)*%
X108625000Y-63975000D03*
%TO.P,D335,3,GK*%
%TO.N,Net-(D331-GK)*%
X108625000Y-63125000D03*
%TO.P,D335,4,BK*%
%TO.N,Net-(D331-BK)*%
X109475000Y-63125000D03*
%TD*%
%TO.P,D396,1,A*%
%TO.N,Net-(D341-A)*%
X116975000Y-54975000D03*
%TO.P,D396,2,RK*%
%TO.N,Net-(D386-RK)*%
X116125000Y-54975000D03*
%TO.P,D396,3,GK*%
%TO.N,Net-(D386-GK)*%
X116125000Y-54125000D03*
%TO.P,D396,4,BK*%
%TO.N,Net-(D386-BK)*%
X116975000Y-54125000D03*
%TD*%
%TO.P,D300,1,A*%
%TO.N,Net-(D267-A)*%
X104975000Y-66975000D03*
%TO.P,D300,2,RK*%
%TO.N,Net-(D298-RK)*%
X104125000Y-66975000D03*
%TO.P,D300,3,GK*%
%TO.N,Net-(D298-GK)*%
X104125000Y-66125000D03*
%TO.P,D300,4,BK*%
%TO.N,Net-(D298-BK)*%
X104975000Y-66125000D03*
%TD*%
D11*
%TO.P,D176,1,A*%
%TO.N,Net-(D143-A)*%
X111625000Y-52625000D03*
%TO.P,D176,2,RK*%
%TO.N,Net-(D166-RK)*%
X112475000Y-52625000D03*
%TO.P,D176,3,GK*%
%TO.N,Net-(D166-GK)*%
X112475000Y-53475000D03*
%TO.P,D176,4,BK*%
%TO.N,Net-(D166-BK)*%
X111625000Y-53475000D03*
%TD*%
D10*
%TO.P,D248,1,A*%
%TO.N,Net-(D204-A)*%
X97475000Y-62475000D03*
%TO.P,D248,2,RK*%
%TO.N,Net-(D243-RK)*%
X96625000Y-62475000D03*
%TO.P,D248,3,GK*%
%TO.N,Net-(D243-GK)*%
X96625000Y-61625000D03*
%TO.P,D248,4,BK*%
%TO.N,Net-(D243-BK)*%
X97475000Y-61625000D03*
%TD*%
D11*
%TO.P,D89,1,A*%
%TO.N,Net-(D100-A)*%
X104125000Y-37625000D03*
%TO.P,D89,2,RK*%
%TO.N,Net-(D89-RK)*%
X104975000Y-37625000D03*
%TO.P,D89,3,GK*%
%TO.N,Net-(D89-GK)*%
X104975000Y-38475000D03*
%TO.P,D89,4,BK*%
%TO.N,Net-(D89-BK)*%
X104125000Y-38475000D03*
%TD*%
D10*
%TO.P,D285,1,A*%
%TO.N,Net-(D274-A)*%
X101975000Y-56475000D03*
%TO.P,D285,2,RK*%
%TO.N,Net-(D276-RK)*%
X101125000Y-56475000D03*
%TO.P,D285,3,GK*%
%TO.N,Net-(D276-GK)*%
X101125000Y-55625000D03*
%TO.P,D285,4,BK*%
%TO.N,Net-(D276-BK)*%
X101975000Y-55625000D03*
%TD*%
%TO.P,D214,1,A*%
%TO.N,Net-(D203-A)*%
X92975000Y-63975000D03*
%TO.P,D214,2,RK*%
%TO.N,Net-(D210-RK)*%
X92125000Y-63975000D03*
%TO.P,D214,3,GK*%
%TO.N,Net-(D210-GK)*%
X92125000Y-63125000D03*
%TO.P,D214,4,BK*%
%TO.N,Net-(D210-BK)*%
X92975000Y-63125000D03*
%TD*%
%TO.P,D245,1,A*%
%TO.N,Net-(D201-A)*%
X97475000Y-66975000D03*
%TO.P,D245,2,RK*%
%TO.N,Net-(D243-RK)*%
X96625000Y-66975000D03*
%TO.P,D245,3,GK*%
%TO.N,Net-(D243-GK)*%
X96625000Y-66125000D03*
%TO.P,D245,4,BK*%
%TO.N,Net-(D243-BK)*%
X97475000Y-66125000D03*
%TD*%
D11*
%TO.P,D128,1,A*%
%TO.N,Net-(D106-A)*%
X99625000Y-46625000D03*
%TO.P,D128,2,RK*%
%TO.N,Net-(D122-RK)*%
X100475000Y-46625000D03*
%TO.P,D128,3,GK*%
%TO.N,Net-(D122-GK)*%
X100475000Y-47475000D03*
%TO.P,D128,4,BK*%
%TO.N,Net-(D122-BK)*%
X99625000Y-47475000D03*
%TD*%
%TO.P,D121,1,A*%
%TO.N,Net-(D110-A)*%
X101125000Y-52625000D03*
%TO.P,D121,2,RK*%
%TO.N,Net-(D111-RK)*%
X101975000Y-52625000D03*
%TO.P,D121,3,GK*%
%TO.N,Net-(D111-GK)*%
X101975000Y-53475000D03*
%TO.P,D121,4,BK*%
%TO.N,Net-(D111-BK)*%
X101125000Y-53475000D03*
%TD*%
%TO.P,D93,1,A*%
%TO.N,Net-(D104-A)*%
X104125000Y-43625000D03*
%TO.P,D93,2,RK*%
%TO.N,Net-(D89-RK)*%
X104975000Y-43625000D03*
%TO.P,D93,3,GK*%
%TO.N,Net-(D89-GK)*%
X104975000Y-44475000D03*
%TO.P,D93,4,BK*%
%TO.N,Net-(D89-BK)*%
X104125000Y-44475000D03*
%TD*%
D10*
%TO.P,D272,1,A*%
%TO.N,Net-(D272-A)*%
X100475000Y-59475000D03*
%TO.P,D272,2,RK*%
%TO.N,Net-(D265-RK)*%
X99625000Y-59475000D03*
%TO.P,D272,3,GK*%
%TO.N,Net-(D265-GK)*%
X99625000Y-58625000D03*
%TO.P,D272,4,BK*%
%TO.N,Net-(D265-BK)*%
X100475000Y-58625000D03*
%TD*%
D11*
%TO.P,D59,1,A*%
%TO.N,Net-(D15-A)*%
X90625000Y-42125000D03*
%TO.P,D59,2,RK*%
%TO.N,Net-(D56-RK)*%
X91475000Y-42125000D03*
%TO.P,D59,3,GK*%
%TO.N,Net-(D56-GK)*%
X91475000Y-42975000D03*
%TO.P,D59,4,BK*%
%TO.N,Net-(D56-BK)*%
X90625000Y-42975000D03*
%TD*%
%TO.P,D57,1,A*%
%TO.N,Net-(D13-A)*%
X90625000Y-39125000D03*
%TO.P,D57,2,RK*%
%TO.N,Net-(D56-RK)*%
X91475000Y-39125000D03*
%TO.P,D57,3,GK*%
%TO.N,Net-(D56-GK)*%
X91475000Y-39975000D03*
%TO.P,D57,4,BK*%
%TO.N,Net-(D56-BK)*%
X90625000Y-39975000D03*
%TD*%
D10*
%TO.P,D339,1,A*%
%TO.N,Net-(D339-A)*%
X109475000Y-57975000D03*
%TO.P,D339,2,RK*%
%TO.N,Net-(D331-RK)*%
X108625000Y-57975000D03*
%TO.P,D339,3,GK*%
%TO.N,Net-(D331-GK)*%
X108625000Y-57125000D03*
%TO.P,D339,4,BK*%
%TO.N,Net-(D331-BK)*%
X109475000Y-57125000D03*
%TD*%
%TO.P,D364,1,A*%
%TO.N,Net-(D331-A)*%
X113975000Y-69975000D03*
%TO.P,D364,2,RK*%
%TO.N,Net-(D364-RK)*%
X113125000Y-69975000D03*
%TO.P,D364,3,GK*%
%TO.N,Net-(D364-GK)*%
X113125000Y-69125000D03*
%TO.P,D364,4,BK*%
%TO.N,Net-(D364-BK)*%
X113975000Y-69125000D03*
%TD*%
D11*
%TO.P,D195,1,A*%
%TO.N,Net-(D140-A)*%
X108625000Y-48125000D03*
%TO.P,D195,2,RK*%
%TO.N,Net-(D188-RK)*%
X109475000Y-48125000D03*
%TO.P,D195,3,GK*%
%TO.N,Net-(D188-GK)*%
X109475000Y-48975000D03*
%TO.P,D195,4,BK*%
%TO.N,Net-(D188-BK)*%
X108625000Y-48975000D03*
%TD*%
D10*
%TO.P,D205,1,A*%
%TO.N,Net-(D205-A)*%
X91475000Y-60975000D03*
%TO.P,D205,2,RK*%
%TO.N,Net-(D199-RK)*%
X90625000Y-60975000D03*
%TO.P,D205,3,GK*%
%TO.N,Net-(D199-GK)*%
X90625000Y-60125000D03*
%TO.P,D205,4,BK*%
%TO.N,Net-(D199-BK)*%
X91475000Y-60125000D03*
%TD*%
%TO.P,D297,1,A*%
%TO.N,Net-(D275-A)*%
X103475000Y-54975000D03*
%TO.P,D297,2,RK*%
%TO.N,Net-(D287-RK)*%
X102625000Y-54975000D03*
%TO.P,D297,3,GK*%
%TO.N,Net-(D287-GK)*%
X102625000Y-54125000D03*
%TO.P,D297,4,BK*%
%TO.N,Net-(D287-BK)*%
X103475000Y-54125000D03*
%TD*%
D11*
%TO.P,D6,1,A*%
%TO.N,Net-(D17-A)*%
X98125000Y-45125000D03*
%TO.P,D6,2,RK*%
%TO.N,Net-(D1-RK)*%
X98975000Y-45125000D03*
%TO.P,D6,3,GK*%
%TO.N,Net-(D1-GK)*%
X98975000Y-45975000D03*
%TO.P,D6,4,BK*%
%TO.N,Net-(D1-BK)*%
X98125000Y-45975000D03*
%TD*%
D10*
%TO.P,D256,1,A*%
%TO.N,Net-(D201-A)*%
X98975000Y-66975000D03*
%TO.P,D256,2,RK*%
%TO.N,Net-(D254-RK)*%
X98125000Y-66975000D03*
%TO.P,D256,3,GK*%
%TO.N,Net-(D254-GK)*%
X98125000Y-66125000D03*
%TO.P,D256,4,BK*%
%TO.N,Net-(D254-BK)*%
X98975000Y-66125000D03*
%TD*%
%TO.P,D222,1,A*%
%TO.N,Net-(D200-A)*%
X94475000Y-68475000D03*
%TO.P,D222,2,RK*%
%TO.N,Net-(D221-RK)*%
X93625000Y-68475000D03*
%TO.P,D222,3,GK*%
%TO.N,Net-(D221-GK)*%
X93625000Y-67625000D03*
%TO.P,D222,4,BK*%
%TO.N,Net-(D221-BK)*%
X94475000Y-67625000D03*
%TD*%
D11*
%TO.P,D109,1,A*%
%TO.N,Net-(D109-A)*%
X102625000Y-51125000D03*
%TO.P,D109,2,RK*%
%TO.N,Net-(D100-RK)*%
X103475000Y-51125000D03*
%TO.P,D109,3,GK*%
%TO.N,Net-(D100-GK)*%
X103475000Y-51975000D03*
%TO.P,D109,4,BK*%
%TO.N,Net-(D100-BK)*%
X102625000Y-51975000D03*
%TD*%
%TO.P,D39,1,A*%
%TO.N,Net-(D17-A)*%
X93625000Y-45125000D03*
%TO.P,D39,2,RK*%
%TO.N,Net-(D34-RK)*%
X94475000Y-45125000D03*
%TO.P,D39,3,GK*%
%TO.N,Net-(D34-GK)*%
X94475000Y-45975000D03*
%TO.P,D39,4,BK*%
%TO.N,Net-(D34-BK)*%
X93625000Y-45975000D03*
%TD*%
%TO.P,D138,1,A*%
%TO.N,Net-(D138-A)*%
X116125000Y-45125000D03*
%TO.P,D138,2,RK*%
%TO.N,Net-(D133-RK)*%
X116975000Y-45125000D03*
%TO.P,D138,3,GK*%
%TO.N,Net-(D133-GK)*%
X116975000Y-45975000D03*
%TO.P,D138,4,BK*%
%TO.N,Net-(D133-BK)*%
X116125000Y-45975000D03*
%TD*%
D10*
%TO.P,D365,1,A*%
%TO.N,Net-(D332-A)*%
X113975000Y-68475000D03*
%TO.P,D365,2,RK*%
%TO.N,Net-(D364-RK)*%
X113125000Y-68475000D03*
%TO.P,D365,3,GK*%
%TO.N,Net-(D364-GK)*%
X113125000Y-67625000D03*
%TO.P,D365,4,BK*%
%TO.N,Net-(D364-BK)*%
X113975000Y-67625000D03*
%TD*%
D11*
%TO.P,D162,1,A*%
%TO.N,Net-(D140-A)*%
X113125000Y-48125000D03*
%TO.P,D162,2,RK*%
%TO.N,Net-(D155-RK)*%
X113975000Y-48125000D03*
%TO.P,D162,3,GK*%
%TO.N,Net-(D155-GK)*%
X113975000Y-48975000D03*
%TO.P,D162,4,BK*%
%TO.N,Net-(D155-BK)*%
X113125000Y-48975000D03*
%TD*%
%TO.P,D63,1,A*%
%TO.N,Net-(D19-A)*%
X90625000Y-48125000D03*
%TO.P,D63,2,RK*%
%TO.N,Net-(D56-RK)*%
X91475000Y-48125000D03*
%TO.P,D63,3,GK*%
%TO.N,Net-(D56-GK)*%
X91475000Y-48975000D03*
%TO.P,D63,4,BK*%
%TO.N,Net-(D56-BK)*%
X90625000Y-48975000D03*
%TD*%
%TO.P,D110,1,A*%
%TO.N,Net-(D110-A)*%
X102625000Y-52625000D03*
%TO.P,D110,2,RK*%
%TO.N,Net-(D100-RK)*%
X103475000Y-52625000D03*
%TO.P,D110,3,GK*%
%TO.N,Net-(D100-GK)*%
X103475000Y-53475000D03*
%TO.P,D110,4,BK*%
%TO.N,Net-(D100-BK)*%
X102625000Y-53475000D03*
%TD*%
D10*
%TO.P,D395,1,A*%
%TO.N,Net-(D340-A)*%
X116975000Y-56475000D03*
%TO.P,D395,2,RK*%
%TO.N,Net-(D386-RK)*%
X116125000Y-56475000D03*
%TO.P,D395,3,GK*%
%TO.N,Net-(D386-GK)*%
X116125000Y-55625000D03*
%TO.P,D395,4,BK*%
%TO.N,Net-(D386-BK)*%
X116975000Y-55625000D03*
%TD*%
%TO.P,D218,1,A*%
%TO.N,Net-(D207-A)*%
X92975000Y-57975000D03*
%TO.P,D218,2,RK*%
%TO.N,Net-(D210-RK)*%
X92125000Y-57975000D03*
%TO.P,D218,3,GK*%
%TO.N,Net-(D210-GK)*%
X92125000Y-57125000D03*
%TO.P,D218,4,BK*%
%TO.N,Net-(D210-BK)*%
X92975000Y-57125000D03*
%TD*%
%TO.P,D361,1,A*%
%TO.N,Net-(D339-A)*%
X112475000Y-57975000D03*
%TO.P,D361,2,RK*%
%TO.N,Net-(D353-RK)*%
X111625000Y-57975000D03*
%TO.P,D361,3,GK*%
%TO.N,Net-(D353-GK)*%
X111625000Y-57125000D03*
%TO.P,D361,4,BK*%
%TO.N,Net-(D353-BK)*%
X112475000Y-57125000D03*
%TD*%
D11*
%TO.P,D40,1,A*%
%TO.N,Net-(D18-A)*%
X93625000Y-46625000D03*
%TO.P,D40,2,RK*%
%TO.N,Net-(D34-RK)*%
X94475000Y-46625000D03*
%TO.P,D40,3,GK*%
%TO.N,Net-(D34-GK)*%
X94475000Y-47475000D03*
%TO.P,D40,4,BK*%
%TO.N,Net-(D34-BK)*%
X93625000Y-47475000D03*
%TD*%
%TO.P,D86,1,A*%
%TO.N,Net-(D108-A)*%
X105625000Y-49625000D03*
%TO.P,D86,2,RK*%
%TO.N,Net-(D78-RK)*%
X106475000Y-49625000D03*
%TO.P,D86,3,GK*%
%TO.N,Net-(D78-GK)*%
X106475000Y-50475000D03*
%TO.P,D86,4,BK*%
%TO.N,Net-(D78-BK)*%
X105625000Y-50475000D03*
%TD*%
%TO.P,D194,1,A*%
%TO.N,Net-(D139-A)*%
X108625000Y-46625000D03*
%TO.P,D194,2,RK*%
%TO.N,Net-(D188-RK)*%
X109475000Y-46625000D03*
%TO.P,D194,3,GK*%
%TO.N,Net-(D188-GK)*%
X109475000Y-47475000D03*
%TO.P,D194,4,BK*%
%TO.N,Net-(D188-BK)*%
X108625000Y-47475000D03*
%TD*%
D10*
%TO.P,D382,1,A*%
%TO.N,Net-(D338-A)*%
X115475000Y-59475000D03*
%TO.P,D382,2,RK*%
%TO.N,Net-(D375-RK)*%
X114625000Y-59475000D03*
%TO.P,D382,3,GK*%
%TO.N,Net-(D375-GK)*%
X114625000Y-58625000D03*
%TO.P,D382,4,BK*%
%TO.N,Net-(D375-BK)*%
X115475000Y-58625000D03*
%TD*%
%TO.P,D308,1,A*%
%TO.N,Net-(D275-A)*%
X104975000Y-54975000D03*
%TO.P,D308,2,RK*%
%TO.N,Net-(D298-RK)*%
X104125000Y-54975000D03*
%TO.P,D308,3,GK*%
%TO.N,Net-(D298-GK)*%
X104125000Y-54125000D03*
%TO.P,D308,4,BK*%
%TO.N,Net-(D298-BK)*%
X104975000Y-54125000D03*
%TD*%
%TO.P,D299,1,A*%
%TO.N,Net-(D266-A)*%
X104975000Y-68475000D03*
%TO.P,D299,2,RK*%
%TO.N,Net-(D298-RK)*%
X104125000Y-68475000D03*
%TO.P,D299,3,GK*%
%TO.N,Net-(D298-GK)*%
X104125000Y-67625000D03*
%TO.P,D299,4,BK*%
%TO.N,Net-(D298-BK)*%
X104975000Y-67625000D03*
%TD*%
D11*
%TO.P,D105,1,A*%
%TO.N,Net-(D105-A)*%
X102625000Y-45125000D03*
%TO.P,D105,2,RK*%
%TO.N,Net-(D100-RK)*%
X103475000Y-45125000D03*
%TO.P,D105,3,GK*%
%TO.N,Net-(D100-GK)*%
X103475000Y-45975000D03*
%TO.P,D105,4,BK*%
%TO.N,Net-(D100-BK)*%
X102625000Y-45975000D03*
%TD*%
D10*
%TO.P,D327,1,A*%
%TO.N,Net-(D272-A)*%
X107975000Y-59475000D03*
%TO.P,D327,2,RK*%
%TO.N,Net-(D320-RK)*%
X107125000Y-59475000D03*
%TO.P,D327,3,GK*%
%TO.N,Net-(D320-GK)*%
X107125000Y-58625000D03*
%TO.P,D327,4,BK*%
%TO.N,Net-(D320-BK)*%
X107975000Y-58625000D03*
%TD*%
%TO.P,D213,1,A*%
%TO.N,Net-(D202-A)*%
X92975000Y-65475000D03*
%TO.P,D213,2,RK*%
%TO.N,Net-(D210-RK)*%
X92125000Y-65475000D03*
%TO.P,D213,3,GK*%
%TO.N,Net-(D210-GK)*%
X92125000Y-64625000D03*
%TO.P,D213,4,BK*%
%TO.N,Net-(D210-BK)*%
X92975000Y-64625000D03*
%TD*%
D11*
%TO.P,D114,1,A*%
%TO.N,Net-(D103-A)*%
X101125000Y-42125000D03*
%TO.P,D114,2,RK*%
%TO.N,Net-(D111-RK)*%
X101975000Y-42125000D03*
%TO.P,D114,3,GK*%
%TO.N,Net-(D111-GK)*%
X101975000Y-42975000D03*
%TO.P,D114,4,BK*%
%TO.N,Net-(D111-BK)*%
X101125000Y-42975000D03*
%TD*%
%TO.P,D108,1,A*%
%TO.N,Net-(D108-A)*%
X102625000Y-49625000D03*
%TO.P,D108,2,RK*%
%TO.N,Net-(D100-RK)*%
X103475000Y-49625000D03*
%TO.P,D108,3,GK*%
%TO.N,Net-(D100-GK)*%
X103475000Y-50475000D03*
%TO.P,D108,4,BK*%
%TO.N,Net-(D100-BK)*%
X102625000Y-50475000D03*
%TD*%
%TO.P,D133,1,A*%
%TO.N,Net-(D133-A)*%
X116125000Y-37625000D03*
%TO.P,D133,2,RK*%
%TO.N,Net-(D133-RK)*%
X116975000Y-37625000D03*
%TO.P,D133,3,GK*%
%TO.N,Net-(D133-GK)*%
X116975000Y-38475000D03*
%TO.P,D133,4,BK*%
%TO.N,Net-(D133-BK)*%
X116125000Y-38475000D03*
%TD*%
D10*
%TO.P,D230,1,A*%
%TO.N,Net-(D208-A)*%
X94475000Y-56475000D03*
%TO.P,D230,2,RK*%
%TO.N,Net-(D221-RK)*%
X93625000Y-56475000D03*
%TO.P,D230,3,GK*%
%TO.N,Net-(D221-GK)*%
X93625000Y-55625000D03*
%TO.P,D230,4,BK*%
%TO.N,Net-(D221-BK)*%
X94475000Y-55625000D03*
%TD*%
D11*
%TO.P,D56,1,A*%
%TO.N,Net-(D1-A)*%
X90625000Y-37625000D03*
%TO.P,D56,2,RK*%
%TO.N,Net-(D56-RK)*%
X91475000Y-37625000D03*
%TO.P,D56,3,GK*%
%TO.N,Net-(D56-GK)*%
X91475000Y-38475000D03*
%TO.P,D56,4,BK*%
%TO.N,Net-(D56-BK)*%
X90625000Y-38475000D03*
%TD*%
D10*
%TO.P,D268,1,A*%
%TO.N,Net-(D268-A)*%
X100475000Y-65475000D03*
%TO.P,D268,2,RK*%
%TO.N,Net-(D265-RK)*%
X99625000Y-65475000D03*
%TO.P,D268,3,GK*%
%TO.N,Net-(D265-GK)*%
X99625000Y-64625000D03*
%TO.P,D268,4,BK*%
%TO.N,Net-(D265-BK)*%
X100475000Y-64625000D03*
%TD*%
%TO.P,D307,1,A*%
%TO.N,Net-(D274-A)*%
X104975000Y-56475000D03*
%TO.P,D307,2,RK*%
%TO.N,Net-(D298-RK)*%
X104125000Y-56475000D03*
%TO.P,D307,3,GK*%
%TO.N,Net-(D298-GK)*%
X104125000Y-55625000D03*
%TO.P,D307,4,BK*%
%TO.N,Net-(D298-BK)*%
X104975000Y-55625000D03*
%TD*%
D11*
%TO.P,D144,1,A*%
%TO.N,Net-(D133-A)*%
X114625000Y-37625000D03*
%TO.P,D144,2,RK*%
%TO.N,Net-(D144-RK)*%
X115475000Y-37625000D03*
%TO.P,D144,3,GK*%
%TO.N,Net-(D144-GK)*%
X115475000Y-38475000D03*
%TO.P,D144,4,BK*%
%TO.N,Net-(D144-BK)*%
X114625000Y-38475000D03*
%TD*%
%TO.P,D71,1,A*%
%TO.N,Net-(D104-A)*%
X107125000Y-43625000D03*
%TO.P,D71,2,RK*%
%TO.N,Net-(D67-RK)*%
X107975000Y-43625000D03*
%TO.P,D71,3,GK*%
%TO.N,Net-(D67-GK)*%
X107975000Y-44475000D03*
%TO.P,D71,4,BK*%
%TO.N,Net-(D67-BK)*%
X107125000Y-44475000D03*
%TD*%
D10*
%TO.P,D347,1,A*%
%TO.N,Net-(D336-A)*%
X110975000Y-62475000D03*
%TO.P,D347,2,RK*%
%TO.N,Net-(D342-RK)*%
X110125000Y-62475000D03*
%TO.P,D347,3,GK*%
%TO.N,Net-(D342-GK)*%
X110125000Y-61625000D03*
%TO.P,D347,4,BK*%
%TO.N,Net-(D342-BK)*%
X110975000Y-61625000D03*
%TD*%
%TO.P,D329,1,A*%
%TO.N,Net-(D274-A)*%
X107975000Y-56475000D03*
%TO.P,D329,2,RK*%
%TO.N,Net-(D320-RK)*%
X107125000Y-56475000D03*
%TO.P,D329,3,GK*%
%TO.N,Net-(D320-GK)*%
X107125000Y-55625000D03*
%TO.P,D329,4,BK*%
%TO.N,Net-(D320-BK)*%
X107975000Y-55625000D03*
%TD*%
D11*
%TO.P,D20,1,A*%
%TO.N,Net-(D20-A)*%
X96625000Y-49625000D03*
%TO.P,D20,2,RK*%
%TO.N,Net-(D12-RK)*%
X97475000Y-49625000D03*
%TO.P,D20,3,GK*%
%TO.N,Net-(D12-GK)*%
X97475000Y-50475000D03*
%TO.P,D20,4,BK*%
%TO.N,Net-(D12-BK)*%
X96625000Y-50475000D03*
%TD*%
%TO.P,D136,1,A*%
%TO.N,Net-(D136-A)*%
X116125000Y-42125000D03*
%TO.P,D136,2,RK*%
%TO.N,Net-(D133-RK)*%
X116975000Y-42125000D03*
%TO.P,D136,3,GK*%
%TO.N,Net-(D133-GK)*%
X116975000Y-42975000D03*
%TO.P,D136,4,BK*%
%TO.N,Net-(D133-BK)*%
X116125000Y-42975000D03*
%TD*%
%TO.P,D75,1,A*%
%TO.N,Net-(D108-A)*%
X107125000Y-49625000D03*
%TO.P,D75,2,RK*%
%TO.N,Net-(D67-RK)*%
X107975000Y-49625000D03*
%TO.P,D75,3,GK*%
%TO.N,Net-(D67-GK)*%
X107975000Y-50475000D03*
%TO.P,D75,4,BK*%
%TO.N,Net-(D67-BK)*%
X107125000Y-50475000D03*
%TD*%
D10*
%TO.P,D204,1,A*%
%TO.N,Net-(D204-A)*%
X91475000Y-62475000D03*
%TO.P,D204,2,RK*%
%TO.N,Net-(D199-RK)*%
X90625000Y-62475000D03*
%TO.P,D204,3,GK*%
%TO.N,Net-(D199-GK)*%
X90625000Y-61625000D03*
%TO.P,D204,4,BK*%
%TO.N,Net-(D199-BK)*%
X91475000Y-61625000D03*
%TD*%
%TO.P,D303,1,A*%
%TO.N,Net-(D270-A)*%
X104975000Y-62475000D03*
%TO.P,D303,2,RK*%
%TO.N,Net-(D298-RK)*%
X104125000Y-62475000D03*
%TO.P,D303,3,GK*%
%TO.N,Net-(D298-GK)*%
X104125000Y-61625000D03*
%TO.P,D303,4,BK*%
%TO.N,Net-(D298-BK)*%
X104975000Y-61625000D03*
%TD*%
%TO.P,D247,1,A*%
%TO.N,Net-(D203-A)*%
X97475000Y-63975000D03*
%TO.P,D247,2,RK*%
%TO.N,Net-(D243-RK)*%
X96625000Y-63975000D03*
%TO.P,D247,3,GK*%
%TO.N,Net-(D243-GK)*%
X96625000Y-63125000D03*
%TO.P,D247,4,BK*%
%TO.N,Net-(D243-BK)*%
X97475000Y-63125000D03*
%TD*%
%TO.P,D219,1,A*%
%TO.N,Net-(D208-A)*%
X92975000Y-56475000D03*
%TO.P,D219,2,RK*%
%TO.N,Net-(D210-RK)*%
X92125000Y-56475000D03*
%TO.P,D219,3,GK*%
%TO.N,Net-(D210-GK)*%
X92125000Y-55625000D03*
%TO.P,D219,4,BK*%
%TO.N,Net-(D210-BK)*%
X92975000Y-55625000D03*
%TD*%
%TO.P,D302,1,A*%
%TO.N,Net-(D269-A)*%
X104975000Y-63975000D03*
%TO.P,D302,2,RK*%
%TO.N,Net-(D298-RK)*%
X104125000Y-63975000D03*
%TO.P,D302,3,GK*%
%TO.N,Net-(D298-GK)*%
X104125000Y-63125000D03*
%TO.P,D302,4,BK*%
%TO.N,Net-(D298-BK)*%
X104975000Y-63125000D03*
%TD*%
D11*
%TO.P,D16,1,A*%
%TO.N,Net-(D16-A)*%
X96625000Y-43625000D03*
%TO.P,D16,2,RK*%
%TO.N,Net-(D12-RK)*%
X97475000Y-43625000D03*
%TO.P,D16,3,GK*%
%TO.N,Net-(D12-GK)*%
X97475000Y-44475000D03*
%TO.P,D16,4,BK*%
%TO.N,Net-(D12-BK)*%
X96625000Y-44475000D03*
%TD*%
D10*
%TO.P,D250,1,A*%
%TO.N,Net-(D206-A)*%
X97475000Y-59475000D03*
%TO.P,D250,2,RK*%
%TO.N,Net-(D243-RK)*%
X96625000Y-59475000D03*
%TO.P,D250,3,GK*%
%TO.N,Net-(D243-GK)*%
X96625000Y-58625000D03*
%TO.P,D250,4,BK*%
%TO.N,Net-(D243-BK)*%
X97475000Y-58625000D03*
%TD*%
%TO.P,D277,1,A*%
%TO.N,Net-(D266-A)*%
X101975000Y-68475000D03*
%TO.P,D277,2,RK*%
%TO.N,Net-(D276-RK)*%
X101125000Y-68475000D03*
%TO.P,D277,3,GK*%
%TO.N,Net-(D276-GK)*%
X101125000Y-67625000D03*
%TO.P,D277,4,BK*%
%TO.N,Net-(D276-BK)*%
X101975000Y-67625000D03*
%TD*%
D11*
%TO.P,D42,1,A*%
%TO.N,Net-(D20-A)*%
X93625000Y-49625000D03*
%TO.P,D42,2,RK*%
%TO.N,Net-(D34-RK)*%
X94475000Y-49625000D03*
%TO.P,D42,3,GK*%
%TO.N,Net-(D34-GK)*%
X94475000Y-50475000D03*
%TO.P,D42,4,BK*%
%TO.N,Net-(D34-BK)*%
X93625000Y-50475000D03*
%TD*%
D10*
%TO.P,D315,1,A*%
%TO.N,Net-(D271-A)*%
X106475000Y-60975000D03*
%TO.P,D315,2,RK*%
%TO.N,Net-(D309-RK)*%
X105625000Y-60975000D03*
%TO.P,D315,3,GK*%
%TO.N,Net-(D309-GK)*%
X105625000Y-60125000D03*
%TO.P,D315,4,BK*%
%TO.N,Net-(D309-BK)*%
X106475000Y-60125000D03*
%TD*%
D11*
%TO.P,D177,1,A*%
%TO.N,Net-(D133-A)*%
X110125000Y-37625000D03*
%TO.P,D177,2,RK*%
%TO.N,Net-(D177-RK)*%
X110975000Y-37625000D03*
%TO.P,D177,3,GK*%
%TO.N,Net-(D177-GK)*%
X110975000Y-38475000D03*
%TO.P,D177,4,BK*%
%TO.N,Net-(D177-BK)*%
X110125000Y-38475000D03*
%TD*%
%TO.P,D18,1,A*%
%TO.N,Net-(D18-A)*%
X96625000Y-46625000D03*
%TO.P,D18,2,RK*%
%TO.N,Net-(D12-RK)*%
X97475000Y-46625000D03*
%TO.P,D18,3,GK*%
%TO.N,Net-(D12-GK)*%
X97475000Y-47475000D03*
%TO.P,D18,4,BK*%
%TO.N,Net-(D12-BK)*%
X96625000Y-47475000D03*
%TD*%
%TO.P,D77,1,A*%
%TO.N,Net-(D110-A)*%
X107125000Y-52625000D03*
%TO.P,D77,2,RK*%
%TO.N,Net-(D67-RK)*%
X107975000Y-52625000D03*
%TO.P,D77,3,GK*%
%TO.N,Net-(D67-GK)*%
X107975000Y-53475000D03*
%TO.P,D77,4,BK*%
%TO.N,Net-(D67-BK)*%
X107125000Y-53475000D03*
%TD*%
%TO.P,D186,1,A*%
%TO.N,Net-(D142-A)*%
X110125000Y-51125000D03*
%TO.P,D186,2,RK*%
%TO.N,Net-(D177-RK)*%
X110975000Y-51125000D03*
%TO.P,D186,3,GK*%
%TO.N,Net-(D177-GK)*%
X110975000Y-51975000D03*
%TO.P,D186,4,BK*%
%TO.N,Net-(D177-BK)*%
X110125000Y-51975000D03*
%TD*%
%TO.P,D169,1,A*%
%TO.N,Net-(D136-A)*%
X111625000Y-42125000D03*
%TO.P,D169,2,RK*%
%TO.N,Net-(D166-RK)*%
X112475000Y-42125000D03*
%TO.P,D169,3,GK*%
%TO.N,Net-(D166-GK)*%
X112475000Y-42975000D03*
%TO.P,D169,4,BK*%
%TO.N,Net-(D166-BK)*%
X111625000Y-42975000D03*
%TD*%
%TO.P,D100,1,A*%
%TO.N,Net-(D100-A)*%
X102625000Y-37625000D03*
%TO.P,D100,2,RK*%
%TO.N,Net-(D100-RK)*%
X103475000Y-37625000D03*
%TO.P,D100,3,GK*%
%TO.N,Net-(D100-GK)*%
X103475000Y-38475000D03*
%TO.P,D100,4,BK*%
%TO.N,Net-(D100-BK)*%
X102625000Y-38475000D03*
%TD*%
%TO.P,D46,1,A*%
%TO.N,Net-(D13-A)*%
X92125000Y-39125000D03*
%TO.P,D46,2,RK*%
%TO.N,Net-(D45-RK)*%
X92975000Y-39125000D03*
%TO.P,D46,3,GK*%
%TO.N,Net-(D45-GK)*%
X92975000Y-39975000D03*
%TO.P,D46,4,BK*%
%TO.N,Net-(D45-BK)*%
X92125000Y-39975000D03*
%TD*%
D10*
%TO.P,D278,1,A*%
%TO.N,Net-(D267-A)*%
X101975000Y-66975000D03*
%TO.P,D278,2,RK*%
%TO.N,Net-(D276-RK)*%
X101125000Y-66975000D03*
%TO.P,D278,3,GK*%
%TO.N,Net-(D276-GK)*%
X101125000Y-66125000D03*
%TO.P,D278,4,BK*%
%TO.N,Net-(D276-BK)*%
X101975000Y-66125000D03*
%TD*%
%TO.P,D276,1,A*%
%TO.N,Net-(D265-A)*%
X101975000Y-69975000D03*
%TO.P,D276,2,RK*%
%TO.N,Net-(D276-RK)*%
X101125000Y-69975000D03*
%TO.P,D276,3,GK*%
%TO.N,Net-(D276-GK)*%
X101125000Y-69125000D03*
%TO.P,D276,4,BK*%
%TO.N,Net-(D276-BK)*%
X101975000Y-69125000D03*
%TD*%
%TO.P,D251,1,A*%
%TO.N,Net-(D207-A)*%
X97475000Y-57975000D03*
%TO.P,D251,2,RK*%
%TO.N,Net-(D243-RK)*%
X96625000Y-57975000D03*
%TO.P,D251,3,GK*%
%TO.N,Net-(D243-GK)*%
X96625000Y-57125000D03*
%TO.P,D251,4,BK*%
%TO.N,Net-(D243-BK)*%
X97475000Y-57125000D03*
%TD*%
D11*
%TO.P,D81,1,A*%
%TO.N,Net-(D103-A)*%
X105625000Y-42125000D03*
%TO.P,D81,2,RK*%
%TO.N,Net-(D78-RK)*%
X106475000Y-42125000D03*
%TO.P,D81,3,GK*%
%TO.N,Net-(D78-GK)*%
X106475000Y-42975000D03*
%TO.P,D81,4,BK*%
%TO.N,Net-(D78-BK)*%
X105625000Y-42975000D03*
%TD*%
D10*
%TO.P,D323,1,A*%
%TO.N,Net-(D268-A)*%
X107975000Y-65475000D03*
%TO.P,D323,2,RK*%
%TO.N,Net-(D320-RK)*%
X107125000Y-65475000D03*
%TO.P,D323,3,GK*%
%TO.N,Net-(D320-GK)*%
X107125000Y-64625000D03*
%TO.P,D323,4,BK*%
%TO.N,Net-(D320-BK)*%
X107975000Y-64625000D03*
%TD*%
%TO.P,D286,1,A*%
%TO.N,Net-(D275-A)*%
X101975000Y-54975000D03*
%TO.P,D286,2,RK*%
%TO.N,Net-(D276-RK)*%
X101125000Y-54975000D03*
%TO.P,D286,3,GK*%
%TO.N,Net-(D276-GK)*%
X101125000Y-54125000D03*
%TO.P,D286,4,BK*%
%TO.N,Net-(D276-BK)*%
X101975000Y-54125000D03*
%TD*%
D11*
%TO.P,D118,1,A*%
%TO.N,Net-(D107-A)*%
X101125000Y-48125000D03*
%TO.P,D118,2,RK*%
%TO.N,Net-(D111-RK)*%
X101975000Y-48125000D03*
%TO.P,D118,3,GK*%
%TO.N,Net-(D111-GK)*%
X101975000Y-48975000D03*
%TO.P,D118,4,BK*%
%TO.N,Net-(D111-BK)*%
X101125000Y-48975000D03*
%TD*%
%TO.P,D19,1,A*%
%TO.N,Net-(D19-A)*%
X96625000Y-48125000D03*
%TO.P,D19,2,RK*%
%TO.N,Net-(D12-RK)*%
X97475000Y-48125000D03*
%TO.P,D19,3,GK*%
%TO.N,Net-(D12-GK)*%
X97475000Y-48975000D03*
%TO.P,D19,4,BK*%
%TO.N,Net-(D12-BK)*%
X96625000Y-48975000D03*
%TD*%
%TO.P,D182,1,A*%
%TO.N,Net-(D138-A)*%
X110125000Y-45125000D03*
%TO.P,D182,2,RK*%
%TO.N,Net-(D177-RK)*%
X110975000Y-45125000D03*
%TO.P,D182,3,GK*%
%TO.N,Net-(D177-GK)*%
X110975000Y-45975000D03*
%TO.P,D182,4,BK*%
%TO.N,Net-(D177-BK)*%
X110125000Y-45975000D03*
%TD*%
%TO.P,D159,1,A*%
%TO.N,Net-(D137-A)*%
X113125000Y-43625000D03*
%TO.P,D159,2,RK*%
%TO.N,Net-(D155-RK)*%
X113975000Y-43625000D03*
%TO.P,D159,3,GK*%
%TO.N,Net-(D155-GK)*%
X113975000Y-44475000D03*
%TO.P,D159,4,BK*%
%TO.N,Net-(D155-BK)*%
X113125000Y-44475000D03*
%TD*%
D10*
%TO.P,D202,1,A*%
%TO.N,Net-(D202-A)*%
X91475000Y-65475000D03*
%TO.P,D202,2,RK*%
%TO.N,Net-(D199-RK)*%
X90625000Y-65475000D03*
%TO.P,D202,3,GK*%
%TO.N,Net-(D199-GK)*%
X90625000Y-64625000D03*
%TO.P,D202,4,BK*%
%TO.N,Net-(D199-BK)*%
X91475000Y-64625000D03*
%TD*%
%TO.P,D265,1,A*%
%TO.N,Net-(D265-A)*%
X100475000Y-69975000D03*
%TO.P,D265,2,RK*%
%TO.N,Net-(D265-RK)*%
X99625000Y-69975000D03*
%TO.P,D265,3,GK*%
%TO.N,Net-(D265-GK)*%
X99625000Y-69125000D03*
%TO.P,D265,4,BK*%
%TO.N,Net-(D265-BK)*%
X100475000Y-69125000D03*
%TD*%
D11*
%TO.P,D189,1,A*%
%TO.N,Net-(D134-A)*%
X108625000Y-39125000D03*
%TO.P,D189,2,RK*%
%TO.N,Net-(D188-RK)*%
X109475000Y-39125000D03*
%TO.P,D189,3,GK*%
%TO.N,Net-(D188-GK)*%
X109475000Y-39975000D03*
%TO.P,D189,4,BK*%
%TO.N,Net-(D188-BK)*%
X108625000Y-39975000D03*
%TD*%
D10*
%TO.P,D290,1,A*%
%TO.N,Net-(D268-A)*%
X103475000Y-65475000D03*
%TO.P,D290,2,RK*%
%TO.N,Net-(D287-RK)*%
X102625000Y-65475000D03*
%TO.P,D290,3,GK*%
%TO.N,Net-(D287-GK)*%
X102625000Y-64625000D03*
%TO.P,D290,4,BK*%
%TO.N,Net-(D287-BK)*%
X103475000Y-64625000D03*
%TD*%
D11*
%TO.P,D70,1,A*%
%TO.N,Net-(D103-A)*%
X107125000Y-42125000D03*
%TO.P,D70,2,RK*%
%TO.N,Net-(D67-RK)*%
X107975000Y-42125000D03*
%TO.P,D70,3,GK*%
%TO.N,Net-(D67-GK)*%
X107975000Y-42975000D03*
%TO.P,D70,4,BK*%
%TO.N,Net-(D67-BK)*%
X107125000Y-42975000D03*
%TD*%
D10*
%TO.P,D331,1,A*%
%TO.N,Net-(D331-A)*%
X109475000Y-69975000D03*
%TO.P,D331,2,RK*%
%TO.N,Net-(D331-RK)*%
X108625000Y-69975000D03*
%TO.P,D331,3,GK*%
%TO.N,Net-(D331-GK)*%
X108625000Y-69125000D03*
%TO.P,D331,4,BK*%
%TO.N,Net-(D331-BK)*%
X109475000Y-69125000D03*
%TD*%
%TO.P,D283,1,A*%
%TO.N,Net-(D272-A)*%
X101975000Y-59475000D03*
%TO.P,D283,2,RK*%
%TO.N,Net-(D276-RK)*%
X101125000Y-59475000D03*
%TO.P,D283,3,GK*%
%TO.N,Net-(D276-GK)*%
X101125000Y-58625000D03*
%TO.P,D283,4,BK*%
%TO.N,Net-(D276-BK)*%
X101975000Y-58625000D03*
%TD*%
%TO.P,D234,1,A*%
%TO.N,Net-(D201-A)*%
X95975000Y-66975000D03*
%TO.P,D234,2,RK*%
%TO.N,Net-(D232-RK)*%
X95125000Y-66975000D03*
%TO.P,D234,3,GK*%
%TO.N,Net-(D232-GK)*%
X95125000Y-66125000D03*
%TO.P,D234,4,BK*%
%TO.N,Net-(D232-BK)*%
X95975000Y-66125000D03*
%TD*%
%TO.P,D392,1,A*%
%TO.N,Net-(D337-A)*%
X116975000Y-60975000D03*
%TO.P,D392,2,RK*%
%TO.N,Net-(D386-RK)*%
X116125000Y-60975000D03*
%TO.P,D392,3,GK*%
%TO.N,Net-(D386-GK)*%
X116125000Y-60125000D03*
%TO.P,D392,4,BK*%
%TO.N,Net-(D386-BK)*%
X116975000Y-60125000D03*
%TD*%
%TO.P,D270,1,A*%
%TO.N,Net-(D270-A)*%
X100475000Y-62475000D03*
%TO.P,D270,2,RK*%
%TO.N,Net-(D265-RK)*%
X99625000Y-62475000D03*
%TO.P,D270,3,GK*%
%TO.N,Net-(D265-GK)*%
X99625000Y-61625000D03*
%TO.P,D270,4,BK*%
%TO.N,Net-(D265-BK)*%
X100475000Y-61625000D03*
%TD*%
%TO.P,D337,1,A*%
%TO.N,Net-(D337-A)*%
X109475000Y-60975000D03*
%TO.P,D337,2,RK*%
%TO.N,Net-(D331-RK)*%
X108625000Y-60975000D03*
%TO.P,D337,3,GK*%
%TO.N,Net-(D331-GK)*%
X108625000Y-60125000D03*
%TO.P,D337,4,BK*%
%TO.N,Net-(D331-BK)*%
X109475000Y-60125000D03*
%TD*%
D11*
%TO.P,D62,1,A*%
%TO.N,Net-(D18-A)*%
X90625000Y-46625000D03*
%TO.P,D62,2,RK*%
%TO.N,Net-(D56-RK)*%
X91475000Y-46625000D03*
%TO.P,D62,3,GK*%
%TO.N,Net-(D56-GK)*%
X91475000Y-47475000D03*
%TO.P,D62,4,BK*%
%TO.N,Net-(D56-BK)*%
X90625000Y-47475000D03*
%TD*%
%TO.P,D115,1,A*%
%TO.N,Net-(D104-A)*%
X101125000Y-43625000D03*
%TO.P,D115,2,RK*%
%TO.N,Net-(D111-RK)*%
X101975000Y-43625000D03*
%TO.P,D115,3,GK*%
%TO.N,Net-(D111-GK)*%
X101975000Y-44475000D03*
%TO.P,D115,4,BK*%
%TO.N,Net-(D111-BK)*%
X101125000Y-44475000D03*
%TD*%
D10*
%TO.P,D292,1,A*%
%TO.N,Net-(D270-A)*%
X103475000Y-62475000D03*
%TO.P,D292,2,RK*%
%TO.N,Net-(D287-RK)*%
X102625000Y-62475000D03*
%TO.P,D292,3,GK*%
%TO.N,Net-(D287-GK)*%
X102625000Y-61625000D03*
%TO.P,D292,4,BK*%
%TO.N,Net-(D287-BK)*%
X103475000Y-61625000D03*
%TD*%
%TO.P,D281,1,A*%
%TO.N,Net-(D270-A)*%
X101975000Y-62475000D03*
%TO.P,D281,2,RK*%
%TO.N,Net-(D276-RK)*%
X101125000Y-62475000D03*
%TO.P,D281,3,GK*%
%TO.N,Net-(D276-GK)*%
X101125000Y-61625000D03*
%TO.P,D281,4,BK*%
%TO.N,Net-(D276-BK)*%
X101975000Y-61625000D03*
%TD*%
%TO.P,D215,1,A*%
%TO.N,Net-(D204-A)*%
X92975000Y-62475000D03*
%TO.P,D215,2,RK*%
%TO.N,Net-(D210-RK)*%
X92125000Y-62475000D03*
%TO.P,D215,3,GK*%
%TO.N,Net-(D210-GK)*%
X92125000Y-61625000D03*
%TO.P,D215,4,BK*%
%TO.N,Net-(D210-BK)*%
X92975000Y-61625000D03*
%TD*%
%TO.P,D255,1,A*%
%TO.N,Net-(D200-A)*%
X98975000Y-68475000D03*
%TO.P,D255,2,RK*%
%TO.N,Net-(D254-RK)*%
X98125000Y-68475000D03*
%TO.P,D255,3,GK*%
%TO.N,Net-(D254-GK)*%
X98125000Y-67625000D03*
%TO.P,D255,4,BK*%
%TO.N,Net-(D254-BK)*%
X98975000Y-67625000D03*
%TD*%
%TO.P,D375,1,A*%
%TO.N,Net-(D331-A)*%
X115475000Y-69975000D03*
%TO.P,D375,2,RK*%
%TO.N,Net-(D375-RK)*%
X114625000Y-69975000D03*
%TO.P,D375,3,GK*%
%TO.N,Net-(D375-GK)*%
X114625000Y-69125000D03*
%TO.P,D375,4,BK*%
%TO.N,Net-(D375-BK)*%
X115475000Y-69125000D03*
%TD*%
%TO.P,D324,1,A*%
%TO.N,Net-(D269-A)*%
X107975000Y-63975000D03*
%TO.P,D324,2,RK*%
%TO.N,Net-(D320-RK)*%
X107125000Y-63975000D03*
%TO.P,D324,3,GK*%
%TO.N,Net-(D320-GK)*%
X107125000Y-63125000D03*
%TO.P,D324,4,BK*%
%TO.N,Net-(D320-BK)*%
X107975000Y-63125000D03*
%TD*%
%TO.P,D366,1,A*%
%TO.N,Net-(D333-A)*%
X113975000Y-66975000D03*
%TO.P,D366,2,RK*%
%TO.N,Net-(D364-RK)*%
X113125000Y-66975000D03*
%TO.P,D366,3,GK*%
%TO.N,Net-(D364-GK)*%
X113125000Y-66125000D03*
%TO.P,D366,4,BK*%
%TO.N,Net-(D364-BK)*%
X113975000Y-66125000D03*
%TD*%
D11*
%TO.P,D171,1,A*%
%TO.N,Net-(D138-A)*%
X111625000Y-45125000D03*
%TO.P,D171,2,RK*%
%TO.N,Net-(D166-RK)*%
X112475000Y-45125000D03*
%TO.P,D171,3,GK*%
%TO.N,Net-(D166-GK)*%
X112475000Y-45975000D03*
%TO.P,D171,4,BK*%
%TO.N,Net-(D166-BK)*%
X111625000Y-45975000D03*
%TD*%
%TO.P,D185,1,A*%
%TO.N,Net-(D141-A)*%
X110125000Y-49625000D03*
%TO.P,D185,2,RK*%
%TO.N,Net-(D177-RK)*%
X110975000Y-49625000D03*
%TO.P,D185,3,GK*%
%TO.N,Net-(D177-GK)*%
X110975000Y-50475000D03*
%TO.P,D185,4,BK*%
%TO.N,Net-(D177-BK)*%
X110125000Y-50475000D03*
%TD*%
%TO.P,D165,1,A*%
%TO.N,Net-(D143-A)*%
X113125000Y-52625000D03*
%TO.P,D165,2,RK*%
%TO.N,Net-(D155-RK)*%
X113975000Y-52625000D03*
%TO.P,D165,3,GK*%
%TO.N,Net-(D155-GK)*%
X113975000Y-53475000D03*
%TO.P,D165,4,BK*%
%TO.N,Net-(D155-BK)*%
X113125000Y-53475000D03*
%TD*%
D10*
%TO.P,D309,1,A*%
%TO.N,Net-(D265-A)*%
X106475000Y-69975000D03*
%TO.P,D309,2,RK*%
%TO.N,Net-(D309-RK)*%
X105625000Y-69975000D03*
%TO.P,D309,3,GK*%
%TO.N,Net-(D309-GK)*%
X105625000Y-69125000D03*
%TO.P,D309,4,BK*%
%TO.N,Net-(D309-BK)*%
X106475000Y-69125000D03*
%TD*%
%TO.P,D305,1,A*%
%TO.N,Net-(D272-A)*%
X104975000Y-59475000D03*
%TO.P,D305,2,RK*%
%TO.N,Net-(D298-RK)*%
X104125000Y-59475000D03*
%TO.P,D305,3,GK*%
%TO.N,Net-(D298-GK)*%
X104125000Y-58625000D03*
%TO.P,D305,4,BK*%
%TO.N,Net-(D298-BK)*%
X104975000Y-58625000D03*
%TD*%
D11*
%TO.P,D3,1,A*%
%TO.N,Net-(D14-A)*%
X98125000Y-40625000D03*
%TO.P,D3,2,RK*%
%TO.N,Net-(D1-RK)*%
X98975000Y-40625000D03*
%TO.P,D3,3,GK*%
%TO.N,Net-(D1-GK)*%
X98975000Y-41475000D03*
%TO.P,D3,4,BK*%
%TO.N,Net-(D1-BK)*%
X98125000Y-41475000D03*
%TD*%
D10*
%TO.P,D372,1,A*%
%TO.N,Net-(D339-A)*%
X113975000Y-57975000D03*
%TO.P,D372,2,RK*%
%TO.N,Net-(D364-RK)*%
X113125000Y-57975000D03*
%TO.P,D372,3,GK*%
%TO.N,Net-(D364-GK)*%
X113125000Y-57125000D03*
%TO.P,D372,4,BK*%
%TO.N,Net-(D364-BK)*%
X113975000Y-57125000D03*
%TD*%
%TO.P,D390,1,A*%
%TO.N,Net-(D335-A)*%
X116975000Y-63975000D03*
%TO.P,D390,2,RK*%
%TO.N,Net-(D386-RK)*%
X116125000Y-63975000D03*
%TO.P,D390,3,GK*%
%TO.N,Net-(D386-GK)*%
X116125000Y-63125000D03*
%TO.P,D390,4,BK*%
%TO.N,Net-(D386-BK)*%
X116975000Y-63125000D03*
%TD*%
D11*
%TO.P,D12,1,A*%
%TO.N,Net-(D1-A)*%
X96625000Y-37625000D03*
%TO.P,D12,2,RK*%
%TO.N,Net-(D12-RK)*%
X97475000Y-37625000D03*
%TO.P,D12,3,GK*%
%TO.N,Net-(D12-GK)*%
X97475000Y-38475000D03*
%TO.P,D12,4,BK*%
%TO.N,Net-(D12-BK)*%
X96625000Y-38475000D03*
%TD*%
%TO.P,D174,1,A*%
%TO.N,Net-(D141-A)*%
X111625000Y-49625000D03*
%TO.P,D174,2,RK*%
%TO.N,Net-(D166-RK)*%
X112475000Y-49625000D03*
%TO.P,D174,3,GK*%
%TO.N,Net-(D166-GK)*%
X112475000Y-50475000D03*
%TO.P,D174,4,BK*%
%TO.N,Net-(D166-BK)*%
X111625000Y-50475000D03*
%TD*%
D10*
%TO.P,D334,1,A*%
%TO.N,Net-(D334-A)*%
X109475000Y-65475000D03*
%TO.P,D334,2,RK*%
%TO.N,Net-(D331-RK)*%
X108625000Y-65475000D03*
%TO.P,D334,3,GK*%
%TO.N,Net-(D331-GK)*%
X108625000Y-64625000D03*
%TO.P,D334,4,BK*%
%TO.N,Net-(D331-BK)*%
X109475000Y-64625000D03*
%TD*%
%TO.P,D356,1,A*%
%TO.N,Net-(D334-A)*%
X112475000Y-65475000D03*
%TO.P,D356,2,RK*%
%TO.N,Net-(D353-RK)*%
X111625000Y-65475000D03*
%TO.P,D356,3,GK*%
%TO.N,Net-(D353-GK)*%
X111625000Y-64625000D03*
%TO.P,D356,4,BK*%
%TO.N,Net-(D353-BK)*%
X112475000Y-64625000D03*
%TD*%
%TO.P,D280,1,A*%
%TO.N,Net-(D269-A)*%
X101975000Y-63975000D03*
%TO.P,D280,2,RK*%
%TO.N,Net-(D276-RK)*%
X101125000Y-63975000D03*
%TO.P,D280,3,GK*%
%TO.N,Net-(D276-GK)*%
X101125000Y-63125000D03*
%TO.P,D280,4,BK*%
%TO.N,Net-(D276-BK)*%
X101975000Y-63125000D03*
%TD*%
%TO.P,D217,1,A*%
%TO.N,Net-(D206-A)*%
X92975000Y-59475000D03*
%TO.P,D217,2,RK*%
%TO.N,Net-(D210-RK)*%
X92125000Y-59475000D03*
%TO.P,D217,3,GK*%
%TO.N,Net-(D210-GK)*%
X92125000Y-58625000D03*
%TO.P,D217,4,BK*%
%TO.N,Net-(D210-BK)*%
X92975000Y-58625000D03*
%TD*%
%TO.P,D376,1,A*%
%TO.N,Net-(D332-A)*%
X115475000Y-68475000D03*
%TO.P,D376,2,RK*%
%TO.N,Net-(D375-RK)*%
X114625000Y-68475000D03*
%TO.P,D376,3,GK*%
%TO.N,Net-(D375-GK)*%
X114625000Y-67625000D03*
%TO.P,D376,4,BK*%
%TO.N,Net-(D375-BK)*%
X115475000Y-67625000D03*
%TD*%
D11*
%TO.P,D107,1,A*%
%TO.N,Net-(D107-A)*%
X102625000Y-48125000D03*
%TO.P,D107,2,RK*%
%TO.N,Net-(D100-RK)*%
X103475000Y-48125000D03*
%TO.P,D107,3,GK*%
%TO.N,Net-(D100-GK)*%
X103475000Y-48975000D03*
%TO.P,D107,4,BK*%
%TO.N,Net-(D100-BK)*%
X102625000Y-48975000D03*
%TD*%
%TO.P,D142,1,A*%
%TO.N,Net-(D142-A)*%
X116125000Y-51125000D03*
%TO.P,D142,2,RK*%
%TO.N,Net-(D133-RK)*%
X116975000Y-51125000D03*
%TO.P,D142,3,GK*%
%TO.N,Net-(D133-GK)*%
X116975000Y-51975000D03*
%TO.P,D142,4,BK*%
%TO.N,Net-(D133-BK)*%
X116125000Y-51975000D03*
%TD*%
%TO.P,D125,1,A*%
%TO.N,Net-(D103-A)*%
X99625000Y-42125000D03*
%TO.P,D125,2,RK*%
%TO.N,Net-(D122-RK)*%
X100475000Y-42125000D03*
%TO.P,D125,3,GK*%
%TO.N,Net-(D122-GK)*%
X100475000Y-42975000D03*
%TO.P,D125,4,BK*%
%TO.N,Net-(D122-BK)*%
X99625000Y-42975000D03*
%TD*%
%TO.P,D150,1,A*%
%TO.N,Net-(D139-A)*%
X114625000Y-46625000D03*
%TO.P,D150,2,RK*%
%TO.N,Net-(D144-RK)*%
X115475000Y-46625000D03*
%TO.P,D150,3,GK*%
%TO.N,Net-(D144-GK)*%
X115475000Y-47475000D03*
%TO.P,D150,4,BK*%
%TO.N,Net-(D144-BK)*%
X114625000Y-47475000D03*
%TD*%
D10*
%TO.P,D394,1,A*%
%TO.N,Net-(D339-A)*%
X116975000Y-57975000D03*
%TO.P,D394,2,RK*%
%TO.N,Net-(D386-RK)*%
X116125000Y-57975000D03*
%TO.P,D394,3,GK*%
%TO.N,Net-(D386-GK)*%
X116125000Y-57125000D03*
%TO.P,D394,4,BK*%
%TO.N,Net-(D386-BK)*%
X116975000Y-57125000D03*
%TD*%
%TO.P,D348,1,A*%
%TO.N,Net-(D337-A)*%
X110975000Y-60975000D03*
%TO.P,D348,2,RK*%
%TO.N,Net-(D342-RK)*%
X110125000Y-60975000D03*
%TO.P,D348,3,GK*%
%TO.N,Net-(D342-GK)*%
X110125000Y-60125000D03*
%TO.P,D348,4,BK*%
%TO.N,Net-(D342-BK)*%
X110975000Y-60125000D03*
%TD*%
%TO.P,D330,1,A*%
%TO.N,Net-(D275-A)*%
X107975000Y-54975000D03*
%TO.P,D330,2,RK*%
%TO.N,Net-(D320-RK)*%
X107125000Y-54975000D03*
%TO.P,D330,3,GK*%
%TO.N,Net-(D320-GK)*%
X107125000Y-54125000D03*
%TO.P,D330,4,BK*%
%TO.N,Net-(D320-BK)*%
X107975000Y-54125000D03*
%TD*%
%TO.P,D279,1,A*%
%TO.N,Net-(D268-A)*%
X101975000Y-65475000D03*
%TO.P,D279,2,RK*%
%TO.N,Net-(D276-RK)*%
X101125000Y-65475000D03*
%TO.P,D279,3,GK*%
%TO.N,Net-(D276-GK)*%
X101125000Y-64625000D03*
%TO.P,D279,4,BK*%
%TO.N,Net-(D276-BK)*%
X101975000Y-64625000D03*
%TD*%
D11*
%TO.P,D141,1,A*%
%TO.N,Net-(D141-A)*%
X116125000Y-49625000D03*
%TO.P,D141,2,RK*%
%TO.N,Net-(D133-RK)*%
X116975000Y-49625000D03*
%TO.P,D141,3,GK*%
%TO.N,Net-(D133-GK)*%
X116975000Y-50475000D03*
%TO.P,D141,4,BK*%
%TO.N,Net-(D133-BK)*%
X116125000Y-50475000D03*
%TD*%
D10*
%TO.P,D259,1,A*%
%TO.N,Net-(D204-A)*%
X98975000Y-62475000D03*
%TO.P,D259,2,RK*%
%TO.N,Net-(D254-RK)*%
X98125000Y-62475000D03*
%TO.P,D259,3,GK*%
%TO.N,Net-(D254-GK)*%
X98125000Y-61625000D03*
%TO.P,D259,4,BK*%
%TO.N,Net-(D254-BK)*%
X98975000Y-61625000D03*
%TD*%
D11*
%TO.P,D61,1,A*%
%TO.N,Net-(D17-A)*%
X90625000Y-45125000D03*
%TO.P,D61,2,RK*%
%TO.N,Net-(D56-RK)*%
X91475000Y-45125000D03*
%TO.P,D61,3,GK*%
%TO.N,Net-(D56-GK)*%
X91475000Y-45975000D03*
%TO.P,D61,4,BK*%
%TO.N,Net-(D56-BK)*%
X90625000Y-45975000D03*
%TD*%
%TO.P,D41,1,A*%
%TO.N,Net-(D19-A)*%
X93625000Y-48125000D03*
%TO.P,D41,2,RK*%
%TO.N,Net-(D34-RK)*%
X94475000Y-48125000D03*
%TO.P,D41,3,GK*%
%TO.N,Net-(D34-GK)*%
X94475000Y-48975000D03*
%TO.P,D41,4,BK*%
%TO.N,Net-(D34-BK)*%
X93625000Y-48975000D03*
%TD*%
%TO.P,D53,1,A*%
%TO.N,Net-(D20-A)*%
X92125000Y-49625000D03*
%TO.P,D53,2,RK*%
%TO.N,Net-(D45-RK)*%
X92975000Y-49625000D03*
%TO.P,D53,3,GK*%
%TO.N,Net-(D45-GK)*%
X92975000Y-50475000D03*
%TO.P,D53,4,BK*%
%TO.N,Net-(D45-BK)*%
X92125000Y-50475000D03*
%TD*%
%TO.P,D76,1,A*%
%TO.N,Net-(D109-A)*%
X107125000Y-51125000D03*
%TO.P,D76,2,RK*%
%TO.N,Net-(D67-RK)*%
X107975000Y-51125000D03*
%TO.P,D76,3,GK*%
%TO.N,Net-(D67-GK)*%
X107975000Y-51975000D03*
%TO.P,D76,4,BK*%
%TO.N,Net-(D67-BK)*%
X107125000Y-51975000D03*
%TD*%
%TO.P,D151,1,A*%
%TO.N,Net-(D140-A)*%
X114625000Y-48125000D03*
%TO.P,D151,2,RK*%
%TO.N,Net-(D144-RK)*%
X115475000Y-48125000D03*
%TO.P,D151,3,GK*%
%TO.N,Net-(D144-GK)*%
X115475000Y-48975000D03*
%TO.P,D151,4,BK*%
%TO.N,Net-(D144-BK)*%
X114625000Y-48975000D03*
%TD*%
D10*
%TO.P,D262,1,A*%
%TO.N,Net-(D207-A)*%
X98975000Y-57975000D03*
%TO.P,D262,2,RK*%
%TO.N,Net-(D254-RK)*%
X98125000Y-57975000D03*
%TO.P,D262,3,GK*%
%TO.N,Net-(D254-GK)*%
X98125000Y-57125000D03*
%TO.P,D262,4,BK*%
%TO.N,Net-(D254-BK)*%
X98975000Y-57125000D03*
%TD*%
D11*
%TO.P,D10,1,A*%
%TO.N,Net-(D10-A)*%
X98125000Y-51125000D03*
%TO.P,D10,2,RK*%
%TO.N,Net-(D1-RK)*%
X98975000Y-51125000D03*
%TO.P,D10,3,GK*%
%TO.N,Net-(D1-GK)*%
X98975000Y-51975000D03*
%TO.P,D10,4,BK*%
%TO.N,Net-(D1-BK)*%
X98125000Y-51975000D03*
%TD*%
D10*
%TO.P,D208,1,A*%
%TO.N,Net-(D208-A)*%
X91475000Y-56475000D03*
%TO.P,D208,2,RK*%
%TO.N,Net-(D199-RK)*%
X90625000Y-56475000D03*
%TO.P,D208,3,GK*%
%TO.N,Net-(D199-GK)*%
X90625000Y-55625000D03*
%TO.P,D208,4,BK*%
%TO.N,Net-(D199-BK)*%
X91475000Y-55625000D03*
%TD*%
D11*
%TO.P,D157,1,A*%
%TO.N,Net-(D135-A)*%
X113125000Y-40625000D03*
%TO.P,D157,2,RK*%
%TO.N,Net-(D155-RK)*%
X113975000Y-40625000D03*
%TO.P,D157,3,GK*%
%TO.N,Net-(D155-GK)*%
X113975000Y-41475000D03*
%TO.P,D157,4,BK*%
%TO.N,Net-(D155-BK)*%
X113125000Y-41475000D03*
%TD*%
D10*
%TO.P,D389,1,A*%
%TO.N,Net-(D334-A)*%
X116975000Y-65475000D03*
%TO.P,D389,2,RK*%
%TO.N,Net-(D386-RK)*%
X116125000Y-65475000D03*
%TO.P,D389,3,GK*%
%TO.N,Net-(D386-GK)*%
X116125000Y-64625000D03*
%TO.P,D389,4,BK*%
%TO.N,Net-(D386-BK)*%
X116975000Y-64625000D03*
%TD*%
%TO.P,D314,1,A*%
%TO.N,Net-(D270-A)*%
X106475000Y-62475000D03*
%TO.P,D314,2,RK*%
%TO.N,Net-(D309-RK)*%
X105625000Y-62475000D03*
%TO.P,D314,3,GK*%
%TO.N,Net-(D309-GK)*%
X105625000Y-61625000D03*
%TO.P,D314,4,BK*%
%TO.N,Net-(D309-BK)*%
X106475000Y-61625000D03*
%TD*%
%TO.P,D258,1,A*%
%TO.N,Net-(D203-A)*%
X98975000Y-63975000D03*
%TO.P,D258,2,RK*%
%TO.N,Net-(D254-RK)*%
X98125000Y-63975000D03*
%TO.P,D258,3,GK*%
%TO.N,Net-(D254-GK)*%
X98125000Y-63125000D03*
%TO.P,D258,4,BK*%
%TO.N,Net-(D254-BK)*%
X98975000Y-63125000D03*
%TD*%
D11*
%TO.P,D173,1,A*%
%TO.N,Net-(D140-A)*%
X111625000Y-48125000D03*
%TO.P,D173,2,RK*%
%TO.N,Net-(D166-RK)*%
X112475000Y-48125000D03*
%TO.P,D173,3,GK*%
%TO.N,Net-(D166-GK)*%
X112475000Y-48975000D03*
%TO.P,D173,4,BK*%
%TO.N,Net-(D166-BK)*%
X111625000Y-48975000D03*
%TD*%
D10*
%TO.P,D253,1,A*%
%TO.N,Net-(D209-A)*%
X97475000Y-54975000D03*
%TO.P,D253,2,RK*%
%TO.N,Net-(D243-RK)*%
X96625000Y-54975000D03*
%TO.P,D253,3,GK*%
%TO.N,Net-(D243-GK)*%
X96625000Y-54125000D03*
%TO.P,D253,4,BK*%
%TO.N,Net-(D243-BK)*%
X97475000Y-54125000D03*
%TD*%
D11*
%TO.P,D123,1,A*%
%TO.N,Net-(D101-A)*%
X99625000Y-39125000D03*
%TO.P,D123,2,RK*%
%TO.N,Net-(D122-RK)*%
X100475000Y-39125000D03*
%TO.P,D123,3,GK*%
%TO.N,Net-(D122-GK)*%
X100475000Y-39975000D03*
%TO.P,D123,4,BK*%
%TO.N,Net-(D122-BK)*%
X99625000Y-39975000D03*
%TD*%
%TO.P,D37,1,A*%
%TO.N,Net-(D15-A)*%
X93625000Y-42125000D03*
%TO.P,D37,2,RK*%
%TO.N,Net-(D34-RK)*%
X94475000Y-42125000D03*
%TO.P,D37,3,GK*%
%TO.N,Net-(D34-GK)*%
X94475000Y-42975000D03*
%TO.P,D37,4,BK*%
%TO.N,Net-(D34-BK)*%
X93625000Y-42975000D03*
%TD*%
D10*
%TO.P,D289,1,A*%
%TO.N,Net-(D267-A)*%
X103475000Y-66975000D03*
%TO.P,D289,2,RK*%
%TO.N,Net-(D287-RK)*%
X102625000Y-66975000D03*
%TO.P,D289,3,GK*%
%TO.N,Net-(D287-GK)*%
X102625000Y-66125000D03*
%TO.P,D289,4,BK*%
%TO.N,Net-(D287-BK)*%
X103475000Y-66125000D03*
%TD*%
%TO.P,D341,1,A*%
%TO.N,Net-(D341-A)*%
X109475000Y-54975000D03*
%TO.P,D341,2,RK*%
%TO.N,Net-(D331-RK)*%
X108625000Y-54975000D03*
%TO.P,D341,3,GK*%
%TO.N,Net-(D331-GK)*%
X108625000Y-54125000D03*
%TO.P,D341,4,BK*%
%TO.N,Net-(D331-BK)*%
X109475000Y-54125000D03*
%TD*%
%TO.P,D294,1,A*%
%TO.N,Net-(D272-A)*%
X103475000Y-59475000D03*
%TO.P,D294,2,RK*%
%TO.N,Net-(D287-RK)*%
X102625000Y-59475000D03*
%TO.P,D294,3,GK*%
%TO.N,Net-(D287-GK)*%
X102625000Y-58625000D03*
%TO.P,D294,4,BK*%
%TO.N,Net-(D287-BK)*%
X103475000Y-58625000D03*
%TD*%
%TO.P,D246,1,A*%
%TO.N,Net-(D202-A)*%
X97475000Y-65475000D03*
%TO.P,D246,2,RK*%
%TO.N,Net-(D243-RK)*%
X96625000Y-65475000D03*
%TO.P,D246,3,GK*%
%TO.N,Net-(D243-GK)*%
X96625000Y-64625000D03*
%TO.P,D246,4,BK*%
%TO.N,Net-(D243-BK)*%
X97475000Y-64625000D03*
%TD*%
%TO.P,D206,1,A*%
%TO.N,Net-(D206-A)*%
X91475000Y-59475000D03*
%TO.P,D206,2,RK*%
%TO.N,Net-(D199-RK)*%
X90625000Y-59475000D03*
%TO.P,D206,3,GK*%
%TO.N,Net-(D199-GK)*%
X90625000Y-58625000D03*
%TO.P,D206,4,BK*%
%TO.N,Net-(D199-BK)*%
X91475000Y-58625000D03*
%TD*%
%TO.P,D238,1,A*%
%TO.N,Net-(D205-A)*%
X95975000Y-60975000D03*
%TO.P,D238,2,RK*%
%TO.N,Net-(D232-RK)*%
X95125000Y-60975000D03*
%TO.P,D238,3,GK*%
%TO.N,Net-(D232-GK)*%
X95125000Y-60125000D03*
%TO.P,D238,4,BK*%
%TO.N,Net-(D232-BK)*%
X95975000Y-60125000D03*
%TD*%
D11*
%TO.P,D48,1,A*%
%TO.N,Net-(D15-A)*%
X92125000Y-42125000D03*
%TO.P,D48,2,RK*%
%TO.N,Net-(D45-RK)*%
X92975000Y-42125000D03*
%TO.P,D48,3,GK*%
%TO.N,Net-(D45-GK)*%
X92975000Y-42975000D03*
%TO.P,D48,4,BK*%
%TO.N,Net-(D45-BK)*%
X92125000Y-42975000D03*
%TD*%
%TO.P,D13,1,A*%
%TO.N,Net-(D13-A)*%
X96625000Y-39125000D03*
%TO.P,D13,2,RK*%
%TO.N,Net-(D12-RK)*%
X97475000Y-39125000D03*
%TO.P,D13,3,GK*%
%TO.N,Net-(D12-GK)*%
X97475000Y-39975000D03*
%TO.P,D13,4,BK*%
%TO.N,Net-(D12-BK)*%
X96625000Y-39975000D03*
%TD*%
D10*
%TO.P,D387,1,A*%
%TO.N,Net-(D332-A)*%
X116975000Y-68475000D03*
%TO.P,D387,2,RK*%
%TO.N,Net-(D386-RK)*%
X116125000Y-68475000D03*
%TO.P,D387,3,GK*%
%TO.N,Net-(D386-GK)*%
X116125000Y-67625000D03*
%TO.P,D387,4,BK*%
%TO.N,Net-(D386-BK)*%
X116975000Y-67625000D03*
%TD*%
%TO.P,D391,1,A*%
%TO.N,Net-(D336-A)*%
X116975000Y-62475000D03*
%TO.P,D391,2,RK*%
%TO.N,Net-(D386-RK)*%
X116125000Y-62475000D03*
%TO.P,D391,3,GK*%
%TO.N,Net-(D386-GK)*%
X116125000Y-61625000D03*
%TO.P,D391,4,BK*%
%TO.N,Net-(D386-BK)*%
X116975000Y-61625000D03*
%TD*%
%TO.P,D257,1,A*%
%TO.N,Net-(D202-A)*%
X98975000Y-65475000D03*
%TO.P,D257,2,RK*%
%TO.N,Net-(D254-RK)*%
X98125000Y-65475000D03*
%TO.P,D257,3,GK*%
%TO.N,Net-(D254-GK)*%
X98125000Y-64625000D03*
%TO.P,D257,4,BK*%
%TO.N,Net-(D254-BK)*%
X98975000Y-64625000D03*
%TD*%
D11*
%TO.P,D47,1,A*%
%TO.N,Net-(D14-A)*%
X92125000Y-40625000D03*
%TO.P,D47,2,RK*%
%TO.N,Net-(D45-RK)*%
X92975000Y-40625000D03*
%TO.P,D47,3,GK*%
%TO.N,Net-(D45-GK)*%
X92975000Y-41475000D03*
%TO.P,D47,4,BK*%
%TO.N,Net-(D45-BK)*%
X92125000Y-41475000D03*
%TD*%
D10*
%TO.P,D320,1,A*%
%TO.N,Net-(D265-A)*%
X107975000Y-69975000D03*
%TO.P,D320,2,RK*%
%TO.N,Net-(D320-RK)*%
X107125000Y-69975000D03*
%TO.P,D320,3,GK*%
%TO.N,Net-(D320-GK)*%
X107125000Y-69125000D03*
%TO.P,D320,4,BK*%
%TO.N,Net-(D320-BK)*%
X107975000Y-69125000D03*
%TD*%
D11*
%TO.P,D96,1,A*%
%TO.N,Net-(D107-A)*%
X104125000Y-48125000D03*
%TO.P,D96,2,RK*%
%TO.N,Net-(D89-RK)*%
X104975000Y-48125000D03*
%TO.P,D96,3,GK*%
%TO.N,Net-(D89-GK)*%
X104975000Y-48975000D03*
%TO.P,D96,4,BK*%
%TO.N,Net-(D89-BK)*%
X104125000Y-48975000D03*
%TD*%
D10*
%TO.P,D201,1,A*%
%TO.N,Net-(D201-A)*%
X91475000Y-66975000D03*
%TO.P,D201,2,RK*%
%TO.N,Net-(D199-RK)*%
X90625000Y-66975000D03*
%TO.P,D201,3,GK*%
%TO.N,Net-(D199-GK)*%
X90625000Y-66125000D03*
%TO.P,D201,4,BK*%
%TO.N,Net-(D199-BK)*%
X91475000Y-66125000D03*
%TD*%
%TO.P,D241,1,A*%
%TO.N,Net-(D208-A)*%
X95975000Y-56475000D03*
%TO.P,D241,2,RK*%
%TO.N,Net-(D232-RK)*%
X95125000Y-56475000D03*
%TO.P,D241,3,GK*%
%TO.N,Net-(D232-GK)*%
X95125000Y-55625000D03*
%TO.P,D241,4,BK*%
%TO.N,Net-(D232-BK)*%
X95975000Y-55625000D03*
%TD*%
D11*
%TO.P,D178,1,A*%
%TO.N,Net-(D134-A)*%
X110125000Y-39125000D03*
%TO.P,D178,2,RK*%
%TO.N,Net-(D177-RK)*%
X110975000Y-39125000D03*
%TO.P,D178,3,GK*%
%TO.N,Net-(D177-GK)*%
X110975000Y-39975000D03*
%TO.P,D178,4,BK*%
%TO.N,Net-(D177-BK)*%
X110125000Y-39975000D03*
%TD*%
%TO.P,D152,1,A*%
%TO.N,Net-(D141-A)*%
X114625000Y-49625000D03*
%TO.P,D152,2,RK*%
%TO.N,Net-(D144-RK)*%
X115475000Y-49625000D03*
%TO.P,D152,3,GK*%
%TO.N,Net-(D144-GK)*%
X115475000Y-50475000D03*
%TO.P,D152,4,BK*%
%TO.N,Net-(D144-BK)*%
X114625000Y-50475000D03*
%TD*%
D10*
%TO.P,D264,1,A*%
%TO.N,Net-(D209-A)*%
X98975000Y-54975000D03*
%TO.P,D264,2,RK*%
%TO.N,Net-(D254-RK)*%
X98125000Y-54975000D03*
%TO.P,D264,3,GK*%
%TO.N,Net-(D254-GK)*%
X98125000Y-54125000D03*
%TO.P,D264,4,BK*%
%TO.N,Net-(D254-BK)*%
X98975000Y-54125000D03*
%TD*%
D11*
%TO.P,D1,1,A*%
%TO.N,Net-(D1-A)*%
X98125000Y-37625000D03*
%TO.P,D1,2,RK*%
%TO.N,Net-(D1-RK)*%
X98975000Y-37625000D03*
%TO.P,D1,3,GK*%
%TO.N,Net-(D1-GK)*%
X98975000Y-38475000D03*
%TO.P,D1,4,BK*%
%TO.N,Net-(D1-BK)*%
X98125000Y-38475000D03*
%TD*%
%TO.P,D130,1,A*%
%TO.N,Net-(D108-A)*%
X99625000Y-49625000D03*
%TO.P,D130,2,RK*%
%TO.N,Net-(D122-RK)*%
X100475000Y-49625000D03*
%TO.P,D130,3,GK*%
%TO.N,Net-(D122-GK)*%
X100475000Y-50475000D03*
%TO.P,D130,4,BK*%
%TO.N,Net-(D122-BK)*%
X99625000Y-50475000D03*
%TD*%
D10*
%TO.P,D311,1,A*%
%TO.N,Net-(D267-A)*%
X106475000Y-66975000D03*
%TO.P,D311,2,RK*%
%TO.N,Net-(D309-RK)*%
X105625000Y-66975000D03*
%TO.P,D311,3,GK*%
%TO.N,Net-(D309-GK)*%
X105625000Y-66125000D03*
%TO.P,D311,4,BK*%
%TO.N,Net-(D309-BK)*%
X106475000Y-66125000D03*
%TD*%
%TO.P,D288,1,A*%
%TO.N,Net-(D266-A)*%
X103475000Y-68475000D03*
%TO.P,D288,2,RK*%
%TO.N,Net-(D287-RK)*%
X102625000Y-68475000D03*
%TO.P,D288,3,GK*%
%TO.N,Net-(D287-GK)*%
X102625000Y-67625000D03*
%TO.P,D288,4,BK*%
%TO.N,Net-(D287-BK)*%
X103475000Y-67625000D03*
%TD*%
D11*
%TO.P,D111,1,A*%
%TO.N,Net-(D100-A)*%
X101125000Y-37625000D03*
%TO.P,D111,2,RK*%
%TO.N,Net-(D111-RK)*%
X101975000Y-37625000D03*
%TO.P,D111,3,GK*%
%TO.N,Net-(D111-GK)*%
X101975000Y-38475000D03*
%TO.P,D111,4,BK*%
%TO.N,Net-(D111-BK)*%
X101125000Y-38475000D03*
%TD*%
%TO.P,D153,1,A*%
%TO.N,Net-(D142-A)*%
X114625000Y-51125000D03*
%TO.P,D153,2,RK*%
%TO.N,Net-(D144-RK)*%
X115475000Y-51125000D03*
%TO.P,D153,3,GK*%
%TO.N,Net-(D144-GK)*%
X115475000Y-51975000D03*
%TO.P,D153,4,BK*%
%TO.N,Net-(D144-BK)*%
X114625000Y-51975000D03*
%TD*%
%TO.P,D54,1,A*%
%TO.N,Net-(D10-A)*%
X92125000Y-51125000D03*
%TO.P,D54,2,RK*%
%TO.N,Net-(D45-RK)*%
X92975000Y-51125000D03*
%TO.P,D54,3,GK*%
%TO.N,Net-(D45-GK)*%
X92975000Y-51975000D03*
%TO.P,D54,4,BK*%
%TO.N,Net-(D45-BK)*%
X92125000Y-51975000D03*
%TD*%
D10*
%TO.P,D328,1,A*%
%TO.N,Net-(D273-A)*%
X107975000Y-57975000D03*
%TO.P,D328,2,RK*%
%TO.N,Net-(D320-RK)*%
X107125000Y-57975000D03*
%TO.P,D328,3,GK*%
%TO.N,Net-(D320-GK)*%
X107125000Y-57125000D03*
%TO.P,D328,4,BK*%
%TO.N,Net-(D320-BK)*%
X107975000Y-57125000D03*
%TD*%
%TO.P,D317,1,A*%
%TO.N,Net-(D273-A)*%
X106475000Y-57975000D03*
%TO.P,D317,2,RK*%
%TO.N,Net-(D309-RK)*%
X105625000Y-57975000D03*
%TO.P,D317,3,GK*%
%TO.N,Net-(D309-GK)*%
X105625000Y-57125000D03*
%TO.P,D317,4,BK*%
%TO.N,Net-(D309-BK)*%
X106475000Y-57125000D03*
%TD*%
D11*
%TO.P,D127,1,A*%
%TO.N,Net-(D105-A)*%
X99625000Y-45125000D03*
%TO.P,D127,2,RK*%
%TO.N,Net-(D122-RK)*%
X100475000Y-45125000D03*
%TO.P,D127,3,GK*%
%TO.N,Net-(D122-GK)*%
X100475000Y-45975000D03*
%TO.P,D127,4,BK*%
%TO.N,Net-(D122-BK)*%
X99625000Y-45975000D03*
%TD*%
%TO.P,D22,1,A*%
%TO.N,Net-(D11-A)*%
X96625000Y-52625000D03*
%TO.P,D22,2,RK*%
%TO.N,Net-(D12-RK)*%
X97475000Y-52625000D03*
%TO.P,D22,3,GK*%
%TO.N,Net-(D12-GK)*%
X97475000Y-53475000D03*
%TO.P,D22,4,BK*%
%TO.N,Net-(D12-BK)*%
X96625000Y-53475000D03*
%TD*%
%TO.P,D66,1,A*%
%TO.N,Net-(D11-A)*%
X90625000Y-52625000D03*
%TO.P,D66,2,RK*%
%TO.N,Net-(D56-RK)*%
X91475000Y-52625000D03*
%TO.P,D66,3,GK*%
%TO.N,Net-(D56-GK)*%
X91475000Y-53475000D03*
%TO.P,D66,4,BK*%
%TO.N,Net-(D56-BK)*%
X90625000Y-53475000D03*
%TD*%
D10*
%TO.P,D239,1,A*%
%TO.N,Net-(D206-A)*%
X95975000Y-59475000D03*
%TO.P,D239,2,RK*%
%TO.N,Net-(D232-RK)*%
X95125000Y-59475000D03*
%TO.P,D239,3,GK*%
%TO.N,Net-(D232-GK)*%
X95125000Y-58625000D03*
%TO.P,D239,4,BK*%
%TO.N,Net-(D232-BK)*%
X95975000Y-58625000D03*
%TD*%
%TO.P,D301,1,A*%
%TO.N,Net-(D268-A)*%
X104975000Y-65475000D03*
%TO.P,D301,2,RK*%
%TO.N,Net-(D298-RK)*%
X104125000Y-65475000D03*
%TO.P,D301,3,GK*%
%TO.N,Net-(D298-GK)*%
X104125000Y-64625000D03*
%TO.P,D301,4,BK*%
%TO.N,Net-(D298-BK)*%
X104975000Y-64625000D03*
%TD*%
D11*
%TO.P,D158,1,A*%
%TO.N,Net-(D136-A)*%
X113125000Y-42125000D03*
%TO.P,D158,2,RK*%
%TO.N,Net-(D155-RK)*%
X113975000Y-42125000D03*
%TO.P,D158,3,GK*%
%TO.N,Net-(D155-GK)*%
X113975000Y-42975000D03*
%TO.P,D158,4,BK*%
%TO.N,Net-(D155-BK)*%
X113125000Y-42975000D03*
%TD*%
D10*
%TO.P,D373,1,A*%
%TO.N,Net-(D340-A)*%
X113975000Y-56475000D03*
%TO.P,D373,2,RK*%
%TO.N,Net-(D364-RK)*%
X113125000Y-56475000D03*
%TO.P,D373,3,GK*%
%TO.N,Net-(D364-GK)*%
X113125000Y-55625000D03*
%TO.P,D373,4,BK*%
%TO.N,Net-(D364-BK)*%
X113975000Y-55625000D03*
%TD*%
D11*
%TO.P,D64,1,A*%
%TO.N,Net-(D20-A)*%
X90625000Y-49625000D03*
%TO.P,D64,2,RK*%
%TO.N,Net-(D56-RK)*%
X91475000Y-49625000D03*
%TO.P,D64,3,GK*%
%TO.N,Net-(D56-GK)*%
X91475000Y-50475000D03*
%TO.P,D64,4,BK*%
%TO.N,Net-(D56-BK)*%
X90625000Y-50475000D03*
%TD*%
%TO.P,D134,1,A*%
%TO.N,Net-(D134-A)*%
X116125000Y-39125000D03*
%TO.P,D134,2,RK*%
%TO.N,Net-(D133-RK)*%
X116975000Y-39125000D03*
%TO.P,D134,3,GK*%
%TO.N,Net-(D133-GK)*%
X116975000Y-39975000D03*
%TO.P,D134,4,BK*%
%TO.N,Net-(D133-BK)*%
X116125000Y-39975000D03*
%TD*%
%TO.P,D5,1,A*%
%TO.N,Net-(D16-A)*%
X98125000Y-43625000D03*
%TO.P,D5,2,RK*%
%TO.N,Net-(D1-RK)*%
X98975000Y-43625000D03*
%TO.P,D5,3,GK*%
%TO.N,Net-(D1-GK)*%
X98975000Y-44475000D03*
%TO.P,D5,4,BK*%
%TO.N,Net-(D1-BK)*%
X98125000Y-44475000D03*
%TD*%
%TO.P,D183,1,A*%
%TO.N,Net-(D139-A)*%
X110125000Y-46625000D03*
%TO.P,D183,2,RK*%
%TO.N,Net-(D177-RK)*%
X110975000Y-46625000D03*
%TO.P,D183,3,GK*%
%TO.N,Net-(D177-GK)*%
X110975000Y-47475000D03*
%TO.P,D183,4,BK*%
%TO.N,Net-(D177-BK)*%
X110125000Y-47475000D03*
%TD*%
%TO.P,D87,1,A*%
%TO.N,Net-(D109-A)*%
X105625000Y-51125000D03*
%TO.P,D87,2,RK*%
%TO.N,Net-(D78-RK)*%
X106475000Y-51125000D03*
%TO.P,D87,3,GK*%
%TO.N,Net-(D78-GK)*%
X106475000Y-51975000D03*
%TO.P,D87,4,BK*%
%TO.N,Net-(D78-BK)*%
X105625000Y-51975000D03*
%TD*%
D10*
%TO.P,D240,1,A*%
%TO.N,Net-(D207-A)*%
X95975000Y-57975000D03*
%TO.P,D240,2,RK*%
%TO.N,Net-(D232-RK)*%
X95125000Y-57975000D03*
%TO.P,D240,3,GK*%
%TO.N,Net-(D232-GK)*%
X95125000Y-57125000D03*
%TO.P,D240,4,BK*%
%TO.N,Net-(D232-BK)*%
X95975000Y-57125000D03*
%TD*%
D11*
%TO.P,D85,1,A*%
%TO.N,Net-(D107-A)*%
X105625000Y-48125000D03*
%TO.P,D85,2,RK*%
%TO.N,Net-(D78-RK)*%
X106475000Y-48125000D03*
%TO.P,D85,3,GK*%
%TO.N,Net-(D78-GK)*%
X106475000Y-48975000D03*
%TO.P,D85,4,BK*%
%TO.N,Net-(D78-BK)*%
X105625000Y-48975000D03*
%TD*%
D10*
%TO.P,D393,1,A*%
%TO.N,Net-(D338-A)*%
X116975000Y-59475000D03*
%TO.P,D393,2,RK*%
%TO.N,Net-(D386-RK)*%
X116125000Y-59475000D03*
%TO.P,D393,3,GK*%
%TO.N,Net-(D386-GK)*%
X116125000Y-58625000D03*
%TO.P,D393,4,BK*%
%TO.N,Net-(D386-BK)*%
X116975000Y-58625000D03*
%TD*%
D11*
%TO.P,D137,1,A*%
%TO.N,Net-(D137-A)*%
X116125000Y-43625000D03*
%TO.P,D137,2,RK*%
%TO.N,Net-(D133-RK)*%
X116975000Y-43625000D03*
%TO.P,D137,3,GK*%
%TO.N,Net-(D133-GK)*%
X116975000Y-44475000D03*
%TO.P,D137,4,BK*%
%TO.N,Net-(D133-BK)*%
X116125000Y-44475000D03*
%TD*%
%TO.P,D187,1,A*%
%TO.N,Net-(D143-A)*%
X110125000Y-52625000D03*
%TO.P,D187,2,RK*%
%TO.N,Net-(D177-RK)*%
X110975000Y-52625000D03*
%TO.P,D187,3,GK*%
%TO.N,Net-(D177-GK)*%
X110975000Y-53475000D03*
%TO.P,D187,4,BK*%
%TO.N,Net-(D177-BK)*%
X110125000Y-53475000D03*
%TD*%
%TO.P,D72,1,A*%
%TO.N,Net-(D105-A)*%
X107125000Y-45125000D03*
%TO.P,D72,2,RK*%
%TO.N,Net-(D67-RK)*%
X107975000Y-45125000D03*
%TO.P,D72,3,GK*%
%TO.N,Net-(D67-GK)*%
X107975000Y-45975000D03*
%TO.P,D72,4,BK*%
%TO.N,Net-(D67-BK)*%
X107125000Y-45975000D03*
%TD*%
%TO.P,D97,1,A*%
%TO.N,Net-(D108-A)*%
X104125000Y-49625000D03*
%TO.P,D97,2,RK*%
%TO.N,Net-(D89-RK)*%
X104975000Y-49625000D03*
%TO.P,D97,3,GK*%
%TO.N,Net-(D89-GK)*%
X104975000Y-50475000D03*
%TO.P,D97,4,BK*%
%TO.N,Net-(D89-BK)*%
X104125000Y-50475000D03*
%TD*%
D10*
%TO.P,D220,1,A*%
%TO.N,Net-(D209-A)*%
X92975000Y-54975000D03*
%TO.P,D220,2,RK*%
%TO.N,Net-(D210-RK)*%
X92125000Y-54975000D03*
%TO.P,D220,3,GK*%
%TO.N,Net-(D210-GK)*%
X92125000Y-54125000D03*
%TO.P,D220,4,BK*%
%TO.N,Net-(D210-BK)*%
X92975000Y-54125000D03*
%TD*%
D11*
%TO.P,D94,1,A*%
%TO.N,Net-(D105-A)*%
X104125000Y-45125000D03*
%TO.P,D94,2,RK*%
%TO.N,Net-(D89-RK)*%
X104975000Y-45125000D03*
%TO.P,D94,3,GK*%
%TO.N,Net-(D89-GK)*%
X104975000Y-45975000D03*
%TO.P,D94,4,BK*%
%TO.N,Net-(D89-BK)*%
X104125000Y-45975000D03*
%TD*%
D10*
%TO.P,D306,1,A*%
%TO.N,Net-(D273-A)*%
X104975000Y-57975000D03*
%TO.P,D306,2,RK*%
%TO.N,Net-(D298-RK)*%
X104125000Y-57975000D03*
%TO.P,D306,3,GK*%
%TO.N,Net-(D298-GK)*%
X104125000Y-57125000D03*
%TO.P,D306,4,BK*%
%TO.N,Net-(D298-BK)*%
X104975000Y-57125000D03*
%TD*%
D11*
%TO.P,D143,1,A*%
%TO.N,Net-(D143-A)*%
X116125000Y-52625000D03*
%TO.P,D143,2,RK*%
%TO.N,Net-(D133-RK)*%
X116975000Y-52625000D03*
%TO.P,D143,3,GK*%
%TO.N,Net-(D133-GK)*%
X116975000Y-53475000D03*
%TO.P,D143,4,BK*%
%TO.N,Net-(D133-BK)*%
X116125000Y-53475000D03*
%TD*%
D10*
%TO.P,D344,1,A*%
%TO.N,Net-(D333-A)*%
X110975000Y-66975000D03*
%TO.P,D344,2,RK*%
%TO.N,Net-(D342-RK)*%
X110125000Y-66975000D03*
%TO.P,D344,3,GK*%
%TO.N,Net-(D342-GK)*%
X110125000Y-66125000D03*
%TO.P,D344,4,BK*%
%TO.N,Net-(D342-BK)*%
X110975000Y-66125000D03*
%TD*%
%TO.P,D321,1,A*%
%TO.N,Net-(D266-A)*%
X107975000Y-68475000D03*
%TO.P,D321,2,RK*%
%TO.N,Net-(D320-RK)*%
X107125000Y-68475000D03*
%TO.P,D321,3,GK*%
%TO.N,Net-(D320-GK)*%
X107125000Y-67625000D03*
%TO.P,D321,4,BK*%
%TO.N,Net-(D320-BK)*%
X107975000Y-67625000D03*
%TD*%
%TO.P,D332,1,A*%
%TO.N,Net-(D332-A)*%
X109475000Y-68475000D03*
%TO.P,D332,2,RK*%
%TO.N,Net-(D331-RK)*%
X108625000Y-68475000D03*
%TO.P,D332,3,GK*%
%TO.N,Net-(D331-GK)*%
X108625000Y-67625000D03*
%TO.P,D332,4,BK*%
%TO.N,Net-(D331-BK)*%
X109475000Y-67625000D03*
%TD*%
%TO.P,D319,1,A*%
%TO.N,Net-(D275-A)*%
X106475000Y-54975000D03*
%TO.P,D319,2,RK*%
%TO.N,Net-(D309-RK)*%
X105625000Y-54975000D03*
%TO.P,D319,3,GK*%
%TO.N,Net-(D309-GK)*%
X105625000Y-54125000D03*
%TO.P,D319,4,BK*%
%TO.N,Net-(D309-BK)*%
X106475000Y-54125000D03*
%TD*%
%TO.P,D226,1,A*%
%TO.N,Net-(D204-A)*%
X94475000Y-62475000D03*
%TO.P,D226,2,RK*%
%TO.N,Net-(D221-RK)*%
X93625000Y-62475000D03*
%TO.P,D226,3,GK*%
%TO.N,Net-(D221-GK)*%
X93625000Y-61625000D03*
%TO.P,D226,4,BK*%
%TO.N,Net-(D221-BK)*%
X94475000Y-61625000D03*
%TD*%
%TO.P,D242,1,A*%
%TO.N,Net-(D209-A)*%
X95975000Y-54975000D03*
%TO.P,D242,2,RK*%
%TO.N,Net-(D232-RK)*%
X95125000Y-54975000D03*
%TO.P,D242,3,GK*%
%TO.N,Net-(D232-GK)*%
X95125000Y-54125000D03*
%TO.P,D242,4,BK*%
%TO.N,Net-(D232-BK)*%
X95975000Y-54125000D03*
%TD*%
D11*
%TO.P,D14,1,A*%
%TO.N,Net-(D14-A)*%
X96625000Y-40625000D03*
%TO.P,D14,2,RK*%
%TO.N,Net-(D12-RK)*%
X97475000Y-40625000D03*
%TO.P,D14,3,GK*%
%TO.N,Net-(D12-GK)*%
X97475000Y-41475000D03*
%TO.P,D14,4,BK*%
%TO.N,Net-(D12-BK)*%
X96625000Y-41475000D03*
%TD*%
%TO.P,D27,1,A*%
%TO.N,Net-(D16-A)*%
X95125000Y-43625000D03*
%TO.P,D27,2,RK*%
%TO.N,Net-(D23-RK)*%
X95975000Y-43625000D03*
%TO.P,D27,3,GK*%
%TO.N,Net-(D23-GK)*%
X95975000Y-44475000D03*
%TO.P,D27,4,BK*%
%TO.N,Net-(D23-BK)*%
X95125000Y-44475000D03*
%TD*%
D10*
%TO.P,D261,1,A*%
%TO.N,Net-(D206-A)*%
X98975000Y-59475000D03*
%TO.P,D261,2,RK*%
%TO.N,Net-(D254-RK)*%
X98125000Y-59475000D03*
%TO.P,D261,3,GK*%
%TO.N,Net-(D254-GK)*%
X98125000Y-58625000D03*
%TO.P,D261,4,BK*%
%TO.N,Net-(D254-BK)*%
X98975000Y-58625000D03*
%TD*%
%TO.P,D318,1,A*%
%TO.N,Net-(D274-A)*%
X106475000Y-56475000D03*
%TO.P,D318,2,RK*%
%TO.N,Net-(D309-RK)*%
X105625000Y-56475000D03*
%TO.P,D318,3,GK*%
%TO.N,Net-(D309-GK)*%
X105625000Y-55625000D03*
%TO.P,D318,4,BK*%
%TO.N,Net-(D309-BK)*%
X106475000Y-55625000D03*
%TD*%
D11*
%TO.P,D43,1,A*%
%TO.N,Net-(D10-A)*%
X93625000Y-51125000D03*
%TO.P,D43,2,RK*%
%TO.N,Net-(D34-RK)*%
X94475000Y-51125000D03*
%TO.P,D43,3,GK*%
%TO.N,Net-(D34-GK)*%
X94475000Y-51975000D03*
%TO.P,D43,4,BK*%
%TO.N,Net-(D34-BK)*%
X93625000Y-51975000D03*
%TD*%
D10*
%TO.P,D209,1,A*%
%TO.N,Net-(D209-A)*%
X91475000Y-54975000D03*
%TO.P,D209,2,RK*%
%TO.N,Net-(D199-RK)*%
X90625000Y-54975000D03*
%TO.P,D209,3,GK*%
%TO.N,Net-(D199-GK)*%
X90625000Y-54125000D03*
%TO.P,D209,4,BK*%
%TO.N,Net-(D199-BK)*%
X91475000Y-54125000D03*
%TD*%
%TO.P,D313,1,A*%
%TO.N,Net-(D269-A)*%
X106475000Y-63975000D03*
%TO.P,D313,2,RK*%
%TO.N,Net-(D309-RK)*%
X105625000Y-63975000D03*
%TO.P,D313,3,GK*%
%TO.N,Net-(D309-GK)*%
X105625000Y-63125000D03*
%TO.P,D313,4,BK*%
%TO.N,Net-(D309-BK)*%
X106475000Y-63125000D03*
%TD*%
%TO.P,D384,1,A*%
%TO.N,Net-(D340-A)*%
X115475000Y-56475000D03*
%TO.P,D384,2,RK*%
%TO.N,Net-(D375-RK)*%
X114625000Y-56475000D03*
%TO.P,D384,3,GK*%
%TO.N,Net-(D375-GK)*%
X114625000Y-55625000D03*
%TO.P,D384,4,BK*%
%TO.N,Net-(D375-BK)*%
X115475000Y-55625000D03*
%TD*%
D11*
%TO.P,D181,1,A*%
%TO.N,Net-(D137-A)*%
X110125000Y-43625000D03*
%TO.P,D181,2,RK*%
%TO.N,Net-(D177-RK)*%
X110975000Y-43625000D03*
%TO.P,D181,3,GK*%
%TO.N,Net-(D177-GK)*%
X110975000Y-44475000D03*
%TO.P,D181,4,BK*%
%TO.N,Net-(D177-BK)*%
X110125000Y-44475000D03*
%TD*%
D10*
%TO.P,D343,1,A*%
%TO.N,Net-(D332-A)*%
X110975000Y-68475000D03*
%TO.P,D343,2,RK*%
%TO.N,Net-(D342-RK)*%
X110125000Y-68475000D03*
%TO.P,D343,3,GK*%
%TO.N,Net-(D342-GK)*%
X110125000Y-67625000D03*
%TO.P,D343,4,BK*%
%TO.N,Net-(D342-BK)*%
X110975000Y-67625000D03*
%TD*%
D11*
%TO.P,D36,1,A*%
%TO.N,Net-(D14-A)*%
X93625000Y-40625000D03*
%TO.P,D36,2,RK*%
%TO.N,Net-(D34-RK)*%
X94475000Y-40625000D03*
%TO.P,D36,3,GK*%
%TO.N,Net-(D34-GK)*%
X94475000Y-41475000D03*
%TO.P,D36,4,BK*%
%TO.N,Net-(D34-BK)*%
X93625000Y-41475000D03*
%TD*%
D10*
%TO.P,D363,1,A*%
%TO.N,Net-(D341-A)*%
X112475000Y-54975000D03*
%TO.P,D363,2,RK*%
%TO.N,Net-(D353-RK)*%
X111625000Y-54975000D03*
%TO.P,D363,3,GK*%
%TO.N,Net-(D353-GK)*%
X111625000Y-54125000D03*
%TO.P,D363,4,BK*%
%TO.N,Net-(D353-BK)*%
X112475000Y-54125000D03*
%TD*%
D11*
%TO.P,D74,1,A*%
%TO.N,Net-(D107-A)*%
X107125000Y-48125000D03*
%TO.P,D74,2,RK*%
%TO.N,Net-(D67-RK)*%
X107975000Y-48125000D03*
%TO.P,D74,3,GK*%
%TO.N,Net-(D67-GK)*%
X107975000Y-48975000D03*
%TO.P,D74,4,BK*%
%TO.N,Net-(D67-BK)*%
X107125000Y-48975000D03*
%TD*%
D10*
%TO.P,D326,1,A*%
%TO.N,Net-(D271-A)*%
X107975000Y-60975000D03*
%TO.P,D326,2,RK*%
%TO.N,Net-(D320-RK)*%
X107125000Y-60975000D03*
%TO.P,D326,3,GK*%
%TO.N,Net-(D320-GK)*%
X107125000Y-60125000D03*
%TO.P,D326,4,BK*%
%TO.N,Net-(D320-BK)*%
X107975000Y-60125000D03*
%TD*%
D11*
%TO.P,D196,1,A*%
%TO.N,Net-(D141-A)*%
X108625000Y-49625000D03*
%TO.P,D196,2,RK*%
%TO.N,Net-(D188-RK)*%
X109475000Y-49625000D03*
%TO.P,D196,3,GK*%
%TO.N,Net-(D188-GK)*%
X109475000Y-50475000D03*
%TO.P,D196,4,BK*%
%TO.N,Net-(D188-BK)*%
X108625000Y-50475000D03*
%TD*%
D10*
%TO.P,D340,1,A*%
%TO.N,Net-(D340-A)*%
X109475000Y-56475000D03*
%TO.P,D340,2,RK*%
%TO.N,Net-(D331-RK)*%
X108625000Y-56475000D03*
%TO.P,D340,3,GK*%
%TO.N,Net-(D331-GK)*%
X108625000Y-55625000D03*
%TO.P,D340,4,BK*%
%TO.N,Net-(D331-BK)*%
X109475000Y-55625000D03*
%TD*%
%TO.P,D388,1,A*%
%TO.N,Net-(D333-A)*%
X116975000Y-66975000D03*
%TO.P,D388,2,RK*%
%TO.N,Net-(D386-RK)*%
X116125000Y-66975000D03*
%TO.P,D388,3,GK*%
%TO.N,Net-(D386-GK)*%
X116125000Y-66125000D03*
%TO.P,D388,4,BK*%
%TO.N,Net-(D386-BK)*%
X116975000Y-66125000D03*
%TD*%
D11*
%TO.P,D49,1,A*%
%TO.N,Net-(D16-A)*%
X92125000Y-43625000D03*
%TO.P,D49,2,RK*%
%TO.N,Net-(D45-RK)*%
X92975000Y-43625000D03*
%TO.P,D49,3,GK*%
%TO.N,Net-(D45-GK)*%
X92975000Y-44475000D03*
%TO.P,D49,4,BK*%
%TO.N,Net-(D45-BK)*%
X92125000Y-44475000D03*
%TD*%
D10*
%TO.P,D316,1,A*%
%TO.N,Net-(D272-A)*%
X106475000Y-59475000D03*
%TO.P,D316,2,RK*%
%TO.N,Net-(D309-RK)*%
X105625000Y-59475000D03*
%TO.P,D316,3,GK*%
%TO.N,Net-(D309-GK)*%
X105625000Y-58625000D03*
%TO.P,D316,4,BK*%
%TO.N,Net-(D309-BK)*%
X106475000Y-58625000D03*
%TD*%
D11*
%TO.P,D119,1,A*%
%TO.N,Net-(D108-A)*%
X101125000Y-49625000D03*
%TO.P,D119,2,RK*%
%TO.N,Net-(D111-RK)*%
X101975000Y-49625000D03*
%TO.P,D119,3,GK*%
%TO.N,Net-(D111-GK)*%
X101975000Y-50475000D03*
%TO.P,D119,4,BK*%
%TO.N,Net-(D111-BK)*%
X101125000Y-50475000D03*
%TD*%
%TO.P,D104,1,A*%
%TO.N,Net-(D104-A)*%
X102625000Y-43625000D03*
%TO.P,D104,2,RK*%
%TO.N,Net-(D100-RK)*%
X103475000Y-43625000D03*
%TO.P,D104,3,GK*%
%TO.N,Net-(D100-GK)*%
X103475000Y-44475000D03*
%TO.P,D104,4,BK*%
%TO.N,Net-(D100-BK)*%
X102625000Y-44475000D03*
%TD*%
%TO.P,D170,1,A*%
%TO.N,Net-(D137-A)*%
X111625000Y-43625000D03*
%TO.P,D170,2,RK*%
%TO.N,Net-(D166-RK)*%
X112475000Y-43625000D03*
%TO.P,D170,3,GK*%
%TO.N,Net-(D166-GK)*%
X112475000Y-44475000D03*
%TO.P,D170,4,BK*%
%TO.N,Net-(D166-BK)*%
X111625000Y-44475000D03*
%TD*%
D10*
%TO.P,D235,1,A*%
%TO.N,Net-(D202-A)*%
X95975000Y-65475000D03*
%TO.P,D235,2,RK*%
%TO.N,Net-(D232-RK)*%
X95125000Y-65475000D03*
%TO.P,D235,3,GK*%
%TO.N,Net-(D232-GK)*%
X95125000Y-64625000D03*
%TO.P,D235,4,BK*%
%TO.N,Net-(D232-BK)*%
X95975000Y-64625000D03*
%TD*%
%TO.P,D287,1,A*%
%TO.N,Net-(D265-A)*%
X103475000Y-69975000D03*
%TO.P,D287,2,RK*%
%TO.N,Net-(D287-RK)*%
X102625000Y-69975000D03*
%TO.P,D287,3,GK*%
%TO.N,Net-(D287-GK)*%
X102625000Y-69125000D03*
%TO.P,D287,4,BK*%
%TO.N,Net-(D287-BK)*%
X103475000Y-69125000D03*
%TD*%
D11*
%TO.P,D69,1,A*%
%TO.N,Net-(D102-A)*%
X107125000Y-40625000D03*
%TO.P,D69,2,RK*%
%TO.N,Net-(D67-RK)*%
X107975000Y-40625000D03*
%TO.P,D69,3,GK*%
%TO.N,Net-(D67-GK)*%
X107975000Y-41475000D03*
%TO.P,D69,4,BK*%
%TO.N,Net-(D67-BK)*%
X107125000Y-41475000D03*
%TD*%
D10*
%TO.P,D237,1,A*%
%TO.N,Net-(D204-A)*%
X95975000Y-62475000D03*
%TO.P,D237,2,RK*%
%TO.N,Net-(D232-RK)*%
X95125000Y-62475000D03*
%TO.P,D237,3,GK*%
%TO.N,Net-(D232-GK)*%
X95125000Y-61625000D03*
%TO.P,D237,4,BK*%
%TO.N,Net-(D232-BK)*%
X95975000Y-61625000D03*
%TD*%
D11*
%TO.P,D155,1,A*%
%TO.N,Net-(D133-A)*%
X113125000Y-37625000D03*
%TO.P,D155,2,RK*%
%TO.N,Net-(D155-RK)*%
X113975000Y-37625000D03*
%TO.P,D155,3,GK*%
%TO.N,Net-(D155-GK)*%
X113975000Y-38475000D03*
%TO.P,D155,4,BK*%
%TO.N,Net-(D155-BK)*%
X113125000Y-38475000D03*
%TD*%
%TO.P,D95,1,A*%
%TO.N,Net-(D106-A)*%
X104125000Y-46625000D03*
%TO.P,D95,2,RK*%
%TO.N,Net-(D89-RK)*%
X104975000Y-46625000D03*
%TO.P,D95,3,GK*%
%TO.N,Net-(D89-GK)*%
X104975000Y-47475000D03*
%TO.P,D95,4,BK*%
%TO.N,Net-(D89-BK)*%
X104125000Y-47475000D03*
%TD*%
%TO.P,D21,1,A*%
%TO.N,Net-(D10-A)*%
X96625000Y-51125000D03*
%TO.P,D21,2,RK*%
%TO.N,Net-(D12-RK)*%
X97475000Y-51125000D03*
%TO.P,D21,3,GK*%
%TO.N,Net-(D12-GK)*%
X97475000Y-51975000D03*
%TO.P,D21,4,BK*%
%TO.N,Net-(D12-BK)*%
X96625000Y-51975000D03*
%TD*%
D10*
%TO.P,D371,1,A*%
%TO.N,Net-(D338-A)*%
X113975000Y-59475000D03*
%TO.P,D371,2,RK*%
%TO.N,Net-(D364-RK)*%
X113125000Y-59475000D03*
%TO.P,D371,3,GK*%
%TO.N,Net-(D364-GK)*%
X113125000Y-58625000D03*
%TO.P,D371,4,BK*%
%TO.N,Net-(D364-BK)*%
X113975000Y-58625000D03*
%TD*%
%TO.P,D273,1,A*%
%TO.N,Net-(D273-A)*%
X100475000Y-57975000D03*
%TO.P,D273,2,RK*%
%TO.N,Net-(D265-RK)*%
X99625000Y-57975000D03*
%TO.P,D273,3,GK*%
%TO.N,Net-(D265-GK)*%
X99625000Y-57125000D03*
%TO.P,D273,4,BK*%
%TO.N,Net-(D265-BK)*%
X100475000Y-57125000D03*
%TD*%
D11*
%TO.P,D148,1,A*%
%TO.N,Net-(D137-A)*%
X114625000Y-43625000D03*
%TO.P,D148,2,RK*%
%TO.N,Net-(D144-RK)*%
X115475000Y-43625000D03*
%TO.P,D148,3,GK*%
%TO.N,Net-(D144-GK)*%
X115475000Y-44475000D03*
%TO.P,D148,4,BK*%
%TO.N,Net-(D144-BK)*%
X114625000Y-44475000D03*
%TD*%
D10*
%TO.P,D291,1,A*%
%TO.N,Net-(D269-A)*%
X103475000Y-63975000D03*
%TO.P,D291,2,RK*%
%TO.N,Net-(D287-RK)*%
X102625000Y-63975000D03*
%TO.P,D291,3,GK*%
%TO.N,Net-(D287-GK)*%
X102625000Y-63125000D03*
%TO.P,D291,4,BK*%
%TO.N,Net-(D287-BK)*%
X103475000Y-63125000D03*
%TD*%
%TO.P,D199,1,A*%
%TO.N,Net-(D199-A)*%
X91475000Y-69975000D03*
%TO.P,D199,2,RK*%
%TO.N,Net-(D199-RK)*%
X90625000Y-69975000D03*
%TO.P,D199,3,GK*%
%TO.N,Net-(D199-GK)*%
X90625000Y-69125000D03*
%TO.P,D199,4,BK*%
%TO.N,Net-(D199-BK)*%
X91475000Y-69125000D03*
%TD*%
%TO.P,D210,1,A*%
%TO.N,Net-(D199-A)*%
X92975000Y-69975000D03*
%TO.P,D210,2,RK*%
%TO.N,Net-(D210-RK)*%
X92125000Y-69975000D03*
%TO.P,D210,3,GK*%
%TO.N,Net-(D210-GK)*%
X92125000Y-69125000D03*
%TO.P,D210,4,BK*%
%TO.N,Net-(D210-BK)*%
X92975000Y-69125000D03*
%TD*%
%TO.P,D346,1,A*%
%TO.N,Net-(D335-A)*%
X110975000Y-63975000D03*
%TO.P,D346,2,RK*%
%TO.N,Net-(D342-RK)*%
X110125000Y-63975000D03*
%TO.P,D346,3,GK*%
%TO.N,Net-(D342-GK)*%
X110125000Y-63125000D03*
%TO.P,D346,4,BK*%
%TO.N,Net-(D342-BK)*%
X110975000Y-63125000D03*
%TD*%
%TO.P,D360,1,A*%
%TO.N,Net-(D338-A)*%
X112475000Y-59475000D03*
%TO.P,D360,2,RK*%
%TO.N,Net-(D353-RK)*%
X111625000Y-59475000D03*
%TO.P,D360,3,GK*%
%TO.N,Net-(D353-GK)*%
X111625000Y-58625000D03*
%TO.P,D360,4,BK*%
%TO.N,Net-(D353-BK)*%
X112475000Y-58625000D03*
%TD*%
D11*
%TO.P,D44,1,A*%
%TO.N,Net-(D11-A)*%
X93625000Y-52625000D03*
%TO.P,D44,2,RK*%
%TO.N,Net-(D34-RK)*%
X94475000Y-52625000D03*
%TO.P,D44,3,GK*%
%TO.N,Net-(D34-GK)*%
X94475000Y-53475000D03*
%TO.P,D44,4,BK*%
%TO.N,Net-(D34-BK)*%
X93625000Y-53475000D03*
%TD*%
D10*
%TO.P,D271,1,A*%
%TO.N,Net-(D271-A)*%
X100475000Y-60975000D03*
%TO.P,D271,2,RK*%
%TO.N,Net-(D265-RK)*%
X99625000Y-60975000D03*
%TO.P,D271,3,GK*%
%TO.N,Net-(D265-GK)*%
X99625000Y-60125000D03*
%TO.P,D271,4,BK*%
%TO.N,Net-(D265-BK)*%
X100475000Y-60125000D03*
%TD*%
D11*
%TO.P,D164,1,A*%
%TO.N,Net-(D142-A)*%
X113125000Y-51125000D03*
%TO.P,D164,2,RK*%
%TO.N,Net-(D155-RK)*%
X113975000Y-51125000D03*
%TO.P,D164,3,GK*%
%TO.N,Net-(D155-GK)*%
X113975000Y-51975000D03*
%TO.P,D164,4,BK*%
%TO.N,Net-(D155-BK)*%
X113125000Y-51975000D03*
%TD*%
D10*
%TO.P,D367,1,A*%
%TO.N,Net-(D334-A)*%
X113975000Y-65475000D03*
%TO.P,D367,2,RK*%
%TO.N,Net-(D364-RK)*%
X113125000Y-65475000D03*
%TO.P,D367,3,GK*%
%TO.N,Net-(D364-GK)*%
X113125000Y-64625000D03*
%TO.P,D367,4,BK*%
%TO.N,Net-(D364-BK)*%
X113975000Y-64625000D03*
%TD*%
D11*
%TO.P,D55,1,A*%
%TO.N,Net-(D11-A)*%
X92125000Y-52625000D03*
%TO.P,D55,2,RK*%
%TO.N,Net-(D45-RK)*%
X92975000Y-52625000D03*
%TO.P,D55,3,GK*%
%TO.N,Net-(D45-GK)*%
X92975000Y-53475000D03*
%TO.P,D55,4,BK*%
%TO.N,Net-(D45-BK)*%
X92125000Y-53475000D03*
%TD*%
%TO.P,D106,1,A*%
%TO.N,Net-(D106-A)*%
X102625000Y-46625000D03*
%TO.P,D106,2,RK*%
%TO.N,Net-(D100-RK)*%
X103475000Y-46625000D03*
%TO.P,D106,3,GK*%
%TO.N,Net-(D100-GK)*%
X103475000Y-47475000D03*
%TO.P,D106,4,BK*%
%TO.N,Net-(D100-BK)*%
X102625000Y-47475000D03*
%TD*%
%TO.P,D129,1,A*%
%TO.N,Net-(D107-A)*%
X99625000Y-48125000D03*
%TO.P,D129,2,RK*%
%TO.N,Net-(D122-RK)*%
X100475000Y-48125000D03*
%TO.P,D129,3,GK*%
%TO.N,Net-(D122-GK)*%
X100475000Y-48975000D03*
%TO.P,D129,4,BK*%
%TO.N,Net-(D122-BK)*%
X99625000Y-48975000D03*
%TD*%
%TO.P,D166,1,A*%
%TO.N,Net-(D133-A)*%
X111625000Y-37625000D03*
%TO.P,D166,2,RK*%
%TO.N,Net-(D166-RK)*%
X112475000Y-37625000D03*
%TO.P,D166,3,GK*%
%TO.N,Net-(D166-GK)*%
X112475000Y-38475000D03*
%TO.P,D166,4,BK*%
%TO.N,Net-(D166-BK)*%
X111625000Y-38475000D03*
%TD*%
%TO.P,D78,1,A*%
%TO.N,Net-(D100-A)*%
X105625000Y-37625000D03*
%TO.P,D78,2,RK*%
%TO.N,Net-(D78-RK)*%
X106475000Y-37625000D03*
%TO.P,D78,3,GK*%
%TO.N,Net-(D78-GK)*%
X106475000Y-38475000D03*
%TO.P,D78,4,BK*%
%TO.N,Net-(D78-BK)*%
X105625000Y-38475000D03*
%TD*%
D10*
%TO.P,D231,1,A*%
%TO.N,Net-(D209-A)*%
X94475000Y-54975000D03*
%TO.P,D231,2,RK*%
%TO.N,Net-(D221-RK)*%
X93625000Y-54975000D03*
%TO.P,D231,3,GK*%
%TO.N,Net-(D221-GK)*%
X93625000Y-54125000D03*
%TO.P,D231,4,BK*%
%TO.N,Net-(D221-BK)*%
X94475000Y-54125000D03*
%TD*%
%TO.P,D385,1,A*%
%TO.N,Net-(D341-A)*%
X115475000Y-54975000D03*
%TO.P,D385,2,RK*%
%TO.N,Net-(D375-RK)*%
X114625000Y-54975000D03*
%TO.P,D385,3,GK*%
%TO.N,Net-(D375-GK)*%
X114625000Y-54125000D03*
%TO.P,D385,4,BK*%
%TO.N,Net-(D375-BK)*%
X115475000Y-54125000D03*
%TD*%
D11*
%TO.P,D67,1,A*%
%TO.N,Net-(D100-A)*%
X107125000Y-37625000D03*
%TO.P,D67,2,RK*%
%TO.N,Net-(D67-RK)*%
X107975000Y-37625000D03*
%TO.P,D67,3,GK*%
%TO.N,Net-(D67-GK)*%
X107975000Y-38475000D03*
%TO.P,D67,4,BK*%
%TO.N,Net-(D67-BK)*%
X107125000Y-38475000D03*
%TD*%
D10*
%TO.P,D212,1,A*%
%TO.N,Net-(D201-A)*%
X92975000Y-66975000D03*
%TO.P,D212,2,RK*%
%TO.N,Net-(D210-RK)*%
X92125000Y-66975000D03*
%TO.P,D212,3,GK*%
%TO.N,Net-(D210-GK)*%
X92125000Y-66125000D03*
%TO.P,D212,4,BK*%
%TO.N,Net-(D210-BK)*%
X92975000Y-66125000D03*
%TD*%
%TO.P,D349,1,A*%
%TO.N,Net-(D338-A)*%
X110975000Y-59475000D03*
%TO.P,D349,2,RK*%
%TO.N,Net-(D342-RK)*%
X110125000Y-59475000D03*
%TO.P,D349,3,GK*%
%TO.N,Net-(D342-GK)*%
X110125000Y-58625000D03*
%TO.P,D349,4,BK*%
%TO.N,Net-(D342-BK)*%
X110975000Y-58625000D03*
%TD*%
D11*
%TO.P,D30,1,A*%
%TO.N,Net-(D19-A)*%
X95125000Y-48125000D03*
%TO.P,D30,2,RK*%
%TO.N,Net-(D23-RK)*%
X95975000Y-48125000D03*
%TO.P,D30,3,GK*%
%TO.N,Net-(D23-GK)*%
X95975000Y-48975000D03*
%TO.P,D30,4,BK*%
%TO.N,Net-(D23-BK)*%
X95125000Y-48975000D03*
%TD*%
%TO.P,D38,1,A*%
%TO.N,Net-(D16-A)*%
X93625000Y-43625000D03*
%TO.P,D38,2,RK*%
%TO.N,Net-(D34-RK)*%
X94475000Y-43625000D03*
%TO.P,D38,3,GK*%
%TO.N,Net-(D34-GK)*%
X94475000Y-44475000D03*
%TO.P,D38,4,BK*%
%TO.N,Net-(D34-BK)*%
X93625000Y-44475000D03*
%TD*%
D10*
%TO.P,D228,1,A*%
%TO.N,Net-(D206-A)*%
X94475000Y-59475000D03*
%TO.P,D228,2,RK*%
%TO.N,Net-(D221-RK)*%
X93625000Y-59475000D03*
%TO.P,D228,3,GK*%
%TO.N,Net-(D221-GK)*%
X93625000Y-58625000D03*
%TO.P,D228,4,BK*%
%TO.N,Net-(D221-BK)*%
X94475000Y-58625000D03*
%TD*%
D11*
%TO.P,D68,1,A*%
%TO.N,Net-(D101-A)*%
X107125000Y-39125000D03*
%TO.P,D68,2,RK*%
%TO.N,Net-(D67-RK)*%
X107975000Y-39125000D03*
%TO.P,D68,3,GK*%
%TO.N,Net-(D67-GK)*%
X107975000Y-39975000D03*
%TO.P,D68,4,BK*%
%TO.N,Net-(D67-BK)*%
X107125000Y-39975000D03*
%TD*%
D10*
%TO.P,D254,1,A*%
%TO.N,Net-(D199-A)*%
X98975000Y-69975000D03*
%TO.P,D254,2,RK*%
%TO.N,Net-(D254-RK)*%
X98125000Y-69975000D03*
%TO.P,D254,3,GK*%
%TO.N,Net-(D254-GK)*%
X98125000Y-69125000D03*
%TO.P,D254,4,BK*%
%TO.N,Net-(D254-BK)*%
X98975000Y-69125000D03*
%TD*%
D11*
%TO.P,D191,1,A*%
%TO.N,Net-(D136-A)*%
X108625000Y-42125000D03*
%TO.P,D191,2,RK*%
%TO.N,Net-(D188-RK)*%
X109475000Y-42125000D03*
%TO.P,D191,3,GK*%
%TO.N,Net-(D188-GK)*%
X109475000Y-42975000D03*
%TO.P,D191,4,BK*%
%TO.N,Net-(D188-BK)*%
X108625000Y-42975000D03*
%TD*%
%TO.P,D80,1,A*%
%TO.N,Net-(D102-A)*%
X105625000Y-40625000D03*
%TO.P,D80,2,RK*%
%TO.N,Net-(D78-RK)*%
X106475000Y-40625000D03*
%TO.P,D80,3,GK*%
%TO.N,Net-(D78-GK)*%
X106475000Y-41475000D03*
%TO.P,D80,4,BK*%
%TO.N,Net-(D78-BK)*%
X105625000Y-41475000D03*
%TD*%
%TO.P,D198,1,A*%
%TO.N,Net-(D143-A)*%
X108625000Y-52625000D03*
%TO.P,D198,2,RK*%
%TO.N,Net-(D188-RK)*%
X109475000Y-52625000D03*
%TO.P,D198,3,GK*%
%TO.N,Net-(D188-GK)*%
X109475000Y-53475000D03*
%TO.P,D198,4,BK*%
%TO.N,Net-(D188-BK)*%
X108625000Y-53475000D03*
%TD*%
D10*
%TO.P,D211,1,A*%
%TO.N,Net-(D200-A)*%
X92975000Y-68475000D03*
%TO.P,D211,2,RK*%
%TO.N,Net-(D210-RK)*%
X92125000Y-68475000D03*
%TO.P,D211,3,GK*%
%TO.N,Net-(D210-GK)*%
X92125000Y-67625000D03*
%TO.P,D211,4,BK*%
%TO.N,Net-(D210-BK)*%
X92975000Y-67625000D03*
%TD*%
%TO.P,D260,1,A*%
%TO.N,Net-(D205-A)*%
X98975000Y-60975000D03*
%TO.P,D260,2,RK*%
%TO.N,Net-(D254-RK)*%
X98125000Y-60975000D03*
%TO.P,D260,3,GK*%
%TO.N,Net-(D254-GK)*%
X98125000Y-60125000D03*
%TO.P,D260,4,BK*%
%TO.N,Net-(D254-BK)*%
X98975000Y-60125000D03*
%TD*%
%TO.P,D342,1,A*%
%TO.N,Net-(D331-A)*%
X110975000Y-69975000D03*
%TO.P,D342,2,RK*%
%TO.N,Net-(D342-RK)*%
X110125000Y-69975000D03*
%TO.P,D342,3,GK*%
%TO.N,Net-(D342-GK)*%
X110125000Y-69125000D03*
%TO.P,D342,4,BK*%
%TO.N,Net-(D342-BK)*%
X110975000Y-69125000D03*
%TD*%
%TO.P,D357,1,A*%
%TO.N,Net-(D335-A)*%
X112475000Y-63975000D03*
%TO.P,D357,2,RK*%
%TO.N,Net-(D353-RK)*%
X111625000Y-63975000D03*
%TO.P,D357,3,GK*%
%TO.N,Net-(D353-GK)*%
X111625000Y-63125000D03*
%TO.P,D357,4,BK*%
%TO.N,Net-(D353-BK)*%
X112475000Y-63125000D03*
%TD*%
D11*
%TO.P,D4,1,A*%
%TO.N,Net-(D15-A)*%
X98125000Y-42125000D03*
%TO.P,D4,2,RK*%
%TO.N,Net-(D1-RK)*%
X98975000Y-42125000D03*
%TO.P,D4,3,GK*%
%TO.N,Net-(D1-GK)*%
X98975000Y-42975000D03*
%TO.P,D4,4,BK*%
%TO.N,Net-(D1-BK)*%
X98125000Y-42975000D03*
%TD*%
%TO.P,D51,1,A*%
%TO.N,Net-(D18-A)*%
X92125000Y-46625000D03*
%TO.P,D51,2,RK*%
%TO.N,Net-(D45-RK)*%
X92975000Y-46625000D03*
%TO.P,D51,3,GK*%
%TO.N,Net-(D45-GK)*%
X92975000Y-47475000D03*
%TO.P,D51,4,BK*%
%TO.N,Net-(D45-BK)*%
X92125000Y-47475000D03*
%TD*%
%TO.P,D60,1,A*%
%TO.N,Net-(D16-A)*%
X90625000Y-43625000D03*
%TO.P,D60,2,RK*%
%TO.N,Net-(D56-RK)*%
X91475000Y-43625000D03*
%TO.P,D60,3,GK*%
%TO.N,Net-(D56-GK)*%
X91475000Y-44475000D03*
%TO.P,D60,4,BK*%
%TO.N,Net-(D56-BK)*%
X90625000Y-44475000D03*
%TD*%
%TO.P,D15,1,A*%
%TO.N,Net-(D15-A)*%
X96625000Y-42125000D03*
%TO.P,D15,2,RK*%
%TO.N,Net-(D12-RK)*%
X97475000Y-42125000D03*
%TO.P,D15,3,GK*%
%TO.N,Net-(D12-GK)*%
X97475000Y-42975000D03*
%TO.P,D15,4,BK*%
%TO.N,Net-(D12-BK)*%
X96625000Y-42975000D03*
%TD*%
%TO.P,D17,1,A*%
%TO.N,Net-(D17-A)*%
X96625000Y-45125000D03*
%TO.P,D17,2,RK*%
%TO.N,Net-(D12-RK)*%
X97475000Y-45125000D03*
%TO.P,D17,3,GK*%
%TO.N,Net-(D12-GK)*%
X97475000Y-45975000D03*
%TO.P,D17,4,BK*%
%TO.N,Net-(D12-BK)*%
X96625000Y-45975000D03*
%TD*%
%TO.P,D103,1,A*%
%TO.N,Net-(D103-A)*%
X102625000Y-42125000D03*
%TO.P,D103,2,RK*%
%TO.N,Net-(D100-RK)*%
X103475000Y-42125000D03*
%TO.P,D103,3,GK*%
%TO.N,Net-(D100-GK)*%
X103475000Y-42975000D03*
%TO.P,D103,4,BK*%
%TO.N,Net-(D100-BK)*%
X102625000Y-42975000D03*
%TD*%
%TO.P,D28,1,A*%
%TO.N,Net-(D17-A)*%
X95125000Y-45125000D03*
%TO.P,D28,2,RK*%
%TO.N,Net-(D23-RK)*%
X95975000Y-45125000D03*
%TO.P,D28,3,GK*%
%TO.N,Net-(D23-GK)*%
X95975000Y-45975000D03*
%TO.P,D28,4,BK*%
%TO.N,Net-(D23-BK)*%
X95125000Y-45975000D03*
%TD*%
D10*
%TO.P,D383,1,A*%
%TO.N,Net-(D339-A)*%
X115475000Y-57975000D03*
%TO.P,D383,2,RK*%
%TO.N,Net-(D375-RK)*%
X114625000Y-57975000D03*
%TO.P,D383,3,GK*%
%TO.N,Net-(D375-GK)*%
X114625000Y-57125000D03*
%TO.P,D383,4,BK*%
%TO.N,Net-(D375-BK)*%
X115475000Y-57125000D03*
%TD*%
D11*
%TO.P,D140,1,A*%
%TO.N,Net-(D140-A)*%
X116125000Y-48125000D03*
%TO.P,D140,2,RK*%
%TO.N,Net-(D133-RK)*%
X116975000Y-48125000D03*
%TO.P,D140,3,GK*%
%TO.N,Net-(D133-GK)*%
X116975000Y-48975000D03*
%TO.P,D140,4,BK*%
%TO.N,Net-(D133-BK)*%
X116125000Y-48975000D03*
%TD*%
D10*
%TO.P,D369,1,A*%
%TO.N,Net-(D336-A)*%
X113975000Y-62475000D03*
%TO.P,D369,2,RK*%
%TO.N,Net-(D364-RK)*%
X113125000Y-62475000D03*
%TO.P,D369,3,GK*%
%TO.N,Net-(D364-GK)*%
X113125000Y-61625000D03*
%TO.P,D369,4,BK*%
%TO.N,Net-(D364-BK)*%
X113975000Y-61625000D03*
%TD*%
D11*
%TO.P,D24,1,A*%
%TO.N,Net-(D13-A)*%
X95125000Y-39125000D03*
%TO.P,D24,2,RK*%
%TO.N,Net-(D23-RK)*%
X95975000Y-39125000D03*
%TO.P,D24,3,GK*%
%TO.N,Net-(D23-GK)*%
X95975000Y-39975000D03*
%TO.P,D24,4,BK*%
%TO.N,Net-(D23-BK)*%
X95125000Y-39975000D03*
%TD*%
D10*
%TO.P,D380,1,A*%
%TO.N,Net-(D336-A)*%
X115475000Y-62475000D03*
%TO.P,D380,2,RK*%
%TO.N,Net-(D375-RK)*%
X114625000Y-62475000D03*
%TO.P,D380,3,GK*%
%TO.N,Net-(D375-GK)*%
X114625000Y-61625000D03*
%TO.P,D380,4,BK*%
%TO.N,Net-(D375-BK)*%
X115475000Y-61625000D03*
%TD*%
%TO.P,D269,1,A*%
%TO.N,Net-(D269-A)*%
X100475000Y-63975000D03*
%TO.P,D269,2,RK*%
%TO.N,Net-(D265-RK)*%
X99625000Y-63975000D03*
%TO.P,D269,3,GK*%
%TO.N,Net-(D265-GK)*%
X99625000Y-63125000D03*
%TO.P,D269,4,BK*%
%TO.N,Net-(D265-BK)*%
X100475000Y-63125000D03*
%TD*%
%TO.P,D227,1,A*%
%TO.N,Net-(D205-A)*%
X94475000Y-60975000D03*
%TO.P,D227,2,RK*%
%TO.N,Net-(D221-RK)*%
X93625000Y-60975000D03*
%TO.P,D227,3,GK*%
%TO.N,Net-(D221-GK)*%
X93625000Y-60125000D03*
%TO.P,D227,4,BK*%
%TO.N,Net-(D221-BK)*%
X94475000Y-60125000D03*
%TD*%
D11*
%TO.P,D117,1,A*%
%TO.N,Net-(D106-A)*%
X101125000Y-46625000D03*
%TO.P,D117,2,RK*%
%TO.N,Net-(D111-RK)*%
X101975000Y-46625000D03*
%TO.P,D117,3,GK*%
%TO.N,Net-(D111-GK)*%
X101975000Y-47475000D03*
%TO.P,D117,4,BK*%
%TO.N,Net-(D111-BK)*%
X101125000Y-47475000D03*
%TD*%
%TO.P,D82,1,A*%
%TO.N,Net-(D104-A)*%
X105625000Y-43625000D03*
%TO.P,D82,2,RK*%
%TO.N,Net-(D78-RK)*%
X106475000Y-43625000D03*
%TO.P,D82,3,GK*%
%TO.N,Net-(D78-GK)*%
X106475000Y-44475000D03*
%TO.P,D82,4,BK*%
%TO.N,Net-(D78-BK)*%
X105625000Y-44475000D03*
%TD*%
%TO.P,D192,1,A*%
%TO.N,Net-(D137-A)*%
X108625000Y-43625000D03*
%TO.P,D192,2,RK*%
%TO.N,Net-(D188-RK)*%
X109475000Y-43625000D03*
%TO.P,D192,3,GK*%
%TO.N,Net-(D188-GK)*%
X109475000Y-44475000D03*
%TO.P,D192,4,BK*%
%TO.N,Net-(D188-BK)*%
X108625000Y-44475000D03*
%TD*%
%TO.P,D180,1,A*%
%TO.N,Net-(D136-A)*%
X110125000Y-42125000D03*
%TO.P,D180,2,RK*%
%TO.N,Net-(D177-RK)*%
X110975000Y-42125000D03*
%TO.P,D180,3,GK*%
%TO.N,Net-(D177-GK)*%
X110975000Y-42975000D03*
%TO.P,D180,4,BK*%
%TO.N,Net-(D177-BK)*%
X110125000Y-42975000D03*
%TD*%
D10*
%TO.P,D370,1,A*%
%TO.N,Net-(D337-A)*%
X113975000Y-60975000D03*
%TO.P,D370,2,RK*%
%TO.N,Net-(D364-RK)*%
X113125000Y-60975000D03*
%TO.P,D370,3,GK*%
%TO.N,Net-(D364-GK)*%
X113125000Y-60125000D03*
%TO.P,D370,4,BK*%
%TO.N,Net-(D364-BK)*%
X113975000Y-60125000D03*
%TD*%
D11*
%TO.P,D11,1,A*%
%TO.N,Net-(D11-A)*%
X98125000Y-52625000D03*
%TO.P,D11,2,RK*%
%TO.N,Net-(D1-RK)*%
X98975000Y-52625000D03*
%TO.P,D11,3,GK*%
%TO.N,Net-(D1-GK)*%
X98975000Y-53475000D03*
%TO.P,D11,4,BK*%
%TO.N,Net-(D1-BK)*%
X98125000Y-53475000D03*
%TD*%
%TO.P,D52,1,A*%
%TO.N,Net-(D19-A)*%
X92125000Y-48125000D03*
%TO.P,D52,2,RK*%
%TO.N,Net-(D45-RK)*%
X92975000Y-48125000D03*
%TO.P,D52,3,GK*%
%TO.N,Net-(D45-GK)*%
X92975000Y-48975000D03*
%TO.P,D52,4,BK*%
%TO.N,Net-(D45-BK)*%
X92125000Y-48975000D03*
%TD*%
D10*
%TO.P,D374,1,A*%
%TO.N,Net-(D341-A)*%
X113975000Y-54975000D03*
%TO.P,D374,2,RK*%
%TO.N,Net-(D364-RK)*%
X113125000Y-54975000D03*
%TO.P,D374,3,GK*%
%TO.N,Net-(D364-GK)*%
X113125000Y-54125000D03*
%TO.P,D374,4,BK*%
%TO.N,Net-(D364-BK)*%
X113975000Y-54125000D03*
%TD*%
D11*
%TO.P,D113,1,A*%
%TO.N,Net-(D102-A)*%
X101125000Y-40625000D03*
%TO.P,D113,2,RK*%
%TO.N,Net-(D111-RK)*%
X101975000Y-40625000D03*
%TO.P,D113,3,GK*%
%TO.N,Net-(D111-GK)*%
X101975000Y-41475000D03*
%TO.P,D113,4,BK*%
%TO.N,Net-(D111-BK)*%
X101125000Y-41475000D03*
%TD*%
D10*
%TO.P,D350,1,A*%
%TO.N,Net-(D339-A)*%
X110975000Y-57975000D03*
%TO.P,D350,2,RK*%
%TO.N,Net-(D342-RK)*%
X110125000Y-57975000D03*
%TO.P,D350,3,GK*%
%TO.N,Net-(D342-GK)*%
X110125000Y-57125000D03*
%TO.P,D350,4,BK*%
%TO.N,Net-(D342-BK)*%
X110975000Y-57125000D03*
%TD*%
D11*
%TO.P,D101,1,A*%
%TO.N,Net-(D101-A)*%
X102625000Y-39125000D03*
%TO.P,D101,2,RK*%
%TO.N,Net-(D100-RK)*%
X103475000Y-39125000D03*
%TO.P,D101,3,GK*%
%TO.N,Net-(D100-GK)*%
X103475000Y-39975000D03*
%TO.P,D101,4,BK*%
%TO.N,Net-(D100-BK)*%
X102625000Y-39975000D03*
%TD*%
%TO.P,D120,1,A*%
%TO.N,Net-(D109-A)*%
X101125000Y-51125000D03*
%TO.P,D120,2,RK*%
%TO.N,Net-(D111-RK)*%
X101975000Y-51125000D03*
%TO.P,D120,3,GK*%
%TO.N,Net-(D111-GK)*%
X101975000Y-51975000D03*
%TO.P,D120,4,BK*%
%TO.N,Net-(D111-BK)*%
X101125000Y-51975000D03*
%TD*%
%TO.P,D45,1,A*%
%TO.N,Net-(D1-A)*%
X92125000Y-37625000D03*
%TO.P,D45,2,RK*%
%TO.N,Net-(D45-RK)*%
X92975000Y-37625000D03*
%TO.P,D45,3,GK*%
%TO.N,Net-(D45-GK)*%
X92975000Y-38475000D03*
%TO.P,D45,4,BK*%
%TO.N,Net-(D45-BK)*%
X92125000Y-38475000D03*
%TD*%
%TO.P,D9,1,A*%
%TO.N,Net-(D20-A)*%
X98125000Y-49625000D03*
%TO.P,D9,2,RK*%
%TO.N,Net-(D1-RK)*%
X98975000Y-49625000D03*
%TO.P,D9,3,GK*%
%TO.N,Net-(D1-GK)*%
X98975000Y-50475000D03*
%TO.P,D9,4,BK*%
%TO.N,Net-(D1-BK)*%
X98125000Y-50475000D03*
%TD*%
D10*
%TO.P,D236,1,A*%
%TO.N,Net-(D203-A)*%
X95975000Y-63975000D03*
%TO.P,D236,2,RK*%
%TO.N,Net-(D232-RK)*%
X95125000Y-63975000D03*
%TO.P,D236,3,GK*%
%TO.N,Net-(D232-GK)*%
X95125000Y-63125000D03*
%TO.P,D236,4,BK*%
%TO.N,Net-(D232-BK)*%
X95975000Y-63125000D03*
%TD*%
%TO.P,D377,1,A*%
%TO.N,Net-(D333-A)*%
X115475000Y-66975000D03*
%TO.P,D377,2,RK*%
%TO.N,Net-(D375-RK)*%
X114625000Y-66975000D03*
%TO.P,D377,3,GK*%
%TO.N,Net-(D375-GK)*%
X114625000Y-66125000D03*
%TO.P,D377,4,BK*%
%TO.N,Net-(D375-BK)*%
X115475000Y-66125000D03*
%TD*%
D11*
%TO.P,D126,1,A*%
%TO.N,Net-(D104-A)*%
X99625000Y-43625000D03*
%TO.P,D126,2,RK*%
%TO.N,Net-(D122-RK)*%
X100475000Y-43625000D03*
%TO.P,D126,3,GK*%
%TO.N,Net-(D122-GK)*%
X100475000Y-44475000D03*
%TO.P,D126,4,BK*%
%TO.N,Net-(D122-BK)*%
X99625000Y-44475000D03*
%TD*%
D10*
%TO.P,D203,1,A*%
%TO.N,Net-(D203-A)*%
X91475000Y-63975000D03*
%TO.P,D203,2,RK*%
%TO.N,Net-(D199-RK)*%
X90625000Y-63975000D03*
%TO.P,D203,3,GK*%
%TO.N,Net-(D199-GK)*%
X90625000Y-63125000D03*
%TO.P,D203,4,BK*%
%TO.N,Net-(D199-BK)*%
X91475000Y-63125000D03*
%TD*%
%TO.P,D298,1,A*%
%TO.N,Net-(D265-A)*%
X104975000Y-69975000D03*
%TO.P,D298,2,RK*%
%TO.N,Net-(D298-RK)*%
X104125000Y-69975000D03*
%TO.P,D298,3,GK*%
%TO.N,Net-(D298-GK)*%
X104125000Y-69125000D03*
%TO.P,D298,4,BK*%
%TO.N,Net-(D298-BK)*%
X104975000Y-69125000D03*
%TD*%
D11*
%TO.P,D73,1,A*%
%TO.N,Net-(D106-A)*%
X107125000Y-46625000D03*
%TO.P,D73,2,RK*%
%TO.N,Net-(D67-RK)*%
X107975000Y-46625000D03*
%TO.P,D73,3,GK*%
%TO.N,Net-(D67-GK)*%
X107975000Y-47475000D03*
%TO.P,D73,4,BK*%
%TO.N,Net-(D67-BK)*%
X107125000Y-47475000D03*
%TD*%
D10*
%TO.P,D200,1,A*%
%TO.N,Net-(D200-A)*%
X91475000Y-68475000D03*
%TO.P,D200,2,RK*%
%TO.N,Net-(D199-RK)*%
X90625000Y-68475000D03*
%TO.P,D200,3,GK*%
%TO.N,Net-(D199-GK)*%
X90625000Y-67625000D03*
%TO.P,D200,4,BK*%
%TO.N,Net-(D199-BK)*%
X91475000Y-67625000D03*
%TD*%
%TO.P,D263,1,A*%
%TO.N,Net-(D208-A)*%
X98975000Y-56475000D03*
%TO.P,D263,2,RK*%
%TO.N,Net-(D254-RK)*%
X98125000Y-56475000D03*
%TO.P,D263,3,GK*%
%TO.N,Net-(D254-GK)*%
X98125000Y-55625000D03*
%TO.P,D263,4,BK*%
%TO.N,Net-(D254-BK)*%
X98975000Y-55625000D03*
%TD*%
D11*
%TO.P,D7,1,A*%
%TO.N,Net-(D18-A)*%
X98125000Y-46625000D03*
%TO.P,D7,2,RK*%
%TO.N,Net-(D1-RK)*%
X98975000Y-46625000D03*
%TO.P,D7,3,GK*%
%TO.N,Net-(D1-GK)*%
X98975000Y-47475000D03*
%TO.P,D7,4,BK*%
%TO.N,Net-(D1-BK)*%
X98125000Y-47475000D03*
%TD*%
%TO.P,D172,1,A*%
%TO.N,Net-(D139-A)*%
X111625000Y-46625000D03*
%TO.P,D172,2,RK*%
%TO.N,Net-(D166-RK)*%
X112475000Y-46625000D03*
%TO.P,D172,3,GK*%
%TO.N,Net-(D166-GK)*%
X112475000Y-47475000D03*
%TO.P,D172,4,BK*%
%TO.N,Net-(D166-BK)*%
X111625000Y-47475000D03*
%TD*%
%TO.P,D116,1,A*%
%TO.N,Net-(D105-A)*%
X101125000Y-45125000D03*
%TO.P,D116,2,RK*%
%TO.N,Net-(D111-RK)*%
X101975000Y-45125000D03*
%TO.P,D116,3,GK*%
%TO.N,Net-(D111-GK)*%
X101975000Y-45975000D03*
%TO.P,D116,4,BK*%
%TO.N,Net-(D111-BK)*%
X101125000Y-45975000D03*
%TD*%
%TO.P,D31,1,A*%
%TO.N,Net-(D20-A)*%
X95125000Y-49625000D03*
%TO.P,D31,2,RK*%
%TO.N,Net-(D23-RK)*%
X95975000Y-49625000D03*
%TO.P,D31,3,GK*%
%TO.N,Net-(D23-GK)*%
X95975000Y-50475000D03*
%TO.P,D31,4,BK*%
%TO.N,Net-(D23-BK)*%
X95125000Y-50475000D03*
%TD*%
D10*
%TO.P,D207,1,A*%
%TO.N,Net-(D207-A)*%
X91475000Y-57975000D03*
%TO.P,D207,2,RK*%
%TO.N,Net-(D199-RK)*%
X90625000Y-57975000D03*
%TO.P,D207,3,GK*%
%TO.N,Net-(D199-GK)*%
X90625000Y-57125000D03*
%TO.P,D207,4,BK*%
%TO.N,Net-(D199-BK)*%
X91475000Y-57125000D03*
%TD*%
%TO.P,D358,1,A*%
%TO.N,Net-(D336-A)*%
X112475000Y-62475000D03*
%TO.P,D358,2,RK*%
%TO.N,Net-(D353-RK)*%
X111625000Y-62475000D03*
%TO.P,D358,3,GK*%
%TO.N,Net-(D353-GK)*%
X111625000Y-61625000D03*
%TO.P,D358,4,BK*%
%TO.N,Net-(D353-BK)*%
X112475000Y-61625000D03*
%TD*%
D11*
%TO.P,D145,1,A*%
%TO.N,Net-(D134-A)*%
X114625000Y-39125000D03*
%TO.P,D145,2,RK*%
%TO.N,Net-(D144-RK)*%
X115475000Y-39125000D03*
%TO.P,D145,3,GK*%
%TO.N,Net-(D144-GK)*%
X115475000Y-39975000D03*
%TO.P,D145,4,BK*%
%TO.N,Net-(D144-BK)*%
X114625000Y-39975000D03*
%TD*%
%TO.P,D146,1,A*%
%TO.N,Net-(D135-A)*%
X114625000Y-40625000D03*
%TO.P,D146,2,RK*%
%TO.N,Net-(D144-RK)*%
X115475000Y-40625000D03*
%TO.P,D146,3,GK*%
%TO.N,Net-(D144-GK)*%
X115475000Y-41475000D03*
%TO.P,D146,4,BK*%
%TO.N,Net-(D144-BK)*%
X114625000Y-41475000D03*
%TD*%
D10*
%TO.P,D381,1,A*%
%TO.N,Net-(D337-A)*%
X115475000Y-60975000D03*
%TO.P,D381,2,RK*%
%TO.N,Net-(D375-RK)*%
X114625000Y-60975000D03*
%TO.P,D381,3,GK*%
%TO.N,Net-(D375-GK)*%
X114625000Y-60125000D03*
%TO.P,D381,4,BK*%
%TO.N,Net-(D375-BK)*%
X115475000Y-60125000D03*
%TD*%
D11*
%TO.P,D132,1,A*%
%TO.N,Net-(D110-A)*%
X99625000Y-52625000D03*
%TO.P,D132,2,RK*%
%TO.N,Net-(D122-RK)*%
X100475000Y-52625000D03*
%TO.P,D132,3,GK*%
%TO.N,Net-(D122-GK)*%
X100475000Y-53475000D03*
%TO.P,D132,4,BK*%
%TO.N,Net-(D122-BK)*%
X99625000Y-53475000D03*
%TD*%
D10*
%TO.P,D312,1,A*%
%TO.N,Net-(D268-A)*%
X106475000Y-65475000D03*
%TO.P,D312,2,RK*%
%TO.N,Net-(D309-RK)*%
X105625000Y-65475000D03*
%TO.P,D312,3,GK*%
%TO.N,Net-(D309-GK)*%
X105625000Y-64625000D03*
%TO.P,D312,4,BK*%
%TO.N,Net-(D309-BK)*%
X106475000Y-64625000D03*
%TD*%
D11*
%TO.P,D35,1,A*%
%TO.N,Net-(D13-A)*%
X93625000Y-39125000D03*
%TO.P,D35,2,RK*%
%TO.N,Net-(D34-RK)*%
X94475000Y-39125000D03*
%TO.P,D35,3,GK*%
%TO.N,Net-(D34-GK)*%
X94475000Y-39975000D03*
%TO.P,D35,4,BK*%
%TO.N,Net-(D34-BK)*%
X93625000Y-39975000D03*
%TD*%
%TO.P,D154,1,A*%
%TO.N,Net-(D143-A)*%
X114625000Y-52625000D03*
%TO.P,D154,2,RK*%
%TO.N,Net-(D144-RK)*%
X115475000Y-52625000D03*
%TO.P,D154,3,GK*%
%TO.N,Net-(D144-GK)*%
X115475000Y-53475000D03*
%TO.P,D154,4,BK*%
%TO.N,Net-(D144-BK)*%
X114625000Y-53475000D03*
%TD*%
%TO.P,D98,1,A*%
%TO.N,Net-(D109-A)*%
X104125000Y-51125000D03*
%TO.P,D98,2,RK*%
%TO.N,Net-(D89-RK)*%
X104975000Y-51125000D03*
%TO.P,D98,3,GK*%
%TO.N,Net-(D89-GK)*%
X104975000Y-51975000D03*
%TO.P,D98,4,BK*%
%TO.N,Net-(D89-BK)*%
X104125000Y-51975000D03*
%TD*%
%TO.P,D149,1,A*%
%TO.N,Net-(D138-A)*%
X114625000Y-45125000D03*
%TO.P,D149,2,RK*%
%TO.N,Net-(D144-RK)*%
X115475000Y-45125000D03*
%TO.P,D149,3,GK*%
%TO.N,Net-(D144-GK)*%
X115475000Y-45975000D03*
%TO.P,D149,4,BK*%
%TO.N,Net-(D144-BK)*%
X114625000Y-45975000D03*
%TD*%
%TO.P,D84,1,A*%
%TO.N,Net-(D106-A)*%
X105625000Y-46625000D03*
%TO.P,D84,2,RK*%
%TO.N,Net-(D78-RK)*%
X106475000Y-46625000D03*
%TO.P,D84,3,GK*%
%TO.N,Net-(D78-GK)*%
X106475000Y-47475000D03*
%TO.P,D84,4,BK*%
%TO.N,Net-(D78-BK)*%
X105625000Y-47475000D03*
%TD*%
D10*
%TO.P,D304,1,A*%
%TO.N,Net-(D271-A)*%
X104975000Y-60975000D03*
%TO.P,D304,2,RK*%
%TO.N,Net-(D298-RK)*%
X104125000Y-60975000D03*
%TO.P,D304,3,GK*%
%TO.N,Net-(D298-GK)*%
X104125000Y-60125000D03*
%TO.P,D304,4,BK*%
%TO.N,Net-(D298-BK)*%
X104975000Y-60125000D03*
%TD*%
D11*
%TO.P,D99,1,A*%
%TO.N,Net-(D110-A)*%
X104125000Y-52625000D03*
%TO.P,D99,2,RK*%
%TO.N,Net-(D89-RK)*%
X104975000Y-52625000D03*
%TO.P,D99,3,GK*%
%TO.N,Net-(D89-GK)*%
X104975000Y-53475000D03*
%TO.P,D99,4,BK*%
%TO.N,Net-(D89-BK)*%
X104125000Y-53475000D03*
%TD*%
%TO.P,D160,1,A*%
%TO.N,Net-(D138-A)*%
X113125000Y-45125000D03*
%TO.P,D160,2,RK*%
%TO.N,Net-(D155-RK)*%
X113975000Y-45125000D03*
%TO.P,D160,3,GK*%
%TO.N,Net-(D155-GK)*%
X113975000Y-45975000D03*
%TO.P,D160,4,BK*%
%TO.N,Net-(D155-BK)*%
X113125000Y-45975000D03*
%TD*%
D10*
%TO.P,D216,1,A*%
%TO.N,Net-(D205-A)*%
X92975000Y-60975000D03*
%TO.P,D216,2,RK*%
%TO.N,Net-(D210-RK)*%
X92125000Y-60975000D03*
%TO.P,D216,3,GK*%
%TO.N,Net-(D210-GK)*%
X92125000Y-60125000D03*
%TO.P,D216,4,BK*%
%TO.N,Net-(D210-BK)*%
X92975000Y-60125000D03*
%TD*%
%TO.P,D223,1,A*%
%TO.N,Net-(D201-A)*%
X94475000Y-66975000D03*
%TO.P,D223,2,RK*%
%TO.N,Net-(D221-RK)*%
X93625000Y-66975000D03*
%TO.P,D223,3,GK*%
%TO.N,Net-(D221-GK)*%
X93625000Y-66125000D03*
%TO.P,D223,4,BK*%
%TO.N,Net-(D221-BK)*%
X94475000Y-66125000D03*
%TD*%
%TO.P,D225,1,A*%
%TO.N,Net-(D203-A)*%
X94475000Y-63975000D03*
%TO.P,D225,2,RK*%
%TO.N,Net-(D221-RK)*%
X93625000Y-63975000D03*
%TO.P,D225,3,GK*%
%TO.N,Net-(D221-GK)*%
X93625000Y-63125000D03*
%TO.P,D225,4,BK*%
%TO.N,Net-(D221-BK)*%
X94475000Y-63125000D03*
%TD*%
%TO.P,D232,1,A*%
%TO.N,Net-(D199-A)*%
X95975000Y-69975000D03*
%TO.P,D232,2,RK*%
%TO.N,Net-(D232-RK)*%
X95125000Y-69975000D03*
%TO.P,D232,3,GK*%
%TO.N,Net-(D232-GK)*%
X95125000Y-69125000D03*
%TO.P,D232,4,BK*%
%TO.N,Net-(D232-BK)*%
X95975000Y-69125000D03*
%TD*%
D11*
%TO.P,D112,1,A*%
%TO.N,Net-(D101-A)*%
X101125000Y-39125000D03*
%TO.P,D112,2,RK*%
%TO.N,Net-(D111-RK)*%
X101975000Y-39125000D03*
%TO.P,D112,3,GK*%
%TO.N,Net-(D111-GK)*%
X101975000Y-39975000D03*
%TO.P,D112,4,BK*%
%TO.N,Net-(D111-BK)*%
X101125000Y-39975000D03*
%TD*%
%TO.P,D190,1,A*%
%TO.N,Net-(D135-A)*%
X108625000Y-40625000D03*
%TO.P,D190,2,RK*%
%TO.N,Net-(D188-RK)*%
X109475000Y-40625000D03*
%TO.P,D190,3,GK*%
%TO.N,Net-(D188-GK)*%
X109475000Y-41475000D03*
%TO.P,D190,4,BK*%
%TO.N,Net-(D188-BK)*%
X108625000Y-41475000D03*
%TD*%
%TO.P,D139,1,A*%
%TO.N,Net-(D139-A)*%
X116125000Y-46625000D03*
%TO.P,D139,2,RK*%
%TO.N,Net-(D133-RK)*%
X116975000Y-46625000D03*
%TO.P,D139,3,GK*%
%TO.N,Net-(D133-GK)*%
X116975000Y-47475000D03*
%TO.P,D139,4,BK*%
%TO.N,Net-(D133-BK)*%
X116125000Y-47475000D03*
%TD*%
D10*
%TO.P,D282,1,A*%
%TO.N,Net-(D271-A)*%
X101975000Y-60975000D03*
%TO.P,D282,2,RK*%
%TO.N,Net-(D276-RK)*%
X101125000Y-60975000D03*
%TO.P,D282,3,GK*%
%TO.N,Net-(D276-GK)*%
X101125000Y-60125000D03*
%TO.P,D282,4,BK*%
%TO.N,Net-(D276-BK)*%
X101975000Y-60125000D03*
%TD*%
%TO.P,D224,1,A*%
%TO.N,Net-(D202-A)*%
X94475000Y-65475000D03*
%TO.P,D224,2,RK*%
%TO.N,Net-(D221-RK)*%
X93625000Y-65475000D03*
%TO.P,D224,3,GK*%
%TO.N,Net-(D221-GK)*%
X93625000Y-64625000D03*
%TO.P,D224,4,BK*%
%TO.N,Net-(D221-BK)*%
X94475000Y-64625000D03*
%TD*%
%TO.P,D368,1,A*%
%TO.N,Net-(D335-A)*%
X113975000Y-63975000D03*
%TO.P,D368,2,RK*%
%TO.N,Net-(D364-RK)*%
X113125000Y-63975000D03*
%TO.P,D368,3,GK*%
%TO.N,Net-(D364-GK)*%
X113125000Y-63125000D03*
%TO.P,D368,4,BK*%
%TO.N,Net-(D364-BK)*%
X113975000Y-63125000D03*
%TD*%
D11*
%TO.P,D91,1,A*%
%TO.N,Net-(D102-A)*%
X104125000Y-40625000D03*
%TO.P,D91,2,RK*%
%TO.N,Net-(D89-RK)*%
X104975000Y-40625000D03*
%TO.P,D91,3,GK*%
%TO.N,Net-(D89-GK)*%
X104975000Y-41475000D03*
%TO.P,D91,4,BK*%
%TO.N,Net-(D89-BK)*%
X104125000Y-41475000D03*
%TD*%
D10*
%TO.P,D351,1,A*%
%TO.N,Net-(D340-A)*%
X110975000Y-56475000D03*
%TO.P,D351,2,RK*%
%TO.N,Net-(D342-RK)*%
X110125000Y-56475000D03*
%TO.P,D351,3,GK*%
%TO.N,Net-(D342-GK)*%
X110125000Y-55625000D03*
%TO.P,D351,4,BK*%
%TO.N,Net-(D342-BK)*%
X110975000Y-55625000D03*
%TD*%
D11*
%TO.P,D168,1,A*%
%TO.N,Net-(D135-A)*%
X111625000Y-40625000D03*
%TO.P,D168,2,RK*%
%TO.N,Net-(D166-RK)*%
X112475000Y-40625000D03*
%TO.P,D168,3,GK*%
%TO.N,Net-(D166-GK)*%
X112475000Y-41475000D03*
%TO.P,D168,4,BK*%
%TO.N,Net-(D166-BK)*%
X111625000Y-41475000D03*
%TD*%
%TO.P,D175,1,A*%
%TO.N,Net-(D142-A)*%
X111625000Y-51125000D03*
%TO.P,D175,2,RK*%
%TO.N,Net-(D166-RK)*%
X112475000Y-51125000D03*
%TO.P,D175,3,GK*%
%TO.N,Net-(D166-GK)*%
X112475000Y-51975000D03*
%TO.P,D175,4,BK*%
%TO.N,Net-(D166-BK)*%
X111625000Y-51975000D03*
%TD*%
%TO.P,D163,1,A*%
%TO.N,Net-(D141-A)*%
X113125000Y-49625000D03*
%TO.P,D163,2,RK*%
%TO.N,Net-(D155-RK)*%
X113975000Y-49625000D03*
%TO.P,D163,3,GK*%
%TO.N,Net-(D155-GK)*%
X113975000Y-50475000D03*
%TO.P,D163,4,BK*%
%TO.N,Net-(D155-BK)*%
X113125000Y-50475000D03*
%TD*%
D10*
%TO.P,D249,1,A*%
%TO.N,Net-(D205-A)*%
X97475000Y-60975000D03*
%TO.P,D249,2,RK*%
%TO.N,Net-(D243-RK)*%
X96625000Y-60975000D03*
%TO.P,D249,3,GK*%
%TO.N,Net-(D243-GK)*%
X96625000Y-60125000D03*
%TO.P,D249,4,BK*%
%TO.N,Net-(D243-BK)*%
X97475000Y-60125000D03*
%TD*%
%TO.P,D322,1,A*%
%TO.N,Net-(D267-A)*%
X107975000Y-66975000D03*
%TO.P,D322,2,RK*%
%TO.N,Net-(D320-RK)*%
X107125000Y-66975000D03*
%TO.P,D322,3,GK*%
%TO.N,Net-(D320-GK)*%
X107125000Y-66125000D03*
%TO.P,D322,4,BK*%
%TO.N,Net-(D320-BK)*%
X107975000Y-66125000D03*
%TD*%
D11*
%TO.P,D92,1,A*%
%TO.N,Net-(D103-A)*%
X104125000Y-42125000D03*
%TO.P,D92,2,RK*%
%TO.N,Net-(D89-RK)*%
X104975000Y-42125000D03*
%TO.P,D92,3,GK*%
%TO.N,Net-(D89-GK)*%
X104975000Y-42975000D03*
%TO.P,D92,4,BK*%
%TO.N,Net-(D89-BK)*%
X104125000Y-42975000D03*
%TD*%
%TO.P,D25,1,A*%
%TO.N,Net-(D14-A)*%
X95125000Y-40625000D03*
%TO.P,D25,2,RK*%
%TO.N,Net-(D23-RK)*%
X95975000Y-40625000D03*
%TO.P,D25,3,GK*%
%TO.N,Net-(D23-GK)*%
X95975000Y-41475000D03*
%TO.P,D25,4,BK*%
%TO.N,Net-(D23-BK)*%
X95125000Y-41475000D03*
%TD*%
D10*
%TO.P,D336,1,A*%
%TO.N,Net-(D336-A)*%
X109475000Y-62475000D03*
%TO.P,D336,2,RK*%
%TO.N,Net-(D331-RK)*%
X108625000Y-62475000D03*
%TO.P,D336,3,GK*%
%TO.N,Net-(D331-GK)*%
X108625000Y-61625000D03*
%TO.P,D336,4,BK*%
%TO.N,Net-(D331-BK)*%
X109475000Y-61625000D03*
%TD*%
%TO.P,D379,1,A*%
%TO.N,Net-(D335-A)*%
X115475000Y-63975000D03*
%TO.P,D379,2,RK*%
%TO.N,Net-(D375-RK)*%
X114625000Y-63975000D03*
%TO.P,D379,3,GK*%
%TO.N,Net-(D375-GK)*%
X114625000Y-63125000D03*
%TO.P,D379,4,BK*%
%TO.N,Net-(D375-BK)*%
X115475000Y-63125000D03*
%TD*%
%TO.P,D252,1,A*%
%TO.N,Net-(D208-A)*%
X97475000Y-56475000D03*
%TO.P,D252,2,RK*%
%TO.N,Net-(D243-RK)*%
X96625000Y-56475000D03*
%TO.P,D252,3,GK*%
%TO.N,Net-(D243-GK)*%
X96625000Y-55625000D03*
%TO.P,D252,4,BK*%
%TO.N,Net-(D243-BK)*%
X97475000Y-55625000D03*
%TD*%
%TO.P,D354,1,A*%
%TO.N,Net-(D332-A)*%
X112475000Y-68475000D03*
%TO.P,D354,2,RK*%
%TO.N,Net-(D353-RK)*%
X111625000Y-68475000D03*
%TO.P,D354,3,GK*%
%TO.N,Net-(D353-GK)*%
X111625000Y-67625000D03*
%TO.P,D354,4,BK*%
%TO.N,Net-(D353-BK)*%
X112475000Y-67625000D03*
%TD*%
%TO.P,D229,1,A*%
%TO.N,Net-(D207-A)*%
X94475000Y-57975000D03*
%TO.P,D229,2,RK*%
%TO.N,Net-(D221-RK)*%
X93625000Y-57975000D03*
%TO.P,D229,3,GK*%
%TO.N,Net-(D221-GK)*%
X93625000Y-57125000D03*
%TO.P,D229,4,BK*%
%TO.N,Net-(D221-BK)*%
X94475000Y-57125000D03*
%TD*%
D11*
%TO.P,D23,1,A*%
%TO.N,Net-(D1-A)*%
X95125000Y-37625000D03*
%TO.P,D23,2,RK*%
%TO.N,Net-(D23-RK)*%
X95975000Y-37625000D03*
%TO.P,D23,3,GK*%
%TO.N,Net-(D23-GK)*%
X95975000Y-38475000D03*
%TO.P,D23,4,BK*%
%TO.N,Net-(D23-BK)*%
X95125000Y-38475000D03*
%TD*%
D10*
%TO.P,D345,1,A*%
%TO.N,Net-(D334-A)*%
X110975000Y-65475000D03*
%TO.P,D345,2,RK*%
%TO.N,Net-(D342-RK)*%
X110125000Y-65475000D03*
%TO.P,D345,3,GK*%
%TO.N,Net-(D342-GK)*%
X110125000Y-64625000D03*
%TO.P,D345,4,BK*%
%TO.N,Net-(D342-BK)*%
X110975000Y-64625000D03*
%TD*%
%TO.P,D266,1,A*%
%TO.N,Net-(D266-A)*%
X100475000Y-68475000D03*
%TO.P,D266,2,RK*%
%TO.N,Net-(D265-RK)*%
X99625000Y-68475000D03*
%TO.P,D266,3,GK*%
%TO.N,Net-(D265-GK)*%
X99625000Y-67625000D03*
%TO.P,D266,4,BK*%
%TO.N,Net-(D265-BK)*%
X100475000Y-67625000D03*
%TD*%
D11*
%TO.P,D197,1,A*%
%TO.N,Net-(D142-A)*%
X108625000Y-51125000D03*
%TO.P,D197,2,RK*%
%TO.N,Net-(D188-RK)*%
X109475000Y-51125000D03*
%TO.P,D197,3,GK*%
%TO.N,Net-(D188-GK)*%
X109475000Y-51975000D03*
%TO.P,D197,4,BK*%
%TO.N,Net-(D188-BK)*%
X108625000Y-51975000D03*
%TD*%
D10*
%TO.P,D355,1,A*%
%TO.N,Net-(D333-A)*%
X112475000Y-66975000D03*
%TO.P,D355,2,RK*%
%TO.N,Net-(D353-RK)*%
X111625000Y-66975000D03*
%TO.P,D355,3,GK*%
%TO.N,Net-(D353-GK)*%
X111625000Y-66125000D03*
%TO.P,D355,4,BK*%
%TO.N,Net-(D353-BK)*%
X112475000Y-66125000D03*
%TD*%
%TO.P,D267,1,A*%
%TO.N,Net-(D267-A)*%
X100475000Y-66975000D03*
%TO.P,D267,2,RK*%
%TO.N,Net-(D265-RK)*%
X99625000Y-66975000D03*
%TO.P,D267,3,GK*%
%TO.N,Net-(D265-GK)*%
X99625000Y-66125000D03*
%TO.P,D267,4,BK*%
%TO.N,Net-(D265-BK)*%
X100475000Y-66125000D03*
%TD*%
D11*
%TO.P,D184,1,A*%
%TO.N,Net-(D140-A)*%
X110125000Y-48125000D03*
%TO.P,D184,2,RK*%
%TO.N,Net-(D177-RK)*%
X110975000Y-48125000D03*
%TO.P,D184,3,GK*%
%TO.N,Net-(D177-GK)*%
X110975000Y-48975000D03*
%TO.P,D184,4,BK*%
%TO.N,Net-(D177-BK)*%
X110125000Y-48975000D03*
%TD*%
%TO.P,D124,1,A*%
%TO.N,Net-(D102-A)*%
X99625000Y-40625000D03*
%TO.P,D124,2,RK*%
%TO.N,Net-(D122-RK)*%
X100475000Y-40625000D03*
%TO.P,D124,3,GK*%
%TO.N,Net-(D122-GK)*%
X100475000Y-41475000D03*
%TO.P,D124,4,BK*%
%TO.N,Net-(D122-BK)*%
X99625000Y-41475000D03*
%TD*%
%TO.P,D179,1,A*%
%TO.N,Net-(D135-A)*%
X110125000Y-40625000D03*
%TO.P,D179,2,RK*%
%TO.N,Net-(D177-RK)*%
X110975000Y-40625000D03*
%TO.P,D179,3,GK*%
%TO.N,Net-(D177-GK)*%
X110975000Y-41475000D03*
%TO.P,D179,4,BK*%
%TO.N,Net-(D177-BK)*%
X110125000Y-41475000D03*
%TD*%
D10*
%TO.P,D244,1,A*%
%TO.N,Net-(D200-A)*%
X97475000Y-68475000D03*
%TO.P,D244,2,RK*%
%TO.N,Net-(D243-RK)*%
X96625000Y-68475000D03*
%TO.P,D244,3,GK*%
%TO.N,Net-(D243-GK)*%
X96625000Y-67625000D03*
%TO.P,D244,4,BK*%
%TO.N,Net-(D243-BK)*%
X97475000Y-67625000D03*
%TD*%
%TO.P,D293,1,A*%
%TO.N,Net-(D271-A)*%
X103475000Y-60975000D03*
%TO.P,D293,2,RK*%
%TO.N,Net-(D287-RK)*%
X102625000Y-60975000D03*
%TO.P,D293,3,GK*%
%TO.N,Net-(D287-GK)*%
X102625000Y-60125000D03*
%TO.P,D293,4,BK*%
%TO.N,Net-(D287-BK)*%
X103475000Y-60125000D03*
%TD*%
D11*
%TO.P,D156,1,A*%
%TO.N,Net-(D134-A)*%
X113125000Y-39125000D03*
%TO.P,D156,2,RK*%
%TO.N,Net-(D155-RK)*%
X113975000Y-39125000D03*
%TO.P,D156,3,GK*%
%TO.N,Net-(D155-GK)*%
X113975000Y-39975000D03*
%TO.P,D156,4,BK*%
%TO.N,Net-(D155-BK)*%
X113125000Y-39975000D03*
%TD*%
%TO.P,D188,1,A*%
%TO.N,Net-(D133-A)*%
X108625000Y-37625000D03*
%TO.P,D188,2,RK*%
%TO.N,Net-(D188-RK)*%
X109475000Y-37625000D03*
%TO.P,D188,3,GK*%
%TO.N,Net-(D188-GK)*%
X109475000Y-38475000D03*
%TO.P,D188,4,BK*%
%TO.N,Net-(D188-BK)*%
X108625000Y-38475000D03*
%TD*%
%TO.P,D88,1,A*%
%TO.N,Net-(D110-A)*%
X105625000Y-52625000D03*
%TO.P,D88,2,RK*%
%TO.N,Net-(D78-RK)*%
X106475000Y-52625000D03*
%TO.P,D88,3,GK*%
%TO.N,Net-(D78-GK)*%
X106475000Y-53475000D03*
%TO.P,D88,4,BK*%
%TO.N,Net-(D78-BK)*%
X105625000Y-53475000D03*
%TD*%
%TO.P,D131,1,A*%
%TO.N,Net-(D109-A)*%
X99625000Y-51125000D03*
%TO.P,D131,2,RK*%
%TO.N,Net-(D122-RK)*%
X100475000Y-51125000D03*
%TO.P,D131,3,GK*%
%TO.N,Net-(D122-GK)*%
X100475000Y-51975000D03*
%TO.P,D131,4,BK*%
%TO.N,Net-(D122-BK)*%
X99625000Y-51975000D03*
%TD*%
%TO.P,D8,1,A*%
%TO.N,Net-(D19-A)*%
X98125000Y-48125000D03*
%TO.P,D8,2,RK*%
%TO.N,Net-(D1-RK)*%
X98975000Y-48125000D03*
%TO.P,D8,3,GK*%
%TO.N,Net-(D1-GK)*%
X98975000Y-48975000D03*
%TO.P,D8,4,BK*%
%TO.N,Net-(D1-BK)*%
X98125000Y-48975000D03*
%TD*%
D12*
%TO.N,Net-(D254-BK)*%
X99125000Y-64625000D03*
X99125000Y-55625000D03*
X99125000Y-67625000D03*
X99125000Y-60125000D03*
X99125000Y-69125000D03*
X99125000Y-61625000D03*
X99125000Y-66125000D03*
X99125000Y-54125000D03*
X99125000Y-58625000D03*
X99125000Y-63125000D03*
D13*
X99075000Y-70950000D03*
D12*
X99125000Y-57125000D03*
%TO.N,Net-(D254-GK)*%
X97975000Y-55625000D03*
D13*
X98050000Y-70500000D03*
D12*
X97975000Y-69125000D03*
X97975000Y-54125000D03*
X97975000Y-63125000D03*
X97975000Y-67625000D03*
X97975000Y-61625000D03*
X97975000Y-58625000D03*
X97975000Y-64625000D03*
X97975000Y-60125000D03*
X97975000Y-57125000D03*
X97975000Y-66125000D03*
D13*
%TO.N,Net-(D254-RK)*%
X98275000Y-70950000D03*
D12*
X98275000Y-56475000D03*
X98275000Y-63975000D03*
X98275000Y-68475000D03*
X98275000Y-60975000D03*
X98275000Y-62475000D03*
X98275000Y-66975000D03*
X98275000Y-57975000D03*
X98275000Y-54975000D03*
X98275000Y-59475000D03*
X98275000Y-69975000D03*
X98275000Y-65475000D03*
%TO.N,Net-(D243-BK)*%
X97625000Y-55625000D03*
X97625000Y-66125000D03*
X97625000Y-67625000D03*
X97625000Y-54125000D03*
X97625000Y-60125000D03*
X97625000Y-61625000D03*
X97625000Y-69125000D03*
X97625000Y-64625000D03*
X97625000Y-58625000D03*
X97625000Y-63125000D03*
X97625000Y-57125000D03*
D13*
X97575000Y-70950000D03*
D12*
%TO.N,Net-(D243-GK)*%
X96475000Y-67625000D03*
X96475000Y-54125000D03*
X96475000Y-61625000D03*
X96475000Y-64625000D03*
X96475000Y-55625000D03*
X96475000Y-69125000D03*
X96475000Y-57125000D03*
X96475000Y-60125000D03*
X96475000Y-58625000D03*
D13*
X96550000Y-70500000D03*
D12*
X96475000Y-63125000D03*
X96475000Y-66125000D03*
%TO.N,Net-(D243-RK)*%
X96775000Y-65475000D03*
X96775000Y-63975000D03*
X96775000Y-54975000D03*
X96775000Y-69975000D03*
X96775000Y-56475000D03*
X96775000Y-66975000D03*
X96775000Y-59475000D03*
X96775000Y-62475000D03*
X96775000Y-57975000D03*
X96775000Y-68475000D03*
D13*
X96775000Y-70950000D03*
D12*
X96775000Y-60975000D03*
%TO.N,Net-(D232-BK)*%
X96125000Y-58625000D03*
X96125000Y-67625000D03*
X96125000Y-66125000D03*
X96125000Y-69125000D03*
X96125000Y-61625000D03*
D13*
X96075000Y-70950000D03*
D12*
X96125000Y-64625000D03*
X96125000Y-63125000D03*
X96125000Y-54125000D03*
X96125000Y-55625000D03*
X96125000Y-60125000D03*
X96125000Y-57125000D03*
%TO.N,Net-(D232-GK)*%
X94975000Y-55625000D03*
X94975000Y-64625000D03*
X94975000Y-58625000D03*
X94975000Y-66125000D03*
X94975000Y-57125000D03*
D13*
X95050000Y-70500000D03*
D12*
X94975000Y-67625000D03*
X94975000Y-54125000D03*
X94975000Y-63125000D03*
X94975000Y-60125000D03*
X94975000Y-61625000D03*
X94975000Y-69125000D03*
D13*
%TO.N,Net-(D232-RK)*%
X95275000Y-70950000D03*
D12*
X95275000Y-54975000D03*
X95275000Y-65475000D03*
X95275000Y-69975000D03*
X95275000Y-57975000D03*
X95275000Y-63975000D03*
X95275000Y-68475000D03*
X95275000Y-60975000D03*
X95275000Y-62475000D03*
X95275000Y-59475000D03*
X95275000Y-56475000D03*
X95275000Y-66975000D03*
%TO.N,Net-(D221-BK)*%
X94625000Y-60125000D03*
X94625000Y-54125000D03*
X94625000Y-61625000D03*
X94625000Y-67625000D03*
X94625000Y-64625000D03*
X94625000Y-69125000D03*
X94625000Y-66125000D03*
X94625000Y-55625000D03*
X94625000Y-63125000D03*
X94625000Y-58625000D03*
X94625000Y-57125000D03*
D13*
X94575000Y-70950000D03*
D12*
%TO.N,Net-(D221-GK)*%
X93475000Y-66125000D03*
D13*
X93550000Y-70500000D03*
D12*
X93475000Y-63125000D03*
X93475000Y-57125000D03*
X93475000Y-64625000D03*
X93475000Y-60125000D03*
X93475000Y-58625000D03*
X93475000Y-55625000D03*
X93475000Y-54125000D03*
X93475000Y-61625000D03*
X93475000Y-67625000D03*
X93475000Y-69125000D03*
%TO.N,Net-(D221-RK)*%
X93775000Y-59475000D03*
X93775000Y-65475000D03*
X93775000Y-57975000D03*
X93775000Y-54975000D03*
X93775000Y-66975000D03*
X93775000Y-69975000D03*
X93775000Y-63975000D03*
X93775000Y-68475000D03*
D13*
X93775000Y-70950000D03*
D12*
X93775000Y-60975000D03*
X93775000Y-56475000D03*
X93775000Y-62475000D03*
D13*
%TO.N,Net-(D210-BK)*%
X93075000Y-70950000D03*
D12*
X93125000Y-61625000D03*
X93125000Y-66125000D03*
X93125000Y-54125000D03*
X93125000Y-64625000D03*
X93125000Y-60125000D03*
X93125000Y-55625000D03*
X93125000Y-67625000D03*
X93125000Y-69125000D03*
X93125000Y-57125000D03*
X93125000Y-63125000D03*
X93125000Y-58625000D03*
%TO.N,Net-(D210-GK)*%
X91975000Y-60125000D03*
D13*
X92050000Y-70500000D03*
D12*
X91975000Y-58625000D03*
X91975000Y-57125000D03*
X91975000Y-63125000D03*
X91975000Y-61625000D03*
X91975000Y-67625000D03*
X91975000Y-55625000D03*
X91975000Y-66125000D03*
X91975000Y-69125000D03*
X91975000Y-54125000D03*
X91975000Y-64625000D03*
%TO.N,Net-(D210-RK)*%
X92275000Y-63975000D03*
D13*
X92275000Y-70950000D03*
D12*
X92275000Y-66975000D03*
X92275000Y-68475000D03*
X92275000Y-57975000D03*
X92275000Y-59475000D03*
X92275000Y-56475000D03*
X92275000Y-60975000D03*
X92275000Y-65475000D03*
X92275000Y-69975000D03*
X92275000Y-62475000D03*
X92275000Y-54975000D03*
D13*
%TO.N,Net-(D209-A)*%
X98500000Y-71400000D03*
D12*
X98550000Y-54575000D03*
%TO.N,Net-(D208-A)*%
X97350000Y-56500000D03*
D13*
X97350000Y-70500000D03*
D12*
%TO.N,Net-(D207-A)*%
X97050000Y-57575000D03*
D13*
X97000000Y-71400000D03*
%TO.N,Net-(D206-A)*%
X95850000Y-70500000D03*
D12*
X95850000Y-59475000D03*
%TO.N,Net-(D205-A)*%
X95550000Y-60575000D03*
D13*
X95500000Y-71400000D03*
%TO.N,Net-(D204-A)*%
X94350000Y-70500000D03*
D12*
X94350000Y-62475000D03*
%TO.N,Net-(D203-A)*%
X94050000Y-63575000D03*
D13*
X94000000Y-71400000D03*
%TO.N,Net-(D202-A)*%
X92850000Y-70500000D03*
D12*
X92850000Y-65475000D03*
%TO.N,Net-(D201-A)*%
X92550000Y-66575000D03*
D13*
X92500000Y-71400000D03*
%TO.N,Net-(D200-A)*%
X91350000Y-70500000D03*
D12*
X91350000Y-68475000D03*
%TO.N,Net-(D199-BK)*%
X91625000Y-61625000D03*
X91625000Y-64625000D03*
D13*
X91575000Y-70950000D03*
D12*
X91625000Y-55625000D03*
X91625000Y-54125000D03*
X91625000Y-69125000D03*
X91625000Y-58625000D03*
X91625000Y-63125000D03*
X91625000Y-60125000D03*
X91625000Y-67625000D03*
X91625000Y-57125000D03*
X91625000Y-66125000D03*
%TO.N,Net-(D199-GK)*%
X90475000Y-55625000D03*
X90475000Y-64625000D03*
X90475000Y-57125000D03*
X90475000Y-54125000D03*
X90475000Y-61625000D03*
D13*
X90550000Y-70500000D03*
D12*
X90475000Y-69125000D03*
X90475000Y-58625000D03*
X90475000Y-63125000D03*
X90475000Y-60125000D03*
X90475000Y-66125000D03*
X90475000Y-67625000D03*
%TO.N,Net-(D199-RK)*%
X90775000Y-59475000D03*
X90775000Y-60975000D03*
X90775000Y-57975000D03*
X90775000Y-65475000D03*
X90775000Y-68475000D03*
X90775000Y-62475000D03*
X90775000Y-63975000D03*
X90775000Y-66975000D03*
X90775000Y-69975000D03*
D13*
X90775000Y-70950000D03*
D12*
X90775000Y-56475000D03*
X90775000Y-54975000D03*
%TO.N,Net-(D320-BK)*%
X108125000Y-64625000D03*
X108125000Y-55625000D03*
X108125000Y-67625000D03*
X108125000Y-60125000D03*
X108125000Y-69125000D03*
X108125000Y-61625000D03*
X108125000Y-66125000D03*
X108125000Y-54125000D03*
X108125000Y-58625000D03*
X108125000Y-63125000D03*
D13*
X108075000Y-70950000D03*
D12*
X108125000Y-57125000D03*
%TO.N,Net-(D320-GK)*%
X106975000Y-55625000D03*
D13*
X107050000Y-70500000D03*
D12*
X106975000Y-69125000D03*
X106975000Y-54125000D03*
X106975000Y-63125000D03*
X106975000Y-67625000D03*
X106975000Y-61625000D03*
X106975000Y-58625000D03*
X106975000Y-64625000D03*
X106975000Y-60125000D03*
X106975000Y-57125000D03*
X106975000Y-66125000D03*
D13*
%TO.N,Net-(D320-RK)*%
X107275000Y-70950000D03*
D12*
X107275000Y-56475000D03*
X107275000Y-63975000D03*
X107275000Y-68475000D03*
X107275000Y-60975000D03*
X107275000Y-62475000D03*
X107275000Y-66975000D03*
X107275000Y-57975000D03*
X107275000Y-54975000D03*
X107275000Y-59475000D03*
X107275000Y-69975000D03*
X107275000Y-65475000D03*
%TO.N,Net-(D309-BK)*%
X106625000Y-55625000D03*
X106625000Y-66125000D03*
X106625000Y-67625000D03*
X106625000Y-54125000D03*
X106625000Y-60125000D03*
X106625000Y-61625000D03*
X106625000Y-69125000D03*
X106625000Y-64625000D03*
X106625000Y-58625000D03*
X106625000Y-63125000D03*
X106625000Y-57125000D03*
D13*
X106575000Y-70950000D03*
D12*
%TO.N,Net-(D309-GK)*%
X105475000Y-67625000D03*
X105475000Y-54125000D03*
X105475000Y-61625000D03*
X105475000Y-64625000D03*
X105475000Y-55625000D03*
X105475000Y-69125000D03*
X105475000Y-57125000D03*
X105475000Y-60125000D03*
X105475000Y-58625000D03*
D13*
X105550000Y-70500000D03*
D12*
X105475000Y-63125000D03*
X105475000Y-66125000D03*
%TO.N,Net-(D309-RK)*%
X105775000Y-65475000D03*
X105775000Y-63975000D03*
X105775000Y-54975000D03*
X105775000Y-69975000D03*
X105775000Y-56475000D03*
X105775000Y-66975000D03*
X105775000Y-59475000D03*
X105775000Y-62475000D03*
X105775000Y-57975000D03*
X105775000Y-68475000D03*
D13*
X105775000Y-70950000D03*
D12*
X105775000Y-60975000D03*
%TO.N,Net-(D298-BK)*%
X105125000Y-58625000D03*
X105125000Y-67625000D03*
X105125000Y-66125000D03*
X105125000Y-69125000D03*
X105125000Y-61625000D03*
D13*
X105075000Y-70950000D03*
D12*
X105125000Y-64625000D03*
X105125000Y-63125000D03*
X105125000Y-54125000D03*
X105125000Y-55625000D03*
X105125000Y-60125000D03*
X105125000Y-57125000D03*
%TO.N,Net-(D298-GK)*%
X103975000Y-55625000D03*
X103975000Y-64625000D03*
X103975000Y-58625000D03*
X103975000Y-66125000D03*
X103975000Y-57125000D03*
D13*
X104050000Y-70500000D03*
D12*
X103975000Y-67625000D03*
X103975000Y-54125000D03*
X103975000Y-63125000D03*
X103975000Y-60125000D03*
X103975000Y-61625000D03*
X103975000Y-69125000D03*
D13*
%TO.N,Net-(D298-RK)*%
X104275000Y-70950000D03*
D12*
X104275000Y-54975000D03*
X104275000Y-65475000D03*
X104275000Y-69975000D03*
X104275000Y-57975000D03*
X104275000Y-63975000D03*
X104275000Y-68475000D03*
X104275000Y-60975000D03*
X104275000Y-62475000D03*
X104275000Y-59475000D03*
X104275000Y-56475000D03*
X104275000Y-66975000D03*
%TO.N,Net-(D287-BK)*%
X103625000Y-60125000D03*
X103625000Y-54125000D03*
X103625000Y-61625000D03*
X103625000Y-67625000D03*
X103625000Y-64625000D03*
X103625000Y-69125000D03*
X103625000Y-66125000D03*
X103625000Y-55625000D03*
X103625000Y-63125000D03*
X103625000Y-58625000D03*
X103625000Y-57125000D03*
D13*
X103575000Y-70950000D03*
D12*
%TO.N,Net-(D287-GK)*%
X102475000Y-66125000D03*
D13*
X102550000Y-70500000D03*
D12*
X102475000Y-63125000D03*
X102475000Y-57125000D03*
X102475000Y-64625000D03*
X102475000Y-60125000D03*
X102475000Y-58625000D03*
X102475000Y-55625000D03*
X102475000Y-54125000D03*
X102475000Y-61625000D03*
X102475000Y-67625000D03*
X102475000Y-69125000D03*
%TO.N,Net-(D287-RK)*%
X102775000Y-59475000D03*
X102775000Y-65475000D03*
X102775000Y-57975000D03*
X102775000Y-54975000D03*
X102775000Y-66975000D03*
X102775000Y-69975000D03*
X102775000Y-63975000D03*
X102775000Y-68475000D03*
D13*
X102775000Y-70950000D03*
D12*
X102775000Y-60975000D03*
X102775000Y-56475000D03*
X102775000Y-62475000D03*
D13*
%TO.N,Net-(D276-BK)*%
X102075000Y-70950000D03*
D12*
X102125000Y-61625000D03*
X102125000Y-66125000D03*
X102125000Y-54125000D03*
X102125000Y-64625000D03*
X102125000Y-60125000D03*
X102125000Y-55625000D03*
X102125000Y-67625000D03*
X102125000Y-69125000D03*
X102125000Y-57125000D03*
X102125000Y-63125000D03*
X102125000Y-58625000D03*
%TO.N,Net-(D276-GK)*%
X100975000Y-60125000D03*
D13*
X101050000Y-70500000D03*
D12*
X100975000Y-58625000D03*
X100975000Y-57125000D03*
X100975000Y-63125000D03*
X100975000Y-61625000D03*
X100975000Y-67625000D03*
X100975000Y-55625000D03*
X100975000Y-66125000D03*
X100975000Y-69125000D03*
X100975000Y-54125000D03*
X100975000Y-64625000D03*
%TO.N,Net-(D276-RK)*%
X101275000Y-63975000D03*
D13*
X101275000Y-70950000D03*
D12*
X101275000Y-66975000D03*
X101275000Y-68475000D03*
X101275000Y-57975000D03*
X101275000Y-59475000D03*
X101275000Y-56475000D03*
X101275000Y-60975000D03*
X101275000Y-65475000D03*
X101275000Y-69975000D03*
X101275000Y-62475000D03*
X101275000Y-54975000D03*
D13*
%TO.N,Net-(D275-A)*%
X107500000Y-71400000D03*
D12*
X107550000Y-54575000D03*
%TO.N,Net-(D274-A)*%
X106350000Y-56500000D03*
D13*
X106350000Y-70500000D03*
D12*
%TO.N,Net-(D273-A)*%
X106050000Y-57575000D03*
D13*
X106000000Y-71400000D03*
%TO.N,Net-(D272-A)*%
X104850000Y-70500000D03*
D12*
X104850000Y-59475000D03*
%TO.N,Net-(D271-A)*%
X104550000Y-60575000D03*
D13*
X104500000Y-71400000D03*
%TO.N,Net-(D270-A)*%
X103350000Y-70500000D03*
D12*
X103350000Y-62475000D03*
%TO.N,Net-(D269-A)*%
X103050000Y-63575000D03*
D13*
X103000000Y-71400000D03*
%TO.N,Net-(D268-A)*%
X101850000Y-70500000D03*
D12*
X101850000Y-65475000D03*
%TO.N,Net-(D267-A)*%
X101550000Y-66575000D03*
D13*
X101500000Y-71400000D03*
%TO.N,Net-(D266-A)*%
X100350000Y-70500000D03*
D12*
X100350000Y-68475000D03*
%TO.N,Net-(D265-BK)*%
X100625000Y-61625000D03*
X100625000Y-64625000D03*
D13*
X100575000Y-70950000D03*
D12*
X100625000Y-55625000D03*
X100625000Y-54125000D03*
X100625000Y-69125000D03*
X100625000Y-58625000D03*
X100625000Y-63125000D03*
X100625000Y-60125000D03*
X100625000Y-67625000D03*
X100625000Y-57125000D03*
X100625000Y-66125000D03*
%TO.N,Net-(D265-GK)*%
X99475000Y-55625000D03*
X99475000Y-64625000D03*
X99475000Y-57125000D03*
X99475000Y-54125000D03*
X99475000Y-61625000D03*
D13*
X99550000Y-70500000D03*
D12*
X99475000Y-69125000D03*
X99475000Y-58625000D03*
X99475000Y-63125000D03*
X99475000Y-60125000D03*
X99475000Y-66125000D03*
X99475000Y-67625000D03*
%TO.N,Net-(D265-RK)*%
X99775000Y-59475000D03*
X99775000Y-60975000D03*
X99775000Y-57975000D03*
X99775000Y-65475000D03*
X99775000Y-68475000D03*
X99775000Y-62475000D03*
X99775000Y-63975000D03*
X99775000Y-66975000D03*
X99775000Y-69975000D03*
D13*
X99775000Y-70950000D03*
D12*
X99775000Y-56475000D03*
X99775000Y-54975000D03*
%TO.N,Net-(D386-BK)*%
X117125000Y-64625000D03*
X117125000Y-55625000D03*
X117125000Y-67625000D03*
X117125000Y-60125000D03*
X117125000Y-69125000D03*
X117125000Y-61625000D03*
X117125000Y-66125000D03*
X117125000Y-54125000D03*
X117125000Y-58625000D03*
X117125000Y-63125000D03*
D13*
X117075000Y-70950000D03*
D12*
X117125000Y-57125000D03*
%TO.N,Net-(D386-GK)*%
X115975000Y-55625000D03*
D13*
X116050000Y-70500000D03*
D12*
X115975000Y-69125000D03*
X115975000Y-54125000D03*
X115975000Y-63125000D03*
X115975000Y-67625000D03*
X115975000Y-61625000D03*
X115975000Y-58625000D03*
X115975000Y-64625000D03*
X115975000Y-60125000D03*
X115975000Y-57125000D03*
X115975000Y-66125000D03*
D13*
%TO.N,Net-(D386-RK)*%
X116275000Y-70950000D03*
D12*
X116275000Y-56475000D03*
X116275000Y-63975000D03*
X116275000Y-68475000D03*
X116275000Y-60975000D03*
X116275000Y-62475000D03*
X116275000Y-66975000D03*
X116275000Y-57975000D03*
X116275000Y-54975000D03*
X116275000Y-59475000D03*
X116275000Y-69975000D03*
X116275000Y-65475000D03*
%TO.N,Net-(D375-BK)*%
X115625000Y-55625000D03*
X115625000Y-66125000D03*
X115625000Y-67625000D03*
X115625000Y-54125000D03*
X115625000Y-60125000D03*
X115625000Y-61625000D03*
X115625000Y-69125000D03*
X115625000Y-64625000D03*
X115625000Y-58625000D03*
X115625000Y-63125000D03*
X115625000Y-57125000D03*
D13*
X115575000Y-70950000D03*
D12*
%TO.N,Net-(D375-GK)*%
X114475000Y-67625000D03*
X114475000Y-54125000D03*
X114475000Y-61625000D03*
X114475000Y-64625000D03*
X114475000Y-55625000D03*
X114475000Y-69125000D03*
X114475000Y-57125000D03*
X114475000Y-60125000D03*
X114475000Y-58625000D03*
D13*
X114550000Y-70500000D03*
D12*
X114475000Y-63125000D03*
X114475000Y-66125000D03*
%TO.N,Net-(D375-RK)*%
X114775000Y-65475000D03*
X114775000Y-63975000D03*
X114775000Y-54975000D03*
X114775000Y-69975000D03*
X114775000Y-56475000D03*
X114775000Y-66975000D03*
X114775000Y-59475000D03*
X114775000Y-62475000D03*
X114775000Y-57975000D03*
X114775000Y-68475000D03*
D13*
X114775000Y-70950000D03*
D12*
X114775000Y-60975000D03*
%TO.N,Net-(D364-BK)*%
X114125000Y-58625000D03*
X114125000Y-67625000D03*
X114125000Y-66125000D03*
X114125000Y-69125000D03*
X114125000Y-61625000D03*
D13*
X114075000Y-70950000D03*
D12*
X114125000Y-64625000D03*
X114125000Y-63125000D03*
X114125000Y-54125000D03*
X114125000Y-55625000D03*
X114125000Y-60125000D03*
X114125000Y-57125000D03*
%TO.N,Net-(D364-GK)*%
X112975000Y-55625000D03*
X112975000Y-64625000D03*
X112975000Y-58625000D03*
X112975000Y-66125000D03*
X112975000Y-57125000D03*
D13*
X113050000Y-70500000D03*
D12*
X112975000Y-67625000D03*
X112975000Y-54125000D03*
X112975000Y-63125000D03*
X112975000Y-60125000D03*
X112975000Y-61625000D03*
X112975000Y-69125000D03*
D13*
%TO.N,Net-(D364-RK)*%
X113275000Y-70950000D03*
D12*
X113275000Y-54975000D03*
X113275000Y-65475000D03*
X113275000Y-69975000D03*
X113275000Y-57975000D03*
X113275000Y-63975000D03*
X113275000Y-68475000D03*
X113275000Y-60975000D03*
X113275000Y-62475000D03*
X113275000Y-59475000D03*
X113275000Y-56475000D03*
X113275000Y-66975000D03*
%TO.N,Net-(D353-BK)*%
X112625000Y-60125000D03*
X112625000Y-54125000D03*
X112625000Y-61625000D03*
X112625000Y-67625000D03*
X112625000Y-64625000D03*
X112625000Y-69125000D03*
X112625000Y-66125000D03*
X112625000Y-55625000D03*
X112625000Y-63125000D03*
X112625000Y-58625000D03*
X112625000Y-57125000D03*
D13*
X112575000Y-70950000D03*
D12*
%TO.N,Net-(D353-GK)*%
X111475000Y-66125000D03*
D13*
X111550000Y-70500000D03*
D12*
X111475000Y-63125000D03*
X111475000Y-57125000D03*
X111475000Y-64625000D03*
X111475000Y-60125000D03*
X111475000Y-58625000D03*
X111475000Y-55625000D03*
X111475000Y-54125000D03*
X111475000Y-61625000D03*
X111475000Y-67625000D03*
X111475000Y-69125000D03*
%TO.N,Net-(D353-RK)*%
X111775000Y-59475000D03*
X111775000Y-65475000D03*
X111775000Y-57975000D03*
X111775000Y-54975000D03*
X111775000Y-66975000D03*
X111775000Y-69975000D03*
X111775000Y-63975000D03*
X111775000Y-68475000D03*
D13*
X111775000Y-70950000D03*
D12*
X111775000Y-60975000D03*
X111775000Y-56475000D03*
X111775000Y-62475000D03*
D13*
%TO.N,Net-(D342-BK)*%
X111075000Y-70950000D03*
D12*
X111125000Y-61625000D03*
X111125000Y-66125000D03*
X111125000Y-54125000D03*
X111125000Y-64625000D03*
X111125000Y-60125000D03*
X111125000Y-55625000D03*
X111125000Y-67625000D03*
X111125000Y-69125000D03*
X111125000Y-57125000D03*
X111125000Y-63125000D03*
X111125000Y-58625000D03*
%TO.N,Net-(D342-GK)*%
X109975000Y-60125000D03*
D13*
X110050000Y-70500000D03*
D12*
X109975000Y-58625000D03*
X109975000Y-57125000D03*
X109975000Y-63125000D03*
X109975000Y-61625000D03*
X109975000Y-67625000D03*
X109975000Y-55625000D03*
X109975000Y-66125000D03*
X109975000Y-69125000D03*
X109975000Y-54125000D03*
X109975000Y-64625000D03*
%TO.N,Net-(D342-RK)*%
X110275000Y-63975000D03*
D13*
X110275000Y-70950000D03*
D12*
X110275000Y-66975000D03*
X110275000Y-68475000D03*
X110275000Y-57975000D03*
X110275000Y-59475000D03*
X110275000Y-56475000D03*
X110275000Y-60975000D03*
X110275000Y-65475000D03*
X110275000Y-69975000D03*
X110275000Y-62475000D03*
X110275000Y-54975000D03*
D13*
%TO.N,Net-(D341-A)*%
X116500000Y-71400000D03*
D12*
X116550000Y-54575000D03*
%TO.N,Net-(D340-A)*%
X115350000Y-56500000D03*
D13*
X115350000Y-70500000D03*
D12*
%TO.N,Net-(D339-A)*%
X115050000Y-57575000D03*
D13*
X115000000Y-71400000D03*
%TO.N,Net-(D338-A)*%
X113850000Y-70500000D03*
D12*
X113850000Y-59475000D03*
%TO.N,Net-(D337-A)*%
X113550000Y-60575000D03*
D13*
X113500000Y-71400000D03*
%TO.N,Net-(D336-A)*%
X112350000Y-70500000D03*
D12*
X112350000Y-62475000D03*
%TO.N,Net-(D335-A)*%
X112050000Y-63575000D03*
D13*
X112000000Y-71400000D03*
%TO.N,Net-(D334-A)*%
X110850000Y-70500000D03*
D12*
X110850000Y-65475000D03*
%TO.N,Net-(D333-A)*%
X110550000Y-66575000D03*
D13*
X110500000Y-71400000D03*
%TO.N,Net-(D332-A)*%
X109350000Y-70500000D03*
D12*
X109350000Y-68475000D03*
%TO.N,Net-(D331-BK)*%
X109625000Y-61625000D03*
X109625000Y-64625000D03*
D13*
X109575000Y-70950000D03*
D12*
X109625000Y-55625000D03*
X109625000Y-54125000D03*
X109625000Y-69125000D03*
X109625000Y-58625000D03*
X109625000Y-63125000D03*
X109625000Y-60125000D03*
X109625000Y-67625000D03*
X109625000Y-57125000D03*
X109625000Y-66125000D03*
%TO.N,Net-(D331-GK)*%
X108475000Y-55625000D03*
X108475000Y-64625000D03*
X108475000Y-57125000D03*
X108475000Y-54125000D03*
X108475000Y-61625000D03*
D13*
X108550000Y-70500000D03*
D12*
X108475000Y-69125000D03*
X108475000Y-58625000D03*
X108475000Y-63125000D03*
X108475000Y-60125000D03*
X108475000Y-66125000D03*
X108475000Y-67625000D03*
%TO.N,Net-(D331-RK)*%
X108775000Y-59475000D03*
X108775000Y-60975000D03*
X108775000Y-57975000D03*
X108775000Y-65475000D03*
X108775000Y-68475000D03*
X108775000Y-62475000D03*
X108775000Y-63975000D03*
X108775000Y-66975000D03*
X108775000Y-69975000D03*
D13*
X108775000Y-70950000D03*
D12*
X108775000Y-56475000D03*
X108775000Y-54975000D03*
%TO.N,Net-(D188-BK)*%
X108475000Y-42975000D03*
X108475000Y-51975000D03*
X108475000Y-39975000D03*
X108475000Y-47475000D03*
X108475000Y-38475000D03*
X108475000Y-45975000D03*
X108475000Y-41475000D03*
X108475000Y-53475000D03*
X108475000Y-48975000D03*
X108475000Y-44475000D03*
D13*
X108525000Y-36650000D03*
D12*
X108475000Y-50475000D03*
%TO.N,Net-(D188-GK)*%
X109625000Y-51975000D03*
D13*
X109550000Y-37100000D03*
D12*
X109625000Y-38475000D03*
X109625000Y-53475000D03*
X109625000Y-44475000D03*
X109625000Y-39975000D03*
X109625000Y-45975000D03*
X109625000Y-48975000D03*
X109625000Y-42975000D03*
X109625000Y-47475000D03*
X109625000Y-50475000D03*
X109625000Y-41475000D03*
D13*
%TO.N,Net-(D188-RK)*%
X109325000Y-36650000D03*
D12*
X109325000Y-51125000D03*
X109325000Y-43625000D03*
X109325000Y-39125000D03*
X109325000Y-46625000D03*
X109325000Y-45125000D03*
X109325000Y-40625000D03*
X109325000Y-49625000D03*
X109325000Y-52625000D03*
X109325000Y-48125000D03*
X109325000Y-37625000D03*
X109325000Y-42125000D03*
%TO.N,Net-(D177-BK)*%
X109975000Y-51975000D03*
X109975000Y-41475000D03*
X109975000Y-39975000D03*
X109975000Y-53475000D03*
X109975000Y-47475000D03*
X109975000Y-45975000D03*
X109975000Y-38475000D03*
X109975000Y-42975000D03*
X109975000Y-48975000D03*
X109975000Y-44475000D03*
X109975000Y-50475000D03*
D13*
X110025000Y-36650000D03*
D12*
%TO.N,Net-(D177-GK)*%
X111125000Y-39975000D03*
X111125000Y-53475000D03*
X111125000Y-45975000D03*
X111125000Y-42975000D03*
X111125000Y-51975000D03*
X111125000Y-38475000D03*
X111125000Y-50475000D03*
X111125000Y-47475000D03*
X111125000Y-48975000D03*
D13*
X111050000Y-37100000D03*
D12*
X111125000Y-44475000D03*
X111125000Y-41475000D03*
%TO.N,Net-(D177-RK)*%
X110825000Y-42125000D03*
X110825000Y-43625000D03*
X110825000Y-52625000D03*
X110825000Y-37625000D03*
X110825000Y-51125000D03*
X110825000Y-40625000D03*
X110825000Y-48125000D03*
X110825000Y-45125000D03*
X110825000Y-49625000D03*
X110825000Y-39125000D03*
D13*
X110825000Y-36650000D03*
D12*
X110825000Y-46625000D03*
%TO.N,Net-(D166-BK)*%
X111475000Y-48975000D03*
X111475000Y-39975000D03*
X111475000Y-41475000D03*
X111475000Y-38475000D03*
X111475000Y-45975000D03*
D13*
X111525000Y-36650000D03*
D12*
X111475000Y-42975000D03*
X111475000Y-44475000D03*
X111475000Y-53475000D03*
X111475000Y-51975000D03*
X111475000Y-47475000D03*
X111475000Y-50475000D03*
%TO.N,Net-(D166-GK)*%
X112625000Y-51975000D03*
X112625000Y-42975000D03*
X112625000Y-48975000D03*
X112625000Y-41475000D03*
X112625000Y-50475000D03*
D13*
X112550000Y-37100000D03*
D12*
X112625000Y-39975000D03*
X112625000Y-53475000D03*
X112625000Y-44475000D03*
X112625000Y-47475000D03*
X112625000Y-45975000D03*
X112625000Y-38475000D03*
D13*
%TO.N,Net-(D166-RK)*%
X112325000Y-36650000D03*
D12*
X112325000Y-52625000D03*
X112325000Y-42125000D03*
X112325000Y-37625000D03*
X112325000Y-49625000D03*
X112325000Y-43625000D03*
X112325000Y-39125000D03*
X112325000Y-46625000D03*
X112325000Y-45125000D03*
X112325000Y-48125000D03*
X112325000Y-51125000D03*
X112325000Y-40625000D03*
%TO.N,Net-(D155-BK)*%
X112975000Y-47475000D03*
X112975000Y-53475000D03*
X112975000Y-45975000D03*
X112975000Y-39975000D03*
X112975000Y-42975000D03*
X112975000Y-38475000D03*
X112975000Y-41475000D03*
X112975000Y-51975000D03*
X112975000Y-44475000D03*
X112975000Y-48975000D03*
X112975000Y-50475000D03*
D13*
X113025000Y-36650000D03*
D12*
%TO.N,Net-(D155-GK)*%
X114125000Y-41475000D03*
D13*
X114050000Y-37100000D03*
D12*
X114125000Y-44475000D03*
X114125000Y-50475000D03*
X114125000Y-42975000D03*
X114125000Y-47475000D03*
X114125000Y-48975000D03*
X114125000Y-51975000D03*
X114125000Y-53475000D03*
X114125000Y-45975000D03*
X114125000Y-39975000D03*
X114125000Y-38475000D03*
%TO.N,Net-(D155-RK)*%
X113825000Y-48125000D03*
X113825000Y-42125000D03*
X113825000Y-49625000D03*
X113825000Y-52625000D03*
X113825000Y-40625000D03*
X113825000Y-37625000D03*
X113825000Y-43625000D03*
X113825000Y-39125000D03*
D13*
X113825000Y-36650000D03*
D12*
X113825000Y-46625000D03*
X113825000Y-51125000D03*
X113825000Y-45125000D03*
D13*
%TO.N,Net-(D144-BK)*%
X114525000Y-36650000D03*
D12*
X114475000Y-45975000D03*
X114475000Y-41475000D03*
X114475000Y-53475000D03*
X114475000Y-42975000D03*
X114475000Y-47475000D03*
X114475000Y-51975000D03*
X114475000Y-39975000D03*
X114475000Y-38475000D03*
X114475000Y-50475000D03*
X114475000Y-44475000D03*
X114475000Y-48975000D03*
%TO.N,Net-(D144-GK)*%
X115625000Y-47475000D03*
D13*
X115550000Y-37100000D03*
D12*
X115625000Y-48975000D03*
X115625000Y-50475000D03*
X115625000Y-44475000D03*
X115625000Y-45975000D03*
X115625000Y-39975000D03*
X115625000Y-51975000D03*
X115625000Y-41475000D03*
X115625000Y-38475000D03*
X115625000Y-53475000D03*
X115625000Y-42975000D03*
%TO.N,Net-(D144-RK)*%
X115325000Y-43625000D03*
D13*
X115325000Y-36650000D03*
D12*
X115325000Y-40625000D03*
X115325000Y-39125000D03*
X115325000Y-49625000D03*
X115325000Y-48125000D03*
X115325000Y-51125000D03*
X115325000Y-46625000D03*
X115325000Y-42125000D03*
X115325000Y-37625000D03*
X115325000Y-45125000D03*
X115325000Y-52625000D03*
D13*
%TO.N,Net-(D143-A)*%
X109100000Y-36200000D03*
D12*
X109050000Y-53025000D03*
%TO.N,Net-(D142-A)*%
X110250000Y-51100000D03*
D13*
X110250000Y-37100000D03*
D12*
%TO.N,Net-(D141-A)*%
X110550000Y-50025000D03*
D13*
X110600000Y-36200000D03*
%TO.N,Net-(D140-A)*%
X111750000Y-37100000D03*
D12*
X111750000Y-48125000D03*
%TO.N,Net-(D139-A)*%
X112050000Y-47025000D03*
D13*
X112100000Y-36200000D03*
%TO.N,Net-(D138-A)*%
X113250000Y-37100000D03*
D12*
X113250000Y-45125000D03*
%TO.N,Net-(D137-A)*%
X113550000Y-44025000D03*
D13*
X113600000Y-36200000D03*
%TO.N,Net-(D136-A)*%
X114750000Y-37100000D03*
D12*
X114750000Y-42125000D03*
%TO.N,Net-(D135-A)*%
X115050000Y-41025000D03*
D13*
X115100000Y-36200000D03*
%TO.N,Net-(D134-A)*%
X116250000Y-37100000D03*
D12*
X116250000Y-39125000D03*
%TO.N,Net-(D133-BK)*%
X115975000Y-45975000D03*
X115975000Y-42975000D03*
D13*
X116025000Y-36650000D03*
D12*
X115975000Y-51975000D03*
X115975000Y-53475000D03*
X115975000Y-38475000D03*
X115975000Y-48975000D03*
X115975000Y-44475000D03*
X115975000Y-47475000D03*
X115975000Y-39975000D03*
X115975000Y-50475000D03*
X115975000Y-41475000D03*
%TO.N,Net-(D133-GK)*%
X117125000Y-51975000D03*
X117125000Y-42975000D03*
X117125000Y-50475000D03*
X117125000Y-53475000D03*
X117125000Y-45975000D03*
D13*
X117050000Y-37100000D03*
D12*
X117125000Y-38475000D03*
X117125000Y-48975000D03*
X117125000Y-44475000D03*
X117125000Y-47475000D03*
X117125000Y-41475000D03*
X117125000Y-39975000D03*
%TO.N,Net-(D133-RK)*%
X116825000Y-48125000D03*
X116825000Y-46625000D03*
X116825000Y-49625000D03*
X116825000Y-42125000D03*
X116825000Y-39125000D03*
X116825000Y-45125000D03*
X116825000Y-43625000D03*
X116825000Y-40625000D03*
X116825000Y-37625000D03*
D13*
X116825000Y-36650000D03*
D12*
X116825000Y-51125000D03*
X116825000Y-52625000D03*
%TO.N,Net-(D122-BK)*%
X99475000Y-42975000D03*
X99475000Y-51975000D03*
X99475000Y-39975000D03*
X99475000Y-47475000D03*
X99475000Y-38475000D03*
X99475000Y-45975000D03*
X99475000Y-41475000D03*
X99475000Y-53475000D03*
X99475000Y-48975000D03*
X99475000Y-44475000D03*
D13*
X99525000Y-36650000D03*
D12*
X99475000Y-50475000D03*
%TO.N,Net-(D122-GK)*%
X100625000Y-51975000D03*
D13*
X100550000Y-37100000D03*
D12*
X100625000Y-38475000D03*
X100625000Y-53475000D03*
X100625000Y-44475000D03*
X100625000Y-39975000D03*
X100625000Y-45975000D03*
X100625000Y-48975000D03*
X100625000Y-42975000D03*
X100625000Y-47475000D03*
X100625000Y-50475000D03*
X100625000Y-41475000D03*
D13*
%TO.N,Net-(D122-RK)*%
X100325000Y-36650000D03*
D12*
X100325000Y-51125000D03*
X100325000Y-43625000D03*
X100325000Y-39125000D03*
X100325000Y-46625000D03*
X100325000Y-45125000D03*
X100325000Y-40625000D03*
X100325000Y-49625000D03*
X100325000Y-52625000D03*
X100325000Y-48125000D03*
X100325000Y-37625000D03*
X100325000Y-42125000D03*
%TO.N,Net-(D111-BK)*%
X100975000Y-51975000D03*
X100975000Y-41475000D03*
X100975000Y-39975000D03*
X100975000Y-53475000D03*
X100975000Y-47475000D03*
X100975000Y-45975000D03*
X100975000Y-38475000D03*
X100975000Y-42975000D03*
X100975000Y-48975000D03*
X100975000Y-44475000D03*
X100975000Y-50475000D03*
D13*
X101025000Y-36650000D03*
D12*
%TO.N,Net-(D111-GK)*%
X102125000Y-39975000D03*
X102125000Y-53475000D03*
X102125000Y-45975000D03*
X102125000Y-42975000D03*
X102125000Y-51975000D03*
X102125000Y-38475000D03*
X102125000Y-50475000D03*
X102125000Y-47475000D03*
X102125000Y-48975000D03*
D13*
X102050000Y-37100000D03*
D12*
X102125000Y-44475000D03*
X102125000Y-41475000D03*
%TO.N,Net-(D111-RK)*%
X101825000Y-42125000D03*
X101825000Y-43625000D03*
X101825000Y-52625000D03*
X101825000Y-37625000D03*
X101825000Y-51125000D03*
X101825000Y-40625000D03*
X101825000Y-48125000D03*
X101825000Y-45125000D03*
X101825000Y-49625000D03*
X101825000Y-39125000D03*
D13*
X101825000Y-36650000D03*
D12*
X101825000Y-46625000D03*
%TO.N,Net-(D100-BK)*%
X102475000Y-48975000D03*
X102475000Y-39975000D03*
X102475000Y-41475000D03*
X102475000Y-38475000D03*
X102475000Y-45975000D03*
D13*
X102525000Y-36650000D03*
D12*
X102475000Y-42975000D03*
X102475000Y-44475000D03*
X102475000Y-53475000D03*
X102475000Y-51975000D03*
X102475000Y-47475000D03*
X102475000Y-50475000D03*
%TO.N,Net-(D100-GK)*%
X103625000Y-51975000D03*
X103625000Y-42975000D03*
X103625000Y-48975000D03*
X103625000Y-41475000D03*
X103625000Y-50475000D03*
D13*
X103550000Y-37100000D03*
D12*
X103625000Y-39975000D03*
X103625000Y-53475000D03*
X103625000Y-44475000D03*
X103625000Y-47475000D03*
X103625000Y-45975000D03*
X103625000Y-38475000D03*
D13*
%TO.N,Net-(D100-RK)*%
X103325000Y-36650000D03*
D12*
X103325000Y-52625000D03*
X103325000Y-42125000D03*
X103325000Y-37625000D03*
X103325000Y-49625000D03*
X103325000Y-43625000D03*
X103325000Y-39125000D03*
X103325000Y-46625000D03*
X103325000Y-45125000D03*
X103325000Y-48125000D03*
X103325000Y-51125000D03*
X103325000Y-40625000D03*
%TO.N,Net-(D89-BK)*%
X103975000Y-47475000D03*
X103975000Y-53475000D03*
X103975000Y-45975000D03*
X103975000Y-39975000D03*
X103975000Y-42975000D03*
X103975000Y-38475000D03*
X103975000Y-41475000D03*
X103975000Y-51975000D03*
X103975000Y-44475000D03*
X103975000Y-48975000D03*
X103975000Y-50475000D03*
D13*
X104025000Y-36650000D03*
D12*
%TO.N,Net-(D89-GK)*%
X105125000Y-41475000D03*
D13*
X105050000Y-37100000D03*
D12*
X105125000Y-44475000D03*
X105125000Y-50475000D03*
X105125000Y-42975000D03*
X105125000Y-47475000D03*
X105125000Y-48975000D03*
X105125000Y-51975000D03*
X105125000Y-53475000D03*
X105125000Y-45975000D03*
X105125000Y-39975000D03*
X105125000Y-38475000D03*
%TO.N,Net-(D89-RK)*%
X104825000Y-48125000D03*
X104825000Y-42125000D03*
X104825000Y-49625000D03*
X104825000Y-52625000D03*
X104825000Y-40625000D03*
X104825000Y-37625000D03*
X104825000Y-43625000D03*
X104825000Y-39125000D03*
D13*
X104825000Y-36650000D03*
D12*
X104825000Y-46625000D03*
X104825000Y-51125000D03*
X104825000Y-45125000D03*
D13*
%TO.N,Net-(D78-BK)*%
X105525000Y-36650000D03*
D12*
X105475000Y-45975000D03*
X105475000Y-41475000D03*
X105475000Y-53475000D03*
X105475000Y-42975000D03*
X105475000Y-47475000D03*
X105475000Y-51975000D03*
X105475000Y-39975000D03*
X105475000Y-38475000D03*
X105475000Y-50475000D03*
X105475000Y-44475000D03*
X105475000Y-48975000D03*
%TO.N,Net-(D78-GK)*%
X106625000Y-47475000D03*
D13*
X106550000Y-37100000D03*
D12*
X106625000Y-48975000D03*
X106625000Y-50475000D03*
X106625000Y-44475000D03*
X106625000Y-45975000D03*
X106625000Y-39975000D03*
X106625000Y-51975000D03*
X106625000Y-41475000D03*
X106625000Y-38475000D03*
X106625000Y-53475000D03*
X106625000Y-42975000D03*
%TO.N,Net-(D78-RK)*%
X106325000Y-43625000D03*
D13*
X106325000Y-36650000D03*
D12*
X106325000Y-40625000D03*
X106325000Y-39125000D03*
X106325000Y-49625000D03*
X106325000Y-48125000D03*
X106325000Y-51125000D03*
X106325000Y-46625000D03*
X106325000Y-42125000D03*
X106325000Y-37625000D03*
X106325000Y-45125000D03*
X106325000Y-52625000D03*
D13*
%TO.N,Net-(D110-A)*%
X100100000Y-36200000D03*
D12*
X100050000Y-53025000D03*
%TO.N,Net-(D109-A)*%
X101250000Y-51100000D03*
D13*
X101250000Y-37100000D03*
D12*
%TO.N,Net-(D108-A)*%
X101550000Y-50025000D03*
D13*
X101600000Y-36200000D03*
%TO.N,Net-(D107-A)*%
X102750000Y-37100000D03*
D12*
X102750000Y-48125000D03*
%TO.N,Net-(D106-A)*%
X103050000Y-47025000D03*
D13*
X103100000Y-36200000D03*
%TO.N,Net-(D105-A)*%
X104250000Y-37100000D03*
D12*
X104250000Y-45125000D03*
%TO.N,Net-(D104-A)*%
X104550000Y-44025000D03*
D13*
X104600000Y-36200000D03*
%TO.N,Net-(D103-A)*%
X105750000Y-37100000D03*
D12*
X105750000Y-42125000D03*
%TO.N,Net-(D102-A)*%
X106050000Y-41025000D03*
D13*
X106100000Y-36200000D03*
%TO.N,Net-(D101-A)*%
X107250000Y-37100000D03*
D12*
X107250000Y-39125000D03*
%TO.N,Net-(D67-BK)*%
X106975000Y-45975000D03*
X106975000Y-42975000D03*
D13*
X107025000Y-36650000D03*
D12*
X106975000Y-51975000D03*
X106975000Y-53475000D03*
X106975000Y-38475000D03*
X106975000Y-48975000D03*
X106975000Y-44475000D03*
X106975000Y-47475000D03*
X106975000Y-39975000D03*
X106975000Y-50475000D03*
X106975000Y-41475000D03*
%TO.N,Net-(D67-GK)*%
X108125000Y-51975000D03*
X108125000Y-42975000D03*
X108125000Y-50475000D03*
X108125000Y-53475000D03*
X108125000Y-45975000D03*
D13*
X108050000Y-37100000D03*
D12*
X108125000Y-38475000D03*
X108125000Y-48975000D03*
X108125000Y-44475000D03*
X108125000Y-47475000D03*
X108125000Y-41475000D03*
X108125000Y-39975000D03*
%TO.N,Net-(D67-RK)*%
X107825000Y-48125000D03*
X107825000Y-46625000D03*
X107825000Y-49625000D03*
X107825000Y-42125000D03*
X107825000Y-39125000D03*
X107825000Y-45125000D03*
X107825000Y-43625000D03*
X107825000Y-40625000D03*
X107825000Y-37625000D03*
D13*
X107825000Y-36650000D03*
D12*
X107825000Y-51125000D03*
X107825000Y-52625000D03*
%TO.N,Net-(D1-RK)*%
X98825000Y-52625000D03*
X98825000Y-51125000D03*
D13*
X98825000Y-36650000D03*
D12*
X98825000Y-37625000D03*
X98825000Y-40625000D03*
X98825000Y-43625000D03*
X98825000Y-45125000D03*
X98825000Y-39125000D03*
X98825000Y-42125000D03*
X98825000Y-49625000D03*
X98825000Y-46625000D03*
X98825000Y-48125000D03*
%TO.N,Net-(D1-GK)*%
X99125000Y-39975000D03*
X99125000Y-41475000D03*
X99125000Y-47475000D03*
X99125000Y-44475000D03*
X99125000Y-48975000D03*
X99125000Y-38475000D03*
D13*
X99050000Y-37100000D03*
D12*
X99125000Y-45975000D03*
X99125000Y-53475000D03*
X99125000Y-50475000D03*
X99125000Y-42975000D03*
X99125000Y-51975000D03*
%TO.N,Net-(D1-BK)*%
X97975000Y-41475000D03*
X97975000Y-50475000D03*
X97975000Y-39975000D03*
X97975000Y-47475000D03*
X97975000Y-44475000D03*
X97975000Y-48975000D03*
X97975000Y-38475000D03*
X97975000Y-53475000D03*
X97975000Y-51975000D03*
D13*
X98025000Y-36650000D03*
D12*
X97975000Y-42975000D03*
X97975000Y-45975000D03*
%TO.N,Net-(D13-A)*%
X98250000Y-39125000D03*
D13*
X98250000Y-37100000D03*
%TO.N,Net-(D14-A)*%
X97100000Y-36200000D03*
D12*
X97050000Y-41025000D03*
%TO.N,Net-(D15-A)*%
X96750000Y-42125000D03*
D13*
X96750000Y-37100000D03*
%TO.N,Net-(D16-A)*%
X95600000Y-36200000D03*
D12*
X95550000Y-44025000D03*
%TO.N,Net-(D17-A)*%
X95250000Y-45125000D03*
D13*
X95250000Y-37100000D03*
%TO.N,Net-(D18-A)*%
X94100000Y-36200000D03*
D12*
X94050000Y-47025000D03*
%TO.N,Net-(D19-A)*%
X93750000Y-48125000D03*
D13*
X93750000Y-37100000D03*
%TO.N,Net-(D20-A)*%
X92600000Y-36200000D03*
D12*
X92550000Y-50025000D03*
D13*
%TO.N,Net-(D10-A)*%
X92250000Y-37100000D03*
D12*
X92250000Y-51100000D03*
%TO.N,Net-(D11-A)*%
X91050000Y-53025000D03*
D13*
X91100000Y-36200000D03*
D12*
%TO.N,Net-(D12-RK)*%
X97325000Y-52625000D03*
X97325000Y-45125000D03*
X97325000Y-37625000D03*
X97325000Y-42125000D03*
X97325000Y-46625000D03*
X97325000Y-51125000D03*
X97325000Y-48125000D03*
X97325000Y-49625000D03*
X97325000Y-39125000D03*
X97325000Y-40625000D03*
D13*
X97325000Y-36650000D03*
D12*
X97325000Y-43625000D03*
%TO.N,Net-(D12-GK)*%
X97625000Y-42975000D03*
X97625000Y-53475000D03*
X97625000Y-38475000D03*
X97625000Y-41475000D03*
X97625000Y-51975000D03*
X97625000Y-39975000D03*
X97625000Y-45975000D03*
X97625000Y-44475000D03*
X97625000Y-50475000D03*
X97625000Y-48975000D03*
D13*
X97550000Y-37100000D03*
D12*
X97625000Y-47475000D03*
%TO.N,Net-(D12-BK)*%
X96475000Y-48975000D03*
X96475000Y-44475000D03*
X96475000Y-50475000D03*
X96475000Y-38475000D03*
X96475000Y-39975000D03*
X96475000Y-51975000D03*
X96475000Y-47475000D03*
X96475000Y-42975000D03*
X96475000Y-53475000D03*
X96475000Y-41475000D03*
X96475000Y-45975000D03*
D13*
X96525000Y-36650000D03*
D12*
%TO.N,Net-(D23-RK)*%
X95825000Y-45125000D03*
X95825000Y-51125000D03*
X95825000Y-46625000D03*
D13*
X95825000Y-36650000D03*
D12*
X95825000Y-39125000D03*
X95825000Y-43625000D03*
X95825000Y-37625000D03*
X95825000Y-40625000D03*
X95825000Y-52625000D03*
X95825000Y-49625000D03*
X95825000Y-42125000D03*
X95825000Y-48125000D03*
%TO.N,Net-(D23-GK)*%
X96125000Y-38475000D03*
X96125000Y-39975000D03*
X96125000Y-45975000D03*
X96125000Y-53475000D03*
X96125000Y-51975000D03*
X96125000Y-48975000D03*
X96125000Y-47475000D03*
X96125000Y-42975000D03*
X96125000Y-50475000D03*
X96125000Y-44475000D03*
D13*
X96050000Y-37100000D03*
D12*
X96125000Y-41475000D03*
D13*
%TO.N,Net-(D23-BK)*%
X95025000Y-36650000D03*
D12*
X94975000Y-50475000D03*
X94975000Y-48975000D03*
X94975000Y-44475000D03*
X94975000Y-51975000D03*
X94975000Y-41475000D03*
X94975000Y-38475000D03*
X94975000Y-42975000D03*
X94975000Y-39975000D03*
X94975000Y-45975000D03*
X94975000Y-53475000D03*
X94975000Y-47475000D03*
%TO.N,Net-(D34-RK)*%
X94325000Y-40625000D03*
X94325000Y-51125000D03*
X94325000Y-48125000D03*
X94325000Y-45125000D03*
X94325000Y-46625000D03*
X94325000Y-39125000D03*
X94325000Y-43625000D03*
X94325000Y-49625000D03*
X94325000Y-37625000D03*
X94325000Y-42125000D03*
X94325000Y-52625000D03*
D13*
X94325000Y-36650000D03*
D12*
%TO.N,Net-(D34-GK)*%
X94625000Y-38475000D03*
X94625000Y-45975000D03*
X94625000Y-47475000D03*
X94625000Y-44475000D03*
X94625000Y-53475000D03*
X94625000Y-39975000D03*
D13*
X94550000Y-37100000D03*
D12*
X94625000Y-50475000D03*
X94625000Y-41475000D03*
X94625000Y-48975000D03*
X94625000Y-42975000D03*
X94625000Y-51975000D03*
%TO.N,Net-(D34-BK)*%
X93475000Y-50475000D03*
X93475000Y-47475000D03*
X93475000Y-51975000D03*
X93475000Y-53475000D03*
X93475000Y-44475000D03*
X93475000Y-42975000D03*
D13*
X93525000Y-36650000D03*
D12*
X93475000Y-45975000D03*
X93475000Y-38475000D03*
X93475000Y-41475000D03*
X93475000Y-39975000D03*
X93475000Y-48975000D03*
%TO.N,Net-(D45-RK)*%
X92825000Y-46625000D03*
D13*
X92825000Y-36650000D03*
D12*
X92825000Y-39125000D03*
X92825000Y-49625000D03*
X92825000Y-45125000D03*
X92825000Y-48125000D03*
X92825000Y-40625000D03*
X92825000Y-51125000D03*
X92825000Y-37625000D03*
X92825000Y-52625000D03*
X92825000Y-43625000D03*
X92825000Y-42125000D03*
%TO.N,Net-(D45-GK)*%
X93125000Y-41475000D03*
X93125000Y-44475000D03*
D13*
X93050000Y-37100000D03*
D12*
X93125000Y-48975000D03*
X93125000Y-47475000D03*
X93125000Y-50475000D03*
X93125000Y-38475000D03*
X93125000Y-51975000D03*
X93125000Y-42975000D03*
X93125000Y-45975000D03*
X93125000Y-53475000D03*
X93125000Y-39975000D03*
D13*
%TO.N,Net-(D45-BK)*%
X92025000Y-36650000D03*
D12*
X91975000Y-50475000D03*
X91975000Y-44475000D03*
X91975000Y-48975000D03*
X91975000Y-42975000D03*
X91975000Y-38475000D03*
X91975000Y-45975000D03*
X91975000Y-47475000D03*
X91975000Y-53475000D03*
X91975000Y-39975000D03*
X91975000Y-41475000D03*
X91975000Y-51975000D03*
%TO.N,Net-(D56-RK)*%
X91325000Y-42125000D03*
X91325000Y-37625000D03*
X91325000Y-48125000D03*
X91325000Y-52625000D03*
X91325000Y-49625000D03*
X91325000Y-40625000D03*
X91325000Y-45125000D03*
X91325000Y-46625000D03*
X91325000Y-39125000D03*
X91325000Y-43625000D03*
X91325000Y-51125000D03*
D13*
X91325000Y-36650000D03*
D12*
%TO.N,Net-(D56-GK)*%
X91625000Y-41475000D03*
X91625000Y-50475000D03*
X91625000Y-47475000D03*
X91625000Y-42975000D03*
X91625000Y-48975000D03*
X91625000Y-45975000D03*
X91625000Y-39975000D03*
X91625000Y-44475000D03*
X91625000Y-53475000D03*
X91625000Y-38475000D03*
D13*
X91550000Y-37100000D03*
D12*
X91625000Y-51975000D03*
%TO.N,Net-(D56-BK)*%
X90475000Y-50475000D03*
D13*
X90525000Y-36650000D03*
D12*
X90475000Y-44475000D03*
X90475000Y-48975000D03*
X90475000Y-53475000D03*
X90475000Y-41475000D03*
X90475000Y-45975000D03*
X90475000Y-38475000D03*
X90475000Y-47475000D03*
X90475000Y-39975000D03*
X90475000Y-51975000D03*
X90475000Y-42975000D03*
%TD*%
D14*
%TO.N,Net-(D209-A)*%
X94073800Y-54573800D02*
X93376200Y-54573800D01*
X96376200Y-54573800D02*
X95975000Y-54975000D01*
X92573800Y-54573800D02*
X91876200Y-54573800D01*
X95975000Y-54975000D02*
X95573800Y-54573800D01*
X93376200Y-54573800D02*
X92975000Y-54975000D01*
X92975000Y-54975000D02*
X92573800Y-54573800D01*
X94876200Y-54573800D02*
X94475000Y-54975000D01*
X97073800Y-54573800D02*
X96376200Y-54573800D01*
X94475000Y-54975000D02*
X94073800Y-54573800D01*
X97876200Y-54573800D02*
X97475000Y-54975000D01*
X98573800Y-54573800D02*
X97876200Y-54573800D01*
X91876200Y-54573800D02*
X91475000Y-54975000D01*
X97475000Y-54975000D02*
X97073800Y-54573800D01*
X98975000Y-54975000D02*
X98573800Y-54573800D01*
X95573800Y-54573800D02*
X94876200Y-54573800D01*
%TO.N,Net-(D208-A)*%
X94475000Y-56475000D02*
X94073800Y-56073800D01*
X97876200Y-56073800D02*
X97475000Y-56475000D01*
X94073800Y-56073800D02*
X93376200Y-56073800D01*
X95975000Y-56475000D02*
X95573800Y-56073800D01*
X95573800Y-56073800D02*
X94876200Y-56073800D01*
X98975000Y-56475000D02*
X98573800Y-56073800D01*
X97073800Y-56073800D02*
X96376200Y-56073800D01*
X92573800Y-56073800D02*
X91876200Y-56073800D01*
X94876200Y-56073800D02*
X94475000Y-56475000D01*
X98573800Y-56073800D02*
X97876200Y-56073800D01*
X92975000Y-56475000D02*
X92573800Y-56073800D01*
X97475000Y-56475000D02*
X97073800Y-56073800D01*
X96376200Y-56073800D02*
X95975000Y-56475000D01*
X93376200Y-56073800D02*
X92975000Y-56475000D01*
X91876200Y-56073800D02*
X91475000Y-56475000D01*
%TO.N,Net-(D207-A)*%
X98573800Y-57573800D02*
X97876200Y-57573800D01*
X95573800Y-57573800D02*
X94876200Y-57573800D01*
X96376200Y-57573800D02*
X95975000Y-57975000D01*
X98975000Y-57975000D02*
X98573800Y-57573800D01*
X94475000Y-57975000D02*
X94073800Y-57573800D01*
X93376200Y-57573800D02*
X92975000Y-57975000D01*
X92573800Y-57573800D02*
X91876200Y-57573800D01*
X97073800Y-57573800D02*
X96376200Y-57573800D01*
X95975000Y-57975000D02*
X95573800Y-57573800D01*
X97475000Y-57975000D02*
X97073800Y-57573800D01*
X94876200Y-57573800D02*
X94475000Y-57975000D01*
X94073800Y-57573800D02*
X93376200Y-57573800D01*
X91876200Y-57573800D02*
X91475000Y-57975000D01*
X92975000Y-57975000D02*
X92573800Y-57573800D01*
X97876200Y-57573800D02*
X97475000Y-57975000D01*
%TO.N,Net-(D206-A)*%
X97073800Y-59073800D02*
X96376200Y-59073800D01*
X93376200Y-59073800D02*
X92975000Y-59475000D01*
X95573800Y-59073800D02*
X94876200Y-59073800D01*
X97475000Y-59475000D02*
X97073800Y-59073800D01*
X94475000Y-59475000D02*
X94073800Y-59073800D01*
X94876200Y-59073800D02*
X94475000Y-59475000D01*
X98975000Y-59475000D02*
X98573800Y-59073800D01*
X98573800Y-59073800D02*
X97876200Y-59073800D01*
X92573800Y-59073800D02*
X91876200Y-59073800D01*
X92975000Y-59475000D02*
X92573800Y-59073800D01*
X91876200Y-59073800D02*
X91475000Y-59475000D01*
X96376200Y-59073800D02*
X95975000Y-59475000D01*
X94073800Y-59073800D02*
X93376200Y-59073800D01*
X95975000Y-59475000D02*
X95573800Y-59073800D01*
X97876200Y-59073800D02*
X97475000Y-59475000D01*
%TO.N,Net-(D205-A)*%
X94876200Y-60573800D02*
X94475000Y-60975000D01*
X97475000Y-60975000D02*
X97073800Y-60573800D01*
X97073800Y-60573800D02*
X96376200Y-60573800D01*
X98573800Y-60573800D02*
X97876200Y-60573800D01*
X92573800Y-60573800D02*
X91876200Y-60573800D01*
X95573800Y-60573800D02*
X94876200Y-60573800D01*
X98975000Y-60975000D02*
X98573800Y-60573800D01*
X91876200Y-60573800D02*
X91475000Y-60975000D01*
X93376200Y-60573800D02*
X92975000Y-60975000D01*
X94475000Y-60975000D02*
X94073800Y-60573800D01*
X94073800Y-60573800D02*
X93376200Y-60573800D01*
X92975000Y-60975000D02*
X92573800Y-60573800D01*
X96376200Y-60573800D02*
X95975000Y-60975000D01*
X95975000Y-60975000D02*
X95573800Y-60573800D01*
X97876200Y-60573800D02*
X97475000Y-60975000D01*
%TO.N,Net-(D204-A)*%
X97073800Y-62073800D02*
X96376200Y-62073800D01*
X97876200Y-62073800D02*
X97475000Y-62475000D01*
X94475000Y-62475000D02*
X94073800Y-62073800D01*
X93376200Y-62073800D02*
X92975000Y-62475000D01*
X91876200Y-62073800D02*
X91475000Y-62475000D01*
X98573800Y-62073800D02*
X97876200Y-62073800D01*
X98975000Y-62475000D02*
X98573800Y-62073800D01*
X95573800Y-62073800D02*
X94876200Y-62073800D01*
X94073800Y-62073800D02*
X93376200Y-62073800D01*
X97475000Y-62475000D02*
X97073800Y-62073800D01*
X94876200Y-62073800D02*
X94475000Y-62475000D01*
X96376200Y-62073800D02*
X95975000Y-62475000D01*
X92975000Y-62475000D02*
X92573800Y-62073800D01*
X95975000Y-62475000D02*
X95573800Y-62073800D01*
X92573800Y-62073800D02*
X91876200Y-62073800D01*
%TO.N,Net-(D203-A)*%
X92975000Y-63975000D02*
X92573800Y-63573800D01*
X96376200Y-63573800D02*
X95975000Y-63975000D01*
X94876200Y-63573800D02*
X94475000Y-63975000D01*
X97876200Y-63573800D02*
X97475000Y-63975000D01*
X95573800Y-63573800D02*
X94876200Y-63573800D01*
X97475000Y-63975000D02*
X97073800Y-63573800D01*
X95975000Y-63975000D02*
X95573800Y-63573800D01*
X94073800Y-63573800D02*
X93376200Y-63573800D01*
X92573800Y-63573800D02*
X91876200Y-63573800D01*
X98975000Y-63975000D02*
X98573800Y-63573800D01*
X91876200Y-63573800D02*
X91475000Y-63975000D01*
X93376200Y-63573800D02*
X92975000Y-63975000D01*
X98573800Y-63573800D02*
X97876200Y-63573800D01*
X97073800Y-63573800D02*
X96376200Y-63573800D01*
X94475000Y-63975000D02*
X94073800Y-63573800D01*
%TO.N,Net-(D202-A)*%
X98975000Y-65475000D02*
X98573800Y-65073800D01*
X97876200Y-65073800D02*
X97475000Y-65475000D01*
X96400000Y-65050000D02*
X95975000Y-65475000D01*
X95975000Y-65475000D02*
X95573800Y-65073800D01*
X98573800Y-65073800D02*
X97876200Y-65073800D01*
X94475000Y-65475000D02*
X94073800Y-65073800D01*
X92975000Y-65475000D02*
X92573800Y-65073800D01*
X94876200Y-65073800D02*
X94475000Y-65475000D01*
X94073800Y-65073800D02*
X93376200Y-65073800D01*
X97050000Y-65050000D02*
X96400000Y-65050000D01*
X91876200Y-65073800D02*
X91475000Y-65475000D01*
X93376200Y-65073800D02*
X92975000Y-65475000D01*
X95573800Y-65073800D02*
X94876200Y-65073800D01*
X92573800Y-65073800D02*
X91876200Y-65073800D01*
X97475000Y-65475000D02*
X97050000Y-65050000D01*
%TO.N,Net-(D201-A)*%
X97475000Y-66975000D02*
X97073800Y-66573800D01*
X91876200Y-66573800D02*
X91475000Y-66975000D01*
X98573800Y-66573800D02*
X97876200Y-66573800D01*
X95573800Y-66573800D02*
X94876200Y-66573800D01*
X95975000Y-66975000D02*
X95573800Y-66573800D01*
X94876200Y-66573800D02*
X94475000Y-66975000D01*
X94073800Y-66573800D02*
X93376200Y-66573800D01*
X97876200Y-66573800D02*
X97475000Y-66975000D01*
X93376200Y-66573800D02*
X92975000Y-66975000D01*
X94475000Y-66975000D02*
X94073800Y-66573800D01*
X92975000Y-66975000D02*
X92573800Y-66573800D01*
X92573800Y-66573800D02*
X91876200Y-66573800D01*
X97073800Y-66573800D02*
X96376200Y-66573800D01*
X98975000Y-66975000D02*
X98573800Y-66573800D01*
X96376200Y-66573800D02*
X95975000Y-66975000D01*
%TO.N,Net-(D200-A)*%
X93376200Y-68073800D02*
X92975000Y-68475000D01*
X95573800Y-68073800D02*
X94876200Y-68073800D01*
X98573800Y-68073800D02*
X97876200Y-68073800D01*
X92573800Y-68073800D02*
X91876200Y-68073800D01*
X97073800Y-68073800D02*
X96376200Y-68073800D01*
X94073800Y-68073800D02*
X93376200Y-68073800D01*
X94475000Y-68475000D02*
X94073800Y-68073800D01*
X94876200Y-68073800D02*
X94475000Y-68475000D01*
X97475000Y-68475000D02*
X97073800Y-68073800D01*
X96376200Y-68073800D02*
X95975000Y-68475000D01*
X95975000Y-68475000D02*
X95573800Y-68073800D01*
X91876200Y-68073800D02*
X91475000Y-68475000D01*
X97876200Y-68073800D02*
X97475000Y-68475000D01*
X92975000Y-68475000D02*
X92573800Y-68073800D01*
X98975000Y-68475000D02*
X98573800Y-68073800D01*
%TO.N,Net-(D199-A)*%
X95975000Y-69975000D02*
X95573800Y-69573800D01*
X93376200Y-69573800D02*
X92975000Y-69975000D01*
X98573800Y-69573800D02*
X97876200Y-69573800D01*
X97475000Y-69975000D02*
X97073800Y-69573800D01*
X94475000Y-69975000D02*
X94073800Y-69573800D01*
X96376200Y-69573800D02*
X95975000Y-69975000D01*
X95573800Y-69573800D02*
X94876200Y-69573800D01*
X97876200Y-69573800D02*
X97475000Y-69975000D01*
X92573800Y-69573800D02*
X91876200Y-69573800D01*
X94876200Y-69573800D02*
X94475000Y-69975000D01*
X94073800Y-69573800D02*
X93376200Y-69573800D01*
X97073800Y-69573800D02*
X96376200Y-69573800D01*
X91876200Y-69573800D02*
X91475000Y-69975000D01*
X92975000Y-69975000D02*
X92573800Y-69573800D01*
X98975000Y-69975000D02*
X98573800Y-69573800D01*
%TO.N,Net-(D275-A)*%
X103073800Y-54573800D02*
X102376200Y-54573800D01*
X105376200Y-54573800D02*
X104975000Y-54975000D01*
X101573800Y-54573800D02*
X100876200Y-54573800D01*
X104975000Y-54975000D02*
X104573800Y-54573800D01*
X102376200Y-54573800D02*
X101975000Y-54975000D01*
X101975000Y-54975000D02*
X101573800Y-54573800D01*
X103876200Y-54573800D02*
X103475000Y-54975000D01*
X106073800Y-54573800D02*
X105376200Y-54573800D01*
X103475000Y-54975000D02*
X103073800Y-54573800D01*
X106876200Y-54573800D02*
X106475000Y-54975000D01*
X107573800Y-54573800D02*
X106876200Y-54573800D01*
X100876200Y-54573800D02*
X100475000Y-54975000D01*
X106475000Y-54975000D02*
X106073800Y-54573800D01*
X107975000Y-54975000D02*
X107573800Y-54573800D01*
X104573800Y-54573800D02*
X103876200Y-54573800D01*
%TO.N,Net-(D274-A)*%
X103475000Y-56475000D02*
X103073800Y-56073800D01*
X106876200Y-56073800D02*
X106475000Y-56475000D01*
X103073800Y-56073800D02*
X102376200Y-56073800D01*
X104975000Y-56475000D02*
X104573800Y-56073800D01*
X104573800Y-56073800D02*
X103876200Y-56073800D01*
X107975000Y-56475000D02*
X107573800Y-56073800D01*
X106073800Y-56073800D02*
X105376200Y-56073800D01*
X101573800Y-56073800D02*
X100876200Y-56073800D01*
X103876200Y-56073800D02*
X103475000Y-56475000D01*
X107573800Y-56073800D02*
X106876200Y-56073800D01*
X101975000Y-56475000D02*
X101573800Y-56073800D01*
X106475000Y-56475000D02*
X106073800Y-56073800D01*
X105376200Y-56073800D02*
X104975000Y-56475000D01*
X102376200Y-56073800D02*
X101975000Y-56475000D01*
X100876200Y-56073800D02*
X100475000Y-56475000D01*
%TO.N,Net-(D273-A)*%
X107573800Y-57573800D02*
X106876200Y-57573800D01*
X104573800Y-57573800D02*
X103876200Y-57573800D01*
X105376200Y-57573800D02*
X104975000Y-57975000D01*
X107975000Y-57975000D02*
X107573800Y-57573800D01*
X103475000Y-57975000D02*
X103073800Y-57573800D01*
X102376200Y-57573800D02*
X101975000Y-57975000D01*
X101573800Y-57573800D02*
X100876200Y-57573800D01*
X106073800Y-57573800D02*
X105376200Y-57573800D01*
X104975000Y-57975000D02*
X104573800Y-57573800D01*
X106475000Y-57975000D02*
X106073800Y-57573800D01*
X103876200Y-57573800D02*
X103475000Y-57975000D01*
X103073800Y-57573800D02*
X102376200Y-57573800D01*
X100876200Y-57573800D02*
X100475000Y-57975000D01*
X101975000Y-57975000D02*
X101573800Y-57573800D01*
X106876200Y-57573800D02*
X106475000Y-57975000D01*
%TO.N,Net-(D272-A)*%
X106073800Y-59073800D02*
X105376200Y-59073800D01*
X102376200Y-59073800D02*
X101975000Y-59475000D01*
X104573800Y-59073800D02*
X103876200Y-59073800D01*
X106475000Y-59475000D02*
X106073800Y-59073800D01*
X103475000Y-59475000D02*
X103073800Y-59073800D01*
X103876200Y-59073800D02*
X103475000Y-59475000D01*
X107975000Y-59475000D02*
X107573800Y-59073800D01*
X107573800Y-59073800D02*
X106876200Y-59073800D01*
X101573800Y-59073800D02*
X100876200Y-59073800D01*
X101975000Y-59475000D02*
X101573800Y-59073800D01*
X100876200Y-59073800D02*
X100475000Y-59475000D01*
X105376200Y-59073800D02*
X104975000Y-59475000D01*
X103073800Y-59073800D02*
X102376200Y-59073800D01*
X104975000Y-59475000D02*
X104573800Y-59073800D01*
X106876200Y-59073800D02*
X106475000Y-59475000D01*
%TO.N,Net-(D271-A)*%
X103876200Y-60573800D02*
X103475000Y-60975000D01*
X106475000Y-60975000D02*
X106073800Y-60573800D01*
X106073800Y-60573800D02*
X105376200Y-60573800D01*
X107573800Y-60573800D02*
X106876200Y-60573800D01*
X101573800Y-60573800D02*
X100876200Y-60573800D01*
X104573800Y-60573800D02*
X103876200Y-60573800D01*
X107975000Y-60975000D02*
X107573800Y-60573800D01*
X100876200Y-60573800D02*
X100475000Y-60975000D01*
X102376200Y-60573800D02*
X101975000Y-60975000D01*
X103475000Y-60975000D02*
X103073800Y-60573800D01*
X103073800Y-60573800D02*
X102376200Y-60573800D01*
X101975000Y-60975000D02*
X101573800Y-60573800D01*
X105376200Y-60573800D02*
X104975000Y-60975000D01*
X104975000Y-60975000D02*
X104573800Y-60573800D01*
X106876200Y-60573800D02*
X106475000Y-60975000D01*
%TO.N,Net-(D270-A)*%
X106073800Y-62073800D02*
X105376200Y-62073800D01*
X106876200Y-62073800D02*
X106475000Y-62475000D01*
X103475000Y-62475000D02*
X103073800Y-62073800D01*
X102376200Y-62073800D02*
X101975000Y-62475000D01*
X100876200Y-62073800D02*
X100475000Y-62475000D01*
X107573800Y-62073800D02*
X106876200Y-62073800D01*
X107975000Y-62475000D02*
X107573800Y-62073800D01*
X104573800Y-62073800D02*
X103876200Y-62073800D01*
X103073800Y-62073800D02*
X102376200Y-62073800D01*
X106475000Y-62475000D02*
X106073800Y-62073800D01*
X103876200Y-62073800D02*
X103475000Y-62475000D01*
X105376200Y-62073800D02*
X104975000Y-62475000D01*
X101975000Y-62475000D02*
X101573800Y-62073800D01*
X104975000Y-62475000D02*
X104573800Y-62073800D01*
X101573800Y-62073800D02*
X100876200Y-62073800D01*
%TO.N,Net-(D269-A)*%
X101975000Y-63975000D02*
X101573800Y-63573800D01*
X105376200Y-63573800D02*
X104975000Y-63975000D01*
X103876200Y-63573800D02*
X103475000Y-63975000D01*
X106876200Y-63573800D02*
X106475000Y-63975000D01*
X104573800Y-63573800D02*
X103876200Y-63573800D01*
X106475000Y-63975000D02*
X106073800Y-63573800D01*
X104975000Y-63975000D02*
X104573800Y-63573800D01*
X103073800Y-63573800D02*
X102376200Y-63573800D01*
X101573800Y-63573800D02*
X100876200Y-63573800D01*
X107975000Y-63975000D02*
X107573800Y-63573800D01*
X100876200Y-63573800D02*
X100475000Y-63975000D01*
X102376200Y-63573800D02*
X101975000Y-63975000D01*
X107573800Y-63573800D02*
X106876200Y-63573800D01*
X106073800Y-63573800D02*
X105376200Y-63573800D01*
X103475000Y-63975000D02*
X103073800Y-63573800D01*
%TO.N,Net-(D268-A)*%
X107975000Y-65475000D02*
X107573800Y-65073800D01*
X106876200Y-65073800D02*
X106475000Y-65475000D01*
X105400000Y-65050000D02*
X104975000Y-65475000D01*
X104975000Y-65475000D02*
X104573800Y-65073800D01*
X107573800Y-65073800D02*
X106876200Y-65073800D01*
X103475000Y-65475000D02*
X103073800Y-65073800D01*
X101975000Y-65475000D02*
X101573800Y-65073800D01*
X103876200Y-65073800D02*
X103475000Y-65475000D01*
X103073800Y-65073800D02*
X102376200Y-65073800D01*
X106050000Y-65050000D02*
X105400000Y-65050000D01*
X100876200Y-65073800D02*
X100475000Y-65475000D01*
X102376200Y-65073800D02*
X101975000Y-65475000D01*
X104573800Y-65073800D02*
X103876200Y-65073800D01*
X101573800Y-65073800D02*
X100876200Y-65073800D01*
X106475000Y-65475000D02*
X106050000Y-65050000D01*
%TO.N,Net-(D267-A)*%
X106475000Y-66975000D02*
X106073800Y-66573800D01*
X100876200Y-66573800D02*
X100475000Y-66975000D01*
X107573800Y-66573800D02*
X106876200Y-66573800D01*
X104573800Y-66573800D02*
X103876200Y-66573800D01*
X104975000Y-66975000D02*
X104573800Y-66573800D01*
X103876200Y-66573800D02*
X103475000Y-66975000D01*
X103073800Y-66573800D02*
X102376200Y-66573800D01*
X106876200Y-66573800D02*
X106475000Y-66975000D01*
X102376200Y-66573800D02*
X101975000Y-66975000D01*
X103475000Y-66975000D02*
X103073800Y-66573800D01*
X101975000Y-66975000D02*
X101573800Y-66573800D01*
X101573800Y-66573800D02*
X100876200Y-66573800D01*
X106073800Y-66573800D02*
X105376200Y-66573800D01*
X107975000Y-66975000D02*
X107573800Y-66573800D01*
X105376200Y-66573800D02*
X104975000Y-66975000D01*
%TO.N,Net-(D266-A)*%
X102376200Y-68073800D02*
X101975000Y-68475000D01*
X104573800Y-68073800D02*
X103876200Y-68073800D01*
X107573800Y-68073800D02*
X106876200Y-68073800D01*
X101573800Y-68073800D02*
X100876200Y-68073800D01*
X106073800Y-68073800D02*
X105376200Y-68073800D01*
X103073800Y-68073800D02*
X102376200Y-68073800D01*
X103475000Y-68475000D02*
X103073800Y-68073800D01*
X103876200Y-68073800D02*
X103475000Y-68475000D01*
X106475000Y-68475000D02*
X106073800Y-68073800D01*
X105376200Y-68073800D02*
X104975000Y-68475000D01*
X104975000Y-68475000D02*
X104573800Y-68073800D01*
X100876200Y-68073800D02*
X100475000Y-68475000D01*
X106876200Y-68073800D02*
X106475000Y-68475000D01*
X101975000Y-68475000D02*
X101573800Y-68073800D01*
X107975000Y-68475000D02*
X107573800Y-68073800D01*
%TO.N,Net-(D265-A)*%
X104975000Y-69975000D02*
X104573800Y-69573800D01*
X102376200Y-69573800D02*
X101975000Y-69975000D01*
X107573800Y-69573800D02*
X106876200Y-69573800D01*
X106475000Y-69975000D02*
X106073800Y-69573800D01*
X103475000Y-69975000D02*
X103073800Y-69573800D01*
X105376200Y-69573800D02*
X104975000Y-69975000D01*
X104573800Y-69573800D02*
X103876200Y-69573800D01*
X106876200Y-69573800D02*
X106475000Y-69975000D01*
X101573800Y-69573800D02*
X100876200Y-69573800D01*
X103876200Y-69573800D02*
X103475000Y-69975000D01*
X103073800Y-69573800D02*
X102376200Y-69573800D01*
X106073800Y-69573800D02*
X105376200Y-69573800D01*
X100876200Y-69573800D02*
X100475000Y-69975000D01*
X101975000Y-69975000D02*
X101573800Y-69573800D01*
X107975000Y-69975000D02*
X107573800Y-69573800D01*
%TO.N,Net-(D341-A)*%
X112073800Y-54573800D02*
X111376200Y-54573800D01*
X114376200Y-54573800D02*
X113975000Y-54975000D01*
X110573800Y-54573800D02*
X109876200Y-54573800D01*
X113975000Y-54975000D02*
X113573800Y-54573800D01*
X111376200Y-54573800D02*
X110975000Y-54975000D01*
X110975000Y-54975000D02*
X110573800Y-54573800D01*
X112876200Y-54573800D02*
X112475000Y-54975000D01*
X115073800Y-54573800D02*
X114376200Y-54573800D01*
X112475000Y-54975000D02*
X112073800Y-54573800D01*
X115876200Y-54573800D02*
X115475000Y-54975000D01*
X116573800Y-54573800D02*
X115876200Y-54573800D01*
X109876200Y-54573800D02*
X109475000Y-54975000D01*
X115475000Y-54975000D02*
X115073800Y-54573800D01*
X116975000Y-54975000D02*
X116573800Y-54573800D01*
X113573800Y-54573800D02*
X112876200Y-54573800D01*
%TO.N,Net-(D340-A)*%
X112475000Y-56475000D02*
X112073800Y-56073800D01*
X115876200Y-56073800D02*
X115475000Y-56475000D01*
X112073800Y-56073800D02*
X111376200Y-56073800D01*
X113975000Y-56475000D02*
X113573800Y-56073800D01*
X113573800Y-56073800D02*
X112876200Y-56073800D01*
X116975000Y-56475000D02*
X116573800Y-56073800D01*
X115073800Y-56073800D02*
X114376200Y-56073800D01*
X110573800Y-56073800D02*
X109876200Y-56073800D01*
X112876200Y-56073800D02*
X112475000Y-56475000D01*
X116573800Y-56073800D02*
X115876200Y-56073800D01*
X110975000Y-56475000D02*
X110573800Y-56073800D01*
X115475000Y-56475000D02*
X115073800Y-56073800D01*
X114376200Y-56073800D02*
X113975000Y-56475000D01*
X111376200Y-56073800D02*
X110975000Y-56475000D01*
X109876200Y-56073800D02*
X109475000Y-56475000D01*
%TO.N,Net-(D339-A)*%
X116573800Y-57573800D02*
X115876200Y-57573800D01*
X113573800Y-57573800D02*
X112876200Y-57573800D01*
X114376200Y-57573800D02*
X113975000Y-57975000D01*
X116975000Y-57975000D02*
X116573800Y-57573800D01*
X112475000Y-57975000D02*
X112073800Y-57573800D01*
X111376200Y-57573800D02*
X110975000Y-57975000D01*
X110573800Y-57573800D02*
X109876200Y-57573800D01*
X115073800Y-57573800D02*
X114376200Y-57573800D01*
X113975000Y-57975000D02*
X113573800Y-57573800D01*
X115475000Y-57975000D02*
X115073800Y-57573800D01*
X112876200Y-57573800D02*
X112475000Y-57975000D01*
X112073800Y-57573800D02*
X111376200Y-57573800D01*
X109876200Y-57573800D02*
X109475000Y-57975000D01*
X110975000Y-57975000D02*
X110573800Y-57573800D01*
X115876200Y-57573800D02*
X115475000Y-57975000D01*
%TO.N,Net-(D338-A)*%
X115073800Y-59073800D02*
X114376200Y-59073800D01*
X111376200Y-59073800D02*
X110975000Y-59475000D01*
X113573800Y-59073800D02*
X112876200Y-59073800D01*
X115475000Y-59475000D02*
X115073800Y-59073800D01*
X112475000Y-59475000D02*
X112073800Y-59073800D01*
X112876200Y-59073800D02*
X112475000Y-59475000D01*
X116975000Y-59475000D02*
X116573800Y-59073800D01*
X116573800Y-59073800D02*
X115876200Y-59073800D01*
X110573800Y-59073800D02*
X109876200Y-59073800D01*
X110975000Y-59475000D02*
X110573800Y-59073800D01*
X109876200Y-59073800D02*
X109475000Y-59475000D01*
X114376200Y-59073800D02*
X113975000Y-59475000D01*
X112073800Y-59073800D02*
X111376200Y-59073800D01*
X113975000Y-59475000D02*
X113573800Y-59073800D01*
X115876200Y-59073800D02*
X115475000Y-59475000D01*
%TO.N,Net-(D337-A)*%
X112876200Y-60573800D02*
X112475000Y-60975000D01*
X115475000Y-60975000D02*
X115073800Y-60573800D01*
X115073800Y-60573800D02*
X114376200Y-60573800D01*
X116573800Y-60573800D02*
X115876200Y-60573800D01*
X110573800Y-60573800D02*
X109876200Y-60573800D01*
X113573800Y-60573800D02*
X112876200Y-60573800D01*
X116975000Y-60975000D02*
X116573800Y-60573800D01*
X109876200Y-60573800D02*
X109475000Y-60975000D01*
X111376200Y-60573800D02*
X110975000Y-60975000D01*
X112475000Y-60975000D02*
X112073800Y-60573800D01*
X112073800Y-60573800D02*
X111376200Y-60573800D01*
X110975000Y-60975000D02*
X110573800Y-60573800D01*
X114376200Y-60573800D02*
X113975000Y-60975000D01*
X113975000Y-60975000D02*
X113573800Y-60573800D01*
X115876200Y-60573800D02*
X115475000Y-60975000D01*
%TO.N,Net-(D336-A)*%
X115073800Y-62073800D02*
X114376200Y-62073800D01*
X115876200Y-62073800D02*
X115475000Y-62475000D01*
X112475000Y-62475000D02*
X112073800Y-62073800D01*
X111376200Y-62073800D02*
X110975000Y-62475000D01*
X109876200Y-62073800D02*
X109475000Y-62475000D01*
X116573800Y-62073800D02*
X115876200Y-62073800D01*
X116975000Y-62475000D02*
X116573800Y-62073800D01*
X113573800Y-62073800D02*
X112876200Y-62073800D01*
X112073800Y-62073800D02*
X111376200Y-62073800D01*
X115475000Y-62475000D02*
X115073800Y-62073800D01*
X112876200Y-62073800D02*
X112475000Y-62475000D01*
X114376200Y-62073800D02*
X113975000Y-62475000D01*
X110975000Y-62475000D02*
X110573800Y-62073800D01*
X113975000Y-62475000D02*
X113573800Y-62073800D01*
X110573800Y-62073800D02*
X109876200Y-62073800D01*
%TO.N,Net-(D335-A)*%
X110975000Y-63975000D02*
X110573800Y-63573800D01*
X114376200Y-63573800D02*
X113975000Y-63975000D01*
X112876200Y-63573800D02*
X112475000Y-63975000D01*
X115876200Y-63573800D02*
X115475000Y-63975000D01*
X113573800Y-63573800D02*
X112876200Y-63573800D01*
X115475000Y-63975000D02*
X115073800Y-63573800D01*
X113975000Y-63975000D02*
X113573800Y-63573800D01*
X112073800Y-63573800D02*
X111376200Y-63573800D01*
X110573800Y-63573800D02*
X109876200Y-63573800D01*
X116975000Y-63975000D02*
X116573800Y-63573800D01*
X109876200Y-63573800D02*
X109475000Y-63975000D01*
X111376200Y-63573800D02*
X110975000Y-63975000D01*
X116573800Y-63573800D02*
X115876200Y-63573800D01*
X115073800Y-63573800D02*
X114376200Y-63573800D01*
X112475000Y-63975000D02*
X112073800Y-63573800D01*
%TO.N,Net-(D334-A)*%
X116975000Y-65475000D02*
X116573800Y-65073800D01*
X115876200Y-65073800D02*
X115475000Y-65475000D01*
X114400000Y-65050000D02*
X113975000Y-65475000D01*
X113975000Y-65475000D02*
X113573800Y-65073800D01*
X116573800Y-65073800D02*
X115876200Y-65073800D01*
X112475000Y-65475000D02*
X112073800Y-65073800D01*
X110975000Y-65475000D02*
X110573800Y-65073800D01*
X112876200Y-65073800D02*
X112475000Y-65475000D01*
X112073800Y-65073800D02*
X111376200Y-65073800D01*
X115050000Y-65050000D02*
X114400000Y-65050000D01*
X109876200Y-65073800D02*
X109475000Y-65475000D01*
X111376200Y-65073800D02*
X110975000Y-65475000D01*
X113573800Y-65073800D02*
X112876200Y-65073800D01*
X110573800Y-65073800D02*
X109876200Y-65073800D01*
X115475000Y-65475000D02*
X115050000Y-65050000D01*
%TO.N,Net-(D333-A)*%
X115475000Y-66975000D02*
X115073800Y-66573800D01*
X109876200Y-66573800D02*
X109475000Y-66975000D01*
X116573800Y-66573800D02*
X115876200Y-66573800D01*
X113573800Y-66573800D02*
X112876200Y-66573800D01*
X113975000Y-66975000D02*
X113573800Y-66573800D01*
X112876200Y-66573800D02*
X112475000Y-66975000D01*
X112073800Y-66573800D02*
X111376200Y-66573800D01*
X115876200Y-66573800D02*
X115475000Y-66975000D01*
X111376200Y-66573800D02*
X110975000Y-66975000D01*
X112475000Y-66975000D02*
X112073800Y-66573800D01*
X110975000Y-66975000D02*
X110573800Y-66573800D01*
X110573800Y-66573800D02*
X109876200Y-66573800D01*
X115073800Y-66573800D02*
X114376200Y-66573800D01*
X116975000Y-66975000D02*
X116573800Y-66573800D01*
X114376200Y-66573800D02*
X113975000Y-66975000D01*
%TO.N,Net-(D332-A)*%
X111376200Y-68073800D02*
X110975000Y-68475000D01*
X113573800Y-68073800D02*
X112876200Y-68073800D01*
X116573800Y-68073800D02*
X115876200Y-68073800D01*
X110573800Y-68073800D02*
X109876200Y-68073800D01*
X115073800Y-68073800D02*
X114376200Y-68073800D01*
X112073800Y-68073800D02*
X111376200Y-68073800D01*
X112475000Y-68475000D02*
X112073800Y-68073800D01*
X112876200Y-68073800D02*
X112475000Y-68475000D01*
X115475000Y-68475000D02*
X115073800Y-68073800D01*
X114376200Y-68073800D02*
X113975000Y-68475000D01*
X113975000Y-68475000D02*
X113573800Y-68073800D01*
X109876200Y-68073800D02*
X109475000Y-68475000D01*
X115876200Y-68073800D02*
X115475000Y-68475000D01*
X110975000Y-68475000D02*
X110573800Y-68073800D01*
X116975000Y-68475000D02*
X116573800Y-68073800D01*
%TO.N,Net-(D331-A)*%
X113975000Y-69975000D02*
X113573800Y-69573800D01*
X111376200Y-69573800D02*
X110975000Y-69975000D01*
X116573800Y-69573800D02*
X115876200Y-69573800D01*
X115475000Y-69975000D02*
X115073800Y-69573800D01*
X112475000Y-69975000D02*
X112073800Y-69573800D01*
X114376200Y-69573800D02*
X113975000Y-69975000D01*
X113573800Y-69573800D02*
X112876200Y-69573800D01*
X115876200Y-69573800D02*
X115475000Y-69975000D01*
X110573800Y-69573800D02*
X109876200Y-69573800D01*
X112876200Y-69573800D02*
X112475000Y-69975000D01*
X112073800Y-69573800D02*
X111376200Y-69573800D01*
X115073800Y-69573800D02*
X114376200Y-69573800D01*
X109876200Y-69573800D02*
X109475000Y-69975000D01*
X110975000Y-69975000D02*
X110573800Y-69573800D01*
X116975000Y-69975000D02*
X116573800Y-69573800D01*
%TO.N,Net-(D143-A)*%
X113526200Y-53026200D02*
X114223800Y-53026200D01*
X111223800Y-53026200D02*
X111625000Y-52625000D01*
X115026200Y-53026200D02*
X115723800Y-53026200D01*
X111625000Y-52625000D02*
X112026200Y-53026200D01*
X114223800Y-53026200D02*
X114625000Y-52625000D01*
X114625000Y-52625000D02*
X115026200Y-53026200D01*
X112723800Y-53026200D02*
X113125000Y-52625000D01*
X110526200Y-53026200D02*
X111223800Y-53026200D01*
X113125000Y-52625000D02*
X113526200Y-53026200D01*
X109723800Y-53026200D02*
X110125000Y-52625000D01*
X109026200Y-53026200D02*
X109723800Y-53026200D01*
X115723800Y-53026200D02*
X116125000Y-52625000D01*
X110125000Y-52625000D02*
X110526200Y-53026200D01*
X108625000Y-52625000D02*
X109026200Y-53026200D01*
X112026200Y-53026200D02*
X112723800Y-53026200D01*
%TO.N,Net-(D142-A)*%
X113125000Y-51125000D02*
X113526200Y-51526200D01*
X109723800Y-51526200D02*
X110125000Y-51125000D01*
X113526200Y-51526200D02*
X114223800Y-51526200D01*
X111625000Y-51125000D02*
X112026200Y-51526200D01*
X112026200Y-51526200D02*
X112723800Y-51526200D01*
X108625000Y-51125000D02*
X109026200Y-51526200D01*
X110526200Y-51526200D02*
X111223800Y-51526200D01*
X115026200Y-51526200D02*
X115723800Y-51526200D01*
X112723800Y-51526200D02*
X113125000Y-51125000D01*
X109026200Y-51526200D02*
X109723800Y-51526200D01*
X114625000Y-51125000D02*
X115026200Y-51526200D01*
X110125000Y-51125000D02*
X110526200Y-51526200D01*
X111223800Y-51526200D02*
X111625000Y-51125000D01*
X114223800Y-51526200D02*
X114625000Y-51125000D01*
X115723800Y-51526200D02*
X116125000Y-51125000D01*
%TO.N,Net-(D141-A)*%
X109026200Y-50026200D02*
X109723800Y-50026200D01*
X112026200Y-50026200D02*
X112723800Y-50026200D01*
X111223800Y-50026200D02*
X111625000Y-49625000D01*
X108625000Y-49625000D02*
X109026200Y-50026200D01*
X113125000Y-49625000D02*
X113526200Y-50026200D01*
X114223800Y-50026200D02*
X114625000Y-49625000D01*
X115026200Y-50026200D02*
X115723800Y-50026200D01*
X110526200Y-50026200D02*
X111223800Y-50026200D01*
X111625000Y-49625000D02*
X112026200Y-50026200D01*
X110125000Y-49625000D02*
X110526200Y-50026200D01*
X112723800Y-50026200D02*
X113125000Y-49625000D01*
X113526200Y-50026200D02*
X114223800Y-50026200D01*
X115723800Y-50026200D02*
X116125000Y-49625000D01*
X114625000Y-49625000D02*
X115026200Y-50026200D01*
X109723800Y-50026200D02*
X110125000Y-49625000D01*
%TO.N,Net-(D140-A)*%
X110526200Y-48526200D02*
X111223800Y-48526200D01*
X114223800Y-48526200D02*
X114625000Y-48125000D01*
X112026200Y-48526200D02*
X112723800Y-48526200D01*
X110125000Y-48125000D02*
X110526200Y-48526200D01*
X113125000Y-48125000D02*
X113526200Y-48526200D01*
X112723800Y-48526200D02*
X113125000Y-48125000D01*
X108625000Y-48125000D02*
X109026200Y-48526200D01*
X109026200Y-48526200D02*
X109723800Y-48526200D01*
X115026200Y-48526200D02*
X115723800Y-48526200D01*
X114625000Y-48125000D02*
X115026200Y-48526200D01*
X115723800Y-48526200D02*
X116125000Y-48125000D01*
X111223800Y-48526200D02*
X111625000Y-48125000D01*
X113526200Y-48526200D02*
X114223800Y-48526200D01*
X111625000Y-48125000D02*
X112026200Y-48526200D01*
X109723800Y-48526200D02*
X110125000Y-48125000D01*
%TO.N,Net-(D139-A)*%
X112723800Y-47026200D02*
X113125000Y-46625000D01*
X110125000Y-46625000D02*
X110526200Y-47026200D01*
X110526200Y-47026200D02*
X111223800Y-47026200D01*
X109026200Y-47026200D02*
X109723800Y-47026200D01*
X115026200Y-47026200D02*
X115723800Y-47026200D01*
X112026200Y-47026200D02*
X112723800Y-47026200D01*
X108625000Y-46625000D02*
X109026200Y-47026200D01*
X115723800Y-47026200D02*
X116125000Y-46625000D01*
X114223800Y-47026200D02*
X114625000Y-46625000D01*
X113125000Y-46625000D02*
X113526200Y-47026200D01*
X113526200Y-47026200D02*
X114223800Y-47026200D01*
X114625000Y-46625000D02*
X115026200Y-47026200D01*
X111223800Y-47026200D02*
X111625000Y-46625000D01*
X111625000Y-46625000D02*
X112026200Y-47026200D01*
X109723800Y-47026200D02*
X110125000Y-46625000D01*
%TO.N,Net-(D138-A)*%
X110526200Y-45526200D02*
X111223800Y-45526200D01*
X109723800Y-45526200D02*
X110125000Y-45125000D01*
X113125000Y-45125000D02*
X113526200Y-45526200D01*
X114223800Y-45526200D02*
X114625000Y-45125000D01*
X115723800Y-45526200D02*
X116125000Y-45125000D01*
X109026200Y-45526200D02*
X109723800Y-45526200D01*
X108625000Y-45125000D02*
X109026200Y-45526200D01*
X112026200Y-45526200D02*
X112723800Y-45526200D01*
X113526200Y-45526200D02*
X114223800Y-45526200D01*
X110125000Y-45125000D02*
X110526200Y-45526200D01*
X112723800Y-45526200D02*
X113125000Y-45125000D01*
X111223800Y-45526200D02*
X111625000Y-45125000D01*
X114625000Y-45125000D02*
X115026200Y-45526200D01*
X111625000Y-45125000D02*
X112026200Y-45526200D01*
X115026200Y-45526200D02*
X115723800Y-45526200D01*
%TO.N,Net-(D137-A)*%
X114625000Y-43625000D02*
X115026200Y-44026200D01*
X111223800Y-44026200D02*
X111625000Y-43625000D01*
X112723800Y-44026200D02*
X113125000Y-43625000D01*
X109723800Y-44026200D02*
X110125000Y-43625000D01*
X112026200Y-44026200D02*
X112723800Y-44026200D01*
X110125000Y-43625000D02*
X110526200Y-44026200D01*
X111625000Y-43625000D02*
X112026200Y-44026200D01*
X113526200Y-44026200D02*
X114223800Y-44026200D01*
X115026200Y-44026200D02*
X115723800Y-44026200D01*
X108625000Y-43625000D02*
X109026200Y-44026200D01*
X115723800Y-44026200D02*
X116125000Y-43625000D01*
X114223800Y-44026200D02*
X114625000Y-43625000D01*
X109026200Y-44026200D02*
X109723800Y-44026200D01*
X110526200Y-44026200D02*
X111223800Y-44026200D01*
X113125000Y-43625000D02*
X113526200Y-44026200D01*
%TO.N,Net-(D136-A)*%
X108625000Y-42125000D02*
X109026200Y-42526200D01*
X109723800Y-42526200D02*
X110125000Y-42125000D01*
X111200000Y-42550000D02*
X111625000Y-42125000D01*
X111625000Y-42125000D02*
X112026200Y-42526200D01*
X109026200Y-42526200D02*
X109723800Y-42526200D01*
X113125000Y-42125000D02*
X113526200Y-42526200D01*
X114625000Y-42125000D02*
X115026200Y-42526200D01*
X112723800Y-42526200D02*
X113125000Y-42125000D01*
X113526200Y-42526200D02*
X114223800Y-42526200D01*
X110550000Y-42550000D02*
X111200000Y-42550000D01*
X115723800Y-42526200D02*
X116125000Y-42125000D01*
X114223800Y-42526200D02*
X114625000Y-42125000D01*
X112026200Y-42526200D02*
X112723800Y-42526200D01*
X115026200Y-42526200D02*
X115723800Y-42526200D01*
X110125000Y-42125000D02*
X110550000Y-42550000D01*
%TO.N,Net-(D135-A)*%
X110125000Y-40625000D02*
X110526200Y-41026200D01*
X115723800Y-41026200D02*
X116125000Y-40625000D01*
X109026200Y-41026200D02*
X109723800Y-41026200D01*
X112026200Y-41026200D02*
X112723800Y-41026200D01*
X111625000Y-40625000D02*
X112026200Y-41026200D01*
X112723800Y-41026200D02*
X113125000Y-40625000D01*
X113526200Y-41026200D02*
X114223800Y-41026200D01*
X109723800Y-41026200D02*
X110125000Y-40625000D01*
X114223800Y-41026200D02*
X114625000Y-40625000D01*
X113125000Y-40625000D02*
X113526200Y-41026200D01*
X114625000Y-40625000D02*
X115026200Y-41026200D01*
X115026200Y-41026200D02*
X115723800Y-41026200D01*
X110526200Y-41026200D02*
X111223800Y-41026200D01*
X108625000Y-40625000D02*
X109026200Y-41026200D01*
X111223800Y-41026200D02*
X111625000Y-40625000D01*
%TO.N,Net-(D134-A)*%
X114223800Y-39526200D02*
X114625000Y-39125000D01*
X112026200Y-39526200D02*
X112723800Y-39526200D01*
X109026200Y-39526200D02*
X109723800Y-39526200D01*
X115026200Y-39526200D02*
X115723800Y-39526200D01*
X110526200Y-39526200D02*
X111223800Y-39526200D01*
X113526200Y-39526200D02*
X114223800Y-39526200D01*
X113125000Y-39125000D02*
X113526200Y-39526200D01*
X112723800Y-39526200D02*
X113125000Y-39125000D01*
X110125000Y-39125000D02*
X110526200Y-39526200D01*
X111223800Y-39526200D02*
X111625000Y-39125000D01*
X111625000Y-39125000D02*
X112026200Y-39526200D01*
X115723800Y-39526200D02*
X116125000Y-39125000D01*
X109723800Y-39526200D02*
X110125000Y-39125000D01*
X114625000Y-39125000D02*
X115026200Y-39526200D01*
X108625000Y-39125000D02*
X109026200Y-39526200D01*
%TO.N,Net-(D133-A)*%
X111625000Y-37625000D02*
X112026200Y-38026200D01*
X114223800Y-38026200D02*
X114625000Y-37625000D01*
X109026200Y-38026200D02*
X109723800Y-38026200D01*
X110125000Y-37625000D02*
X110526200Y-38026200D01*
X113125000Y-37625000D02*
X113526200Y-38026200D01*
X111223800Y-38026200D02*
X111625000Y-37625000D01*
X112026200Y-38026200D02*
X112723800Y-38026200D01*
X109723800Y-38026200D02*
X110125000Y-37625000D01*
X115026200Y-38026200D02*
X115723800Y-38026200D01*
X112723800Y-38026200D02*
X113125000Y-37625000D01*
X113526200Y-38026200D02*
X114223800Y-38026200D01*
X110526200Y-38026200D02*
X111223800Y-38026200D01*
X115723800Y-38026200D02*
X116125000Y-37625000D01*
X114625000Y-37625000D02*
X115026200Y-38026200D01*
X108625000Y-37625000D02*
X109026200Y-38026200D01*
%TO.N,Net-(D110-A)*%
X104526200Y-53026200D02*
X105223800Y-53026200D01*
X102223800Y-53026200D02*
X102625000Y-52625000D01*
X106026200Y-53026200D02*
X106723800Y-53026200D01*
X102625000Y-52625000D02*
X103026200Y-53026200D01*
X105223800Y-53026200D02*
X105625000Y-52625000D01*
X105625000Y-52625000D02*
X106026200Y-53026200D01*
X103723800Y-53026200D02*
X104125000Y-52625000D01*
X101526200Y-53026200D02*
X102223800Y-53026200D01*
X104125000Y-52625000D02*
X104526200Y-53026200D01*
X100723800Y-53026200D02*
X101125000Y-52625000D01*
X100026200Y-53026200D02*
X100723800Y-53026200D01*
X106723800Y-53026200D02*
X107125000Y-52625000D01*
X101125000Y-52625000D02*
X101526200Y-53026200D01*
X99625000Y-52625000D02*
X100026200Y-53026200D01*
X103026200Y-53026200D02*
X103723800Y-53026200D01*
%TO.N,Net-(D109-A)*%
X104125000Y-51125000D02*
X104526200Y-51526200D01*
X100723800Y-51526200D02*
X101125000Y-51125000D01*
X104526200Y-51526200D02*
X105223800Y-51526200D01*
X102625000Y-51125000D02*
X103026200Y-51526200D01*
X103026200Y-51526200D02*
X103723800Y-51526200D01*
X99625000Y-51125000D02*
X100026200Y-51526200D01*
X101526200Y-51526200D02*
X102223800Y-51526200D01*
X106026200Y-51526200D02*
X106723800Y-51526200D01*
X103723800Y-51526200D02*
X104125000Y-51125000D01*
X100026200Y-51526200D02*
X100723800Y-51526200D01*
X105625000Y-51125000D02*
X106026200Y-51526200D01*
X101125000Y-51125000D02*
X101526200Y-51526200D01*
X102223800Y-51526200D02*
X102625000Y-51125000D01*
X105223800Y-51526200D02*
X105625000Y-51125000D01*
X106723800Y-51526200D02*
X107125000Y-51125000D01*
%TO.N,Net-(D108-A)*%
X100026200Y-50026200D02*
X100723800Y-50026200D01*
X103026200Y-50026200D02*
X103723800Y-50026200D01*
X102223800Y-50026200D02*
X102625000Y-49625000D01*
X99625000Y-49625000D02*
X100026200Y-50026200D01*
X104125000Y-49625000D02*
X104526200Y-50026200D01*
X105223800Y-50026200D02*
X105625000Y-49625000D01*
X106026200Y-50026200D02*
X106723800Y-50026200D01*
X101526200Y-50026200D02*
X102223800Y-50026200D01*
X102625000Y-49625000D02*
X103026200Y-50026200D01*
X101125000Y-49625000D02*
X101526200Y-50026200D01*
X103723800Y-50026200D02*
X104125000Y-49625000D01*
X104526200Y-50026200D02*
X105223800Y-50026200D01*
X106723800Y-50026200D02*
X107125000Y-49625000D01*
X105625000Y-49625000D02*
X106026200Y-50026200D01*
X100723800Y-50026200D02*
X101125000Y-49625000D01*
%TO.N,Net-(D107-A)*%
X101526200Y-48526200D02*
X102223800Y-48526200D01*
X105223800Y-48526200D02*
X105625000Y-48125000D01*
X103026200Y-48526200D02*
X103723800Y-48526200D01*
X101125000Y-48125000D02*
X101526200Y-48526200D01*
X104125000Y-48125000D02*
X104526200Y-48526200D01*
X103723800Y-48526200D02*
X104125000Y-48125000D01*
X99625000Y-48125000D02*
X100026200Y-48526200D01*
X100026200Y-48526200D02*
X100723800Y-48526200D01*
X106026200Y-48526200D02*
X106723800Y-48526200D01*
X105625000Y-48125000D02*
X106026200Y-48526200D01*
X106723800Y-48526200D02*
X107125000Y-48125000D01*
X102223800Y-48526200D02*
X102625000Y-48125000D01*
X104526200Y-48526200D02*
X105223800Y-48526200D01*
X102625000Y-48125000D02*
X103026200Y-48526200D01*
X100723800Y-48526200D02*
X101125000Y-48125000D01*
%TO.N,Net-(D106-A)*%
X103723800Y-47026200D02*
X104125000Y-46625000D01*
X101125000Y-46625000D02*
X101526200Y-47026200D01*
X101526200Y-47026200D02*
X102223800Y-47026200D01*
X100026200Y-47026200D02*
X100723800Y-47026200D01*
X106026200Y-47026200D02*
X106723800Y-47026200D01*
X103026200Y-47026200D02*
X103723800Y-47026200D01*
X99625000Y-46625000D02*
X100026200Y-47026200D01*
X106723800Y-47026200D02*
X107125000Y-46625000D01*
X105223800Y-47026200D02*
X105625000Y-46625000D01*
X104125000Y-46625000D02*
X104526200Y-47026200D01*
X104526200Y-47026200D02*
X105223800Y-47026200D01*
X105625000Y-46625000D02*
X106026200Y-47026200D01*
X102223800Y-47026200D02*
X102625000Y-46625000D01*
X102625000Y-46625000D02*
X103026200Y-47026200D01*
X100723800Y-47026200D02*
X101125000Y-46625000D01*
%TO.N,Net-(D105-A)*%
X101526200Y-45526200D02*
X102223800Y-45526200D01*
X100723800Y-45526200D02*
X101125000Y-45125000D01*
X104125000Y-45125000D02*
X104526200Y-45526200D01*
X105223800Y-45526200D02*
X105625000Y-45125000D01*
X106723800Y-45526200D02*
X107125000Y-45125000D01*
X100026200Y-45526200D02*
X100723800Y-45526200D01*
X99625000Y-45125000D02*
X100026200Y-45526200D01*
X103026200Y-45526200D02*
X103723800Y-45526200D01*
X104526200Y-45526200D02*
X105223800Y-45526200D01*
X101125000Y-45125000D02*
X101526200Y-45526200D01*
X103723800Y-45526200D02*
X104125000Y-45125000D01*
X102223800Y-45526200D02*
X102625000Y-45125000D01*
X105625000Y-45125000D02*
X106026200Y-45526200D01*
X102625000Y-45125000D02*
X103026200Y-45526200D01*
X106026200Y-45526200D02*
X106723800Y-45526200D01*
%TO.N,Net-(D104-A)*%
X105625000Y-43625000D02*
X106026200Y-44026200D01*
X102223800Y-44026200D02*
X102625000Y-43625000D01*
X103723800Y-44026200D02*
X104125000Y-43625000D01*
X100723800Y-44026200D02*
X101125000Y-43625000D01*
X103026200Y-44026200D02*
X103723800Y-44026200D01*
X101125000Y-43625000D02*
X101526200Y-44026200D01*
X102625000Y-43625000D02*
X103026200Y-44026200D01*
X104526200Y-44026200D02*
X105223800Y-44026200D01*
X106026200Y-44026200D02*
X106723800Y-44026200D01*
X99625000Y-43625000D02*
X100026200Y-44026200D01*
X106723800Y-44026200D02*
X107125000Y-43625000D01*
X105223800Y-44026200D02*
X105625000Y-43625000D01*
X100026200Y-44026200D02*
X100723800Y-44026200D01*
X101526200Y-44026200D02*
X102223800Y-44026200D01*
X104125000Y-43625000D02*
X104526200Y-44026200D01*
%TO.N,Net-(D103-A)*%
X99625000Y-42125000D02*
X100026200Y-42526200D01*
X100723800Y-42526200D02*
X101125000Y-42125000D01*
X102200000Y-42550000D02*
X102625000Y-42125000D01*
X102625000Y-42125000D02*
X103026200Y-42526200D01*
X100026200Y-42526200D02*
X100723800Y-42526200D01*
X104125000Y-42125000D02*
X104526200Y-42526200D01*
X105625000Y-42125000D02*
X106026200Y-42526200D01*
X103723800Y-42526200D02*
X104125000Y-42125000D01*
X104526200Y-42526200D02*
X105223800Y-42526200D01*
X101550000Y-42550000D02*
X102200000Y-42550000D01*
X106723800Y-42526200D02*
X107125000Y-42125000D01*
X105223800Y-42526200D02*
X105625000Y-42125000D01*
X103026200Y-42526200D02*
X103723800Y-42526200D01*
X106026200Y-42526200D02*
X106723800Y-42526200D01*
X101125000Y-42125000D02*
X101550000Y-42550000D01*
%TO.N,Net-(D102-A)*%
X101125000Y-40625000D02*
X101526200Y-41026200D01*
X106723800Y-41026200D02*
X107125000Y-40625000D01*
X100026200Y-41026200D02*
X100723800Y-41026200D01*
X103026200Y-41026200D02*
X103723800Y-41026200D01*
X102625000Y-40625000D02*
X103026200Y-41026200D01*
X103723800Y-41026200D02*
X104125000Y-40625000D01*
X104526200Y-41026200D02*
X105223800Y-41026200D01*
X100723800Y-41026200D02*
X101125000Y-40625000D01*
X105223800Y-41026200D02*
X105625000Y-40625000D01*
X104125000Y-40625000D02*
X104526200Y-41026200D01*
X105625000Y-40625000D02*
X106026200Y-41026200D01*
X106026200Y-41026200D02*
X106723800Y-41026200D01*
X101526200Y-41026200D02*
X102223800Y-41026200D01*
X99625000Y-40625000D02*
X100026200Y-41026200D01*
X102223800Y-41026200D02*
X102625000Y-40625000D01*
%TO.N,Net-(D101-A)*%
X105223800Y-39526200D02*
X105625000Y-39125000D01*
X103026200Y-39526200D02*
X103723800Y-39526200D01*
X100026200Y-39526200D02*
X100723800Y-39526200D01*
X106026200Y-39526200D02*
X106723800Y-39526200D01*
X101526200Y-39526200D02*
X102223800Y-39526200D01*
X104526200Y-39526200D02*
X105223800Y-39526200D01*
X104125000Y-39125000D02*
X104526200Y-39526200D01*
X103723800Y-39526200D02*
X104125000Y-39125000D01*
X101125000Y-39125000D02*
X101526200Y-39526200D01*
X102223800Y-39526200D02*
X102625000Y-39125000D01*
X102625000Y-39125000D02*
X103026200Y-39526200D01*
X106723800Y-39526200D02*
X107125000Y-39125000D01*
X100723800Y-39526200D02*
X101125000Y-39125000D01*
X105625000Y-39125000D02*
X106026200Y-39526200D01*
X99625000Y-39125000D02*
X100026200Y-39526200D01*
%TO.N,Net-(D100-A)*%
X102625000Y-37625000D02*
X103026200Y-38026200D01*
X105223800Y-38026200D02*
X105625000Y-37625000D01*
X100026200Y-38026200D02*
X100723800Y-38026200D01*
X101125000Y-37625000D02*
X101526200Y-38026200D01*
X104125000Y-37625000D02*
X104526200Y-38026200D01*
X102223800Y-38026200D02*
X102625000Y-37625000D01*
X103026200Y-38026200D02*
X103723800Y-38026200D01*
X100723800Y-38026200D02*
X101125000Y-37625000D01*
X106026200Y-38026200D02*
X106723800Y-38026200D01*
X103723800Y-38026200D02*
X104125000Y-37625000D01*
X104526200Y-38026200D02*
X105223800Y-38026200D01*
X101526200Y-38026200D02*
X102223800Y-38026200D01*
X106723800Y-38026200D02*
X107125000Y-37625000D01*
X105625000Y-37625000D02*
X106026200Y-38026200D01*
X99625000Y-37625000D02*
X100026200Y-38026200D01*
%TO.N,Net-(D1-A)*%
X90625000Y-37625000D02*
X91026200Y-38026200D01*
X96625000Y-37625000D02*
X97026200Y-38026200D01*
X97723800Y-38026200D02*
X98125000Y-37625000D01*
X92526200Y-38026200D02*
X93223800Y-38026200D01*
X95526200Y-38026200D02*
X96223800Y-38026200D01*
X94723800Y-38026200D02*
X95125000Y-37625000D01*
X97026200Y-38026200D02*
X97723800Y-38026200D01*
X91723800Y-38026200D02*
X92125000Y-37625000D01*
X94026200Y-38026200D02*
X94723800Y-38026200D01*
X93223800Y-38026200D02*
X93625000Y-37625000D01*
X95125000Y-37625000D02*
X95526200Y-38026200D01*
X92125000Y-37625000D02*
X92526200Y-38026200D01*
X91026200Y-38026200D02*
X91723800Y-38026200D01*
X96223800Y-38026200D02*
X96625000Y-37625000D01*
X93625000Y-37625000D02*
X94026200Y-38026200D01*
%TO.N,Net-(D13-A)*%
X90625000Y-39125000D02*
X91026200Y-39526200D01*
X96625000Y-39125000D02*
X97026200Y-39526200D01*
X91723800Y-39526200D02*
X92125000Y-39125000D01*
X97723800Y-39526200D02*
X98125000Y-39125000D01*
X93625000Y-39125000D02*
X94026200Y-39526200D01*
X93223800Y-39526200D02*
X93625000Y-39125000D01*
X92125000Y-39125000D02*
X92526200Y-39526200D01*
X94723800Y-39526200D02*
X95125000Y-39125000D01*
X95125000Y-39125000D02*
X95526200Y-39526200D01*
X95526200Y-39526200D02*
X96223800Y-39526200D01*
X92526200Y-39526200D02*
X93223800Y-39526200D01*
X97026200Y-39526200D02*
X97723800Y-39526200D01*
X91026200Y-39526200D02*
X91723800Y-39526200D01*
X94026200Y-39526200D02*
X94723800Y-39526200D01*
X96223800Y-39526200D02*
X96625000Y-39125000D01*
%TO.N,Net-(D14-A)*%
X93223800Y-41026200D02*
X93625000Y-40625000D01*
X90625000Y-40625000D02*
X91026200Y-41026200D01*
X92526200Y-41026200D02*
X93223800Y-41026200D01*
X97026200Y-41026200D02*
X97723800Y-41026200D01*
X96625000Y-40625000D02*
X97026200Y-41026200D01*
X95125000Y-40625000D02*
X95526200Y-41026200D01*
X96223800Y-41026200D02*
X96625000Y-40625000D01*
X91723800Y-41026200D02*
X92125000Y-40625000D01*
X95526200Y-41026200D02*
X96223800Y-41026200D01*
X94723800Y-41026200D02*
X95125000Y-40625000D01*
X93625000Y-40625000D02*
X94026200Y-41026200D01*
X94026200Y-41026200D02*
X94723800Y-41026200D01*
X91026200Y-41026200D02*
X91723800Y-41026200D01*
X97723800Y-41026200D02*
X98125000Y-40625000D01*
X92125000Y-40625000D02*
X92526200Y-41026200D01*
%TO.N,Net-(D15-A)*%
X92125000Y-42125000D02*
X92550000Y-42550000D01*
X97026200Y-42526200D02*
X97723800Y-42526200D01*
X94026200Y-42526200D02*
X94723800Y-42526200D01*
X96223800Y-42526200D02*
X96625000Y-42125000D01*
X97723800Y-42526200D02*
X98125000Y-42125000D01*
X92550000Y-42550000D02*
X93200000Y-42550000D01*
X95526200Y-42526200D02*
X96223800Y-42526200D01*
X94723800Y-42526200D02*
X95125000Y-42125000D01*
X96625000Y-42125000D02*
X97026200Y-42526200D01*
X95125000Y-42125000D02*
X95526200Y-42526200D01*
X91026200Y-42526200D02*
X91723800Y-42526200D01*
X93625000Y-42125000D02*
X94026200Y-42526200D01*
X93200000Y-42550000D02*
X93625000Y-42125000D01*
X91723800Y-42526200D02*
X92125000Y-42125000D01*
X90625000Y-42125000D02*
X91026200Y-42526200D01*
%TO.N,Net-(D16-A)*%
X95125000Y-43625000D02*
X95526200Y-44026200D01*
X92526200Y-44026200D02*
X93223800Y-44026200D01*
X91026200Y-44026200D02*
X91723800Y-44026200D01*
X96223800Y-44026200D02*
X96625000Y-43625000D01*
X97723800Y-44026200D02*
X98125000Y-43625000D01*
X90625000Y-43625000D02*
X91026200Y-44026200D01*
X97026200Y-44026200D02*
X97723800Y-44026200D01*
X95526200Y-44026200D02*
X96223800Y-44026200D01*
X93625000Y-43625000D02*
X94026200Y-44026200D01*
X92125000Y-43625000D02*
X92526200Y-44026200D01*
X94026200Y-44026200D02*
X94723800Y-44026200D01*
X91723800Y-44026200D02*
X92125000Y-43625000D01*
X94723800Y-44026200D02*
X95125000Y-43625000D01*
X93223800Y-44026200D02*
X93625000Y-43625000D01*
X96625000Y-43625000D02*
X97026200Y-44026200D01*
%TO.N,Net-(D17-A)*%
X97026200Y-45526200D02*
X97723800Y-45526200D01*
X93625000Y-45125000D02*
X94026200Y-45526200D01*
X96625000Y-45125000D02*
X97026200Y-45526200D01*
X93223800Y-45526200D02*
X93625000Y-45125000D01*
X94723800Y-45526200D02*
X95125000Y-45125000D01*
X92125000Y-45125000D02*
X92526200Y-45526200D01*
X95526200Y-45526200D02*
X96223800Y-45526200D01*
X94026200Y-45526200D02*
X94723800Y-45526200D01*
X90625000Y-45125000D02*
X91026200Y-45526200D01*
X91026200Y-45526200D02*
X91723800Y-45526200D01*
X97723800Y-45526200D02*
X98125000Y-45125000D01*
X96223800Y-45526200D02*
X96625000Y-45125000D01*
X95125000Y-45125000D02*
X95526200Y-45526200D01*
X91723800Y-45526200D02*
X92125000Y-45125000D01*
X92526200Y-45526200D02*
X93223800Y-45526200D01*
%TO.N,Net-(D18-A)*%
X91723800Y-47026200D02*
X92125000Y-46625000D01*
X93625000Y-46625000D02*
X94026200Y-47026200D01*
X93223800Y-47026200D02*
X93625000Y-46625000D01*
X96625000Y-46625000D02*
X97026200Y-47026200D01*
X95526200Y-47026200D02*
X96223800Y-47026200D01*
X95125000Y-46625000D02*
X95526200Y-47026200D01*
X96223800Y-47026200D02*
X96625000Y-46625000D01*
X97723800Y-47026200D02*
X98125000Y-46625000D01*
X90625000Y-46625000D02*
X91026200Y-47026200D01*
X94026200Y-47026200D02*
X94723800Y-47026200D01*
X97026200Y-47026200D02*
X97723800Y-47026200D01*
X91026200Y-47026200D02*
X91723800Y-47026200D01*
X92526200Y-47026200D02*
X93223800Y-47026200D01*
X92125000Y-46625000D02*
X92526200Y-47026200D01*
X94723800Y-47026200D02*
X95125000Y-46625000D01*
%TO.N,Net-(D19-A)*%
X91723800Y-48526200D02*
X92125000Y-48125000D01*
X93625000Y-48125000D02*
X94026200Y-48526200D01*
X95526200Y-48526200D02*
X96223800Y-48526200D01*
X93223800Y-48526200D02*
X93625000Y-48125000D01*
X97723800Y-48526200D02*
X98125000Y-48125000D01*
X96625000Y-48125000D02*
X97026200Y-48526200D01*
X97026200Y-48526200D02*
X97723800Y-48526200D01*
X91026200Y-48526200D02*
X91723800Y-48526200D01*
X90625000Y-48125000D02*
X91026200Y-48526200D01*
X94723800Y-48526200D02*
X95125000Y-48125000D01*
X95125000Y-48125000D02*
X95526200Y-48526200D01*
X92125000Y-48125000D02*
X92526200Y-48526200D01*
X94026200Y-48526200D02*
X94723800Y-48526200D01*
X96223800Y-48526200D02*
X96625000Y-48125000D01*
X92526200Y-48526200D02*
X93223800Y-48526200D01*
%TO.N,Net-(D20-A)*%
X91723800Y-50026200D02*
X92125000Y-49625000D01*
X96625000Y-49625000D02*
X97026200Y-50026200D01*
X97723800Y-50026200D02*
X98125000Y-49625000D01*
X95526200Y-50026200D02*
X96223800Y-50026200D01*
X94723800Y-50026200D02*
X95125000Y-49625000D01*
X92125000Y-49625000D02*
X92526200Y-50026200D01*
X93625000Y-49625000D02*
X94026200Y-50026200D01*
X92526200Y-50026200D02*
X93223800Y-50026200D01*
X97026200Y-50026200D02*
X97723800Y-50026200D01*
X96223800Y-50026200D02*
X96625000Y-49625000D01*
X95125000Y-49625000D02*
X95526200Y-50026200D01*
X90625000Y-49625000D02*
X91026200Y-50026200D01*
X93223800Y-50026200D02*
X93625000Y-49625000D01*
X94026200Y-50026200D02*
X94723800Y-50026200D01*
X91026200Y-50026200D02*
X91723800Y-50026200D01*
%TO.N,Net-(D10-A)*%
X97723800Y-51526200D02*
X98125000Y-51125000D01*
X96223800Y-51526200D02*
X96625000Y-51125000D01*
X93223800Y-51526200D02*
X93625000Y-51125000D01*
X92125000Y-51125000D02*
X92526200Y-51526200D01*
X96625000Y-51125000D02*
X97026200Y-51526200D01*
X91026200Y-51526200D02*
X91723800Y-51526200D01*
X94723800Y-51526200D02*
X95125000Y-51125000D01*
X97026200Y-51526200D02*
X97723800Y-51526200D01*
X92526200Y-51526200D02*
X93223800Y-51526200D01*
X90625000Y-51125000D02*
X91026200Y-51526200D01*
X94026200Y-51526200D02*
X94723800Y-51526200D01*
X93625000Y-51125000D02*
X94026200Y-51526200D01*
X95526200Y-51526200D02*
X96223800Y-51526200D01*
X91723800Y-51526200D02*
X92125000Y-51125000D01*
X95125000Y-51125000D02*
X95526200Y-51526200D01*
%TO.N,Net-(D11-A)*%
X94026200Y-53026200D02*
X94723800Y-53026200D01*
X90625000Y-52625000D02*
X91026200Y-53026200D01*
X92125000Y-52625000D02*
X92526200Y-53026200D01*
X97723800Y-53026200D02*
X98125000Y-52625000D01*
X91026200Y-53026200D02*
X91723800Y-53026200D01*
X91723800Y-53026200D02*
X92125000Y-52625000D01*
X95125000Y-52625000D02*
X95526200Y-53026200D01*
X92526200Y-53026200D02*
X93223800Y-53026200D01*
X94723800Y-53026200D02*
X95125000Y-52625000D01*
X96625000Y-52625000D02*
X97026200Y-53026200D01*
X96223800Y-53026200D02*
X96625000Y-52625000D01*
X93625000Y-52625000D02*
X94026200Y-53026200D01*
X97026200Y-53026200D02*
X97723800Y-53026200D01*
X93223800Y-53026200D02*
X93625000Y-52625000D01*
X95526200Y-53026200D02*
X96223800Y-53026200D01*
%TD*%
M02*
