%TF.GenerationSoftware,KiCad,Pcbnew,7.0.1*%
%TF.CreationDate,2023-04-05T13:45:37+02:00*%
%TF.ProjectId,LED_Driver_Evaluation,4c45445f-4472-4697-9665-725f4576616c,1.0*%
%TF.SameCoordinates,Original*%
%TF.FileFunction,Copper,L1,Top*%
%TF.FilePolarity,Positive*%
%FSLAX46Y46*%
G04 Gerber Fmt 4.6, Leading zero omitted, Abs format (unit mm)*
G04 Created by KiCad (PCBNEW 7.0.1) date 2023-04-05 13:45:37*
%MOMM*%
%LPD*%
G01*
G04 APERTURE LIST*
G04 Aperture macros list*
%AMRoundRect*
0 Rectangle with rounded corners*
0 $1 Rounding radius*
0 $2 $3 $4 $5 $6 $7 $8 $9 X,Y pos of 4 corners*
0 Add a 4 corners polygon primitive as box body*
4,1,4,$2,$3,$4,$5,$6,$7,$8,$9,$2,$3,0*
0 Add four circle primitives for the rounded corners*
1,1,$1+$1,$2,$3*
1,1,$1+$1,$4,$5*
1,1,$1+$1,$6,$7*
1,1,$1+$1,$8,$9*
0 Add four rect primitives between the rounded corners*
20,1,$1+$1,$2,$3,$4,$5,0*
20,1,$1+$1,$4,$5,$6,$7,0*
20,1,$1+$1,$6,$7,$8,$9,0*
20,1,$1+$1,$8,$9,$2,$3,0*%
%AMRotRect*
0 Rectangle, with rotation*
0 The origin of the aperture is its center*
0 $1 length*
0 $2 width*
0 $3 Rotation angle, in degrees counterclockwise*
0 Add horizontal line*
21,1,$1,$2,0,0,$3*%
G04 Aperture macros list end*
%TA.AperFunction,SMDPad,CuDef*%
%ADD10RoundRect,0.135000X-0.185000X0.135000X-0.185000X-0.135000X0.185000X-0.135000X0.185000X0.135000X0*%
%TD*%
%TA.AperFunction,SMDPad,CuDef*%
%ADD11RoundRect,0.112500X-0.112500X-0.112500X0.112500X-0.112500X0.112500X0.112500X-0.112500X0.112500X0*%
%TD*%
%TA.AperFunction,SMDPad,CuDef*%
%ADD12RoundRect,0.225000X0.250000X-0.225000X0.250000X0.225000X-0.250000X0.225000X-0.250000X-0.225000X0*%
%TD*%
%TA.AperFunction,SMDPad,CuDef*%
%ADD13RoundRect,0.200000X-0.275000X0.200000X-0.275000X-0.200000X0.275000X-0.200000X0.275000X0.200000X0*%
%TD*%
%TA.AperFunction,ComponentPad*%
%ADD14R,1.700000X1.700000*%
%TD*%
%TA.AperFunction,ComponentPad*%
%ADD15O,1.700000X1.700000*%
%TD*%
%TA.AperFunction,SMDPad,CuDef*%
%ADD16RoundRect,0.135000X0.185000X-0.135000X0.185000X0.135000X-0.185000X0.135000X-0.185000X-0.135000X0*%
%TD*%
%TA.AperFunction,SMDPad,CuDef*%
%ADD17RoundRect,0.050000X-0.194454X-0.265165X0.265165X0.194454X0.194454X0.265165X-0.265165X-0.194454X0*%
%TD*%
%TA.AperFunction,SMDPad,CuDef*%
%ADD18RoundRect,0.050000X0.194454X-0.265165X0.265165X-0.194454X-0.194454X0.265165X-0.265165X0.194454X0*%
%TD*%
%TA.AperFunction,SMDPad,CuDef*%
%ADD19RotRect,3.800000X3.800000X45.000000*%
%TD*%
%TA.AperFunction,ViaPad*%
%ADD20C,0.420000*%
%TD*%
%TA.AperFunction,Conductor*%
%ADD21C,0.250000*%
%TD*%
%TA.AperFunction,Conductor*%
%ADD22C,0.127000*%
%TD*%
G04 APERTURE END LIST*
D10*
%TO.P,R16,1*%
%TO.N,Net-(U1-CS4)*%
X137850000Y-56890000D03*
%TO.P,R16,2*%
%TO.N,Net-(D45-BK)*%
X137850000Y-57910000D03*
%TD*%
D11*
%TO.P,D55,1,A*%
%TO.N,Net-(D11-A)*%
X137700000Y-81150000D03*
%TO.P,D55,2,RK*%
%TO.N,Net-(D45-RK)*%
X138550000Y-81150000D03*
%TO.P,D55,3,GK*%
%TO.N,Net-(D45-GK)*%
X138550000Y-82000000D03*
%TO.P,D55,4,BK*%
%TO.N,Net-(D45-BK)*%
X137700000Y-82000000D03*
%TD*%
%TO.P,D18,1,A*%
%TO.N,Net-(D18-A)*%
X143700000Y-73150000D03*
%TO.P,D18,2,RK*%
%TO.N,Net-(D12-RK)*%
X144550000Y-73150000D03*
%TO.P,D18,3,GK*%
%TO.N,Net-(D12-GK)*%
X144550000Y-74000000D03*
%TO.P,D18,4,BK*%
%TO.N,Net-(D12-BK)*%
X143700000Y-74000000D03*
%TD*%
%TO.P,D21,1,A*%
%TO.N,Net-(D10-A)*%
X143700000Y-79150000D03*
%TO.P,D21,2,RK*%
%TO.N,Net-(D12-RK)*%
X144550000Y-79150000D03*
%TO.P,D21,3,GK*%
%TO.N,Net-(D12-GK)*%
X144550000Y-80000000D03*
%TO.P,D21,4,BK*%
%TO.N,Net-(D12-BK)*%
X143700000Y-80000000D03*
%TD*%
%TO.P,D36,1,A*%
%TO.N,Net-(D14-A)*%
X139700000Y-65150000D03*
%TO.P,D36,2,RK*%
%TO.N,Net-(D34-RK)*%
X140550000Y-65150000D03*
%TO.P,D36,3,GK*%
%TO.N,Net-(D34-GK)*%
X140550000Y-66000000D03*
%TO.P,D36,4,BK*%
%TO.N,Net-(D34-BK)*%
X139700000Y-66000000D03*
%TD*%
%TO.P,D38,1,A*%
%TO.N,Net-(D16-A)*%
X139700000Y-69150000D03*
%TO.P,D38,2,RK*%
%TO.N,Net-(D34-RK)*%
X140550000Y-69150000D03*
%TO.P,D38,3,GK*%
%TO.N,Net-(D34-GK)*%
X140550000Y-70000000D03*
%TO.P,D38,4,BK*%
%TO.N,Net-(D34-BK)*%
X139700000Y-70000000D03*
%TD*%
%TO.P,D5,1,A*%
%TO.N,Net-(D16-A)*%
X145700000Y-69150000D03*
%TO.P,D5,2,RK*%
%TO.N,Net-(D1-RK)*%
X146550000Y-69150000D03*
%TO.P,D5,3,GK*%
%TO.N,Net-(D1-GK)*%
X146550000Y-70000000D03*
%TO.P,D5,4,BK*%
%TO.N,Net-(D1-BK)*%
X145700000Y-70000000D03*
%TD*%
%TO.P,D62,1,A*%
%TO.N,Net-(D18-A)*%
X135700000Y-73150000D03*
%TO.P,D62,2,RK*%
%TO.N,Net-(D56-RK)*%
X136550000Y-73150000D03*
%TO.P,D62,3,GK*%
%TO.N,Net-(D56-GK)*%
X136550000Y-74000000D03*
%TO.P,D62,4,BK*%
%TO.N,Net-(D56-BK)*%
X135700000Y-74000000D03*
%TD*%
%TO.P,D33,1,A*%
%TO.N,Net-(D11-A)*%
X141700000Y-81150000D03*
%TO.P,D33,2,RK*%
%TO.N,Net-(D23-RK)*%
X142550000Y-81150000D03*
%TO.P,D33,3,GK*%
%TO.N,Net-(D23-GK)*%
X142550000Y-82000000D03*
%TO.P,D33,4,BK*%
%TO.N,Net-(D23-BK)*%
X141700000Y-82000000D03*
%TD*%
%TO.P,D46,1,A*%
%TO.N,Net-(D13-A)*%
X137700000Y-63150000D03*
%TO.P,D46,2,RK*%
%TO.N,Net-(D45-RK)*%
X138550000Y-63150000D03*
%TO.P,D46,3,GK*%
%TO.N,Net-(D45-GK)*%
X138550000Y-64000000D03*
%TO.P,D46,4,BK*%
%TO.N,Net-(D45-BK)*%
X137700000Y-64000000D03*
%TD*%
%TO.P,D24,1,A*%
%TO.N,Net-(D13-A)*%
X141700000Y-63150000D03*
%TO.P,D24,2,RK*%
%TO.N,Net-(D23-RK)*%
X142550000Y-63150000D03*
%TO.P,D24,3,GK*%
%TO.N,Net-(D23-GK)*%
X142550000Y-64000000D03*
%TO.P,D24,4,BK*%
%TO.N,Net-(D23-BK)*%
X141700000Y-64000000D03*
%TD*%
D10*
%TO.P,R13,1*%
%TO.N,Net-(U1-CS7)*%
X139850000Y-58790000D03*
%TO.P,R13,2*%
%TO.N,Net-(D34-BK)*%
X139850000Y-59810000D03*
%TD*%
D11*
%TO.P,D10,1,A*%
%TO.N,Net-(D10-A)*%
X145700000Y-79150000D03*
%TO.P,D10,2,RK*%
%TO.N,Net-(D1-RK)*%
X146550000Y-79150000D03*
%TO.P,D10,3,GK*%
%TO.N,Net-(D1-GK)*%
X146550000Y-80000000D03*
%TO.P,D10,4,BK*%
%TO.N,Net-(D1-BK)*%
X145700000Y-80000000D03*
%TD*%
%TO.P,D47,1,A*%
%TO.N,Net-(D14-A)*%
X137700000Y-65150000D03*
%TO.P,D47,2,RK*%
%TO.N,Net-(D45-RK)*%
X138550000Y-65150000D03*
%TO.P,D47,3,GK*%
%TO.N,Net-(D45-GK)*%
X138550000Y-66000000D03*
%TO.P,D47,4,BK*%
%TO.N,Net-(D45-BK)*%
X137700000Y-66000000D03*
%TD*%
%TO.P,D35,1,A*%
%TO.N,Net-(D13-A)*%
X139700000Y-63150000D03*
%TO.P,D35,2,RK*%
%TO.N,Net-(D34-RK)*%
X140550000Y-63150000D03*
%TO.P,D35,3,GK*%
%TO.N,Net-(D34-GK)*%
X140550000Y-64000000D03*
%TO.P,D35,4,BK*%
%TO.N,Net-(D34-BK)*%
X139700000Y-64000000D03*
%TD*%
D10*
%TO.P,R8,1*%
%TO.N,Net-(U1-CS11)*%
X143250000Y-56890000D03*
%TO.P,R8,2*%
%TO.N,Net-(D23-GK)*%
X143250000Y-57910000D03*
%TD*%
D11*
%TO.P,D22,1,A*%
%TO.N,Net-(D11-A)*%
X143700000Y-81150000D03*
%TO.P,D22,2,RK*%
%TO.N,Net-(D12-RK)*%
X144550000Y-81150000D03*
%TO.P,D22,3,GK*%
%TO.N,Net-(D12-GK)*%
X144550000Y-82000000D03*
%TO.P,D22,4,BK*%
%TO.N,Net-(D12-BK)*%
X143700000Y-82000000D03*
%TD*%
%TO.P,D25,1,A*%
%TO.N,Net-(D14-A)*%
X141700000Y-65150000D03*
%TO.P,D25,2,RK*%
%TO.N,Net-(D23-RK)*%
X142550000Y-65150000D03*
%TO.P,D25,3,GK*%
%TO.N,Net-(D23-GK)*%
X142550000Y-66000000D03*
%TO.P,D25,4,BK*%
%TO.N,Net-(D23-BK)*%
X141700000Y-66000000D03*
%TD*%
%TO.P,D52,1,A*%
%TO.N,Net-(D19-A)*%
X137700000Y-75150000D03*
%TO.P,D52,2,RK*%
%TO.N,Net-(D45-RK)*%
X138550000Y-75150000D03*
%TO.P,D52,3,GK*%
%TO.N,Net-(D45-GK)*%
X138550000Y-76000000D03*
%TO.P,D52,4,BK*%
%TO.N,Net-(D45-BK)*%
X137700000Y-76000000D03*
%TD*%
%TO.P,D44,1,A*%
%TO.N,Net-(D11-A)*%
X139700000Y-81150000D03*
%TO.P,D44,2,RK*%
%TO.N,Net-(D34-RK)*%
X140550000Y-81150000D03*
%TO.P,D44,3,GK*%
%TO.N,Net-(D34-GK)*%
X140550000Y-82000000D03*
%TO.P,D44,4,BK*%
%TO.N,Net-(D34-BK)*%
X139700000Y-82000000D03*
%TD*%
%TO.P,D32,1,A*%
%TO.N,Net-(D10-A)*%
X141700000Y-79150000D03*
%TO.P,D32,2,RK*%
%TO.N,Net-(D23-RK)*%
X142550000Y-79150000D03*
%TO.P,D32,3,GK*%
%TO.N,Net-(D23-GK)*%
X142550000Y-80000000D03*
%TO.P,D32,4,BK*%
%TO.N,Net-(D23-BK)*%
X141700000Y-80000000D03*
%TD*%
%TO.P,D53,1,A*%
%TO.N,Net-(D20-A)*%
X137700000Y-77150000D03*
%TO.P,D53,2,RK*%
%TO.N,Net-(D45-RK)*%
X138550000Y-77150000D03*
%TO.P,D53,3,GK*%
%TO.N,Net-(D45-GK)*%
X138550000Y-78000000D03*
%TO.P,D53,4,BK*%
%TO.N,Net-(D45-BK)*%
X137700000Y-78000000D03*
%TD*%
%TO.P,D15,1,A*%
%TO.N,Net-(D15-A)*%
X143700000Y-67150000D03*
%TO.P,D15,2,RK*%
%TO.N,Net-(D12-RK)*%
X144550000Y-67150000D03*
%TO.P,D15,3,GK*%
%TO.N,Net-(D12-GK)*%
X144550000Y-68000000D03*
%TO.P,D15,4,BK*%
%TO.N,Net-(D12-BK)*%
X143700000Y-68000000D03*
%TD*%
%TO.P,D29,1,A*%
%TO.N,Net-(D18-A)*%
X141700000Y-73150000D03*
%TO.P,D29,2,RK*%
%TO.N,Net-(D23-RK)*%
X142550000Y-73150000D03*
%TO.P,D29,3,GK*%
%TO.N,Net-(D23-GK)*%
X142550000Y-74000000D03*
%TO.P,D29,4,BK*%
%TO.N,Net-(D23-BK)*%
X141700000Y-74000000D03*
%TD*%
%TO.P,D14,1,A*%
%TO.N,Net-(D14-A)*%
X143700000Y-65150000D03*
%TO.P,D14,2,RK*%
%TO.N,Net-(D12-RK)*%
X144550000Y-65150000D03*
%TO.P,D14,3,GK*%
%TO.N,Net-(D12-GK)*%
X144550000Y-66000000D03*
%TO.P,D14,4,BK*%
%TO.N,Net-(D12-BK)*%
X143700000Y-66000000D03*
%TD*%
%TO.P,D48,1,A*%
%TO.N,Net-(D15-A)*%
X137700000Y-67150000D03*
%TO.P,D48,2,RK*%
%TO.N,Net-(D45-RK)*%
X138550000Y-67150000D03*
%TO.P,D48,3,GK*%
%TO.N,Net-(D45-GK)*%
X138550000Y-68000000D03*
%TO.P,D48,4,BK*%
%TO.N,Net-(D45-BK)*%
X137700000Y-68000000D03*
%TD*%
D10*
%TO.P,R7,1*%
%TO.N,Net-(U1-CS12)*%
X142550000Y-58790000D03*
%TO.P,R7,2*%
%TO.N,Net-(D23-RK)*%
X142550000Y-59810000D03*
%TD*%
%TO.P,R9,1*%
%TO.N,Net-(U1-CS10)*%
X141850000Y-56890000D03*
%TO.P,R9,2*%
%TO.N,Net-(D23-BK)*%
X141850000Y-57910000D03*
%TD*%
D11*
%TO.P,D8,1,A*%
%TO.N,Net-(D19-A)*%
X145700000Y-75150000D03*
%TO.P,D8,2,RK*%
%TO.N,Net-(D1-RK)*%
X146550000Y-75150000D03*
%TO.P,D8,3,GK*%
%TO.N,Net-(D1-GK)*%
X146550000Y-76000000D03*
%TO.P,D8,4,BK*%
%TO.N,Net-(D1-BK)*%
X145700000Y-76000000D03*
%TD*%
%TO.P,D30,1,A*%
%TO.N,Net-(D19-A)*%
X141700000Y-75150000D03*
%TO.P,D30,2,RK*%
%TO.N,Net-(D23-RK)*%
X142550000Y-75150000D03*
%TO.P,D30,3,GK*%
%TO.N,Net-(D23-GK)*%
X142550000Y-76000000D03*
%TO.P,D30,4,BK*%
%TO.N,Net-(D23-BK)*%
X141700000Y-76000000D03*
%TD*%
%TO.P,D58,1,A*%
%TO.N,Net-(D14-A)*%
X135700000Y-65150000D03*
%TO.P,D58,2,RK*%
%TO.N,Net-(D56-RK)*%
X136550000Y-65150000D03*
%TO.P,D58,3,GK*%
%TO.N,Net-(D56-GK)*%
X136550000Y-66000000D03*
%TO.P,D58,4,BK*%
%TO.N,Net-(D56-BK)*%
X135700000Y-66000000D03*
%TD*%
%TO.P,D34,1,A*%
%TO.N,Net-(D1-A)*%
X139700000Y-61150000D03*
%TO.P,D34,2,RK*%
%TO.N,Net-(D34-RK)*%
X140550000Y-61150000D03*
%TO.P,D34,3,GK*%
%TO.N,Net-(D34-GK)*%
X140550000Y-62000000D03*
%TO.P,D34,4,BK*%
%TO.N,Net-(D34-BK)*%
X139700000Y-62000000D03*
%TD*%
%TO.P,D11,1,A*%
%TO.N,Net-(D11-A)*%
X145700000Y-81150000D03*
%TO.P,D11,2,RK*%
%TO.N,Net-(D1-RK)*%
X146550000Y-81150000D03*
%TO.P,D11,3,GK*%
%TO.N,Net-(D1-GK)*%
X146550000Y-82000000D03*
%TO.P,D11,4,BK*%
%TO.N,Net-(D1-BK)*%
X145700000Y-82000000D03*
%TD*%
%TO.P,D49,1,A*%
%TO.N,Net-(D16-A)*%
X137700000Y-69150000D03*
%TO.P,D49,2,RK*%
%TO.N,Net-(D45-RK)*%
X138550000Y-69150000D03*
%TO.P,D49,3,GK*%
%TO.N,Net-(D45-GK)*%
X138550000Y-70000000D03*
%TO.P,D49,4,BK*%
%TO.N,Net-(D45-BK)*%
X137700000Y-70000000D03*
%TD*%
%TO.P,D13,1,A*%
%TO.N,Net-(D13-A)*%
X143700000Y-63150000D03*
%TO.P,D13,2,RK*%
%TO.N,Net-(D12-RK)*%
X144550000Y-63150000D03*
%TO.P,D13,3,GK*%
%TO.N,Net-(D12-GK)*%
X144550000Y-64000000D03*
%TO.P,D13,4,BK*%
%TO.N,Net-(D12-BK)*%
X143700000Y-64000000D03*
%TD*%
%TO.P,D50,1,A*%
%TO.N,Net-(D17-A)*%
X137700000Y-71150000D03*
%TO.P,D50,2,RK*%
%TO.N,Net-(D45-RK)*%
X138550000Y-71150000D03*
%TO.P,D50,3,GK*%
%TO.N,Net-(D45-GK)*%
X138550000Y-72000000D03*
%TO.P,D50,4,BK*%
%TO.N,Net-(D45-BK)*%
X137700000Y-72000000D03*
%TD*%
%TO.P,D1,1,A*%
%TO.N,Net-(D1-A)*%
X145700000Y-61150000D03*
%TO.P,D1,2,RK*%
%TO.N,Net-(D1-RK)*%
X146550000Y-61150000D03*
%TO.P,D1,3,GK*%
%TO.N,Net-(D1-GK)*%
X146550000Y-62000000D03*
%TO.P,D1,4,BK*%
%TO.N,Net-(D1-BK)*%
X145700000Y-62000000D03*
%TD*%
%TO.P,D60,1,A*%
%TO.N,Net-(D16-A)*%
X135700000Y-69150000D03*
%TO.P,D60,2,RK*%
%TO.N,Net-(D56-RK)*%
X136550000Y-69150000D03*
%TO.P,D60,3,GK*%
%TO.N,Net-(D56-GK)*%
X136550000Y-70000000D03*
%TO.P,D60,4,BK*%
%TO.N,Net-(D56-BK)*%
X135700000Y-70000000D03*
%TD*%
%TO.P,D39,1,A*%
%TO.N,Net-(D17-A)*%
X139700000Y-71150000D03*
%TO.P,D39,2,RK*%
%TO.N,Net-(D34-RK)*%
X140550000Y-71150000D03*
%TO.P,D39,3,GK*%
%TO.N,Net-(D34-GK)*%
X140550000Y-72000000D03*
%TO.P,D39,4,BK*%
%TO.N,Net-(D34-BK)*%
X139700000Y-72000000D03*
%TD*%
%TO.P,D45,1,A*%
%TO.N,Net-(D1-A)*%
X137700000Y-61150000D03*
%TO.P,D45,2,RK*%
%TO.N,Net-(D45-RK)*%
X138550000Y-61150000D03*
%TO.P,D45,3,GK*%
%TO.N,Net-(D45-GK)*%
X138550000Y-62000000D03*
%TO.P,D45,4,BK*%
%TO.N,Net-(D45-BK)*%
X137700000Y-62000000D03*
%TD*%
D10*
%TO.P,R15,1*%
%TO.N,Net-(U1-CS5)*%
X139250000Y-56890000D03*
%TO.P,R15,2*%
%TO.N,Net-(D45-GK)*%
X139250000Y-57910000D03*
%TD*%
D11*
%TO.P,D51,1,A*%
%TO.N,Net-(D18-A)*%
X137700000Y-73150000D03*
%TO.P,D51,2,RK*%
%TO.N,Net-(D45-RK)*%
X138550000Y-73150000D03*
%TO.P,D51,3,GK*%
%TO.N,Net-(D45-GK)*%
X138550000Y-74000000D03*
%TO.P,D51,4,BK*%
%TO.N,Net-(D45-BK)*%
X137700000Y-74000000D03*
%TD*%
D12*
%TO.P,C1,1*%
%TO.N,/VCC*%
X121250000Y-71125000D03*
%TO.P,C1,2*%
%TO.N,GND*%
X121250000Y-69575000D03*
%TD*%
D10*
%TO.P,R17,1*%
%TO.N,Net-(U1-CS3)*%
X136550000Y-56890000D03*
%TO.P,R17,2*%
%TO.N,Net-(D56-RK)*%
X136550000Y-57910000D03*
%TD*%
%TO.P,R11,1*%
%TO.N,Net-(U1-CS9)*%
X140550000Y-56890000D03*
%TO.P,R11,2*%
%TO.N,Net-(D34-RK)*%
X140550000Y-57910000D03*
%TD*%
D13*
%TO.P,R10,1*%
%TO.N,/SDB*%
X118050000Y-69525000D03*
%TO.P,R10,2*%
%TO.N,GND*%
X118050000Y-71175000D03*
%TD*%
D11*
%TO.P,D16,1,A*%
%TO.N,Net-(D16-A)*%
X143700000Y-69150000D03*
%TO.P,D16,2,RK*%
%TO.N,Net-(D12-RK)*%
X144550000Y-69150000D03*
%TO.P,D16,3,GK*%
%TO.N,Net-(D12-GK)*%
X144550000Y-70000000D03*
%TO.P,D16,4,BK*%
%TO.N,Net-(D12-BK)*%
X143700000Y-70000000D03*
%TD*%
%TO.P,D43,1,A*%
%TO.N,Net-(D10-A)*%
X139700000Y-79150000D03*
%TO.P,D43,2,RK*%
%TO.N,Net-(D34-RK)*%
X140550000Y-79150000D03*
%TO.P,D43,3,GK*%
%TO.N,Net-(D34-GK)*%
X140550000Y-80000000D03*
%TO.P,D43,4,BK*%
%TO.N,Net-(D34-BK)*%
X139700000Y-80000000D03*
%TD*%
D10*
%TO.P,R5,1*%
%TO.N,Net-(U1-CS14)*%
X145250000Y-58790000D03*
%TO.P,R5,2*%
%TO.N,Net-(D12-GK)*%
X145250000Y-59810000D03*
%TD*%
%TO.P,R20,1*%
%TO.N,Net-(U1-CS1)*%
X135850000Y-58790000D03*
%TO.P,R20,2*%
%TO.N,Net-(D56-BK)*%
X135850000Y-59810000D03*
%TD*%
D11*
%TO.P,D37,1,A*%
%TO.N,Net-(D15-A)*%
X139700000Y-67150000D03*
%TO.P,D37,2,RK*%
%TO.N,Net-(D34-RK)*%
X140550000Y-67150000D03*
%TO.P,D37,3,GK*%
%TO.N,Net-(D34-GK)*%
X140550000Y-68000000D03*
%TO.P,D37,4,BK*%
%TO.N,Net-(D34-BK)*%
X139700000Y-68000000D03*
%TD*%
D10*
%TO.P,R12,1*%
%TO.N,Net-(U1-CS8)*%
X141250000Y-58790000D03*
%TO.P,R12,2*%
%TO.N,Net-(D34-GK)*%
X141250000Y-59810000D03*
%TD*%
D11*
%TO.P,D19,1,A*%
%TO.N,Net-(D19-A)*%
X143700000Y-75150000D03*
%TO.P,D19,2,RK*%
%TO.N,Net-(D12-RK)*%
X144550000Y-75150000D03*
%TO.P,D19,3,GK*%
%TO.N,Net-(D12-GK)*%
X144550000Y-76000000D03*
%TO.P,D19,4,BK*%
%TO.N,Net-(D12-BK)*%
X143700000Y-76000000D03*
%TD*%
%TO.P,D3,1,A*%
%TO.N,Net-(D14-A)*%
X145700000Y-65150000D03*
%TO.P,D3,2,RK*%
%TO.N,Net-(D1-RK)*%
X146550000Y-65150000D03*
%TO.P,D3,3,GK*%
%TO.N,Net-(D1-GK)*%
X146550000Y-66000000D03*
%TO.P,D3,4,BK*%
%TO.N,Net-(D1-BK)*%
X145700000Y-66000000D03*
%TD*%
%TO.P,D65,1,A*%
%TO.N,Net-(D10-A)*%
X135700000Y-79150000D03*
%TO.P,D65,2,RK*%
%TO.N,Net-(D56-RK)*%
X136550000Y-79150000D03*
%TO.P,D65,3,GK*%
%TO.N,Net-(D56-GK)*%
X136550000Y-80000000D03*
%TO.P,D65,4,BK*%
%TO.N,Net-(D56-BK)*%
X135700000Y-80000000D03*
%TD*%
D12*
%TO.P,C2,1*%
%TO.N,/VCC*%
X119650000Y-71125000D03*
%TO.P,C2,2*%
%TO.N,GND*%
X119650000Y-69575000D03*
%TD*%
D10*
%TO.P,R18,1*%
%TO.N,Net-(U1-CS2)*%
X137250000Y-58790000D03*
%TO.P,R18,2*%
%TO.N,Net-(D56-GK)*%
X137250000Y-59810000D03*
%TD*%
%TO.P,R4,1*%
%TO.N,Net-(U1-CS15)*%
X144550000Y-56890000D03*
%TO.P,R4,2*%
%TO.N,Net-(D12-RK)*%
X144550000Y-57910000D03*
%TD*%
%TO.P,R3,1*%
%TO.N,Net-(U1-CS16)*%
X145850000Y-56890000D03*
%TO.P,R3,2*%
%TO.N,Net-(D1-BK)*%
X145850000Y-57910000D03*
%TD*%
D11*
%TO.P,D20,1,A*%
%TO.N,Net-(D20-A)*%
X143700000Y-77150000D03*
%TO.P,D20,2,RK*%
%TO.N,Net-(D12-RK)*%
X144550000Y-77150000D03*
%TO.P,D20,3,GK*%
%TO.N,Net-(D12-GK)*%
X144550000Y-78000000D03*
%TO.P,D20,4,BK*%
%TO.N,Net-(D12-BK)*%
X143700000Y-78000000D03*
%TD*%
%TO.P,D12,1,A*%
%TO.N,Net-(D1-A)*%
X143700000Y-61150000D03*
%TO.P,D12,2,RK*%
%TO.N,Net-(D12-RK)*%
X144550000Y-61150000D03*
%TO.P,D12,3,GK*%
%TO.N,Net-(D12-GK)*%
X144550000Y-62000000D03*
%TO.P,D12,4,BK*%
%TO.N,Net-(D12-BK)*%
X143700000Y-62000000D03*
%TD*%
%TO.P,D56,1,A*%
%TO.N,Net-(D1-A)*%
X135700000Y-61150000D03*
%TO.P,D56,2,RK*%
%TO.N,Net-(D56-RK)*%
X136550000Y-61150000D03*
%TO.P,D56,3,GK*%
%TO.N,Net-(D56-GK)*%
X136550000Y-62000000D03*
%TO.P,D56,4,BK*%
%TO.N,Net-(D56-BK)*%
X135700000Y-62000000D03*
%TD*%
%TO.P,D4,1,A*%
%TO.N,Net-(D15-A)*%
X145700000Y-67150000D03*
%TO.P,D4,2,RK*%
%TO.N,Net-(D1-RK)*%
X146550000Y-67150000D03*
%TO.P,D4,3,GK*%
%TO.N,Net-(D1-GK)*%
X146550000Y-68000000D03*
%TO.P,D4,4,BK*%
%TO.N,Net-(D1-BK)*%
X145700000Y-68000000D03*
%TD*%
%TO.P,D40,1,A*%
%TO.N,Net-(D18-A)*%
X139700000Y-73150000D03*
%TO.P,D40,2,RK*%
%TO.N,Net-(D34-RK)*%
X140550000Y-73150000D03*
%TO.P,D40,3,GK*%
%TO.N,Net-(D34-GK)*%
X140550000Y-74000000D03*
%TO.P,D40,4,BK*%
%TO.N,Net-(D34-BK)*%
X139700000Y-74000000D03*
%TD*%
%TO.P,D54,1,A*%
%TO.N,Net-(D10-A)*%
X137700000Y-79150000D03*
%TO.P,D54,2,RK*%
%TO.N,Net-(D45-RK)*%
X138550000Y-79150000D03*
%TO.P,D54,3,GK*%
%TO.N,Net-(D45-GK)*%
X138550000Y-80000000D03*
%TO.P,D54,4,BK*%
%TO.N,Net-(D45-BK)*%
X137700000Y-80000000D03*
%TD*%
%TO.P,D63,1,A*%
%TO.N,Net-(D19-A)*%
X135700000Y-75150000D03*
%TO.P,D63,2,RK*%
%TO.N,Net-(D56-RK)*%
X136550000Y-75150000D03*
%TO.P,D63,3,GK*%
%TO.N,Net-(D56-GK)*%
X136550000Y-76000000D03*
%TO.P,D63,4,BK*%
%TO.N,Net-(D56-BK)*%
X135700000Y-76000000D03*
%TD*%
%TO.P,D61,1,A*%
%TO.N,Net-(D17-A)*%
X135700000Y-71150000D03*
%TO.P,D61,2,RK*%
%TO.N,Net-(D56-RK)*%
X136550000Y-71150000D03*
%TO.P,D61,3,GK*%
%TO.N,Net-(D56-GK)*%
X136550000Y-72000000D03*
%TO.P,D61,4,BK*%
%TO.N,Net-(D56-BK)*%
X135700000Y-72000000D03*
%TD*%
%TO.P,D17,1,A*%
%TO.N,Net-(D17-A)*%
X143700000Y-71150000D03*
%TO.P,D17,2,RK*%
%TO.N,Net-(D12-RK)*%
X144550000Y-71150000D03*
%TO.P,D17,3,GK*%
%TO.N,Net-(D12-GK)*%
X144550000Y-72000000D03*
%TO.P,D17,4,BK*%
%TO.N,Net-(D12-BK)*%
X143700000Y-72000000D03*
%TD*%
%TO.P,D7,1,A*%
%TO.N,Net-(D18-A)*%
X145700000Y-73150000D03*
%TO.P,D7,2,RK*%
%TO.N,Net-(D1-RK)*%
X146550000Y-73150000D03*
%TO.P,D7,3,GK*%
%TO.N,Net-(D1-GK)*%
X146550000Y-74000000D03*
%TO.P,D7,4,BK*%
%TO.N,Net-(D1-BK)*%
X145700000Y-74000000D03*
%TD*%
D10*
%TO.P,R14,1*%
%TO.N,Net-(U1-CS6)*%
X138550000Y-58790000D03*
%TO.P,R14,2*%
%TO.N,Net-(D45-RK)*%
X138550000Y-59810000D03*
%TD*%
D11*
%TO.P,D26,1,A*%
%TO.N,Net-(D15-A)*%
X141700000Y-67150000D03*
%TO.P,D26,2,RK*%
%TO.N,Net-(D23-RK)*%
X142550000Y-67150000D03*
%TO.P,D26,3,GK*%
%TO.N,Net-(D23-GK)*%
X142550000Y-68000000D03*
%TO.P,D26,4,BK*%
%TO.N,Net-(D23-BK)*%
X141700000Y-68000000D03*
%TD*%
%TO.P,D66,1,A*%
%TO.N,Net-(D11-A)*%
X135700000Y-81150000D03*
%TO.P,D66,2,RK*%
%TO.N,Net-(D56-RK)*%
X136550000Y-81150000D03*
%TO.P,D66,3,GK*%
%TO.N,Net-(D56-GK)*%
X136550000Y-82000000D03*
%TO.P,D66,4,BK*%
%TO.N,Net-(D56-BK)*%
X135700000Y-82000000D03*
%TD*%
D10*
%TO.P,R6,1*%
%TO.N,Net-(U1-CS13)*%
X143850000Y-58790000D03*
%TO.P,R6,2*%
%TO.N,Net-(D12-BK)*%
X143850000Y-59810000D03*
%TD*%
D11*
%TO.P,D2,1,A*%
%TO.N,Net-(D13-A)*%
X145700000Y-63150000D03*
%TO.P,D2,2,RK*%
%TO.N,Net-(D1-RK)*%
X146550000Y-63150000D03*
%TO.P,D2,3,GK*%
%TO.N,Net-(D1-GK)*%
X146550000Y-64000000D03*
%TO.P,D2,4,BK*%
%TO.N,Net-(D1-BK)*%
X145700000Y-64000000D03*
%TD*%
D10*
%TO.P,R2,1*%
%TO.N,Net-(U1-CS17)*%
X147250000Y-56890000D03*
%TO.P,R2,2*%
%TO.N,Net-(D1-GK)*%
X147250000Y-57910000D03*
%TD*%
D11*
%TO.P,D27,1,A*%
%TO.N,Net-(D16-A)*%
X141700000Y-69150000D03*
%TO.P,D27,2,RK*%
%TO.N,Net-(D23-RK)*%
X142550000Y-69150000D03*
%TO.P,D27,3,GK*%
%TO.N,Net-(D23-GK)*%
X142550000Y-70000000D03*
%TO.P,D27,4,BK*%
%TO.N,Net-(D23-BK)*%
X141700000Y-70000000D03*
%TD*%
%TO.P,D41,1,A*%
%TO.N,Net-(D19-A)*%
X139700000Y-75150000D03*
%TO.P,D41,2,RK*%
%TO.N,Net-(D34-RK)*%
X140550000Y-75150000D03*
%TO.P,D41,3,GK*%
%TO.N,Net-(D34-GK)*%
X140550000Y-76000000D03*
%TO.P,D41,4,BK*%
%TO.N,Net-(D34-BK)*%
X139700000Y-76000000D03*
%TD*%
%TO.P,D9,1,A*%
%TO.N,Net-(D20-A)*%
X145700000Y-77150000D03*
%TO.P,D9,2,RK*%
%TO.N,Net-(D1-RK)*%
X146550000Y-77150000D03*
%TO.P,D9,3,GK*%
%TO.N,Net-(D1-GK)*%
X146550000Y-78000000D03*
%TO.P,D9,4,BK*%
%TO.N,Net-(D1-BK)*%
X145700000Y-78000000D03*
%TD*%
%TO.P,D57,1,A*%
%TO.N,Net-(D13-A)*%
X135700000Y-63150000D03*
%TO.P,D57,2,RK*%
%TO.N,Net-(D56-RK)*%
X136550000Y-63150000D03*
%TO.P,D57,3,GK*%
%TO.N,Net-(D56-GK)*%
X136550000Y-64000000D03*
%TO.P,D57,4,BK*%
%TO.N,Net-(D56-BK)*%
X135700000Y-64000000D03*
%TD*%
%TO.P,D31,1,A*%
%TO.N,Net-(D20-A)*%
X141700000Y-77150000D03*
%TO.P,D31,2,RK*%
%TO.N,Net-(D23-RK)*%
X142550000Y-77150000D03*
%TO.P,D31,3,GK*%
%TO.N,Net-(D23-GK)*%
X142550000Y-78000000D03*
%TO.P,D31,4,BK*%
%TO.N,Net-(D23-BK)*%
X141700000Y-78000000D03*
%TD*%
%TO.P,D42,1,A*%
%TO.N,Net-(D20-A)*%
X139700000Y-77150000D03*
%TO.P,D42,2,RK*%
%TO.N,Net-(D34-RK)*%
X140550000Y-77150000D03*
%TO.P,D42,3,GK*%
%TO.N,Net-(D34-GK)*%
X140550000Y-78000000D03*
%TO.P,D42,4,BK*%
%TO.N,Net-(D34-BK)*%
X139700000Y-78000000D03*
%TD*%
D10*
%TO.P,R1,1*%
%TO.N,Net-(U1-CS18)*%
X146550000Y-58790000D03*
%TO.P,R1,2*%
%TO.N,Net-(D1-RK)*%
X146550000Y-59810000D03*
%TD*%
D11*
%TO.P,D23,1,A*%
%TO.N,Net-(D1-A)*%
X141700000Y-61150000D03*
%TO.P,D23,2,RK*%
%TO.N,Net-(D23-RK)*%
X142550000Y-61150000D03*
%TO.P,D23,3,GK*%
%TO.N,Net-(D23-GK)*%
X142550000Y-62000000D03*
%TO.P,D23,4,BK*%
%TO.N,Net-(D23-BK)*%
X141700000Y-62000000D03*
%TD*%
D14*
%TO.P,J1,1,Pin_1*%
%TO.N,/SYNC*%
X113900000Y-58610000D03*
D15*
%TO.P,J1,2,Pin_2*%
%TO.N,/MISO*%
X113900000Y-61150000D03*
%TO.P,J1,3,Pin_3*%
%TO.N,/MOSI*%
X113900000Y-63690000D03*
%TO.P,J1,4,Pin_4*%
%TO.N,/SCK*%
X113900000Y-66230000D03*
%TO.P,J1,5,Pin_5*%
%TO.N,/SDB*%
X113900000Y-68770000D03*
%TO.P,J1,6,Pin_6*%
%TO.N,/CS*%
X113900000Y-71310000D03*
%TO.P,J1,7,Pin_7*%
%TO.N,/VCC*%
X113900000Y-73850000D03*
%TO.P,J1,8,Pin_8*%
%TO.N,GND*%
X113900000Y-76390000D03*
%TD*%
D11*
%TO.P,D59,1,A*%
%TO.N,Net-(D15-A)*%
X135700000Y-67150000D03*
%TO.P,D59,2,RK*%
%TO.N,Net-(D56-RK)*%
X136550000Y-67150000D03*
%TO.P,D59,3,GK*%
%TO.N,Net-(D56-GK)*%
X136550000Y-68000000D03*
%TO.P,D59,4,BK*%
%TO.N,Net-(D56-BK)*%
X135700000Y-68000000D03*
%TD*%
D16*
%TO.P,R19,1*%
%TO.N,Net-(U1-ISET)*%
X130125000Y-64835000D03*
%TO.P,R19,2*%
%TO.N,GND*%
X130125000Y-63815000D03*
%TD*%
D11*
%TO.P,D28,1,A*%
%TO.N,Net-(D17-A)*%
X141700000Y-71150000D03*
%TO.P,D28,2,RK*%
%TO.N,Net-(D23-RK)*%
X142550000Y-71150000D03*
%TO.P,D28,3,GK*%
%TO.N,Net-(D23-GK)*%
X142550000Y-72000000D03*
%TO.P,D28,4,BK*%
%TO.N,Net-(D23-BK)*%
X141700000Y-72000000D03*
%TD*%
%TO.P,D6,1,A*%
%TO.N,Net-(D17-A)*%
X145700000Y-71150000D03*
%TO.P,D6,2,RK*%
%TO.N,Net-(D1-RK)*%
X146550000Y-71150000D03*
%TO.P,D6,3,GK*%
%TO.N,Net-(D1-GK)*%
X146550000Y-72000000D03*
%TO.P,D6,4,BK*%
%TO.N,Net-(D1-BK)*%
X145700000Y-72000000D03*
%TD*%
%TO.P,D64,1,A*%
%TO.N,Net-(D20-A)*%
X135700000Y-77150000D03*
%TO.P,D64,2,RK*%
%TO.N,Net-(D56-RK)*%
X136550000Y-77150000D03*
%TO.P,D64,3,GK*%
%TO.N,Net-(D56-GK)*%
X136550000Y-78000000D03*
%TO.P,D64,4,BK*%
%TO.N,Net-(D56-BK)*%
X135700000Y-78000000D03*
%TD*%
D17*
%TO.P,U1,1,SW8*%
%TO.N,Net-(D19-A)*%
X125356068Y-69502297D03*
%TO.P,U1,2,SW6*%
%TO.N,Net-(D17-A)*%
X125638910Y-69785140D03*
%TO.P,U1,3,SW4*%
%TO.N,Net-(D15-A)*%
X125921753Y-70067983D03*
%TO.P,U1,4,SW2*%
%TO.N,Net-(D13-A)*%
X126204596Y-70350825D03*
%TO.P,U1,5,PVCC*%
%TO.N,/VCC*%
X126487438Y-70633668D03*
%TO.P,U1,6,SW1*%
%TO.N,Net-(D1-A)*%
X126770281Y-70916511D03*
%TO.P,U1,7,SW3*%
%TO.N,Net-(D14-A)*%
X127053124Y-71199353D03*
%TO.P,U1,8,SW5*%
%TO.N,Net-(D16-A)*%
X127335966Y-71482196D03*
%TO.P,U1,9,SW7*%
%TO.N,Net-(D18-A)*%
X127618809Y-71765039D03*
%TO.P,U1,10,SW9*%
%TO.N,Net-(D20-A)*%
X127901652Y-72047881D03*
D18*
%TO.P,U1,11,SW11*%
%TO.N,Net-(D11-A)*%
X128856246Y-72047881D03*
%TO.P,U1,12,CS18*%
%TO.N,Net-(U1-CS18)*%
X129139089Y-71765039D03*
%TO.P,U1,13,CS17*%
%TO.N,Net-(U1-CS17)*%
X129421932Y-71482196D03*
%TO.P,U1,14,CS16*%
%TO.N,Net-(U1-CS16)*%
X129704774Y-71199353D03*
%TO.P,U1,15,CS15*%
%TO.N,Net-(U1-CS15)*%
X129987617Y-70916511D03*
%TO.P,U1,16,PGND*%
%TO.N,GND*%
X130270460Y-70633668D03*
%TO.P,U1,17,CS14*%
%TO.N,Net-(U1-CS14)*%
X130553302Y-70350825D03*
%TO.P,U1,18,CS13*%
%TO.N,Net-(U1-CS13)*%
X130836145Y-70067983D03*
%TO.P,U1,19,CS12*%
%TO.N,Net-(U1-CS12)*%
X131118988Y-69785140D03*
%TO.P,U1,20,CS11*%
%TO.N,Net-(U1-CS11)*%
X131401830Y-69502297D03*
D17*
%TO.P,U1,21,CS10*%
%TO.N,Net-(U1-CS10)*%
X131401830Y-68547703D03*
%TO.P,U1,22,VCC*%
%TO.N,/VCC*%
X131118988Y-68264860D03*
%TO.P,U1,23,GND*%
%TO.N,GND*%
X130836145Y-67982017D03*
%TO.P,U1,24,MISO*%
%TO.N,/MISO*%
X130553302Y-67699175D03*
%TO.P,U1,25,CS*%
%TO.N,/CS*%
X130270460Y-67416332D03*
%TO.P,U1,26,SDB*%
%TO.N,/SDB*%
X129987617Y-67133489D03*
%TO.P,U1,27,SCK*%
%TO.N,/SCK*%
X129704774Y-66850647D03*
%TO.P,U1,28,MOSI*%
%TO.N,/MOSI*%
X129421932Y-66567804D03*
%TO.P,U1,29,ISET*%
%TO.N,Net-(U1-ISET)*%
X129139089Y-66284961D03*
%TO.P,U1,30,SYNC*%
%TO.N,/SYNC*%
X128856246Y-66002119D03*
D18*
%TO.P,U1,31,CS9*%
%TO.N,Net-(U1-CS9)*%
X127901652Y-66002119D03*
%TO.P,U1,32,CS8*%
%TO.N,Net-(U1-CS8)*%
X127618809Y-66284961D03*
%TO.P,U1,33,CS7*%
%TO.N,Net-(U1-CS7)*%
X127335966Y-66567804D03*
%TO.P,U1,34,CS6*%
%TO.N,Net-(U1-CS6)*%
X127053124Y-66850647D03*
%TO.P,U1,35,CS5*%
%TO.N,Net-(U1-CS5)*%
X126770281Y-67133489D03*
%TO.P,U1,36,CS4*%
%TO.N,Net-(U1-CS4)*%
X126487438Y-67416332D03*
%TO.P,U1,37,CS3*%
%TO.N,Net-(U1-CS3)*%
X126204596Y-67699175D03*
%TO.P,U1,38,CS2*%
%TO.N,Net-(U1-CS2)*%
X125921753Y-67982017D03*
%TO.P,U1,39,CS1*%
%TO.N,Net-(U1-CS1)*%
X125638910Y-68264860D03*
%TO.P,U1,40,SW10*%
%TO.N,Net-(D10-A)*%
X125356068Y-68547703D03*
D19*
%TO.P,U1,41,GND*%
%TO.N,GND*%
X128378949Y-69025000D03*
%TD*%
D20*
%TO.N,/VCC*%
X131825000Y-67200000D03*
X125736967Y-71386967D03*
X123675000Y-69575000D03*
X124540793Y-70715335D03*
X124587319Y-71575000D03*
%TO.N,GND*%
X130850000Y-63150000D03*
X124500000Y-68400000D03*
X124200000Y-68850000D03*
X127200000Y-69900000D03*
X127400000Y-69250000D03*
X126175000Y-69025000D03*
X130900000Y-63850000D03*
X126900000Y-68700000D03*
X126625000Y-69500000D03*
%TO.N,/SDB*%
X117650000Y-66800000D03*
X130875000Y-66325000D03*
X123575000Y-66800000D03*
X118050000Y-68500000D03*
%TO.N,Net-(D1-A)*%
X146125000Y-60575000D03*
X136125000Y-60575000D03*
X138125000Y-60575000D03*
X125069929Y-72757071D03*
X140125000Y-60575000D03*
X144125000Y-60575000D03*
X142125000Y-60575000D03*
%TO.N,Net-(D13-A)*%
X145725000Y-62575000D03*
X141725000Y-62575000D03*
X139725000Y-62575000D03*
X124985319Y-72109603D03*
X137725000Y-62575000D03*
X143725000Y-62575000D03*
X135725000Y-62575000D03*
%TO.N,Net-(D14-A)*%
X137725000Y-64575000D03*
X135725000Y-64575000D03*
X141725000Y-64575000D03*
X139725000Y-64575000D03*
X143725000Y-64575000D03*
X145725000Y-64575000D03*
X126000289Y-72798289D03*
%TO.N,Net-(D15-A)*%
X145725000Y-66575000D03*
X143725000Y-66575000D03*
X132798000Y-65684804D03*
X125117696Y-70538696D03*
X141725000Y-66575000D03*
X131632838Y-64204304D03*
X135725000Y-66575000D03*
X139725000Y-66575000D03*
X137725000Y-66575000D03*
%TO.N,Net-(D16-A)*%
X126400000Y-73525000D03*
X135725000Y-68575000D03*
X145725000Y-68575000D03*
X128325000Y-72652000D03*
X139725000Y-68575000D03*
X143725000Y-68575000D03*
X137725000Y-68575000D03*
X128050000Y-73525000D03*
X141725000Y-68575000D03*
%TO.N,Net-(D17-A)*%
X143725000Y-70575000D03*
X145725000Y-70575000D03*
X139725000Y-70575000D03*
X141725000Y-70575000D03*
X135725000Y-70575000D03*
X137725000Y-70575000D03*
X133275000Y-71800000D03*
X131525000Y-71775000D03*
X124275000Y-72525000D03*
%TO.N,Net-(D18-A)*%
X126900000Y-73050000D03*
X141725000Y-72575000D03*
X137725000Y-72575000D03*
X139725000Y-72575000D03*
X143725000Y-72575000D03*
X145725000Y-72575000D03*
X135725000Y-72575000D03*
%TO.N,Net-(D19-A)*%
X139725000Y-74575000D03*
X145725000Y-74575000D03*
X135725000Y-74575000D03*
X123700000Y-73850000D03*
X141725000Y-74575000D03*
X137725000Y-74575000D03*
X143725000Y-74575000D03*
%TO.N,Net-(D20-A)*%
X141725000Y-76575000D03*
X134450000Y-76600000D03*
X143725000Y-76575000D03*
X139725000Y-76575000D03*
X145725000Y-76575000D03*
X135725000Y-76575000D03*
X137725000Y-76575000D03*
%TO.N,Net-(D10-A)*%
X139725000Y-78575000D03*
X145725000Y-78575000D03*
X141725000Y-78575000D03*
X143725000Y-78575000D03*
X134700000Y-78575000D03*
X137725000Y-78575000D03*
X135725000Y-78575000D03*
%TO.N,Net-(D11-A)*%
X143725000Y-80575000D03*
X137725000Y-80575000D03*
X145725000Y-80575000D03*
X141725000Y-80575000D03*
X135725000Y-80575000D03*
X139725000Y-80575000D03*
X129725000Y-75750000D03*
%TO.N,/MOSI*%
X130155954Y-65830954D03*
X123575000Y-65625000D03*
%TO.N,/SCK*%
X123575000Y-66225000D03*
X130775000Y-65600000D03*
%TO.N,/CS*%
X130984652Y-66858345D03*
X123575000Y-67375000D03*
%TO.N,/MISO*%
X123575000Y-65050000D03*
X131000000Y-64925000D03*
%TO.N,/SYNC*%
X123600000Y-64450000D03*
X129300000Y-64600000D03*
%TO.N,Net-(U1-CS18)*%
X130450000Y-74125000D03*
X129856429Y-53493571D03*
%TO.N,Net-(U1-CS17)*%
X129300000Y-53500000D03*
X131025000Y-75075000D03*
%TO.N,Net-(U1-CS16)*%
X130437751Y-53512036D03*
X131350000Y-73525000D03*
%TO.N,Net-(U1-CS15)*%
X130600000Y-71377000D03*
X131950000Y-69025000D03*
X133256071Y-62581071D03*
X132425000Y-53475000D03*
%TO.N,Net-(U1-CS14)*%
X131400000Y-71175000D03*
X133650000Y-63312857D03*
X132599288Y-64400711D03*
X133650000Y-67927880D03*
X132017860Y-63819282D03*
X131850000Y-53500000D03*
%TO.N,Net-(U1-CS13)*%
X133050000Y-59675000D03*
X133650000Y-60375000D03*
X134775000Y-60025000D03*
X133025000Y-53475000D03*
%TO.N,Net-(U1-CS12)*%
X134300000Y-59675000D03*
X142325000Y-56075000D03*
X135300000Y-56075000D03*
X134300000Y-56075000D03*
%TO.N,Net-(U1-CS11)*%
X133600000Y-59675000D03*
X133600000Y-53475000D03*
%TO.N,Net-(U1-CS10)*%
X134875000Y-59225000D03*
X134875000Y-53475000D03*
%TO.N,Net-(U1-CS7)*%
X127825000Y-64100000D03*
X126725000Y-64100000D03*
%TO.N,Net-(U1-CS6)*%
X128300000Y-63700000D03*
X126325000Y-63700000D03*
%TO.N,Net-(U1-CS5)*%
X125875000Y-64625000D03*
X138800000Y-55150000D03*
X137425000Y-55152000D03*
X128075000Y-64625000D03*
%TO.N,Net-(U1-CS4)*%
X125425000Y-63300000D03*
X129275000Y-63300000D03*
%TO.N,Net-(U1-CS3)*%
X125000000Y-62900000D03*
X129775000Y-62900000D03*
%TO.N,Net-(U1-CS2)*%
X130350000Y-62425000D03*
X124500000Y-62425000D03*
%TO.N,Net-(U1-CS1)*%
X130825000Y-61925000D03*
X124075000Y-61925000D03*
%TD*%
D21*
%TO.N,/VCC*%
X122125000Y-71125000D02*
X123675000Y-69575000D01*
X119650000Y-71900000D02*
X119650000Y-71125000D01*
D22*
X126487438Y-70636496D02*
X125736967Y-71386967D01*
D21*
X119650000Y-71125000D02*
X121250000Y-71125000D01*
X121250000Y-71125000D02*
X122125000Y-71125000D01*
D22*
X124587319Y-71575000D02*
X124587319Y-70761861D01*
X126487438Y-70633668D02*
X126487438Y-70636496D01*
D21*
X113900000Y-73850000D02*
X117700000Y-73850000D01*
X117700000Y-73850000D02*
X119650000Y-71900000D01*
D22*
X124587319Y-70761861D02*
X124540793Y-70715335D01*
X131825000Y-67558848D02*
X131825000Y-67200000D01*
X131118988Y-68264860D02*
X131825000Y-67558848D01*
%TO.N,GND*%
X130270460Y-70633668D02*
X128661792Y-69025000D01*
X129275000Y-68900000D02*
X129150000Y-69025000D01*
X129793162Y-69025000D02*
X129400000Y-69025000D01*
X128661792Y-69025000D02*
X128378949Y-69025000D01*
X129400000Y-69025000D02*
X129275000Y-68900000D01*
X130836145Y-67982017D02*
X129793162Y-69025000D01*
X129150000Y-69025000D02*
X128378949Y-69025000D01*
%TO.N,/SDB*%
X130796106Y-66325000D02*
X129987617Y-67133489D01*
X118050000Y-68500000D02*
X118050000Y-69525000D01*
X117650000Y-66800000D02*
X123575000Y-66800000D01*
X113900000Y-68770000D02*
X115680000Y-68770000D01*
X115680000Y-68770000D02*
X117650000Y-66800000D01*
X130875000Y-66325000D02*
X130796106Y-66325000D01*
%TO.N,Net-(D1-A)*%
X125799211Y-71887581D02*
X126770281Y-70916511D01*
X135700000Y-61000000D02*
X136125000Y-60575000D01*
X143700000Y-61000000D02*
X144125000Y-60575000D01*
X125601789Y-72294306D02*
X125799211Y-72096884D01*
X125350001Y-73025000D02*
X125601789Y-72773211D01*
X125069929Y-72757071D02*
X125082072Y-72757071D01*
X137700000Y-61150000D02*
X137700000Y-61000000D01*
X139700000Y-61000000D02*
X140125000Y-60575000D01*
X125082072Y-72757071D02*
X125350001Y-73025000D01*
X141700000Y-61150000D02*
X141700000Y-61000000D01*
X145700000Y-61000000D02*
X146125000Y-60575000D01*
X139700000Y-61150000D02*
X139700000Y-61000000D01*
X141700000Y-61000000D02*
X142125000Y-60575000D01*
X145700000Y-61150000D02*
X145700000Y-61000000D01*
X135700000Y-61150000D02*
X135700000Y-61000000D01*
X125799211Y-72096884D02*
X125799211Y-71887581D01*
X125601789Y-72773211D02*
X125601789Y-72294306D01*
X137700000Y-61000000D02*
X138125000Y-60575000D01*
X143700000Y-61150000D02*
X143700000Y-61000000D01*
%TO.N,Net-(D1-RK)*%
X146550000Y-71150000D02*
X146134500Y-71565500D01*
X146550000Y-73150000D02*
X146134500Y-73565500D01*
X146134500Y-63565500D02*
X146134500Y-64734500D01*
X146134500Y-73565500D02*
X146134500Y-74734500D01*
X146550000Y-59810000D02*
X146550000Y-61150000D01*
X146134500Y-70734500D02*
X146550000Y-71150000D01*
X146134500Y-76734500D02*
X146550000Y-77150000D01*
X146134500Y-65565500D02*
X146134500Y-66734500D01*
X146134500Y-69565500D02*
X146134500Y-70734500D01*
X146134500Y-68734500D02*
X146550000Y-69150000D01*
X146134500Y-61565500D02*
X146134500Y-62734500D01*
X146134500Y-80734500D02*
X146550000Y-81150000D01*
X146134500Y-77565500D02*
X146134500Y-78734500D01*
X146550000Y-63150000D02*
X146134500Y-63565500D01*
X146134500Y-66734500D02*
X146550000Y-67150000D01*
X146550000Y-69150000D02*
X146134500Y-69565500D01*
X146550000Y-79150000D02*
X146134500Y-79565500D01*
X146134500Y-74734500D02*
X146550000Y-75150000D01*
X146134500Y-71565500D02*
X146134500Y-72734500D01*
X146134500Y-79565500D02*
X146134500Y-80734500D01*
X146550000Y-77150000D02*
X146134500Y-77565500D01*
X146550000Y-75150000D02*
X146134500Y-75565500D01*
X146134500Y-62734500D02*
X146550000Y-63150000D01*
X146134500Y-78734500D02*
X146550000Y-79150000D01*
X146134500Y-67565500D02*
X146134500Y-68734500D01*
X146550000Y-65150000D02*
X146134500Y-65565500D01*
X146134500Y-72734500D02*
X146550000Y-73150000D01*
X146550000Y-61150000D02*
X146134500Y-61565500D01*
X146134500Y-64734500D02*
X146550000Y-65150000D01*
X146134500Y-75565500D02*
X146134500Y-76734500D01*
X146550000Y-67150000D02*
X146134500Y-67565500D01*
%TO.N,Net-(D1-GK)*%
X146965500Y-77584500D02*
X146965500Y-76415500D01*
X146550000Y-72000000D02*
X146965500Y-71584500D01*
X146965500Y-62415500D02*
X146550000Y-62000000D01*
X147250000Y-57910000D02*
X147250000Y-61300000D01*
X146550000Y-76000000D02*
X146965500Y-75584500D01*
X146965500Y-76415500D02*
X146550000Y-76000000D01*
X146965500Y-65584500D02*
X146965500Y-64415500D01*
X146965500Y-64415500D02*
X146550000Y-64000000D01*
X146965500Y-78415500D02*
X146550000Y-78000000D01*
X146550000Y-74000000D02*
X146965500Y-73584500D01*
X146550000Y-68000000D02*
X146965500Y-67584500D01*
X146550000Y-70000000D02*
X146965500Y-69584500D01*
X146550000Y-66000000D02*
X146965500Y-65584500D01*
X146965500Y-80415500D02*
X146550000Y-80000000D01*
X146550000Y-64000000D02*
X146965500Y-63584500D01*
X146965500Y-74415500D02*
X146550000Y-74000000D01*
X147250000Y-61300000D02*
X146550000Y-62000000D01*
X146965500Y-72415500D02*
X146550000Y-72000000D01*
X146965500Y-79584500D02*
X146965500Y-78415500D01*
X146965500Y-68415500D02*
X146550000Y-68000000D01*
X146550000Y-82000000D02*
X146965500Y-81584500D01*
X146550000Y-80000000D02*
X146965500Y-79584500D01*
X146965500Y-75584500D02*
X146965500Y-74415500D01*
X146965500Y-63584500D02*
X146965500Y-62415500D01*
X146965500Y-73584500D02*
X146965500Y-72415500D01*
X146965500Y-67584500D02*
X146965500Y-66415500D01*
X146550000Y-78000000D02*
X146965500Y-77584500D01*
X146965500Y-71584500D02*
X146965500Y-70415500D01*
X146965500Y-70415500D02*
X146550000Y-70000000D01*
X146965500Y-66415500D02*
X146550000Y-66000000D01*
X146965500Y-81584500D02*
X146965500Y-80415500D01*
X146965500Y-69584500D02*
X146965500Y-68415500D01*
%TO.N,Net-(D1-BK)*%
X145284500Y-71584500D02*
X145700000Y-72000000D01*
X145850000Y-57910000D02*
X145850000Y-60286435D01*
X145284500Y-79584500D02*
X145700000Y-80000000D01*
X145284500Y-72415500D02*
X145284500Y-73584500D01*
X145284500Y-62415500D02*
X145284500Y-63584500D01*
X145700000Y-80000000D02*
X145284500Y-80415500D01*
X145700000Y-74000000D02*
X145284500Y-74415500D01*
X145284500Y-67584500D02*
X145700000Y-68000000D01*
X145284500Y-66415500D02*
X145284500Y-67584500D01*
X145700000Y-62000000D02*
X145284500Y-62415500D01*
X145700000Y-66000000D02*
X145284500Y-66415500D01*
X145284500Y-69584500D02*
X145700000Y-70000000D01*
X145700000Y-78000000D02*
X145284500Y-78415500D01*
X145284500Y-81584500D02*
X145700000Y-82000000D01*
X145284500Y-74415500D02*
X145284500Y-75584500D01*
X145284500Y-65584500D02*
X145700000Y-66000000D01*
X145286500Y-60849935D02*
X145286500Y-61586500D01*
X145700000Y-68000000D02*
X145284500Y-68415500D01*
X145284500Y-70415500D02*
X145284500Y-71584500D01*
X145284500Y-76415500D02*
X145284500Y-77584500D01*
X145850000Y-60286435D02*
X145286500Y-60849935D01*
X145284500Y-64415500D02*
X145284500Y-65584500D01*
X145700000Y-64000000D02*
X145284500Y-64415500D01*
X145284500Y-68415500D02*
X145284500Y-69584500D01*
X145284500Y-80415500D02*
X145284500Y-81584500D01*
X145284500Y-63584500D02*
X145700000Y-64000000D01*
X145700000Y-76000000D02*
X145284500Y-76415500D01*
X145284500Y-78415500D02*
X145284500Y-79584500D01*
X145700000Y-72000000D02*
X145284500Y-72415500D01*
X145284500Y-73584500D02*
X145700000Y-74000000D01*
X145284500Y-77584500D02*
X145700000Y-78000000D01*
X145700000Y-70000000D02*
X145284500Y-70415500D01*
X145284500Y-75584500D02*
X145700000Y-76000000D01*
X145286500Y-61586500D02*
X145700000Y-62000000D01*
%TO.N,Net-(D13-A)*%
X135700000Y-63150000D02*
X135725000Y-63125000D01*
X139725000Y-63125000D02*
X139725000Y-62575000D01*
X145725000Y-63125000D02*
X145725000Y-62575000D01*
X125880421Y-70675000D02*
X126204596Y-70350825D01*
X137700000Y-63150000D02*
X137725000Y-63125000D01*
X137725000Y-63125000D02*
X137725000Y-62575000D01*
X143725000Y-63125000D02*
X143725000Y-62575000D01*
X125650000Y-70675000D02*
X125880421Y-70675000D01*
X141700000Y-63150000D02*
X141725000Y-63125000D01*
X141725000Y-63125000D02*
X141725000Y-62575000D01*
X124985319Y-71339681D02*
X125650000Y-70675000D01*
X139700000Y-63150000D02*
X139725000Y-63125000D01*
X145700000Y-63150000D02*
X145725000Y-63125000D01*
X135725000Y-63125000D02*
X135725000Y-62575000D01*
X124985319Y-72109603D02*
X124985319Y-71339681D01*
X143700000Y-63150000D02*
X143725000Y-63125000D01*
%TO.N,Net-(D14-A)*%
X126000289Y-72798289D02*
X126000289Y-72252188D01*
X139725000Y-65125000D02*
X139725000Y-64575000D01*
X145700000Y-65150000D02*
X145725000Y-65125000D01*
X143725000Y-65125000D02*
X143725000Y-64575000D01*
X141700000Y-65150000D02*
X141725000Y-65125000D01*
X126000289Y-72252188D02*
X127053124Y-71199353D01*
X135700000Y-65150000D02*
X135725000Y-65125000D01*
X141725000Y-65125000D02*
X141725000Y-64575000D01*
X137725000Y-65125000D02*
X137725000Y-64575000D01*
X135725000Y-65125000D02*
X135725000Y-64575000D01*
X143700000Y-65150000D02*
X143725000Y-65125000D01*
X137700000Y-65150000D02*
X137725000Y-65125000D01*
X139700000Y-65150000D02*
X139725000Y-65125000D01*
X145725000Y-65125000D02*
X145725000Y-64575000D01*
%TO.N,Net-(D15-A)*%
X125231392Y-70425000D02*
X125564736Y-70425000D01*
X139725000Y-67125000D02*
X139725000Y-66575000D01*
X137725000Y-67125000D02*
X137725000Y-66575000D01*
X141725000Y-67125000D02*
X141725000Y-66575000D01*
X131632838Y-64519642D02*
X132798000Y-65684804D01*
X145725000Y-67125000D02*
X145725000Y-66575000D01*
X137700000Y-67150000D02*
X137725000Y-67125000D01*
X125117696Y-70538696D02*
X125231392Y-70425000D01*
X135700000Y-67150000D02*
X135725000Y-67125000D01*
X139700000Y-67150000D02*
X139725000Y-67125000D01*
X143725000Y-67125000D02*
X143725000Y-66575000D01*
X131632838Y-64204304D02*
X131632838Y-64519642D01*
X125564736Y-70425000D02*
X125921753Y-70067983D01*
X145700000Y-67150000D02*
X145725000Y-67125000D01*
X141700000Y-67150000D02*
X141725000Y-67125000D01*
X143700000Y-67150000D02*
X143725000Y-67125000D01*
X135725000Y-67125000D02*
X135725000Y-66575000D01*
%TO.N,Net-(D16-A)*%
X137725000Y-69125000D02*
X137725000Y-68575000D01*
X139700000Y-69150000D02*
X139725000Y-69125000D01*
X141700000Y-69150000D02*
X141725000Y-69125000D01*
X145700000Y-69150000D02*
X145725000Y-69125000D01*
X141725000Y-69125000D02*
X141725000Y-68575000D01*
X143700000Y-69150000D02*
X143725000Y-69125000D01*
X126400000Y-72418162D02*
X126400000Y-73525000D01*
X135700000Y-69150000D02*
X135725000Y-69125000D01*
X128050000Y-72927000D02*
X128325000Y-72652000D01*
X128050000Y-73525000D02*
X128050000Y-72927000D01*
X137700000Y-69150000D02*
X137725000Y-69125000D01*
X143725000Y-69125000D02*
X143725000Y-68575000D01*
X145725000Y-69125000D02*
X145725000Y-68575000D01*
X127335966Y-71482196D02*
X126400000Y-72418162D01*
X139725000Y-69125000D02*
X139725000Y-68575000D01*
X135725000Y-69125000D02*
X135725000Y-68575000D01*
%TO.N,Net-(D17-A)*%
X141700000Y-71150000D02*
X141725000Y-71125000D01*
X135700000Y-71150000D02*
X135725000Y-71125000D01*
X125638910Y-69785140D02*
X125324050Y-70100000D01*
X124516535Y-70100000D02*
X123952000Y-70664535D01*
X137700000Y-71150000D02*
X137725000Y-71125000D01*
X139725000Y-71125000D02*
X139725000Y-70575000D01*
X145700000Y-71150000D02*
X145725000Y-71125000D01*
X133250000Y-71775000D02*
X133275000Y-71800000D01*
X145725000Y-71125000D02*
X145725000Y-70575000D01*
X141725000Y-71125000D02*
X141725000Y-70575000D01*
X137725000Y-71125000D02*
X137725000Y-70575000D01*
X143700000Y-71150000D02*
X143725000Y-71125000D01*
X143725000Y-71125000D02*
X143725000Y-70575000D01*
X125324050Y-70100000D02*
X124516535Y-70100000D01*
X131525000Y-71775000D02*
X133250000Y-71775000D01*
X135725000Y-71125000D02*
X135725000Y-70575000D01*
X123952000Y-70664535D02*
X123952000Y-72202000D01*
X123952000Y-72202000D02*
X124275000Y-72525000D01*
X139700000Y-71150000D02*
X139725000Y-71125000D01*
%TO.N,Net-(D18-A)*%
X139725000Y-73125000D02*
X139725000Y-72575000D01*
X127618809Y-71765039D02*
X126900000Y-72483848D01*
X145725000Y-73125000D02*
X145725000Y-72575000D01*
X137725000Y-73125000D02*
X137725000Y-72575000D01*
X126900000Y-72483848D02*
X126900000Y-73050000D01*
X143725000Y-73125000D02*
X143725000Y-72575000D01*
X135700000Y-73150000D02*
X135725000Y-73125000D01*
X141725000Y-73125000D02*
X141725000Y-72575000D01*
X135725000Y-73125000D02*
X135725000Y-72575000D01*
X145700000Y-73150000D02*
X145725000Y-73125000D01*
X143700000Y-73150000D02*
X143725000Y-73125000D01*
X141700000Y-73150000D02*
X141725000Y-73125000D01*
X137700000Y-73150000D02*
X137725000Y-73125000D01*
X139700000Y-73150000D02*
X139725000Y-73125000D01*
%TO.N,Net-(D19-A)*%
X135700000Y-75150000D02*
X135725000Y-75125000D01*
X145725000Y-75125000D02*
X145725000Y-74575000D01*
X125356068Y-69502297D02*
X125058365Y-69800000D01*
X123700000Y-70560153D02*
X123700000Y-73850000D01*
X137725000Y-75125000D02*
X137725000Y-74575000D01*
X139700000Y-75150000D02*
X139725000Y-75125000D01*
X124460153Y-69800000D02*
X123700000Y-70560153D01*
X139725000Y-75125000D02*
X139725000Y-74575000D01*
X141700000Y-75150000D02*
X141725000Y-75125000D01*
X143725000Y-75125000D02*
X143725000Y-74575000D01*
X125058365Y-69800000D02*
X124460153Y-69800000D01*
X145700000Y-75150000D02*
X145725000Y-75125000D01*
X137700000Y-75150000D02*
X137725000Y-75125000D01*
X143700000Y-75150000D02*
X143725000Y-75125000D01*
X141725000Y-75125000D02*
X141725000Y-74575000D01*
X135725000Y-75125000D02*
X135725000Y-74575000D01*
%TO.N,Net-(D20-A)*%
X127475000Y-72474533D02*
X127475000Y-75200000D01*
X137725000Y-77125000D02*
X137725000Y-76575000D01*
X141725000Y-77125000D02*
X141725000Y-76575000D01*
X139725000Y-77125000D02*
X139725000Y-76575000D01*
X127475000Y-75200000D02*
X128875000Y-76600000D01*
X145700000Y-77150000D02*
X145725000Y-77125000D01*
X145725000Y-77125000D02*
X145725000Y-76575000D01*
X143700000Y-77150000D02*
X143725000Y-77125000D01*
X139700000Y-77150000D02*
X139725000Y-77125000D01*
X135725000Y-77125000D02*
X135725000Y-76575000D01*
X128875000Y-76600000D02*
X134450000Y-76600000D01*
X127901652Y-72047881D02*
X127475000Y-72474533D01*
X137700000Y-77150000D02*
X137725000Y-77125000D01*
X143725000Y-77125000D02*
X143725000Y-76575000D01*
X135700000Y-77150000D02*
X135725000Y-77125000D01*
X141700000Y-77150000D02*
X141725000Y-77125000D01*
%TO.N,Net-(D10-A)*%
X139700000Y-79150000D02*
X139725000Y-79125000D01*
X137725000Y-79125000D02*
X137725000Y-78575000D01*
X143725000Y-79125000D02*
X143725000Y-78575000D01*
X139725000Y-79125000D02*
X139725000Y-78575000D01*
X123301500Y-70602271D02*
X123301500Y-74451500D01*
X145725000Y-79125000D02*
X145725000Y-78575000D01*
X137700000Y-79150000D02*
X137725000Y-79125000D01*
X145700000Y-79150000D02*
X145725000Y-79125000D01*
X123301500Y-74451500D02*
X124475000Y-75625000D01*
X124475000Y-75625000D02*
X127425000Y-78575000D01*
X141725000Y-79125000D02*
X141725000Y-78575000D01*
X125356068Y-68547703D02*
X123301500Y-70602271D01*
X135725000Y-79125000D02*
X135725000Y-78575000D01*
X127425000Y-78575000D02*
X134700000Y-78575000D01*
X141700000Y-79150000D02*
X141725000Y-79125000D01*
X143700000Y-79150000D02*
X143725000Y-79125000D01*
X135700000Y-79150000D02*
X135725000Y-79125000D01*
%TO.N,Net-(D11-A)*%
X129250000Y-75275000D02*
X129725000Y-75750000D01*
X145700000Y-81150000D02*
X145725000Y-81125000D01*
X143725000Y-81125000D02*
X143725000Y-80575000D01*
X135700000Y-81150000D02*
X135725000Y-81125000D01*
X139725000Y-81125000D02*
X139725000Y-80575000D01*
X137700000Y-81150000D02*
X137725000Y-81125000D01*
X137725000Y-81125000D02*
X137725000Y-80575000D01*
X145725000Y-81125000D02*
X145725000Y-80575000D01*
X141700000Y-81150000D02*
X141725000Y-81125000D01*
X139700000Y-81150000D02*
X139725000Y-81125000D01*
X129250000Y-72441635D02*
X129250000Y-75275000D01*
X141725000Y-81125000D02*
X141725000Y-80575000D01*
X143700000Y-81150000D02*
X143725000Y-81125000D01*
X128856246Y-72047881D02*
X129250000Y-72441635D01*
X135725000Y-81125000D02*
X135725000Y-80575000D01*
%TO.N,Net-(D12-RK)*%
X144550000Y-79150000D02*
X144134500Y-79565500D01*
X144550000Y-63150000D02*
X144134500Y-63565500D01*
X144550000Y-61150000D02*
X144134500Y-61565500D01*
X144134500Y-71565500D02*
X144134500Y-72734500D01*
X144550000Y-65150000D02*
X144134500Y-65565500D01*
X144134500Y-64734500D02*
X144550000Y-65150000D01*
X144550000Y-67150000D02*
X144134500Y-67565500D01*
X144134500Y-68734500D02*
X144550000Y-69150000D01*
X144550000Y-75150000D02*
X144134500Y-75565500D01*
X144134500Y-70734500D02*
X144550000Y-71150000D01*
X144134500Y-69565500D02*
X144134500Y-70734500D01*
X144550000Y-57910000D02*
X144550000Y-61150000D01*
X144550000Y-73150000D02*
X144134500Y-73565500D01*
X144134500Y-62734500D02*
X144550000Y-63150000D01*
X144550000Y-77150000D02*
X144134500Y-77565500D01*
X144134500Y-74734500D02*
X144550000Y-75150000D01*
X144550000Y-69150000D02*
X144134500Y-69565500D01*
X144134500Y-80734500D02*
X144550000Y-81150000D01*
X144134500Y-75565500D02*
X144134500Y-76734500D01*
X144134500Y-67565500D02*
X144134500Y-68734500D01*
X144550000Y-71150000D02*
X144134500Y-71565500D01*
X144134500Y-72734500D02*
X144550000Y-73150000D01*
X144134500Y-61565500D02*
X144134500Y-62734500D01*
X144134500Y-79565500D02*
X144134500Y-80734500D01*
X144134500Y-66734500D02*
X144550000Y-67150000D01*
X144134500Y-77565500D02*
X144134500Y-78734500D01*
X144134500Y-78734500D02*
X144550000Y-79150000D01*
X144134500Y-76734500D02*
X144550000Y-77150000D01*
X144134500Y-65565500D02*
X144134500Y-66734500D01*
X144134500Y-73565500D02*
X144134500Y-74734500D01*
X144134500Y-63565500D02*
X144134500Y-64734500D01*
%TO.N,Net-(D12-GK)*%
X144550000Y-66000000D02*
X144965500Y-65584500D01*
X144550000Y-78000000D02*
X144965500Y-77584500D01*
X145034500Y-60025500D02*
X145034500Y-61515500D01*
X144965500Y-63584500D02*
X144965500Y-62415500D01*
X144965500Y-68415500D02*
X144550000Y-68000000D01*
X144550000Y-74000000D02*
X144965500Y-73584500D01*
X144965500Y-69584500D02*
X144965500Y-68415500D01*
X144965500Y-72415500D02*
X144550000Y-72000000D01*
X144550000Y-64000000D02*
X144965500Y-63584500D01*
X144965500Y-79584500D02*
X144965500Y-78415500D01*
X144965500Y-77584500D02*
X144965500Y-76415500D01*
X144550000Y-80000000D02*
X144965500Y-79584500D01*
X144550000Y-82000000D02*
X144965500Y-81584500D01*
X144965500Y-62415500D02*
X144550000Y-62000000D01*
X144965500Y-76415500D02*
X144550000Y-76000000D01*
X144550000Y-76000000D02*
X144965500Y-75584500D01*
X144965500Y-78415500D02*
X144550000Y-78000000D01*
X144965500Y-74415500D02*
X144550000Y-74000000D01*
X144965500Y-65584500D02*
X144965500Y-64415500D01*
X144550000Y-70000000D02*
X144965500Y-69584500D01*
X144965500Y-66415500D02*
X144550000Y-66000000D01*
X144965500Y-70415500D02*
X144550000Y-70000000D01*
X144965500Y-81584500D02*
X144965500Y-80415500D01*
X144965500Y-71584500D02*
X144965500Y-70415500D01*
X144550000Y-72000000D02*
X144965500Y-71584500D01*
X144965500Y-67584500D02*
X144965500Y-66415500D01*
X145034500Y-61515500D02*
X144550000Y-62000000D01*
X144550000Y-68000000D02*
X144965500Y-67584500D01*
X144965500Y-73584500D02*
X144965500Y-72415500D01*
X145250000Y-59810000D02*
X145034500Y-60025500D01*
X144965500Y-80415500D02*
X144550000Y-80000000D01*
X144965500Y-64415500D02*
X144550000Y-64000000D01*
X144965500Y-75584500D02*
X144965500Y-74415500D01*
%TO.N,Net-(D12-BK)*%
X143284500Y-67584500D02*
X143284500Y-66415500D01*
X143284500Y-71584500D02*
X143284500Y-70415500D01*
X143284500Y-80415500D02*
X143700000Y-80000000D01*
X143284500Y-78415500D02*
X143700000Y-78000000D01*
X143700000Y-68000000D02*
X143284500Y-67584500D01*
X143284500Y-73584500D02*
X143284500Y-72415500D01*
X143284500Y-66415500D02*
X143700000Y-66000000D01*
X143286500Y-61586500D02*
X143700000Y-62000000D01*
X143284500Y-72415500D02*
X143700000Y-72000000D01*
X143284500Y-64415500D02*
X143700000Y-64000000D01*
X143700000Y-70000000D02*
X143284500Y-69584500D01*
X143284500Y-77584500D02*
X143284500Y-76415500D01*
X143700000Y-66000000D02*
X143284500Y-65584500D01*
X143850000Y-59810000D02*
X143286500Y-60373500D01*
X143284500Y-62415500D02*
X143700000Y-62000000D01*
X143286500Y-60373500D02*
X143286500Y-61586500D01*
X143284500Y-69584500D02*
X143284500Y-68415500D01*
X143700000Y-64000000D02*
X143284500Y-63584500D01*
X143284500Y-81584500D02*
X143284500Y-80415500D01*
X143700000Y-78000000D02*
X143284500Y-77584500D01*
X143284500Y-76415500D02*
X143700000Y-76000000D01*
X143700000Y-72000000D02*
X143284500Y-71584500D01*
X143700000Y-80000000D02*
X143284500Y-79584500D01*
X143284500Y-79584500D02*
X143284500Y-78415500D01*
X143700000Y-76000000D02*
X143284500Y-75584500D01*
X143284500Y-63584500D02*
X143284500Y-62415500D01*
X143284500Y-75584500D02*
X143284500Y-74415500D01*
X143700000Y-82000000D02*
X143284500Y-81584500D01*
X143284500Y-70415500D02*
X143700000Y-70000000D01*
X143284500Y-65584500D02*
X143284500Y-64415500D01*
X143284500Y-74415500D02*
X143700000Y-74000000D01*
X143284500Y-68415500D02*
X143700000Y-68000000D01*
X143700000Y-74000000D02*
X143284500Y-73584500D01*
%TO.N,Net-(D23-RK)*%
X142134500Y-69565500D02*
X142550000Y-69150000D01*
X142134500Y-76734500D02*
X142134500Y-75565500D01*
X142134500Y-70734500D02*
X142134500Y-69565500D01*
X142550000Y-75150000D02*
X142134500Y-74734500D01*
X142134500Y-66734500D02*
X142134500Y-65565500D01*
X142134500Y-63565500D02*
X142550000Y-63150000D01*
X142134500Y-62734500D02*
X142134500Y-61565500D01*
X142134500Y-77565500D02*
X142550000Y-77150000D01*
X142134500Y-65565500D02*
X142550000Y-65150000D01*
X142550000Y-67150000D02*
X142134500Y-66734500D01*
X142550000Y-79150000D02*
X142134500Y-78734500D01*
X142134500Y-73565500D02*
X142550000Y-73150000D01*
X142550000Y-77150000D02*
X142134500Y-76734500D01*
X142550000Y-63150000D02*
X142134500Y-62734500D01*
X142134500Y-72734500D02*
X142134500Y-71565500D01*
X142134500Y-71565500D02*
X142550000Y-71150000D01*
X142550000Y-81150000D02*
X142134500Y-80734500D01*
X142550000Y-65150000D02*
X142134500Y-64734500D01*
X142134500Y-67565500D02*
X142550000Y-67150000D01*
X142134500Y-64734500D02*
X142134500Y-63565500D01*
X142550000Y-59810000D02*
X142550000Y-61150000D01*
X142134500Y-79565500D02*
X142550000Y-79150000D01*
X142550000Y-73150000D02*
X142134500Y-72734500D01*
X142134500Y-61565500D02*
X142550000Y-61150000D01*
X142134500Y-68734500D02*
X142134500Y-67565500D01*
X142134500Y-80734500D02*
X142134500Y-79565500D01*
X142134500Y-78734500D02*
X142134500Y-77565500D01*
X142134500Y-74734500D02*
X142134500Y-73565500D01*
X142550000Y-71150000D02*
X142134500Y-70734500D01*
X142550000Y-69150000D02*
X142134500Y-68734500D01*
X142134500Y-75565500D02*
X142550000Y-75150000D01*
%TO.N,Net-(D23-GK)*%
X142965500Y-79584500D02*
X142550000Y-80000000D01*
X142550000Y-68000000D02*
X142965500Y-68415500D01*
X142965500Y-63584500D02*
X142550000Y-64000000D01*
X142965500Y-69584500D02*
X142550000Y-70000000D01*
X142965500Y-70415500D02*
X142965500Y-71584500D01*
X142965500Y-76415500D02*
X142965500Y-77584500D01*
X142965500Y-81584500D02*
X142550000Y-82000000D01*
X142963500Y-61586500D02*
X142550000Y-62000000D01*
X142965500Y-68415500D02*
X142965500Y-69584500D01*
X142550000Y-66000000D02*
X142965500Y-66415500D01*
X142965500Y-65584500D02*
X142550000Y-66000000D01*
X142550000Y-62000000D02*
X142965500Y-62415500D01*
X142550000Y-78000000D02*
X142965500Y-78415500D01*
X142965500Y-77584500D02*
X142550000Y-78000000D01*
X142965500Y-71584500D02*
X142550000Y-72000000D01*
X142550000Y-70000000D02*
X142965500Y-70415500D01*
X143250000Y-57910000D02*
X143250000Y-60053618D01*
X142965500Y-62415500D02*
X142965500Y-63584500D01*
X143250000Y-60053618D02*
X142963500Y-60340118D01*
X142965500Y-72415500D02*
X142965500Y-73584500D01*
X142550000Y-74000000D02*
X142965500Y-74415500D01*
X142965500Y-80415500D02*
X142965500Y-81584500D01*
X142963500Y-60340118D02*
X142963500Y-61586500D01*
X142965500Y-78415500D02*
X142965500Y-79584500D01*
X142550000Y-72000000D02*
X142965500Y-72415500D01*
X142965500Y-64415500D02*
X142965500Y-65584500D01*
X142965500Y-73584500D02*
X142550000Y-74000000D01*
X142550000Y-76000000D02*
X142965500Y-76415500D01*
X142965500Y-74415500D02*
X142965500Y-75584500D01*
X142965500Y-66415500D02*
X142965500Y-67584500D01*
X142550000Y-64000000D02*
X142965500Y-64415500D01*
X142965500Y-75584500D02*
X142550000Y-76000000D01*
X142965500Y-67584500D02*
X142550000Y-68000000D01*
X142550000Y-80000000D02*
X142965500Y-80415500D01*
%TO.N,Net-(D23-BK)*%
X141284500Y-70415500D02*
X141284500Y-71584500D01*
X141700000Y-68000000D02*
X141284500Y-68415500D01*
X141284500Y-66415500D02*
X141284500Y-67584500D01*
X141284500Y-73584500D02*
X141700000Y-74000000D01*
X141286500Y-61586500D02*
X141700000Y-62000000D01*
X141700000Y-64000000D02*
X141284500Y-64415500D01*
X141700000Y-62000000D02*
X141284500Y-62415500D01*
X141284500Y-67584500D02*
X141700000Y-68000000D01*
X141700000Y-74000000D02*
X141284500Y-74415500D01*
X141284500Y-77584500D02*
X141700000Y-78000000D01*
X141284500Y-69584500D02*
X141700000Y-70000000D01*
X141284500Y-71584500D02*
X141700000Y-72000000D01*
X141700000Y-72000000D02*
X141284500Y-72415500D01*
X141284500Y-72415500D02*
X141284500Y-73584500D01*
X141850000Y-57910000D02*
X141850000Y-60286435D01*
X141284500Y-74415500D02*
X141284500Y-75584500D01*
X141284500Y-79584500D02*
X141700000Y-80000000D01*
X141284500Y-65584500D02*
X141700000Y-66000000D01*
X141284500Y-76415500D02*
X141284500Y-77584500D01*
X141700000Y-80000000D02*
X141284500Y-80415500D01*
X141700000Y-66000000D02*
X141284500Y-66415500D01*
X141700000Y-76000000D02*
X141284500Y-76415500D01*
X141850000Y-60286435D02*
X141286500Y-60849935D01*
X141284500Y-62415500D02*
X141284500Y-63584500D01*
X141284500Y-64415500D02*
X141284500Y-65584500D01*
X141700000Y-78000000D02*
X141284500Y-78415500D01*
X141284500Y-63584500D02*
X141700000Y-64000000D01*
X141284500Y-80415500D02*
X141284500Y-81584500D01*
X141700000Y-70000000D02*
X141284500Y-70415500D01*
X141284500Y-81584500D02*
X141700000Y-82000000D01*
X141284500Y-78415500D02*
X141284500Y-79584500D01*
X141286500Y-60849935D02*
X141286500Y-61586500D01*
X141284500Y-68415500D02*
X141284500Y-69584500D01*
X141284500Y-75584500D02*
X141700000Y-76000000D01*
%TO.N,Net-(D34-RK)*%
X140134500Y-63565500D02*
X140134500Y-64734500D01*
X140550000Y-69150000D02*
X140134500Y-69565500D01*
X140550000Y-73150000D02*
X140134500Y-73565500D01*
X140134500Y-72734500D02*
X140550000Y-73150000D01*
X140134500Y-79565500D02*
X140134500Y-80734500D01*
X140134500Y-71565500D02*
X140134500Y-72734500D01*
X140134500Y-73565500D02*
X140134500Y-74734500D01*
X140134500Y-78734500D02*
X140550000Y-79150000D01*
X140134500Y-70734500D02*
X140550000Y-71150000D01*
X140134500Y-68734500D02*
X140550000Y-69150000D01*
X140134500Y-77565500D02*
X140134500Y-78734500D01*
X140550000Y-79150000D02*
X140134500Y-79565500D01*
X140134500Y-69565500D02*
X140134500Y-70734500D01*
X140550000Y-67150000D02*
X140134500Y-67565500D01*
X140134500Y-62734500D02*
X140550000Y-63150000D01*
X140134500Y-66734500D02*
X140550000Y-67150000D01*
X140550000Y-63150000D02*
X140134500Y-63565500D01*
X140550000Y-77150000D02*
X140134500Y-77565500D01*
X140550000Y-75150000D02*
X140134500Y-75565500D01*
X140134500Y-76734500D02*
X140550000Y-77150000D01*
X140134500Y-61565500D02*
X140134500Y-62734500D01*
X140134500Y-67565500D02*
X140134500Y-68734500D01*
X140550000Y-71150000D02*
X140134500Y-71565500D01*
X140134500Y-64734500D02*
X140550000Y-65150000D01*
X140550000Y-61150000D02*
X140134500Y-61565500D01*
X140550000Y-57910000D02*
X140550000Y-61150000D01*
X140134500Y-80734500D02*
X140550000Y-81150000D01*
X140134500Y-74734500D02*
X140550000Y-75150000D01*
X140134500Y-75565500D02*
X140134500Y-76734500D01*
X140550000Y-65150000D02*
X140134500Y-65565500D01*
X140134500Y-65565500D02*
X140134500Y-66734500D01*
%TO.N,Net-(D34-GK)*%
X140550000Y-74000000D02*
X140965500Y-73584500D01*
X140965500Y-67584500D02*
X140965500Y-66415500D01*
X140965500Y-63584500D02*
X140965500Y-62415500D01*
X140965500Y-70415500D02*
X140550000Y-70000000D01*
X140550000Y-70000000D02*
X140965500Y-69584500D01*
X140965500Y-66415500D02*
X140550000Y-66000000D01*
X140965500Y-68415500D02*
X140550000Y-68000000D01*
X140550000Y-82000000D02*
X140965500Y-81584500D01*
X140965500Y-72415500D02*
X140550000Y-72000000D01*
X140550000Y-76000000D02*
X140965500Y-75584500D01*
X140965500Y-62415500D02*
X140550000Y-62000000D01*
X140965500Y-77584500D02*
X140965500Y-76415500D01*
X140965500Y-76415500D02*
X140550000Y-76000000D01*
X140965500Y-79584500D02*
X140965500Y-78415500D01*
X140965500Y-69584500D02*
X140965500Y-68415500D01*
X140550000Y-78000000D02*
X140965500Y-77584500D01*
X141250000Y-59810000D02*
X141034500Y-60025500D01*
X141034500Y-61515500D02*
X140550000Y-62000000D01*
X141034500Y-60025500D02*
X141034500Y-61515500D01*
X140965500Y-80415500D02*
X140550000Y-80000000D01*
X140965500Y-64415500D02*
X140550000Y-64000000D01*
X140550000Y-66000000D02*
X140965500Y-65584500D01*
X140550000Y-80000000D02*
X140965500Y-79584500D01*
X140550000Y-68000000D02*
X140965500Y-67584500D01*
X140965500Y-65584500D02*
X140965500Y-64415500D01*
X140550000Y-64000000D02*
X140965500Y-63584500D01*
X140965500Y-73584500D02*
X140965500Y-72415500D01*
X140550000Y-72000000D02*
X140965500Y-71584500D01*
X140965500Y-74415500D02*
X140550000Y-74000000D01*
X140965500Y-75584500D02*
X140965500Y-74415500D01*
X140965500Y-78415500D02*
X140550000Y-78000000D01*
X140965500Y-71584500D02*
X140965500Y-70415500D01*
X140965500Y-81584500D02*
X140965500Y-80415500D01*
%TO.N,Net-(D34-BK)*%
X139850000Y-59810000D02*
X139286500Y-60373500D01*
X139284500Y-62415500D02*
X139700000Y-62000000D01*
X139700000Y-66000000D02*
X139284500Y-65584500D01*
X139284500Y-76415500D02*
X139700000Y-76000000D01*
X139284500Y-75584500D02*
X139284500Y-74415500D01*
X139700000Y-64000000D02*
X139284500Y-63584500D01*
X139284500Y-71584500D02*
X139284500Y-70415500D01*
X139284500Y-63584500D02*
X139284500Y-62415500D01*
X139700000Y-70000000D02*
X139284500Y-69584500D01*
X139284500Y-73584500D02*
X139284500Y-72415500D01*
X139284500Y-74415500D02*
X139700000Y-74000000D01*
X139700000Y-72000000D02*
X139284500Y-71584500D01*
X139284500Y-65584500D02*
X139284500Y-64415500D01*
X139284500Y-66415500D02*
X139700000Y-66000000D01*
X139284500Y-64415500D02*
X139700000Y-64000000D01*
X139284500Y-67584500D02*
X139284500Y-66415500D01*
X139284500Y-70415500D02*
X139700000Y-70000000D01*
X139284500Y-77584500D02*
X139284500Y-76415500D01*
X139700000Y-82000000D02*
X139284500Y-81584500D01*
X139700000Y-80000000D02*
X139284500Y-79584500D01*
X139700000Y-74000000D02*
X139284500Y-73584500D01*
X139284500Y-72415500D02*
X139700000Y-72000000D01*
X139286500Y-61586500D02*
X139700000Y-62000000D01*
X139284500Y-69584500D02*
X139284500Y-68415500D01*
X139700000Y-78000000D02*
X139284500Y-77584500D01*
X139284500Y-79584500D02*
X139284500Y-78415500D01*
X139286500Y-60373500D02*
X139286500Y-61586500D01*
X139700000Y-68000000D02*
X139284500Y-67584500D01*
X139284500Y-78415500D02*
X139700000Y-78000000D01*
X139284500Y-68415500D02*
X139700000Y-68000000D01*
X139284500Y-80415500D02*
X139700000Y-80000000D01*
X139700000Y-76000000D02*
X139284500Y-75584500D01*
X139284500Y-81584500D02*
X139284500Y-80415500D01*
%TO.N,Net-(D45-RK)*%
X138134500Y-63565500D02*
X138550000Y-63150000D01*
X138550000Y-59810000D02*
X138550000Y-61150000D01*
X138134500Y-80734500D02*
X138134500Y-79565500D01*
X138134500Y-68734500D02*
X138134500Y-67565500D01*
X138134500Y-65565500D02*
X138550000Y-65150000D01*
X138134500Y-78734500D02*
X138134500Y-77565500D01*
X138134500Y-64734500D02*
X138134500Y-63565500D01*
X138134500Y-76734500D02*
X138134500Y-75565500D01*
X138550000Y-79150000D02*
X138134500Y-78734500D01*
X138134500Y-77565500D02*
X138550000Y-77150000D01*
X138550000Y-63150000D02*
X138134500Y-62734500D01*
X138134500Y-61565500D02*
X138550000Y-61150000D01*
X138550000Y-75150000D02*
X138134500Y-74734500D01*
X138134500Y-79565500D02*
X138550000Y-79150000D01*
X138550000Y-77150000D02*
X138134500Y-76734500D01*
X138134500Y-71565500D02*
X138550000Y-71150000D01*
X138134500Y-75565500D02*
X138550000Y-75150000D01*
X138134500Y-66734500D02*
X138134500Y-65565500D01*
X138134500Y-73565500D02*
X138550000Y-73150000D01*
X138134500Y-72734500D02*
X138134500Y-71565500D01*
X138134500Y-67565500D02*
X138550000Y-67150000D01*
X138550000Y-71150000D02*
X138115500Y-70715500D01*
X138115500Y-69584500D02*
X138550000Y-69150000D01*
X138115500Y-70715500D02*
X138115500Y-69584500D01*
X138550000Y-67150000D02*
X138134500Y-66734500D01*
X138550000Y-81150000D02*
X138134500Y-80734500D01*
X138134500Y-62734500D02*
X138134500Y-61565500D01*
X138550000Y-73150000D02*
X138134500Y-72734500D01*
X138550000Y-69150000D02*
X138134500Y-68734500D01*
X138550000Y-65150000D02*
X138134500Y-64734500D01*
X138134500Y-74734500D02*
X138134500Y-73565500D01*
%TO.N,Net-(D45-GK)*%
X138550000Y-78000000D02*
X138965500Y-78415500D01*
X138965500Y-69584500D02*
X138550000Y-70000000D01*
X139250000Y-60053618D02*
X138963500Y-60340118D01*
X138963500Y-61586500D02*
X138550000Y-62000000D01*
X138965500Y-65584500D02*
X138550000Y-66000000D01*
X138965500Y-64415500D02*
X138965500Y-65584500D01*
X138550000Y-76000000D02*
X138965500Y-76415500D01*
X138550000Y-70000000D02*
X138965500Y-70415500D01*
X138963500Y-60340118D02*
X138963500Y-61586500D01*
X138550000Y-72000000D02*
X138965500Y-72415500D01*
X138965500Y-77584500D02*
X138550000Y-78000000D01*
X138965500Y-63584500D02*
X138550000Y-64000000D01*
X138965500Y-67584500D02*
X138550000Y-68000000D01*
X138550000Y-62000000D02*
X138965500Y-62415500D01*
X138965500Y-68415500D02*
X138965500Y-69584500D01*
X138965500Y-70415500D02*
X138965500Y-71584500D01*
X138965500Y-81584500D02*
X138550000Y-82000000D01*
X138965500Y-75584500D02*
X138550000Y-76000000D01*
X138965500Y-80415500D02*
X138965500Y-81584500D01*
X138965500Y-74415500D02*
X138965500Y-75584500D01*
X138965500Y-76415500D02*
X138965500Y-77584500D01*
X138965500Y-73584500D02*
X138550000Y-74000000D01*
X138965500Y-62415500D02*
X138965500Y-63584500D01*
X138550000Y-64000000D02*
X138965500Y-64415500D01*
X138965500Y-79584500D02*
X138550000Y-80000000D01*
X138550000Y-74000000D02*
X138965500Y-74415500D01*
X138550000Y-68000000D02*
X138965500Y-68415500D01*
X139250000Y-57910000D02*
X139250000Y-60053618D01*
X138965500Y-78415500D02*
X138965500Y-79584500D01*
X138550000Y-80000000D02*
X138965500Y-80415500D01*
X138965500Y-66415500D02*
X138965500Y-67584500D01*
X138550000Y-66000000D02*
X138965500Y-66415500D01*
X138965500Y-72415500D02*
X138965500Y-73584500D01*
X138965500Y-71584500D02*
X138550000Y-72000000D01*
%TO.N,Net-(D45-BK)*%
X137700000Y-72000000D02*
X137284500Y-72415500D01*
X137284500Y-77584500D02*
X137700000Y-78000000D01*
X137700000Y-68000000D02*
X137284500Y-68415500D01*
X137284500Y-80415500D02*
X137284500Y-81584500D01*
X137284500Y-67584500D02*
X137700000Y-68000000D01*
X137284500Y-75584500D02*
X137700000Y-76000000D01*
X137284500Y-76415500D02*
X137284500Y-77584500D01*
X137284500Y-66415500D02*
X137284500Y-67584500D01*
X137286500Y-61586500D02*
X137700000Y-62000000D01*
X137284500Y-71584500D02*
X137700000Y-72000000D01*
X137700000Y-66000000D02*
X137284500Y-66415500D01*
X137284500Y-68415500D02*
X137284500Y-69584500D01*
X137284500Y-78415500D02*
X137284500Y-79584500D01*
X137286500Y-60849935D02*
X137286500Y-61586500D01*
X137284500Y-62415500D02*
X137284500Y-63584500D01*
X137284500Y-63584500D02*
X137700000Y-64000000D01*
X137284500Y-64415500D02*
X137284500Y-65584500D01*
X137700000Y-78000000D02*
X137284500Y-78415500D01*
X137284500Y-69584500D02*
X137700000Y-70000000D01*
X137284500Y-70415500D02*
X137284500Y-71584500D01*
X137700000Y-62000000D02*
X137284500Y-62415500D01*
X137700000Y-74000000D02*
X137284500Y-74415500D01*
X137284500Y-65584500D02*
X137700000Y-66000000D01*
X137850000Y-57910000D02*
X137850000Y-60286435D01*
X137284500Y-74415500D02*
X137284500Y-75584500D01*
X137700000Y-70000000D02*
X137284500Y-70415500D01*
X137700000Y-80000000D02*
X137284500Y-80415500D01*
X137700000Y-64000000D02*
X137284500Y-64415500D01*
X137700000Y-76000000D02*
X137284500Y-76415500D01*
X137284500Y-81584500D02*
X137700000Y-82000000D01*
X137284500Y-79584500D02*
X137700000Y-80000000D01*
X137850000Y-60286435D02*
X137286500Y-60849935D01*
X137284500Y-73584500D02*
X137700000Y-74000000D01*
X137284500Y-72415500D02*
X137284500Y-73584500D01*
%TO.N,Net-(D56-RK)*%
X136550000Y-75150000D02*
X136134500Y-75565500D01*
X136550000Y-71150000D02*
X136134500Y-71565500D01*
X136115500Y-77584500D02*
X136115500Y-78715500D01*
X136550000Y-77150000D02*
X136115500Y-77584500D01*
X136134500Y-67565500D02*
X136134500Y-68734500D01*
X136134500Y-72734500D02*
X136550000Y-73150000D01*
X136550000Y-73150000D02*
X136134500Y-73565500D01*
X136134500Y-66734500D02*
X136550000Y-67150000D01*
X136134500Y-68734500D02*
X136550000Y-69150000D01*
X136550000Y-69150000D02*
X136134500Y-69565500D01*
X136134500Y-71565500D02*
X136134500Y-72734500D01*
X136550000Y-63150000D02*
X136134500Y-63565500D01*
X136134500Y-63565500D02*
X136134500Y-64734500D01*
X136134500Y-79565500D02*
X136134500Y-80734500D01*
X136550000Y-79150000D02*
X136134500Y-79565500D01*
X136134500Y-65565500D02*
X136134500Y-66734500D01*
X136550000Y-57910000D02*
X136550000Y-61150000D01*
X136134500Y-74734500D02*
X136550000Y-75150000D01*
X136550000Y-67150000D02*
X136134500Y-67565500D01*
X136115500Y-78715500D02*
X136550000Y-79150000D01*
X136134500Y-80734500D02*
X136550000Y-81150000D01*
X136134500Y-76734500D02*
X136550000Y-77150000D01*
X136134500Y-69565500D02*
X136134500Y-70734500D01*
X136550000Y-65150000D02*
X136134500Y-65565500D01*
X136134500Y-75565500D02*
X136134500Y-76734500D01*
X136134500Y-73565500D02*
X136134500Y-74734500D01*
X136134500Y-62734500D02*
X136550000Y-63150000D01*
X136134500Y-70734500D02*
X136550000Y-71150000D01*
X136134500Y-61565500D02*
X136134500Y-62734500D01*
X136134500Y-64734500D02*
X136550000Y-65150000D01*
X136550000Y-61150000D02*
X136134500Y-61565500D01*
%TO.N,Net-(D56-GK)*%
X136550000Y-76000000D02*
X136965500Y-75584500D01*
X136965500Y-70415500D02*
X136550000Y-70000000D01*
X136550000Y-82000000D02*
X136965500Y-81584500D01*
X136965500Y-81584500D02*
X136965500Y-80415500D01*
X137034500Y-61515500D02*
X136550000Y-62000000D01*
X136965500Y-71584500D02*
X136965500Y-70415500D01*
X136550000Y-68000000D02*
X136965500Y-67584500D01*
X136965500Y-73584500D02*
X136965500Y-72415500D01*
X136965500Y-63584500D02*
X136965500Y-62415500D01*
X136965500Y-72415500D02*
X136550000Y-72000000D01*
X136965500Y-66415500D02*
X136550000Y-66000000D01*
X136550000Y-70000000D02*
X136965500Y-69584500D01*
X136965500Y-67584500D02*
X136965500Y-66415500D01*
X136965500Y-76415500D02*
X136550000Y-76000000D01*
X136965500Y-79584500D02*
X136965500Y-78415500D01*
X136550000Y-66000000D02*
X136965500Y-65584500D01*
X136965500Y-64415500D02*
X136550000Y-64000000D01*
X136965500Y-75584500D02*
X136965500Y-74415500D01*
X136965500Y-80415500D02*
X136550000Y-80000000D01*
X136550000Y-74000000D02*
X136965500Y-73584500D01*
X136965500Y-69584500D02*
X136965500Y-68415500D01*
X137250000Y-59810000D02*
X137034500Y-60025500D01*
X136550000Y-80000000D02*
X136965500Y-79584500D01*
X136965500Y-65584500D02*
X136965500Y-64415500D01*
X136965500Y-62415500D02*
X136550000Y-62000000D01*
X136550000Y-78000000D02*
X136965500Y-77584500D01*
X136965500Y-78415500D02*
X136550000Y-78000000D01*
X136965500Y-68415500D02*
X136550000Y-68000000D01*
X136550000Y-72000000D02*
X136965500Y-71584500D01*
X136965500Y-77584500D02*
X136965500Y-76415500D01*
X136965500Y-74415500D02*
X136550000Y-74000000D01*
X136550000Y-64000000D02*
X136965500Y-63584500D01*
X137034500Y-60025500D02*
X137034500Y-61515500D01*
%TO.N,Net-(D56-BK)*%
X135700000Y-68000000D02*
X135284500Y-67584500D01*
X135284500Y-72415500D02*
X135700000Y-72000000D01*
X135700000Y-74000000D02*
X135284500Y-73584500D01*
X135284500Y-74415500D02*
X135700000Y-74000000D01*
X135850000Y-59810000D02*
X135286500Y-60373500D01*
X135284500Y-68415500D02*
X135700000Y-68000000D01*
X135286500Y-60373500D02*
X135286500Y-61586500D01*
X135286500Y-61586500D02*
X135700000Y-62000000D01*
X135284500Y-63584500D02*
X135284500Y-62415500D01*
X135700000Y-80000000D02*
X135284500Y-79584500D01*
X135700000Y-76000000D02*
X135284500Y-75584500D01*
X135284500Y-73584500D02*
X135284500Y-72415500D01*
X135284500Y-81584500D02*
X135284500Y-80415500D01*
X135700000Y-66000000D02*
X135284500Y-65584500D01*
X135700000Y-64000000D02*
X135284500Y-63584500D01*
X135284500Y-78415500D02*
X135700000Y-78000000D01*
X135284500Y-80415500D02*
X135700000Y-80000000D01*
X135284500Y-65584500D02*
X135284500Y-64415500D01*
X135284500Y-77584500D02*
X135284500Y-76415500D01*
X135700000Y-78000000D02*
X135284500Y-77584500D01*
X135284500Y-75584500D02*
X135284500Y-74415500D01*
X135700000Y-72000000D02*
X135284500Y-71584500D01*
X135700000Y-70000000D02*
X135284500Y-69584500D01*
X135700000Y-82000000D02*
X135284500Y-81584500D01*
X135284500Y-71584500D02*
X135284500Y-70415500D01*
X135284500Y-66415500D02*
X135700000Y-66000000D01*
X135284500Y-79584500D02*
X135284500Y-78415500D01*
X135284500Y-70415500D02*
X135700000Y-70000000D01*
X135284500Y-64415500D02*
X135700000Y-64000000D01*
X135284500Y-76415500D02*
X135700000Y-76000000D01*
X135284500Y-67584500D02*
X135284500Y-66415500D01*
X135284500Y-69584500D02*
X135284500Y-68415500D01*
X135284500Y-62415500D02*
X135700000Y-62000000D01*
%TO.N,/MOSI*%
X129421932Y-66564976D02*
X130155954Y-65830954D01*
X113900000Y-63690000D02*
X119465000Y-63690000D01*
X123575000Y-65625000D02*
X121400000Y-65625000D01*
X119465000Y-63690000D02*
X121400000Y-65625000D01*
X129421932Y-66567804D02*
X129421932Y-66564976D01*
%TO.N,/SCK*%
X121395000Y-66230000D02*
X121400000Y-66225000D01*
X130775000Y-65780421D02*
X130775000Y-65600000D01*
X113900000Y-66230000D02*
X121395000Y-66230000D01*
X129704774Y-66850647D02*
X130775000Y-65780421D01*
X123575000Y-66225000D02*
X121400000Y-66225000D01*
%TO.N,/CS*%
X113900000Y-71310000D02*
X117835000Y-67375000D01*
X117835000Y-67375000D02*
X123575000Y-67375000D01*
X130828447Y-66858345D02*
X130270460Y-67416332D01*
X130984652Y-66858345D02*
X130828447Y-66858345D01*
%TO.N,/MISO*%
X113900000Y-61150000D02*
X117525000Y-61150000D01*
X131383152Y-67023410D02*
X131106562Y-67300000D01*
X117525000Y-61150000D02*
X121425000Y-65050000D01*
X131000000Y-64925000D02*
X131383152Y-65308152D01*
X130952477Y-67300000D02*
X130553302Y-67699175D01*
X123575000Y-65050000D02*
X121425000Y-65050000D01*
X131383152Y-65308152D02*
X131383152Y-67023410D01*
X131106562Y-67300000D02*
X130952477Y-67300000D01*
%TO.N,/SYNC*%
X123600000Y-64450000D02*
X121425000Y-64450000D01*
X129300000Y-65558365D02*
X129300000Y-64600000D01*
X128856246Y-66002119D02*
X129300000Y-65558365D01*
X115585000Y-58610000D02*
X121425000Y-64450000D01*
X113900000Y-58610000D02*
X115585000Y-58610000D01*
%TO.N,Net-(U1-CS18)*%
X146550000Y-56812502D02*
X146550000Y-58790000D01*
X129575000Y-72200950D02*
X129139089Y-71765039D01*
X141352498Y-51615000D02*
X146550000Y-56812502D01*
X129900000Y-74125000D02*
X129575000Y-73800000D01*
X129856429Y-53493571D02*
X131735000Y-51615000D01*
X131735000Y-51615000D02*
X141352498Y-51615000D01*
X129575000Y-73800000D02*
X129575000Y-72200950D01*
X130450000Y-74125000D02*
X129900000Y-74125000D01*
%TO.N,Net-(U1-CS17)*%
X131025000Y-75075000D02*
X130951500Y-75001500D01*
X129827000Y-72677000D02*
X129827000Y-71887264D01*
X129827000Y-71887264D02*
X129421932Y-71482196D01*
X130951500Y-73801500D02*
X129827000Y-72677000D01*
X129300000Y-53500000D02*
X129300000Y-53250000D01*
X130951500Y-75001500D02*
X130951500Y-73801500D01*
X131187000Y-51363000D02*
X141723000Y-51363000D01*
X129300000Y-53250000D02*
X131187000Y-51363000D01*
X141723000Y-51363000D02*
X147250000Y-56890000D01*
%TO.N,Net-(U1-CS16)*%
X130275000Y-71769579D02*
X129704774Y-71199353D01*
X130437751Y-53512036D02*
X131274399Y-53512036D01*
X132919435Y-51867000D02*
X140827000Y-51867000D01*
X131350000Y-73525000D02*
X130275000Y-72450000D01*
X140827000Y-51867000D02*
X145850000Y-56890000D01*
X130275000Y-72450000D02*
X130275000Y-71769579D01*
X131274399Y-53512036D02*
X132919435Y-51867000D01*
%TO.N,Net-(U1-CS15)*%
X133448000Y-64214565D02*
X133448000Y-67527000D01*
X130448106Y-71377000D02*
X129987617Y-70916511D01*
X130600000Y-71377000D02*
X130448106Y-71377000D01*
X133529000Y-52371000D02*
X132425000Y-53475000D01*
X144550000Y-56487236D02*
X140433764Y-52371000D01*
X133448000Y-67527000D02*
X131950000Y-69025000D01*
X133250000Y-64016565D02*
X133448000Y-64214565D01*
X133250000Y-62587142D02*
X133250000Y-64016565D01*
X133256071Y-62581071D02*
X133250000Y-62587142D01*
X140433764Y-52371000D02*
X133529000Y-52371000D01*
X144550000Y-56890000D02*
X144550000Y-56487236D01*
%TO.N,Net-(U1-CS14)*%
X132017860Y-63819283D02*
X132599288Y-64400711D01*
X133217435Y-52119000D02*
X131850000Y-53486435D01*
X131850000Y-53486435D02*
X131850000Y-53500000D01*
X131377477Y-71175000D02*
X130553302Y-70350825D01*
X133700000Y-67877880D02*
X133650000Y-67927880D01*
X131400000Y-71175000D02*
X131377477Y-71175000D01*
X132017860Y-63819282D02*
X132017860Y-63819283D01*
X133650000Y-63312857D02*
X133700000Y-63362857D01*
X140556498Y-52119000D02*
X133217435Y-52119000D01*
X145250000Y-56812502D02*
X140556498Y-52119000D01*
X145250000Y-58790000D02*
X145250000Y-56812502D01*
X133700000Y-63362857D02*
X133700000Y-67877880D01*
%TO.N,Net-(U1-CS13)*%
X143850000Y-56143618D02*
X140329382Y-52623000D01*
X140329382Y-52623000D02*
X133877000Y-52623000D01*
X134775000Y-60025000D02*
X134775000Y-68181382D01*
X133050000Y-59675000D02*
X133050000Y-59775000D01*
X133877000Y-52623000D02*
X133025000Y-53475000D01*
X134775000Y-68181382D02*
X132604382Y-70352000D01*
X133050000Y-59775000D02*
X133650000Y-60375000D01*
X132604382Y-70352000D02*
X131120162Y-70352000D01*
X131120162Y-70352000D02*
X130836145Y-70067983D01*
X143850000Y-58790000D02*
X143850000Y-56143618D01*
%TO.N,Net-(U1-CS12)*%
X132500000Y-70100000D02*
X131433848Y-70100000D01*
X134300000Y-59675000D02*
X134300000Y-68300000D01*
X134300000Y-68300000D02*
X132500000Y-70100000D01*
X131433848Y-70100000D02*
X131118988Y-69785140D01*
X135300000Y-56075000D02*
X134300000Y-56075000D01*
X142550000Y-58790000D02*
X142550000Y-56300000D01*
X142550000Y-56300000D02*
X142325000Y-56075000D01*
%TO.N,Net-(U1-CS11)*%
X132471809Y-69771809D02*
X131671342Y-69771809D01*
X134200000Y-52875000D02*
X133600000Y-53475000D01*
X143250000Y-56890000D02*
X143250000Y-55900000D01*
X140225000Y-52875000D02*
X134200000Y-52875000D01*
X133600000Y-59675000D02*
X134048000Y-60123000D01*
X143250000Y-55900000D02*
X140225000Y-52875000D01*
X134048000Y-60123000D02*
X134048000Y-68195618D01*
X131671342Y-69771809D02*
X131401830Y-69502297D01*
X134048000Y-68195618D02*
X132471809Y-69771809D01*
%TO.N,Net-(U1-CS10)*%
X132151500Y-63390065D02*
X133196000Y-64434565D01*
X141850000Y-55618618D02*
X139706382Y-53475000D01*
X132450000Y-59225000D02*
X132151500Y-59523500D01*
X132393618Y-68225000D02*
X131724533Y-68225000D01*
X139706382Y-53475000D02*
X134875000Y-53475000D01*
X141850000Y-56890000D02*
X141850000Y-55618618D01*
X132151500Y-59523500D02*
X132151500Y-63390065D01*
X133196000Y-64434565D02*
X133196000Y-67422618D01*
X134875000Y-59225000D02*
X132450000Y-59225000D01*
X131724533Y-68225000D02*
X131401830Y-68547703D01*
X133196000Y-67422618D02*
X132393618Y-68225000D01*
%TO.N,Net-(U1-CS9)*%
X127400000Y-56525000D02*
X129675000Y-54250000D01*
X127901652Y-66002119D02*
X127400000Y-65500467D01*
X129675000Y-54250000D02*
X139325000Y-54250000D01*
X127400000Y-65500467D02*
X127400000Y-56525000D01*
X140550000Y-55475000D02*
X140550000Y-56890000D01*
X139325000Y-54250000D02*
X140550000Y-55475000D01*
%TO.N,Net-(U1-CS8)*%
X127148000Y-65814152D02*
X127148000Y-56420618D01*
X139825000Y-53950000D02*
X141250000Y-55375000D01*
X141250000Y-55375000D02*
X141250000Y-58790000D01*
X127148000Y-56420618D02*
X129618618Y-53950000D01*
X127618809Y-66284961D02*
X127148000Y-65814152D01*
X129618618Y-53950000D02*
X139825000Y-53950000D01*
%TO.N,Net-(U1-CS7)*%
X138775000Y-54502000D02*
X139850000Y-55577000D01*
X129779382Y-54502000D02*
X138775000Y-54502000D01*
X127825000Y-64100000D02*
X127825000Y-56456382D01*
X139850000Y-55577000D02*
X139850000Y-58790000D01*
X127825000Y-56456382D02*
X129779382Y-54502000D01*
X126725000Y-65956838D02*
X126725000Y-64100000D01*
X127335966Y-66567804D02*
X126725000Y-65956838D01*
%TO.N,Net-(U1-CS6)*%
X127053124Y-66850647D02*
X126325000Y-66122523D01*
X138550000Y-55575000D02*
X138550000Y-58790000D01*
X129883764Y-54754000D02*
X137729000Y-54754000D01*
X137729000Y-54754000D02*
X138550000Y-55575000D01*
X126325000Y-66122523D02*
X126325000Y-63700000D01*
X128300000Y-63700000D02*
X128300000Y-56337764D01*
X128300000Y-56337764D02*
X129883764Y-54754000D01*
%TO.N,Net-(U1-CS5)*%
X128775000Y-56325000D02*
X129950000Y-55150000D01*
X128075000Y-64625000D02*
X128775000Y-63925000D01*
X129950000Y-55150000D02*
X137423000Y-55150000D01*
X128775000Y-62075000D02*
X128775000Y-56325000D01*
X128775000Y-63925000D02*
X128775000Y-62075000D01*
X126770281Y-67133489D02*
X125875000Y-66238208D01*
X138800000Y-55150000D02*
X139250000Y-55600000D01*
X137423000Y-55150000D02*
X137425000Y-55152000D01*
X125875000Y-66238208D02*
X125875000Y-64625000D01*
X139250000Y-55600000D02*
X139250000Y-56890000D01*
%TO.N,Net-(U1-CS4)*%
X137850000Y-55950000D02*
X137850000Y-56890000D01*
X137475000Y-55575000D02*
X137850000Y-55950000D01*
X125425000Y-66353894D02*
X125425000Y-63300000D01*
X126487438Y-67416332D02*
X125425000Y-66353894D01*
X129275000Y-56275000D02*
X129975000Y-55575000D01*
X129975000Y-55575000D02*
X137475000Y-55575000D01*
X129275000Y-63300000D02*
X129275000Y-56275000D01*
%TO.N,Net-(U1-CS3)*%
X129775000Y-58275000D02*
X131160000Y-56890000D01*
X126204596Y-67699175D02*
X125000000Y-66494579D01*
X125000000Y-66494579D02*
X125000000Y-62900000D01*
X129775000Y-62900000D02*
X129775000Y-58275000D01*
X131160000Y-56890000D02*
X136550000Y-56890000D01*
%TO.N,Net-(U1-CS2)*%
X137250000Y-57750000D02*
X137250000Y-58790000D01*
X131498500Y-57451500D02*
X136951500Y-57451500D01*
X130350000Y-62425000D02*
X130350000Y-58600000D01*
X130350000Y-58600000D02*
X131498500Y-57451500D01*
X136951500Y-57451500D02*
X137250000Y-57750000D01*
X125921753Y-67982017D02*
X124500000Y-66560264D01*
X124500000Y-66560264D02*
X124500000Y-62425000D01*
%TO.N,Net-(U1-ISET)*%
X130125000Y-65299050D02*
X130125000Y-64835000D01*
X129139089Y-66284961D02*
X130125000Y-65299050D01*
%TO.N,Net-(U1-CS1)*%
X130825000Y-61925000D02*
X130825000Y-60175000D01*
X130825000Y-60175000D02*
X132210000Y-58790000D01*
X124101500Y-66727450D02*
X124101500Y-61951500D01*
X132210000Y-58790000D02*
X135850000Y-58790000D01*
X125638910Y-68264860D02*
X124101500Y-66727450D01*
X124101500Y-61951500D02*
X124075000Y-61925000D01*
%TD*%
%TA.AperFunction,Conductor*%
%TO.N,GND*%
G36*
X130862369Y-51014015D02*
G01*
X130906392Y-51051615D01*
X130928547Y-51105102D01*
X130924005Y-51162818D01*
X130893755Y-51212181D01*
X129091491Y-53014444D01*
X129083519Y-53021750D01*
X129055749Y-53045052D01*
X129037624Y-53076445D01*
X129031817Y-53085562D01*
X129004755Y-53124212D01*
X128986518Y-53158573D01*
X128908619Y-53248473D01*
X128853609Y-53368927D01*
X128834765Y-53500000D01*
X128853609Y-53631072D01*
X128908618Y-53751523D01*
X128908619Y-53751525D01*
X128995335Y-53851600D01*
X128995336Y-53851601D01*
X129034893Y-53877023D01*
X129073349Y-53916172D01*
X129091143Y-53968084D01*
X129084790Y-54022591D01*
X129055534Y-54069019D01*
X126939491Y-56185062D01*
X126931519Y-56192368D01*
X126903749Y-56215670D01*
X126885624Y-56247063D01*
X126879817Y-56256180D01*
X126858236Y-56287002D01*
X126848624Y-56310209D01*
X126842091Y-56347257D01*
X126839750Y-56357816D01*
X126830368Y-56392828D01*
X126833528Y-56428936D01*
X126834000Y-56439744D01*
X126834000Y-63252629D01*
X126816642Y-63315903D01*
X126769427Y-63361461D01*
X126705574Y-63376550D01*
X126642960Y-63356944D01*
X126610209Y-63335896D01*
X126518266Y-63276807D01*
X126447721Y-63256093D01*
X126391211Y-63239500D01*
X126391210Y-63239500D01*
X126258790Y-63239500D01*
X126258789Y-63239500D01*
X126131734Y-63276806D01*
X126069927Y-63316528D01*
X126011733Y-63335896D01*
X125951376Y-63325006D01*
X125903620Y-63286522D01*
X125880150Y-63229858D01*
X125877824Y-63213682D01*
X125871390Y-63168928D01*
X125869285Y-63164319D01*
X125816381Y-63048476D01*
X125816381Y-63048475D01*
X125729664Y-62948399D01*
X125729663Y-62948398D01*
X125618265Y-62876806D01*
X125531003Y-62851184D01*
X125484735Y-62825920D01*
X125453143Y-62783718D01*
X125446390Y-62768932D01*
X125446390Y-62768928D01*
X125391381Y-62648475D01*
X125304664Y-62548399D01*
X125304663Y-62548398D01*
X125264857Y-62522816D01*
X125193266Y-62476807D01*
X125073284Y-62441577D01*
X125049104Y-62434477D01*
X125049433Y-62433354D01*
X125017947Y-62425716D01*
X124973760Y-62387427D01*
X124952029Y-62333147D01*
X124946390Y-62293927D01*
X124896083Y-62183772D01*
X124891381Y-62173475D01*
X124804664Y-62073399D01*
X124804663Y-62073398D01*
X124739369Y-62031436D01*
X124693266Y-62001807D01*
X124621481Y-61980729D01*
X124579764Y-61959222D01*
X124549028Y-61923751D01*
X124533678Y-61879400D01*
X124521390Y-61793928D01*
X124466381Y-61673475D01*
X124379664Y-61573399D01*
X124379663Y-61573398D01*
X124324463Y-61537923D01*
X124268266Y-61501807D01*
X124204738Y-61483153D01*
X124141211Y-61464500D01*
X124141210Y-61464500D01*
X124008790Y-61464500D01*
X124008789Y-61464500D01*
X123881734Y-61501807D01*
X123770336Y-61573398D01*
X123683618Y-61673476D01*
X123628609Y-61793927D01*
X123609765Y-61924999D01*
X123628609Y-62056072D01*
X123683618Y-62176523D01*
X123683619Y-62176525D01*
X123757213Y-62261456D01*
X123779682Y-62299325D01*
X123787500Y-62342659D01*
X123787500Y-63865500D01*
X123770887Y-63927500D01*
X123725500Y-63972887D01*
X123663500Y-63989500D01*
X123533789Y-63989500D01*
X123406732Y-64026807D01*
X123280337Y-64108037D01*
X123280234Y-64107877D01*
X123257636Y-64124794D01*
X123206125Y-64136000D01*
X121606425Y-64136000D01*
X121558972Y-64126561D01*
X121518744Y-64099681D01*
X115820557Y-58401494D01*
X115813248Y-58393518D01*
X115799421Y-58377040D01*
X115789949Y-58365751D01*
X115758551Y-58347623D01*
X115749432Y-58341814D01*
X115740072Y-58335260D01*
X115719749Y-58321030D01*
X115719747Y-58321029D01*
X115718617Y-58320238D01*
X115695413Y-58310625D01*
X115658360Y-58304091D01*
X115647804Y-58301750D01*
X115612790Y-58292368D01*
X115579704Y-58295263D01*
X115576680Y-58295528D01*
X115565874Y-58296000D01*
X115124500Y-58296000D01*
X115062500Y-58279387D01*
X115017113Y-58234000D01*
X115000500Y-58172000D01*
X115000500Y-57735325D01*
X114985966Y-57662261D01*
X114985966Y-57662260D01*
X114930601Y-57579399D01*
X114847740Y-57524034D01*
X114847739Y-57524033D01*
X114847738Y-57524033D01*
X114774675Y-57509500D01*
X114774674Y-57509500D01*
X113025326Y-57509500D01*
X113025325Y-57509500D01*
X112952261Y-57524033D01*
X112869399Y-57579399D01*
X112814033Y-57662261D01*
X112799500Y-57735325D01*
X112799500Y-59484675D01*
X112814033Y-59557738D01*
X112814033Y-59557739D01*
X112814034Y-59557740D01*
X112869399Y-59640601D01*
X112952260Y-59695966D01*
X112988792Y-59703232D01*
X113025325Y-59710500D01*
X113025326Y-59710500D01*
X114774674Y-59710500D01*
X114774675Y-59710500D01*
X114799029Y-59705655D01*
X114847740Y-59695966D01*
X114930601Y-59640601D01*
X114985966Y-59557740D01*
X115000500Y-59484674D01*
X115000500Y-59048000D01*
X115017113Y-58986000D01*
X115062500Y-58940613D01*
X115124500Y-58924000D01*
X115403575Y-58924000D01*
X115451028Y-58933439D01*
X115491256Y-58960319D01*
X117155256Y-60624319D01*
X117185506Y-60673682D01*
X117190048Y-60731398D01*
X117167893Y-60784885D01*
X117123870Y-60822485D01*
X117067575Y-60836000D01*
X115048478Y-60836000D01*
X114996649Y-60824649D01*
X114954309Y-60792674D01*
X114936979Y-60760399D01*
X114935704Y-60761035D01*
X114839675Y-60568181D01*
X114716763Y-60405419D01*
X114566041Y-60268018D01*
X114392638Y-60160652D01*
X114202457Y-60086976D01*
X114135629Y-60074483D01*
X114001976Y-60049500D01*
X113798024Y-60049500D01*
X113697784Y-60068237D01*
X113597542Y-60086976D01*
X113407361Y-60160652D01*
X113233958Y-60268018D01*
X113083236Y-60405419D01*
X112960324Y-60568181D01*
X112869418Y-60750748D01*
X112813602Y-60946916D01*
X112794785Y-61149999D01*
X112813602Y-61353083D01*
X112869418Y-61549251D01*
X112960324Y-61731818D01*
X113083236Y-61894580D01*
X113233958Y-62031981D01*
X113407361Y-62139347D01*
X113407363Y-62139348D01*
X113597544Y-62213024D01*
X113798024Y-62250500D01*
X114001974Y-62250500D01*
X114001976Y-62250500D01*
X114202456Y-62213024D01*
X114392637Y-62139348D01*
X114566041Y-62031981D01*
X114716764Y-61894579D01*
X114839673Y-61731821D01*
X114839673Y-61731819D01*
X114839675Y-61731818D01*
X114935704Y-61538965D01*
X114936979Y-61539600D01*
X114954309Y-61507326D01*
X114996649Y-61475351D01*
X115048478Y-61464000D01*
X117343575Y-61464000D01*
X117391028Y-61473439D01*
X117431256Y-61500319D01*
X119095255Y-63164319D01*
X119125505Y-63213682D01*
X119130047Y-63271398D01*
X119107892Y-63324885D01*
X119063869Y-63362485D01*
X119007574Y-63376000D01*
X115048478Y-63376000D01*
X114996649Y-63364649D01*
X114954309Y-63332674D01*
X114936979Y-63300399D01*
X114935704Y-63301035D01*
X114839675Y-63108181D01*
X114716763Y-62945419D01*
X114566041Y-62808018D01*
X114392638Y-62700652D01*
X114202457Y-62626976D01*
X114081882Y-62604437D01*
X114001976Y-62589500D01*
X113798024Y-62589500D01*
X113718118Y-62604437D01*
X113597542Y-62626976D01*
X113407361Y-62700652D01*
X113233958Y-62808018D01*
X113083236Y-62945419D01*
X112960324Y-63108181D01*
X112869418Y-63290748D01*
X112813602Y-63486916D01*
X112794785Y-63689999D01*
X112813602Y-63893083D01*
X112869418Y-64089251D01*
X112960324Y-64271818D01*
X113083236Y-64434580D01*
X113233958Y-64571981D01*
X113345627Y-64641123D01*
X113407363Y-64679348D01*
X113597544Y-64753024D01*
X113798024Y-64790500D01*
X114001974Y-64790500D01*
X114001976Y-64790500D01*
X114202456Y-64753024D01*
X114392637Y-64679348D01*
X114566041Y-64571981D01*
X114705535Y-64444816D01*
X114716763Y-64434580D01*
X114753292Y-64386208D01*
X114839673Y-64271821D01*
X114839673Y-64271819D01*
X114839675Y-64271818D01*
X114935704Y-64078965D01*
X114936979Y-64079600D01*
X114954309Y-64047326D01*
X114996649Y-64015351D01*
X115048478Y-64004000D01*
X119283575Y-64004000D01*
X119331028Y-64013439D01*
X119371256Y-64040319D01*
X121035256Y-65704319D01*
X121065506Y-65753682D01*
X121070048Y-65811398D01*
X121047893Y-65864885D01*
X121003870Y-65902485D01*
X120947575Y-65916000D01*
X115048478Y-65916000D01*
X114996649Y-65904649D01*
X114954309Y-65872674D01*
X114936979Y-65840399D01*
X114935704Y-65841035D01*
X114839675Y-65648181D01*
X114716763Y-65485419D01*
X114566041Y-65348018D01*
X114392638Y-65240652D01*
X114202457Y-65166976D01*
X114135629Y-65154484D01*
X114001976Y-65129500D01*
X113798024Y-65129500D01*
X113697784Y-65148237D01*
X113597542Y-65166976D01*
X113407361Y-65240652D01*
X113233958Y-65348018D01*
X113083236Y-65485419D01*
X112960324Y-65648181D01*
X112869418Y-65830748D01*
X112813602Y-66026916D01*
X112794785Y-66229999D01*
X112813602Y-66433083D01*
X112869418Y-66629251D01*
X112960324Y-66811818D01*
X113083236Y-66974580D01*
X113233958Y-67111981D01*
X113407361Y-67219347D01*
X113407363Y-67219348D01*
X113597544Y-67293024D01*
X113798024Y-67330500D01*
X114001974Y-67330500D01*
X114001976Y-67330500D01*
X114202456Y-67293024D01*
X114392637Y-67219348D01*
X114566041Y-67111981D01*
X114716764Y-66974579D01*
X114839673Y-66811821D01*
X114839673Y-66811819D01*
X114839675Y-66811818D01*
X114935704Y-66618965D01*
X114936979Y-66619600D01*
X114954309Y-66587326D01*
X114996649Y-66555351D01*
X115048478Y-66544000D01*
X117078468Y-66544000D01*
X117145507Y-66563685D01*
X117191262Y-66616488D01*
X117201206Y-66685647D01*
X117187083Y-66783875D01*
X117175229Y-66821732D01*
X117152026Y-66853909D01*
X115586256Y-68419681D01*
X115546028Y-68446561D01*
X115498575Y-68456000D01*
X115048478Y-68456000D01*
X114996649Y-68444649D01*
X114954309Y-68412674D01*
X114936979Y-68380399D01*
X114935704Y-68381035D01*
X114839675Y-68188181D01*
X114716763Y-68025419D01*
X114566041Y-67888018D01*
X114392638Y-67780652D01*
X114202457Y-67706976D01*
X114106292Y-67689000D01*
X114001976Y-67669500D01*
X113798024Y-67669500D01*
X113697783Y-67688238D01*
X113597542Y-67706976D01*
X113407361Y-67780652D01*
X113233958Y-67888018D01*
X113083236Y-68025419D01*
X112960324Y-68188181D01*
X112869418Y-68370748D01*
X112813602Y-68566916D01*
X112794785Y-68770000D01*
X112813602Y-68973083D01*
X112869418Y-69169251D01*
X112960324Y-69351818D01*
X113083236Y-69514580D01*
X113233958Y-69651981D01*
X113397711Y-69753372D01*
X113407363Y-69759348D01*
X113597544Y-69833024D01*
X113798024Y-69870500D01*
X114001974Y-69870500D01*
X114001976Y-69870500D01*
X114202456Y-69833024D01*
X114392637Y-69759348D01*
X114566041Y-69651981D01*
X114655108Y-69570786D01*
X114716763Y-69514580D01*
X114738346Y-69486000D01*
X114839673Y-69351821D01*
X114839673Y-69351819D01*
X114839675Y-69351818D01*
X114935704Y-69158965D01*
X114936979Y-69159600D01*
X114954309Y-69127326D01*
X114996649Y-69095351D01*
X115048478Y-69084000D01*
X115382574Y-69084000D01*
X115438869Y-69097515D01*
X115482892Y-69135115D01*
X115505047Y-69188602D01*
X115500505Y-69246318D01*
X115470255Y-69295681D01*
X114487716Y-70278219D01*
X114448369Y-70304730D01*
X114401945Y-70314523D01*
X114355242Y-70306165D01*
X114202457Y-70246976D01*
X114094769Y-70226846D01*
X114001976Y-70209500D01*
X113798024Y-70209500D01*
X113705231Y-70226846D01*
X113597542Y-70246976D01*
X113407361Y-70320652D01*
X113233958Y-70428018D01*
X113083236Y-70565419D01*
X112960324Y-70728181D01*
X112869418Y-70910748D01*
X112813602Y-71106916D01*
X112794785Y-71309999D01*
X112813602Y-71513083D01*
X112869418Y-71709251D01*
X112960324Y-71891818D01*
X113083236Y-72054580D01*
X113233958Y-72191981D01*
X113407361Y-72299347D01*
X113407363Y-72299348D01*
X113597544Y-72373024D01*
X113798024Y-72410500D01*
X114001974Y-72410500D01*
X114001976Y-72410500D01*
X114202456Y-72373024D01*
X114392637Y-72299348D01*
X114566041Y-72191981D01*
X114633003Y-72130937D01*
X114716763Y-72054580D01*
X114731172Y-72035500D01*
X114839673Y-71891821D01*
X114839673Y-71891819D01*
X114839675Y-71891818D01*
X114897544Y-71775600D01*
X114930582Y-71709250D01*
X114986397Y-71513083D01*
X115005215Y-71310000D01*
X114986397Y-71106917D01*
X114982408Y-71092899D01*
X114930583Y-70910753D01*
X114930581Y-70910748D01*
X114908097Y-70865594D01*
X114895230Y-70816053D01*
X114903471Y-70765531D01*
X114931415Y-70722646D01*
X117393652Y-68260410D01*
X117446394Y-68229117D01*
X117507687Y-68226928D01*
X117562531Y-68254380D01*
X117597510Y-68304759D01*
X117604067Y-68365740D01*
X117584764Y-68499999D01*
X117603609Y-68631074D01*
X117656058Y-68745920D01*
X117666284Y-68812989D01*
X117639684Y-68875400D01*
X117584220Y-68914472D01*
X117562116Y-68922206D01*
X117452849Y-69002849D01*
X117372207Y-69112115D01*
X117327353Y-69240303D01*
X117324500Y-69270731D01*
X117324500Y-69779269D01*
X117327353Y-69809696D01*
X117372207Y-69937884D01*
X117452849Y-70047150D01*
X117562115Y-70127792D01*
X117562118Y-70127793D01*
X117690301Y-70172646D01*
X117702474Y-70173787D01*
X117720731Y-70175500D01*
X117720734Y-70175500D01*
X118379266Y-70175500D01*
X118379269Y-70175500D01*
X118394482Y-70174072D01*
X118409699Y-70172646D01*
X118537882Y-70127793D01*
X118537882Y-70127792D01*
X118537884Y-70127792D01*
X118647150Y-70047150D01*
X118727792Y-69937884D01*
X118736738Y-69912318D01*
X118772646Y-69809699D01*
X118774870Y-69785983D01*
X118775500Y-69779269D01*
X118775500Y-69270731D01*
X118772646Y-69240303D01*
X118772646Y-69240301D01*
X118730768Y-69120621D01*
X118727792Y-69112115D01*
X118647150Y-69002849D01*
X118537882Y-68922206D01*
X118515780Y-68914472D01*
X118460315Y-68875401D01*
X118433715Y-68812988D01*
X118443941Y-68745919D01*
X118451528Y-68729307D01*
X118496390Y-68631072D01*
X118515235Y-68500000D01*
X118496390Y-68368928D01*
X118494934Y-68365740D01*
X118456641Y-68281890D01*
X118441381Y-68248475D01*
X118354664Y-68148399D01*
X118354663Y-68148398D01*
X118314857Y-68122816D01*
X118243266Y-68076807D01*
X118167510Y-68054563D01*
X118116211Y-68039500D01*
X118116210Y-68039500D01*
X117983790Y-68039500D01*
X117983788Y-68039500D01*
X117927228Y-68056107D01*
X117862486Y-68057494D01*
X117805873Y-68026054D01*
X117772830Y-67970362D01*
X117772368Y-67905606D01*
X117804610Y-67849452D01*
X117928746Y-67725316D01*
X117968972Y-67698439D01*
X118016425Y-67689000D01*
X123181125Y-67689000D01*
X123232636Y-67700206D01*
X123255234Y-67717122D01*
X123255337Y-67716963D01*
X123371391Y-67791546D01*
X123381734Y-67798193D01*
X123431304Y-67812748D01*
X123508789Y-67835500D01*
X123508790Y-67835500D01*
X123641210Y-67835500D01*
X123641211Y-67835500D01*
X123664714Y-67828598D01*
X123768266Y-67798193D01*
X123879664Y-67726601D01*
X123966381Y-67626525D01*
X124021390Y-67506072D01*
X124038261Y-67388727D01*
X124065851Y-67326857D01*
X124121839Y-67288720D01*
X124189515Y-67285698D01*
X124248680Y-67318693D01*
X124886902Y-67956915D01*
X124918996Y-68012502D01*
X124918996Y-68076689D01*
X124886903Y-68132276D01*
X124846696Y-68172482D01*
X124830987Y-68192314D01*
X124824696Y-68208553D01*
X124790403Y-68297075D01*
X124790403Y-68297077D01*
X124790403Y-68409422D01*
X124833781Y-68521397D01*
X124842139Y-68568100D01*
X124832346Y-68614524D01*
X124805835Y-68653871D01*
X124192984Y-69266722D01*
X124134537Y-69299546D01*
X124067547Y-69297153D01*
X124011591Y-69260244D01*
X123979664Y-69223399D01*
X123979663Y-69223398D01*
X123925519Y-69188602D01*
X123868266Y-69151807D01*
X123804738Y-69133153D01*
X123741211Y-69114500D01*
X123741210Y-69114500D01*
X123608790Y-69114500D01*
X123608789Y-69114500D01*
X123481734Y-69151807D01*
X123370336Y-69223398D01*
X123283619Y-69323474D01*
X123283619Y-69323475D01*
X123235085Y-69429751D01*
X123228609Y-69443931D01*
X123226687Y-69457299D01*
X123214833Y-69495155D01*
X123191631Y-69527330D01*
X122077427Y-70641534D01*
X122033079Y-70670035D01*
X121980900Y-70677537D01*
X121930319Y-70662685D01*
X121890479Y-70628163D01*
X121839687Y-70560312D01*
X121730226Y-70478372D01*
X121602116Y-70430588D01*
X121583237Y-70428558D01*
X121545485Y-70424500D01*
X121545481Y-70424500D01*
X120954517Y-70424500D01*
X120897882Y-70430588D01*
X120769774Y-70478371D01*
X120660312Y-70560312D01*
X120576924Y-70671707D01*
X120552283Y-70711071D01*
X120511353Y-70739489D01*
X120462541Y-70749500D01*
X120437459Y-70749500D01*
X120388647Y-70739489D01*
X120347717Y-70711071D01*
X120323075Y-70671707D01*
X120239687Y-70560312D01*
X120130226Y-70478372D01*
X120002116Y-70430588D01*
X119983237Y-70428558D01*
X119945485Y-70424500D01*
X119945481Y-70424500D01*
X119354517Y-70424500D01*
X119297882Y-70430588D01*
X119169774Y-70478371D01*
X119060312Y-70560312D01*
X118978372Y-70669773D01*
X118930588Y-70797883D01*
X118927544Y-70826200D01*
X118925635Y-70843964D01*
X118924500Y-70854518D01*
X118924500Y-71395482D01*
X118930588Y-71452117D01*
X118978371Y-71580225D01*
X119060310Y-71689684D01*
X119060311Y-71689685D01*
X119060313Y-71689687D01*
X119099569Y-71719074D01*
X119134090Y-71758913D01*
X119148942Y-71809493D01*
X119141440Y-71861673D01*
X119112939Y-71906021D01*
X117580781Y-73438181D01*
X117540553Y-73465061D01*
X117493100Y-73474500D01*
X115019186Y-73474500D01*
X114953908Y-73455927D01*
X114908186Y-73405771D01*
X114839675Y-73268181D01*
X114716763Y-73105419D01*
X114566041Y-72968018D01*
X114392638Y-72860652D01*
X114202457Y-72786976D01*
X114135629Y-72774483D01*
X114001976Y-72749500D01*
X113798024Y-72749500D01*
X113697784Y-72768237D01*
X113597542Y-72786976D01*
X113407361Y-72860652D01*
X113233958Y-72968018D01*
X113083236Y-73105419D01*
X112960324Y-73268181D01*
X112869418Y-73450748D01*
X112813602Y-73646916D01*
X112794785Y-73850000D01*
X112813602Y-74053083D01*
X112869418Y-74249251D01*
X112960324Y-74431818D01*
X113083236Y-74594580D01*
X113233958Y-74731981D01*
X113374493Y-74818996D01*
X113407363Y-74839348D01*
X113488286Y-74870697D01*
X113538398Y-74906519D01*
X113565089Y-74962037D01*
X113561771Y-75023548D01*
X113529263Y-75075873D01*
X113475586Y-75106097D01*
X113436511Y-75116567D01*
X113222421Y-75216400D01*
X113028921Y-75351890D01*
X112861890Y-75518921D01*
X112726400Y-75712421D01*
X112626569Y-75926507D01*
X112569364Y-76139999D01*
X112569364Y-76140000D01*
X115230636Y-76140000D01*
X115230635Y-76139999D01*
X115173430Y-75926507D01*
X115073599Y-75712421D01*
X114938109Y-75518921D01*
X114771081Y-75351893D01*
X114577576Y-75216399D01*
X114363488Y-75116567D01*
X114324413Y-75106097D01*
X114270736Y-75075873D01*
X114238228Y-75023549D01*
X114234910Y-74962037D01*
X114261601Y-74906519D01*
X114311713Y-74870697D01*
X114392637Y-74839348D01*
X114566041Y-74731981D01*
X114716764Y-74594579D01*
X114839673Y-74431821D01*
X114839673Y-74431819D01*
X114839675Y-74431818D01*
X114908186Y-74294229D01*
X114953908Y-74244073D01*
X115019186Y-74225500D01*
X117648195Y-74225500D01*
X117673641Y-74228139D01*
X117677440Y-74228935D01*
X117684268Y-74230367D01*
X117714138Y-74226643D01*
X117715677Y-74226452D01*
X117731014Y-74225500D01*
X117731111Y-74225500D01*
X117731114Y-74225500D01*
X117751643Y-74222073D01*
X117756659Y-74221342D01*
X117808626Y-74214866D01*
X117808628Y-74214864D01*
X117816457Y-74213889D01*
X117816666Y-74213822D01*
X117823607Y-74210065D01*
X117823610Y-74210065D01*
X117869666Y-74185140D01*
X117874144Y-74182835D01*
X117921211Y-74159826D01*
X117921212Y-74159824D01*
X117928308Y-74156356D01*
X117928476Y-74156230D01*
X117933824Y-74150419D01*
X117933826Y-74150419D01*
X117969294Y-74111889D01*
X117972795Y-74108240D01*
X119878889Y-72202146D01*
X119898741Y-72186025D01*
X119907836Y-72180084D01*
X119927273Y-72155110D01*
X119937453Y-72143583D01*
X119937519Y-72143518D01*
X119949624Y-72126561D01*
X119952627Y-72122534D01*
X119984809Y-72081189D01*
X119984810Y-72081185D01*
X119989666Y-72074947D01*
X119989753Y-72074779D01*
X119992288Y-72066265D01*
X120006955Y-72016997D01*
X120008486Y-72012218D01*
X120025500Y-71962660D01*
X120025500Y-71962658D01*
X120028060Y-71955201D01*
X120028093Y-71954970D01*
X120027767Y-71947091D01*
X120027768Y-71947089D01*
X120025895Y-71901798D01*
X120034499Y-71851021D01*
X120062991Y-71808119D01*
X120106452Y-71780494D01*
X120130226Y-71771628D01*
X120239687Y-71689687D01*
X120321628Y-71580226D01*
X120321628Y-71580223D01*
X120323075Y-71578292D01*
X120347717Y-71538929D01*
X120388647Y-71510511D01*
X120437459Y-71500500D01*
X120462541Y-71500500D01*
X120511353Y-71510511D01*
X120552283Y-71538929D01*
X120576924Y-71578292D01*
X120660312Y-71689687D01*
X120742252Y-71751026D01*
X120769774Y-71771628D01*
X120897886Y-71819412D01*
X120954515Y-71825500D01*
X121545484Y-71825499D01*
X121602114Y-71819412D01*
X121628708Y-71809493D01*
X121654159Y-71800000D01*
X121730226Y-71771628D01*
X121839687Y-71689687D01*
X121921628Y-71580226D01*
X121921628Y-71580223D01*
X121923075Y-71578292D01*
X121947717Y-71538929D01*
X121988647Y-71510511D01*
X122037459Y-71500500D01*
X122073195Y-71500500D01*
X122098641Y-71503139D01*
X122102440Y-71503935D01*
X122109268Y-71505367D01*
X122139138Y-71501643D01*
X122140677Y-71501452D01*
X122156014Y-71500500D01*
X122156111Y-71500500D01*
X122156114Y-71500500D01*
X122176643Y-71497073D01*
X122181659Y-71496342D01*
X122233626Y-71489866D01*
X122233628Y-71489864D01*
X122241457Y-71488889D01*
X122241666Y-71488822D01*
X122248607Y-71485065D01*
X122248610Y-71485065D01*
X122294666Y-71460140D01*
X122299144Y-71457835D01*
X122346211Y-71434826D01*
X122346212Y-71434824D01*
X122353308Y-71431356D01*
X122353476Y-71431230D01*
X122358824Y-71425419D01*
X122358826Y-71425419D01*
X122394293Y-71386890D01*
X122397794Y-71383241D01*
X122676418Y-71104617D01*
X122775819Y-71005218D01*
X122825182Y-70974968D01*
X122882898Y-70970426D01*
X122936385Y-70992581D01*
X122973985Y-71036604D01*
X122987500Y-71092899D01*
X122987500Y-74432374D01*
X122987028Y-74443182D01*
X122983868Y-74479290D01*
X122993250Y-74514304D01*
X122995591Y-74524860D01*
X123002125Y-74561913D01*
X123011738Y-74585117D01*
X123012529Y-74586247D01*
X123012530Y-74586249D01*
X123023638Y-74602113D01*
X123033314Y-74615932D01*
X123039123Y-74625051D01*
X123057251Y-74656449D01*
X123078763Y-74674500D01*
X123085018Y-74679748D01*
X123092994Y-74687057D01*
X127189436Y-78783499D01*
X127196743Y-78791473D01*
X127220048Y-78819246D01*
X127220051Y-78819249D01*
X127251459Y-78837381D01*
X127260562Y-78843181D01*
X127290251Y-78863970D01*
X127291388Y-78864766D01*
X127314582Y-78874373D01*
X127315946Y-78874613D01*
X127315949Y-78874615D01*
X127351647Y-78880909D01*
X127362195Y-78883247D01*
X127397211Y-78892631D01*
X127433319Y-78889471D01*
X127444126Y-78889000D01*
X134306125Y-78889000D01*
X134357636Y-78900206D01*
X134380234Y-78917122D01*
X134380337Y-78916963D01*
X134506732Y-78998192D01*
X134506734Y-78998193D01*
X134578039Y-79019130D01*
X134633789Y-79035500D01*
X134633790Y-79035500D01*
X134766210Y-79035500D01*
X134766212Y-79035500D01*
X134811566Y-79022183D01*
X134868517Y-79019130D01*
X134920811Y-79041893D01*
X134957384Y-79085656D01*
X134970500Y-79141160D01*
X134970500Y-79565374D01*
X134970028Y-79576182D01*
X134966868Y-79612290D01*
X134976250Y-79647304D01*
X134978591Y-79657860D01*
X134985125Y-79694913D01*
X134994738Y-79718117D01*
X134995529Y-79719247D01*
X134995530Y-79719249D01*
X135009760Y-79739572D01*
X135016314Y-79748932D01*
X135022123Y-79758051D01*
X135040250Y-79789447D01*
X135040251Y-79789449D01*
X135068018Y-79812748D01*
X135075994Y-79820057D01*
X135168255Y-79912318D01*
X135200349Y-79967905D01*
X135200349Y-80032093D01*
X135168255Y-80087680D01*
X135075991Y-80179944D01*
X135068019Y-80187250D01*
X135040249Y-80210552D01*
X135022124Y-80241945D01*
X135016317Y-80251062D01*
X134994736Y-80281884D01*
X134985124Y-80305091D01*
X134978591Y-80342139D01*
X134976250Y-80352698D01*
X134966868Y-80387710D01*
X134970028Y-80423818D01*
X134970500Y-80434626D01*
X134970500Y-81565374D01*
X134970028Y-81576182D01*
X134966868Y-81612290D01*
X134976250Y-81647304D01*
X134978591Y-81657860D01*
X134985125Y-81694913D01*
X134994738Y-81718117D01*
X134995529Y-81719247D01*
X134995530Y-81719249D01*
X135009760Y-81739572D01*
X135016314Y-81748932D01*
X135022123Y-81758051D01*
X135040250Y-81789447D01*
X135040251Y-81789449D01*
X135068018Y-81812748D01*
X135075994Y-81820057D01*
X135188181Y-81932244D01*
X135215061Y-81972472D01*
X135224500Y-82019924D01*
X135224500Y-82146945D01*
X135227873Y-82170095D01*
X135234780Y-82217509D01*
X135261384Y-82271928D01*
X135287988Y-82326348D01*
X135373653Y-82412013D01*
X135482487Y-82465219D01*
X135482489Y-82465219D01*
X135482491Y-82465220D01*
X135553051Y-82475500D01*
X135846948Y-82475499D01*
X135917509Y-82465220D01*
X136026347Y-82412012D01*
X136037319Y-82401039D01*
X136092906Y-82368946D01*
X136157094Y-82368946D01*
X136212680Y-82401039D01*
X136223653Y-82412012D01*
X136223654Y-82412012D01*
X136223656Y-82412014D01*
X136332487Y-82465219D01*
X136332489Y-82465219D01*
X136332491Y-82465220D01*
X136403051Y-82475500D01*
X136696948Y-82475499D01*
X136767509Y-82465220D01*
X136876347Y-82412012D01*
X136962012Y-82326347D01*
X137013600Y-82220820D01*
X137059338Y-82170095D01*
X137125000Y-82151283D01*
X137190662Y-82170095D01*
X137236399Y-82220820D01*
X137269478Y-82288485D01*
X137287988Y-82326348D01*
X137373653Y-82412013D01*
X137482487Y-82465219D01*
X137482489Y-82465219D01*
X137482491Y-82465220D01*
X137553051Y-82475500D01*
X137846948Y-82475499D01*
X137917509Y-82465220D01*
X138026347Y-82412012D01*
X138037319Y-82401039D01*
X138092906Y-82368946D01*
X138157094Y-82368946D01*
X138212680Y-82401039D01*
X138223653Y-82412012D01*
X138223654Y-82412012D01*
X138223656Y-82412014D01*
X138332487Y-82465219D01*
X138332489Y-82465219D01*
X138332491Y-82465220D01*
X138403051Y-82475500D01*
X138696948Y-82475499D01*
X138767509Y-82465220D01*
X138876347Y-82412012D01*
X138962012Y-82326347D01*
X139013600Y-82220820D01*
X139059338Y-82170095D01*
X139125000Y-82151283D01*
X139190662Y-82170095D01*
X139236399Y-82220820D01*
X139269478Y-82288485D01*
X139287988Y-82326348D01*
X139373653Y-82412013D01*
X139482487Y-82465219D01*
X139482489Y-82465219D01*
X139482491Y-82465220D01*
X139553051Y-82475500D01*
X139846948Y-82475499D01*
X139917509Y-82465220D01*
X140026347Y-82412012D01*
X140037319Y-82401039D01*
X140092906Y-82368946D01*
X140157094Y-82368946D01*
X140212680Y-82401039D01*
X140223653Y-82412012D01*
X140223654Y-82412012D01*
X140223656Y-82412014D01*
X140332487Y-82465219D01*
X140332489Y-82465219D01*
X140332491Y-82465220D01*
X140403051Y-82475500D01*
X140696948Y-82475499D01*
X140767509Y-82465220D01*
X140876347Y-82412012D01*
X140962012Y-82326347D01*
X141013600Y-82220820D01*
X141059338Y-82170095D01*
X141125000Y-82151283D01*
X141190662Y-82170095D01*
X141236399Y-82220820D01*
X141269478Y-82288485D01*
X141287988Y-82326348D01*
X141373653Y-82412013D01*
X141482487Y-82465219D01*
X141482489Y-82465219D01*
X141482491Y-82465220D01*
X141553051Y-82475500D01*
X141846948Y-82475499D01*
X141917509Y-82465220D01*
X142026347Y-82412012D01*
X142037319Y-82401039D01*
X142092906Y-82368946D01*
X142157094Y-82368946D01*
X142212680Y-82401039D01*
X142223653Y-82412012D01*
X142223654Y-82412012D01*
X142223656Y-82412014D01*
X142332487Y-82465219D01*
X142332489Y-82465219D01*
X142332491Y-82465220D01*
X142403051Y-82475500D01*
X142696948Y-82475499D01*
X142767509Y-82465220D01*
X142876347Y-82412012D01*
X142962012Y-82326347D01*
X143013600Y-82220820D01*
X143059338Y-82170095D01*
X143125000Y-82151283D01*
X143190662Y-82170095D01*
X143236399Y-82220820D01*
X143269478Y-82288485D01*
X143287988Y-82326348D01*
X143373653Y-82412013D01*
X143482487Y-82465219D01*
X143482489Y-82465219D01*
X143482491Y-82465220D01*
X143553051Y-82475500D01*
X143846948Y-82475499D01*
X143917509Y-82465220D01*
X144026347Y-82412012D01*
X144037319Y-82401039D01*
X144092906Y-82368946D01*
X144157094Y-82368946D01*
X144212680Y-82401039D01*
X144223653Y-82412012D01*
X144223654Y-82412012D01*
X144223656Y-82412014D01*
X144332487Y-82465219D01*
X144332489Y-82465219D01*
X144332491Y-82465220D01*
X144403051Y-82475500D01*
X144696948Y-82475499D01*
X144767509Y-82465220D01*
X144876347Y-82412012D01*
X144962012Y-82326347D01*
X145013600Y-82220820D01*
X145059338Y-82170095D01*
X145125000Y-82151283D01*
X145190662Y-82170095D01*
X145236399Y-82220820D01*
X145269478Y-82288485D01*
X145287988Y-82326348D01*
X145373653Y-82412013D01*
X145482487Y-82465219D01*
X145482489Y-82465219D01*
X145482491Y-82465220D01*
X145553051Y-82475500D01*
X145846948Y-82475499D01*
X145917509Y-82465220D01*
X146026347Y-82412012D01*
X146037319Y-82401039D01*
X146092906Y-82368946D01*
X146157094Y-82368946D01*
X146212680Y-82401039D01*
X146223653Y-82412012D01*
X146223654Y-82412012D01*
X146223656Y-82412014D01*
X146332487Y-82465219D01*
X146332489Y-82465219D01*
X146332491Y-82465220D01*
X146403051Y-82475500D01*
X146696948Y-82475499D01*
X146767509Y-82465220D01*
X146876347Y-82412012D01*
X146962012Y-82326347D01*
X146962012Y-82326346D01*
X146962013Y-82326346D01*
X147015219Y-82217512D01*
X147015219Y-82217510D01*
X147015220Y-82217509D01*
X147025500Y-82146949D01*
X147025499Y-82019923D01*
X147034938Y-81972472D01*
X147061815Y-81932246D01*
X147174014Y-81820047D01*
X147181966Y-81812760D01*
X147209749Y-81789449D01*
X147227873Y-81758056D01*
X147233671Y-81748952D01*
X147254471Y-81719249D01*
X147254471Y-81719246D01*
X147255268Y-81718109D01*
X147264871Y-81694924D01*
X147265112Y-81693555D01*
X147265115Y-81693551D01*
X147271410Y-81657842D01*
X147273750Y-81647294D01*
X147283131Y-81612289D01*
X147279972Y-81576182D01*
X147279500Y-81565374D01*
X147279500Y-80434626D01*
X147279972Y-80423818D01*
X147283131Y-80387712D01*
X147283131Y-80387711D01*
X147273746Y-80352692D01*
X147271407Y-80342139D01*
X147264873Y-80305079D01*
X147255269Y-80281890D01*
X147233681Y-80251060D01*
X147227869Y-80241936D01*
X147209749Y-80210551D01*
X147181973Y-80187244D01*
X147173999Y-80179936D01*
X147081743Y-80087680D01*
X147049649Y-80032093D01*
X147049649Y-79967905D01*
X147081741Y-79912320D01*
X147174014Y-79820047D01*
X147181966Y-79812760D01*
X147209749Y-79789449D01*
X147227873Y-79758056D01*
X147233671Y-79748952D01*
X147254471Y-79719249D01*
X147254471Y-79719246D01*
X147255268Y-79718109D01*
X147264871Y-79694924D01*
X147265112Y-79693555D01*
X147265115Y-79693551D01*
X147271410Y-79657842D01*
X147273750Y-79647294D01*
X147283131Y-79612289D01*
X147279972Y-79576182D01*
X147279500Y-79565374D01*
X147279500Y-78434626D01*
X147279972Y-78423818D01*
X147283131Y-78387712D01*
X147283131Y-78387711D01*
X147273746Y-78352692D01*
X147271407Y-78342139D01*
X147264873Y-78305079D01*
X147255269Y-78281890D01*
X147233681Y-78251060D01*
X147227869Y-78241936D01*
X147209749Y-78210551D01*
X147181973Y-78187244D01*
X147173999Y-78179936D01*
X147081743Y-78087680D01*
X147049649Y-78032093D01*
X147049649Y-77967905D01*
X147081741Y-77912320D01*
X147174014Y-77820047D01*
X147181966Y-77812760D01*
X147209749Y-77789449D01*
X147227873Y-77758056D01*
X147233671Y-77748952D01*
X147254471Y-77719249D01*
X147254471Y-77719246D01*
X147255268Y-77718109D01*
X147264871Y-77694924D01*
X147265112Y-77693555D01*
X147265115Y-77693551D01*
X147271410Y-77657842D01*
X147273750Y-77647294D01*
X147283131Y-77612289D01*
X147279972Y-77576182D01*
X147279500Y-77565374D01*
X147279500Y-76434626D01*
X147279972Y-76423818D01*
X147283131Y-76387712D01*
X147283131Y-76387711D01*
X147273746Y-76352692D01*
X147271407Y-76342139D01*
X147264873Y-76305079D01*
X147255269Y-76281890D01*
X147233681Y-76251060D01*
X147227869Y-76241936D01*
X147209749Y-76210551D01*
X147181973Y-76187244D01*
X147173999Y-76179936D01*
X147081743Y-76087680D01*
X147049649Y-76032093D01*
X147049649Y-75967905D01*
X147081741Y-75912320D01*
X147174014Y-75820047D01*
X147181966Y-75812760D01*
X147209749Y-75789449D01*
X147227873Y-75758056D01*
X147233671Y-75748952D01*
X147254471Y-75719249D01*
X147254471Y-75719246D01*
X147255268Y-75718109D01*
X147264871Y-75694924D01*
X147265112Y-75693555D01*
X147265115Y-75693551D01*
X147271410Y-75657842D01*
X147273750Y-75647294D01*
X147283131Y-75612289D01*
X147279972Y-75576182D01*
X147279500Y-75565374D01*
X147279500Y-74434626D01*
X147279972Y-74423818D01*
X147283131Y-74387712D01*
X147283131Y-74387711D01*
X147273746Y-74352692D01*
X147271407Y-74342139D01*
X147270560Y-74337335D01*
X147265115Y-74306449D01*
X147265114Y-74306447D01*
X147264873Y-74305079D01*
X147255269Y-74281890D01*
X147233681Y-74251060D01*
X147227869Y-74241936D01*
X147209749Y-74210551D01*
X147181973Y-74187244D01*
X147173999Y-74179936D01*
X147081743Y-74087680D01*
X147049649Y-74032093D01*
X147049649Y-73967905D01*
X147081741Y-73912320D01*
X147174014Y-73820047D01*
X147181966Y-73812760D01*
X147209749Y-73789449D01*
X147227873Y-73758056D01*
X147233671Y-73748952D01*
X147254471Y-73719249D01*
X147254471Y-73719246D01*
X147255268Y-73718109D01*
X147264871Y-73694924D01*
X147265112Y-73693555D01*
X147265115Y-73693551D01*
X147271410Y-73657842D01*
X147273750Y-73647294D01*
X147273852Y-73646916D01*
X147283131Y-73612289D01*
X147279971Y-73576180D01*
X147279500Y-73565374D01*
X147279500Y-72434626D01*
X147279972Y-72423818D01*
X147283131Y-72387712D01*
X147283131Y-72387711D01*
X147273746Y-72352692D01*
X147271407Y-72342139D01*
X147267493Y-72319937D01*
X147265115Y-72306449D01*
X147265114Y-72306447D01*
X147264873Y-72305079D01*
X147255269Y-72281890D01*
X147233681Y-72251060D01*
X147227869Y-72241936D01*
X147209749Y-72210551D01*
X147181973Y-72187244D01*
X147173999Y-72179936D01*
X147081743Y-72087680D01*
X147049649Y-72032093D01*
X147049649Y-71967905D01*
X147081741Y-71912320D01*
X147174014Y-71820047D01*
X147181966Y-71812760D01*
X147209749Y-71789449D01*
X147227873Y-71758056D01*
X147233671Y-71748952D01*
X147254471Y-71719249D01*
X147254471Y-71719246D01*
X147255268Y-71718109D01*
X147264871Y-71694924D01*
X147265112Y-71693555D01*
X147265115Y-71693551D01*
X147271410Y-71657842D01*
X147273750Y-71647294D01*
X147275548Y-71640587D01*
X147283131Y-71612289D01*
X147279971Y-71576180D01*
X147279500Y-71565374D01*
X147279500Y-70434626D01*
X147279972Y-70423818D01*
X147283131Y-70387712D01*
X147283131Y-70387711D01*
X147273746Y-70352692D01*
X147271407Y-70342139D01*
X147265115Y-70306449D01*
X147265114Y-70306447D01*
X147264873Y-70305079D01*
X147255269Y-70281890D01*
X147233681Y-70251060D01*
X147227869Y-70241936D01*
X147209749Y-70210551D01*
X147181973Y-70187244D01*
X147173999Y-70179936D01*
X147081743Y-70087680D01*
X147049649Y-70032093D01*
X147049649Y-69967905D01*
X147081741Y-69912320D01*
X147174014Y-69820047D01*
X147181966Y-69812760D01*
X147209749Y-69789449D01*
X147227873Y-69758056D01*
X147233671Y-69748952D01*
X147254471Y-69719249D01*
X147254471Y-69719246D01*
X147255268Y-69718109D01*
X147264871Y-69694924D01*
X147265112Y-69693555D01*
X147265115Y-69693551D01*
X147271410Y-69657842D01*
X147273750Y-69647294D01*
X147283131Y-69612289D01*
X147279972Y-69576182D01*
X147279500Y-69565374D01*
X147279500Y-68434626D01*
X147279972Y-68423818D01*
X147283131Y-68387712D01*
X147281342Y-68381035D01*
X147273746Y-68352692D01*
X147271407Y-68342139D01*
X147271152Y-68340690D01*
X147265115Y-68306449D01*
X147265114Y-68306447D01*
X147264873Y-68305079D01*
X147255269Y-68281890D01*
X147233681Y-68251060D01*
X147227869Y-68241936D01*
X147209749Y-68210551D01*
X147181973Y-68187244D01*
X147173999Y-68179936D01*
X147081743Y-68087680D01*
X147049649Y-68032093D01*
X147049649Y-67967905D01*
X147081741Y-67912320D01*
X147174014Y-67820047D01*
X147181966Y-67812760D01*
X147209749Y-67789449D01*
X147227872Y-67758057D01*
X147233671Y-67748952D01*
X147254471Y-67719249D01*
X147254471Y-67719246D01*
X147255268Y-67718109D01*
X147264871Y-67694924D01*
X147265112Y-67693555D01*
X147265115Y-67693551D01*
X147271410Y-67657842D01*
X147273750Y-67647294D01*
X147274937Y-67642867D01*
X147283131Y-67612289D01*
X147279971Y-67576180D01*
X147279500Y-67565374D01*
X147279500Y-66434626D01*
X147279972Y-66423818D01*
X147283131Y-66387712D01*
X147283131Y-66387711D01*
X147273746Y-66352692D01*
X147271407Y-66342139D01*
X147264873Y-66305079D01*
X147255269Y-66281890D01*
X147233681Y-66251060D01*
X147227869Y-66241936D01*
X147209749Y-66210551D01*
X147181973Y-66187244D01*
X147173999Y-66179936D01*
X147081743Y-66087680D01*
X147049649Y-66032093D01*
X147049649Y-65967905D01*
X147081741Y-65912320D01*
X147174014Y-65820047D01*
X147181966Y-65812760D01*
X147209749Y-65789449D01*
X147227872Y-65758057D01*
X147233671Y-65748952D01*
X147254471Y-65719249D01*
X147254471Y-65719246D01*
X147255268Y-65718109D01*
X147264871Y-65694924D01*
X147265112Y-65693555D01*
X147265115Y-65693551D01*
X147271410Y-65657842D01*
X147273750Y-65647294D01*
X147283131Y-65612289D01*
X147279972Y-65576182D01*
X147279500Y-65565374D01*
X147279500Y-64434626D01*
X147279972Y-64423818D01*
X147283131Y-64387712D01*
X147281580Y-64381924D01*
X147273746Y-64352692D01*
X147271407Y-64342139D01*
X147270215Y-64335376D01*
X147265115Y-64306449D01*
X147265114Y-64306447D01*
X147264873Y-64305079D01*
X147255269Y-64281890D01*
X147233681Y-64251060D01*
X147227869Y-64241936D01*
X147209749Y-64210551D01*
X147181973Y-64187244D01*
X147173999Y-64179936D01*
X147081743Y-64087680D01*
X147049649Y-64032093D01*
X147049649Y-63967905D01*
X147081741Y-63912320D01*
X147174014Y-63820047D01*
X147181966Y-63812760D01*
X147209749Y-63789449D01*
X147227872Y-63758057D01*
X147233671Y-63748952D01*
X147254471Y-63719249D01*
X147254471Y-63719246D01*
X147255268Y-63718109D01*
X147264871Y-63694924D01*
X147265112Y-63693555D01*
X147265115Y-63693551D01*
X147271410Y-63657842D01*
X147273750Y-63647294D01*
X147283131Y-63612289D01*
X147279972Y-63576182D01*
X147279500Y-63565374D01*
X147279500Y-62434626D01*
X147279972Y-62423818D01*
X147283131Y-62387712D01*
X147283055Y-62387427D01*
X147273746Y-62352692D01*
X147271407Y-62342139D01*
X147264873Y-62305079D01*
X147255269Y-62281890D01*
X147233681Y-62251060D01*
X147227869Y-62241936D01*
X147209749Y-62210551D01*
X147181973Y-62187244D01*
X147173999Y-62179936D01*
X147081743Y-62087680D01*
X147049649Y-62032093D01*
X147049649Y-61967905D01*
X147081741Y-61912320D01*
X147458513Y-61535548D01*
X147466466Y-61528260D01*
X147494249Y-61504949D01*
X147512380Y-61473542D01*
X147518174Y-61464447D01*
X147538970Y-61434749D01*
X147538970Y-61434746D01*
X147539767Y-61433609D01*
X147549372Y-61410420D01*
X147549612Y-61409054D01*
X147549615Y-61409051D01*
X147555911Y-61373339D01*
X147558244Y-61362819D01*
X147567631Y-61327790D01*
X147564472Y-61291685D01*
X147564000Y-61280877D01*
X147564000Y-58488440D01*
X147582811Y-58422779D01*
X147633537Y-58377040D01*
X147662102Y-58363076D01*
X147753076Y-58272102D01*
X147764099Y-58249553D01*
X147807678Y-58200206D01*
X147870375Y-58180120D01*
X147934517Y-58194959D01*
X147982023Y-58240540D01*
X147999500Y-58304014D01*
X147999500Y-82875500D01*
X147982887Y-82937500D01*
X147937500Y-82982887D01*
X147875500Y-82999500D01*
X112124500Y-82999500D01*
X112062500Y-82982887D01*
X112017113Y-82937500D01*
X112000500Y-82875500D01*
X112000500Y-76640000D01*
X112569364Y-76640000D01*
X112626569Y-76853492D01*
X112726399Y-77067576D01*
X112861893Y-77261081D01*
X113028918Y-77428106D01*
X113222423Y-77563600D01*
X113436507Y-77663430D01*
X113649999Y-77720635D01*
X113650000Y-77720636D01*
X113650000Y-76640000D01*
X114150000Y-76640000D01*
X114150000Y-77720635D01*
X114363492Y-77663430D01*
X114577576Y-77563600D01*
X114771081Y-77428106D01*
X114938106Y-77261081D01*
X115073600Y-77067576D01*
X115173430Y-76853492D01*
X115230636Y-76640000D01*
X114150000Y-76640000D01*
X113650000Y-76640000D01*
X112569364Y-76640000D01*
X112000500Y-76640000D01*
X112000500Y-51124500D01*
X112017113Y-51062500D01*
X112062500Y-51017113D01*
X112124500Y-51000500D01*
X130806074Y-51000500D01*
X130862369Y-51014015D01*
G37*
%TD.AperFunction*%
%TA.AperFunction,Conductor*%
G36*
X128466629Y-66497093D02*
G01*
X128481026Y-66511490D01*
X128500858Y-66527200D01*
X128531357Y-66539015D01*
X128574245Y-66566960D01*
X128602191Y-66609847D01*
X128614008Y-66640349D01*
X128629711Y-66660174D01*
X128629712Y-66660175D01*
X128629714Y-66660177D01*
X128763873Y-66794335D01*
X128783701Y-66810042D01*
X128788285Y-66811818D01*
X128814200Y-66821857D01*
X128857088Y-66849802D01*
X128885034Y-66892690D01*
X128896850Y-66923191D01*
X128912554Y-66943017D01*
X128912555Y-66943018D01*
X128912557Y-66943020D01*
X129046716Y-67077178D01*
X129066544Y-67092885D01*
X129097044Y-67104700D01*
X129139931Y-67132645D01*
X129167876Y-67175533D01*
X129179692Y-67206034D01*
X129195396Y-67225860D01*
X129329559Y-67360022D01*
X129349386Y-67375728D01*
X129379885Y-67387543D01*
X129422773Y-67415488D01*
X129450719Y-67458375D01*
X129462536Y-67488877D01*
X129478239Y-67508702D01*
X129612402Y-67642864D01*
X129632226Y-67658568D01*
X129632229Y-67658570D01*
X129656310Y-67667899D01*
X129662728Y-67670385D01*
X129705616Y-67698330D01*
X129733562Y-67741218D01*
X129745378Y-67771719D01*
X129761082Y-67791545D01*
X129761083Y-67791546D01*
X129761085Y-67791548D01*
X129895244Y-67925706D01*
X129915072Y-67941413D01*
X129945572Y-67953228D01*
X129988459Y-67981173D01*
X130016404Y-68024061D01*
X130028220Y-68054562D01*
X130043924Y-68074388D01*
X130043925Y-68074389D01*
X130043927Y-68074391D01*
X130178086Y-68208549D01*
X130197914Y-68224256D01*
X130302674Y-68264840D01*
X130302676Y-68264840D01*
X130429323Y-68264840D01*
X130491323Y-68281453D01*
X130536710Y-68326840D01*
X130553323Y-68388840D01*
X130553323Y-68515488D01*
X130593907Y-68620249D01*
X130609608Y-68640071D01*
X130609611Y-68640074D01*
X130609613Y-68640076D01*
X130743772Y-68774234D01*
X130763600Y-68789941D01*
X130794100Y-68801756D01*
X130836987Y-68829701D01*
X130864932Y-68872589D01*
X130876748Y-68903090D01*
X130892456Y-68922921D01*
X130906854Y-68937319D01*
X130938948Y-68992905D01*
X130938948Y-69057092D01*
X130906856Y-69112679D01*
X130892457Y-69127077D01*
X130876748Y-69146908D01*
X130864931Y-69177412D01*
X130836987Y-69220297D01*
X130794102Y-69248241D01*
X130763600Y-69260058D01*
X130743774Y-69275762D01*
X130609611Y-69409926D01*
X130593906Y-69429751D01*
X130582089Y-69460255D01*
X130554144Y-69503140D01*
X130511259Y-69531085D01*
X130480755Y-69542902D01*
X130460931Y-69558605D01*
X130326766Y-69692771D01*
X130311065Y-69712591D01*
X130299247Y-69743098D01*
X130271302Y-69785983D01*
X130228416Y-69813927D01*
X130197913Y-69825744D01*
X130178088Y-69841447D01*
X130043926Y-69975610D01*
X130028221Y-69995436D01*
X130028220Y-69995437D01*
X130028221Y-69995437D01*
X129987637Y-70100197D01*
X129987637Y-70100199D01*
X129987637Y-70226846D01*
X129971024Y-70288846D01*
X129925637Y-70334233D01*
X129863637Y-70350846D01*
X129736989Y-70350846D01*
X129632227Y-70391430D01*
X129612405Y-70407131D01*
X129478238Y-70541299D01*
X129462537Y-70561119D01*
X129454193Y-70582656D01*
X129453117Y-70585437D01*
X129450719Y-70591626D01*
X129422774Y-70634511D01*
X129379888Y-70662455D01*
X129349385Y-70674272D01*
X129329560Y-70689975D01*
X129195397Y-70824139D01*
X129179692Y-70843964D01*
X129167875Y-70874468D01*
X129139931Y-70917353D01*
X129097046Y-70945297D01*
X129066544Y-70957114D01*
X129046718Y-70972818D01*
X128912555Y-71106982D01*
X128896850Y-71126807D01*
X128885033Y-71157311D01*
X128857088Y-71200196D01*
X128814203Y-71228141D01*
X128783699Y-71239958D01*
X128763875Y-71255661D01*
X128629710Y-71389827D01*
X128614009Y-71409647D01*
X128602191Y-71440154D01*
X128574246Y-71483039D01*
X128531360Y-71510983D01*
X128500857Y-71522800D01*
X128481026Y-71538508D01*
X128466627Y-71552907D01*
X128411040Y-71584999D01*
X128346853Y-71584999D01*
X128291267Y-71552905D01*
X128276869Y-71538507D01*
X128257039Y-71522799D01*
X128226537Y-71510982D01*
X128183650Y-71483036D01*
X128155705Y-71440149D01*
X128151464Y-71429202D01*
X128143890Y-71409651D01*
X128143889Y-71409650D01*
X128143889Y-71409649D01*
X128128188Y-71389827D01*
X127994022Y-71255662D01*
X127974196Y-71239957D01*
X127943694Y-71228140D01*
X127900807Y-71200194D01*
X127872862Y-71157307D01*
X127861047Y-71126808D01*
X127857120Y-71121851D01*
X127845344Y-71106983D01*
X127711179Y-70972819D01*
X127691355Y-70957115D01*
X127674391Y-70950543D01*
X127660851Y-70945298D01*
X127617965Y-70917353D01*
X127590020Y-70874464D01*
X127578205Y-70843964D01*
X127562502Y-70824140D01*
X127428337Y-70689976D01*
X127408511Y-70674271D01*
X127378009Y-70662454D01*
X127335122Y-70634508D01*
X127307177Y-70591621D01*
X127295361Y-70561121D01*
X127279660Y-70541299D01*
X127145494Y-70407134D01*
X127125668Y-70391429D01*
X127095166Y-70379612D01*
X127052279Y-70351666D01*
X127024334Y-70308779D01*
X127012519Y-70278280D01*
X127008592Y-70273323D01*
X126996816Y-70258455D01*
X126862651Y-70124291D01*
X126842827Y-70108587D01*
X126821169Y-70100197D01*
X126812323Y-70096770D01*
X126769437Y-70068825D01*
X126741492Y-70025936D01*
X126729677Y-69995436D01*
X126713974Y-69975612D01*
X126579809Y-69841448D01*
X126559983Y-69825743D01*
X126529481Y-69813926D01*
X126486594Y-69785980D01*
X126458649Y-69743093D01*
X126446833Y-69712593D01*
X126431132Y-69692771D01*
X126296966Y-69558606D01*
X126277140Y-69542901D01*
X126246638Y-69531084D01*
X126203751Y-69503138D01*
X126175806Y-69460251D01*
X126174860Y-69457809D01*
X126163991Y-69429752D01*
X126160064Y-69424795D01*
X126148288Y-69409927D01*
X126014123Y-69275763D01*
X125994299Y-69260059D01*
X125977335Y-69253487D01*
X125963795Y-69248242D01*
X125920909Y-69220297D01*
X125892964Y-69177408D01*
X125881149Y-69146908D01*
X125865443Y-69127080D01*
X125851044Y-69112682D01*
X125818948Y-69057094D01*
X125818948Y-68992904D01*
X125851042Y-68937318D01*
X125865442Y-68922919D01*
X125881149Y-68903091D01*
X125892964Y-68872589D01*
X125920910Y-68829702D01*
X125963799Y-68801756D01*
X125994298Y-68789941D01*
X126014122Y-68774238D01*
X126014121Y-68774238D01*
X126014126Y-68774235D01*
X126148284Y-68640076D01*
X126163991Y-68620248D01*
X126175806Y-68589746D01*
X126203752Y-68546859D01*
X126246638Y-68518914D01*
X126277141Y-68507098D01*
X126296969Y-68491392D01*
X126431127Y-68357233D01*
X126446834Y-68337405D01*
X126458649Y-68306905D01*
X126486595Y-68264016D01*
X126529481Y-68236072D01*
X126559984Y-68224256D01*
X126579812Y-68208550D01*
X126713970Y-68074391D01*
X126729677Y-68054563D01*
X126741492Y-68024061D01*
X126769438Y-67981174D01*
X126812327Y-67953228D01*
X126842826Y-67941413D01*
X126862650Y-67925710D01*
X126862649Y-67925710D01*
X126862654Y-67925707D01*
X126996812Y-67791548D01*
X127012519Y-67771720D01*
X127024334Y-67741218D01*
X127052280Y-67698331D01*
X127095166Y-67670386D01*
X127125669Y-67658570D01*
X127145497Y-67642864D01*
X127279655Y-67508705D01*
X127295362Y-67488877D01*
X127307177Y-67458377D01*
X127335123Y-67415488D01*
X127378009Y-67387544D01*
X127408512Y-67375728D01*
X127428340Y-67360022D01*
X127562498Y-67225863D01*
X127578205Y-67206035D01*
X127590020Y-67175533D01*
X127617966Y-67132646D01*
X127660855Y-67104700D01*
X127691354Y-67092885D01*
X127711178Y-67077182D01*
X127711177Y-67077182D01*
X127711182Y-67077179D01*
X127845340Y-66943020D01*
X127861047Y-66923192D01*
X127872862Y-66892690D01*
X127900808Y-66849803D01*
X127943694Y-66821858D01*
X127974197Y-66810042D01*
X127994025Y-66794336D01*
X128128183Y-66660177D01*
X128143890Y-66640349D01*
X128155705Y-66609849D01*
X128183651Y-66566960D01*
X128226537Y-66539016D01*
X128257040Y-66527200D01*
X128276868Y-66511494D01*
X128291268Y-66497093D01*
X128346850Y-66465000D01*
X128411040Y-66464999D01*
X128466629Y-66497093D01*
G37*
%TD.AperFunction*%
%TA.AperFunction,Conductor*%
G36*
X131786385Y-59805607D02*
G01*
X131823985Y-59849630D01*
X131837500Y-59905925D01*
X131837500Y-63320086D01*
X131822332Y-63379512D01*
X131780540Y-63424401D01*
X131713196Y-63467680D01*
X131626478Y-63567758D01*
X131566422Y-63699260D01*
X131534831Y-63741461D01*
X131488564Y-63766725D01*
X131439571Y-63781111D01*
X131328174Y-63852702D01*
X131241456Y-63952780D01*
X131186447Y-64073231D01*
X131167603Y-64204304D01*
X131184647Y-64322854D01*
X131174703Y-64392012D01*
X131128948Y-64444816D01*
X131061909Y-64464500D01*
X130933789Y-64464500D01*
X130806730Y-64501808D01*
X130798773Y-64506922D01*
X130732824Y-64526600D01*
X130666540Y-64508082D01*
X130645445Y-64484791D01*
X130642708Y-64487529D01*
X130537101Y-64381922D01*
X130421518Y-64325417D01*
X130346585Y-64314500D01*
X130346582Y-64314500D01*
X129903418Y-64314500D01*
X129903415Y-64314500D01*
X129828483Y-64325417D01*
X129803842Y-64337463D01*
X129751557Y-64350042D01*
X129698863Y-64339303D01*
X129655672Y-64307264D01*
X129604665Y-64248400D01*
X129604664Y-64248399D01*
X129493266Y-64176807D01*
X129424880Y-64156727D01*
X129366211Y-64139500D01*
X129366210Y-64139500D01*
X129233790Y-64139500D01*
X129215961Y-64139500D01*
X129215961Y-64138687D01*
X129173237Y-64139573D01*
X129116559Y-64107960D01*
X129083613Y-64052046D01*
X129083423Y-63987151D01*
X129092631Y-63952790D01*
X129089472Y-63916685D01*
X129089000Y-63905877D01*
X129089000Y-63884500D01*
X129105613Y-63822500D01*
X129151000Y-63777113D01*
X129213000Y-63760500D01*
X129341211Y-63760500D01*
X129365486Y-63753372D01*
X129468266Y-63723193D01*
X129579664Y-63651601D01*
X129666381Y-63551525D01*
X129695650Y-63487435D01*
X129720515Y-63432989D01*
X129747739Y-63394757D01*
X129787223Y-63369382D01*
X129833309Y-63360500D01*
X129841211Y-63360500D01*
X129864714Y-63353598D01*
X129968266Y-63323193D01*
X130079664Y-63251601D01*
X130166381Y-63151525D01*
X130221390Y-63031072D01*
X130227028Y-62991853D01*
X130248760Y-62937573D01*
X130292947Y-62899284D01*
X130349767Y-62885500D01*
X130416211Y-62885500D01*
X130439714Y-62878598D01*
X130543266Y-62848193D01*
X130654664Y-62776601D01*
X130741381Y-62676525D01*
X130796390Y-62556072D01*
X130806475Y-62485928D01*
X130821824Y-62441577D01*
X130852560Y-62406106D01*
X130894274Y-62384600D01*
X131018266Y-62348193D01*
X131129664Y-62276601D01*
X131216381Y-62176525D01*
X131271390Y-62056072D01*
X131290235Y-61925000D01*
X131271390Y-61793928D01*
X131243025Y-61731818D01*
X131216381Y-61673475D01*
X131169287Y-61619126D01*
X131146818Y-61581257D01*
X131139000Y-61537923D01*
X131139000Y-60356425D01*
X131148439Y-60308972D01*
X131175319Y-60268744D01*
X131625819Y-59818244D01*
X131675182Y-59787994D01*
X131732898Y-59783452D01*
X131786385Y-59805607D01*
G37*
%TD.AperFunction*%
%TD*%
M02*
