M48
; DRILL file {KiCad 7.0.1} date Thu Apr  6 12:09:23 2023
; FORMAT={-:-/ absolute / metric / decimal}
; #@! TF.CreationDate,2023-04-06T12:09:23+02:00
; #@! TF.GenerationSoftware,Kicad,Pcbnew,7.0.1
; #@! TF.FileFunction,Plated,1,4,PTH
FMAT,2
METRIC
; #@! TA.AperFunction,Plated,PTH,ViaDrill
T1C0.250
%
G90
G05
T1
X90.525Y-36.65
X90.55Y-70.5
X90.775Y-70.95
X91.1Y-36.2
X91.325Y-36.65
X91.35Y-70.5
X91.55Y-37.1
X91.575Y-70.95
X92.025Y-36.65
X92.05Y-70.5
X92.25Y-37.1
X92.275Y-70.95
X92.5Y-71.4
X92.6Y-36.2
X92.825Y-36.65
X92.85Y-70.5
X93.05Y-37.1
X93.075Y-70.95
X93.525Y-36.65
X93.55Y-70.5
X93.75Y-37.1
X93.775Y-70.95
X94.0Y-71.4
X94.1Y-36.2
X94.325Y-36.65
X94.35Y-70.5
X94.55Y-37.1
X94.575Y-70.95
X95.025Y-36.65
X95.05Y-70.5
X95.25Y-37.1
X95.275Y-70.95
X95.5Y-71.4
X95.6Y-36.2
X95.825Y-36.65
X95.85Y-70.5
X96.05Y-37.1
X96.075Y-70.95
X96.525Y-36.65
X96.55Y-70.5
X96.75Y-37.1
X96.775Y-70.95
X97.0Y-71.4
X97.1Y-36.2
X97.325Y-36.65
X97.35Y-70.5
X97.55Y-37.1
X97.575Y-70.95
X98.025Y-36.65
X98.05Y-70.5
X98.25Y-37.1
X98.275Y-70.95
X98.5Y-71.4
X98.825Y-36.65
X99.05Y-37.1
X99.075Y-70.95
X99.525Y-36.65
X99.55Y-70.5
X99.775Y-70.95
X100.1Y-36.2
X100.325Y-36.65
X100.35Y-70.5
X100.55Y-37.1
X100.575Y-70.95
X101.025Y-36.65
X101.05Y-70.5
X101.25Y-37.1
X101.275Y-70.95
X101.5Y-71.4
X101.6Y-36.2
X101.825Y-36.65
X101.85Y-70.5
X102.05Y-37.1
X102.075Y-70.95
X102.525Y-36.65
X102.55Y-70.5
X102.75Y-37.1
X102.775Y-70.95
X103.0Y-71.4
X103.1Y-36.2
X103.325Y-36.65
X103.35Y-70.5
X103.55Y-37.1
X103.575Y-70.95
X104.025Y-36.65
X104.05Y-70.5
X104.25Y-37.1
X104.275Y-70.95
X104.5Y-71.4
X104.6Y-36.2
X104.825Y-36.65
X104.85Y-70.5
X105.05Y-37.1
X105.075Y-70.95
X105.525Y-36.65
X105.55Y-70.5
X105.75Y-37.1
X105.775Y-70.95
X106.0Y-71.4
X106.1Y-36.2
X106.325Y-36.65
X106.35Y-70.5
X106.55Y-37.1
X106.575Y-70.95
X107.025Y-36.65
X107.05Y-70.5
X107.25Y-37.1
X107.275Y-70.95
X107.5Y-71.4
X107.825Y-36.65
X108.05Y-37.1
X108.075Y-70.95
X108.525Y-36.65
X108.55Y-70.5
X108.775Y-70.95
X109.1Y-36.2
X109.325Y-36.65
X109.35Y-70.5
X109.55Y-37.1
X109.575Y-70.95
X110.025Y-36.65
X110.05Y-70.5
X110.25Y-37.1
X110.275Y-70.95
X110.5Y-71.4
X110.6Y-36.2
X110.825Y-36.65
X110.85Y-70.5
X111.05Y-37.1
X111.075Y-70.95
X111.525Y-36.65
X111.55Y-70.5
X111.75Y-37.1
X111.775Y-70.95
X112.0Y-71.4
X112.1Y-36.2
X112.325Y-36.65
X112.35Y-70.5
X112.55Y-37.1
X112.575Y-70.95
X113.025Y-36.65
X113.05Y-70.5
X113.25Y-37.1
X113.275Y-70.95
X113.5Y-71.4
X113.6Y-36.2
X113.825Y-36.65
X113.85Y-70.5
X114.05Y-37.1
X114.075Y-70.95
X114.525Y-36.65
X114.55Y-70.5
X114.75Y-37.1
X114.775Y-70.95
X115.0Y-71.4
X115.1Y-36.2
X115.325Y-36.65
X115.35Y-70.5
X115.55Y-37.1
X115.575Y-70.95
X116.025Y-36.65
X116.05Y-70.5
X116.25Y-37.1
X116.275Y-70.95
X116.5Y-71.4
X116.825Y-36.65
X117.05Y-37.1
X117.075Y-70.95
T0
M30
