%TF.GenerationSoftware,KiCad,Pcbnew,7.0.1*%
%TF.CreationDate,2023-04-05T13:45:38+02:00*%
%TF.ProjectId,LED_Driver_Evaluation,4c45445f-4472-4697-9665-725f4576616c,1.0*%
%TF.SameCoordinates,Original*%
%TF.FileFunction,Soldermask,Top*%
%TF.FilePolarity,Negative*%
%FSLAX46Y46*%
G04 Gerber Fmt 4.6, Leading zero omitted, Abs format (unit mm)*
G04 Created by KiCad (PCBNEW 7.0.1) date 2023-04-05 13:45:38*
%MOMM*%
%LPD*%
G01*
G04 APERTURE LIST*
G04 Aperture macros list*
%AMRoundRect*
0 Rectangle with rounded corners*
0 $1 Rounding radius*
0 $2 $3 $4 $5 $6 $7 $8 $9 X,Y pos of 4 corners*
0 Add a 4 corners polygon primitive as box body*
4,1,4,$2,$3,$4,$5,$6,$7,$8,$9,$2,$3,0*
0 Add four circle primitives for the rounded corners*
1,1,$1+$1,$2,$3*
1,1,$1+$1,$4,$5*
1,1,$1+$1,$6,$7*
1,1,$1+$1,$8,$9*
0 Add four rect primitives between the rounded corners*
20,1,$1+$1,$2,$3,$4,$5,0*
20,1,$1+$1,$4,$5,$6,$7,0*
20,1,$1+$1,$6,$7,$8,$9,0*
20,1,$1+$1,$8,$9,$2,$3,0*%
%AMRotRect*
0 Rectangle, with rotation*
0 The origin of the aperture is its center*
0 $1 length*
0 $2 width*
0 $3 Rotation angle, in degrees counterclockwise*
0 Add horizontal line*
21,1,$1,$2,0,0,$3*%
G04 Aperture macros list end*
%ADD10RoundRect,0.135000X-0.185000X0.135000X-0.185000X-0.135000X0.185000X-0.135000X0.185000X0.135000X0*%
%ADD11RoundRect,0.112500X-0.112500X-0.112500X0.112500X-0.112500X0.112500X0.112500X-0.112500X0.112500X0*%
%ADD12RoundRect,0.225000X0.250000X-0.225000X0.250000X0.225000X-0.250000X0.225000X-0.250000X-0.225000X0*%
%ADD13RoundRect,0.200000X-0.275000X0.200000X-0.275000X-0.200000X0.275000X-0.200000X0.275000X0.200000X0*%
%ADD14R,1.700000X1.700000*%
%ADD15O,1.700000X1.700000*%
%ADD16RoundRect,0.135000X0.185000X-0.135000X0.185000X0.135000X-0.185000X0.135000X-0.185000X-0.135000X0*%
%ADD17RoundRect,0.050000X-0.194454X-0.265165X0.265165X0.194454X0.194454X0.265165X-0.265165X-0.194454X0*%
%ADD18RoundRect,0.050000X0.194454X-0.265165X0.265165X-0.194454X-0.194454X0.265165X-0.265165X0.194454X0*%
%ADD19RotRect,3.800000X3.800000X45.000000*%
G04 APERTURE END LIST*
D10*
%TO.C,R16*%
X137850000Y-56890000D03*
X137850000Y-57910000D03*
%TD*%
D11*
%TO.C,D55*%
X137700000Y-81150000D03*
X138550000Y-81150000D03*
X138550000Y-82000000D03*
X137700000Y-82000000D03*
%TD*%
%TO.C,D18*%
X143700000Y-73150000D03*
X144550000Y-73150000D03*
X144550000Y-74000000D03*
X143700000Y-74000000D03*
%TD*%
%TO.C,D21*%
X143700000Y-79150000D03*
X144550000Y-79150000D03*
X144550000Y-80000000D03*
X143700000Y-80000000D03*
%TD*%
%TO.C,D36*%
X139700000Y-65150000D03*
X140550000Y-65150000D03*
X140550000Y-66000000D03*
X139700000Y-66000000D03*
%TD*%
%TO.C,D38*%
X139700000Y-69150000D03*
X140550000Y-69150000D03*
X140550000Y-70000000D03*
X139700000Y-70000000D03*
%TD*%
%TO.C,D5*%
X145700000Y-69150000D03*
X146550000Y-69150000D03*
X146550000Y-70000000D03*
X145700000Y-70000000D03*
%TD*%
%TO.C,D62*%
X135700000Y-73150000D03*
X136550000Y-73150000D03*
X136550000Y-74000000D03*
X135700000Y-74000000D03*
%TD*%
%TO.C,D33*%
X141700000Y-81150000D03*
X142550000Y-81150000D03*
X142550000Y-82000000D03*
X141700000Y-82000000D03*
%TD*%
%TO.C,D46*%
X137700000Y-63150000D03*
X138550000Y-63150000D03*
X138550000Y-64000000D03*
X137700000Y-64000000D03*
%TD*%
%TO.C,D24*%
X141700000Y-63150000D03*
X142550000Y-63150000D03*
X142550000Y-64000000D03*
X141700000Y-64000000D03*
%TD*%
D10*
%TO.C,R13*%
X139850000Y-58790000D03*
X139850000Y-59810000D03*
%TD*%
D11*
%TO.C,D10*%
X145700000Y-79150000D03*
X146550000Y-79150000D03*
X146550000Y-80000000D03*
X145700000Y-80000000D03*
%TD*%
%TO.C,D47*%
X137700000Y-65150000D03*
X138550000Y-65150000D03*
X138550000Y-66000000D03*
X137700000Y-66000000D03*
%TD*%
%TO.C,D35*%
X139700000Y-63150000D03*
X140550000Y-63150000D03*
X140550000Y-64000000D03*
X139700000Y-64000000D03*
%TD*%
D10*
%TO.C,R8*%
X143250000Y-56890000D03*
X143250000Y-57910000D03*
%TD*%
D11*
%TO.C,D22*%
X143700000Y-81150000D03*
X144550000Y-81150000D03*
X144550000Y-82000000D03*
X143700000Y-82000000D03*
%TD*%
%TO.C,D25*%
X141700000Y-65150000D03*
X142550000Y-65150000D03*
X142550000Y-66000000D03*
X141700000Y-66000000D03*
%TD*%
%TO.C,D52*%
X137700000Y-75150000D03*
X138550000Y-75150000D03*
X138550000Y-76000000D03*
X137700000Y-76000000D03*
%TD*%
%TO.C,D44*%
X139700000Y-81150000D03*
X140550000Y-81150000D03*
X140550000Y-82000000D03*
X139700000Y-82000000D03*
%TD*%
%TO.C,D32*%
X141700000Y-79150000D03*
X142550000Y-79150000D03*
X142550000Y-80000000D03*
X141700000Y-80000000D03*
%TD*%
%TO.C,D53*%
X137700000Y-77150000D03*
X138550000Y-77150000D03*
X138550000Y-78000000D03*
X137700000Y-78000000D03*
%TD*%
%TO.C,D15*%
X143700000Y-67150000D03*
X144550000Y-67150000D03*
X144550000Y-68000000D03*
X143700000Y-68000000D03*
%TD*%
%TO.C,D29*%
X141700000Y-73150000D03*
X142550000Y-73150000D03*
X142550000Y-74000000D03*
X141700000Y-74000000D03*
%TD*%
%TO.C,D14*%
X143700000Y-65150000D03*
X144550000Y-65150000D03*
X144550000Y-66000000D03*
X143700000Y-66000000D03*
%TD*%
%TO.C,D48*%
X137700000Y-67150000D03*
X138550000Y-67150000D03*
X138550000Y-68000000D03*
X137700000Y-68000000D03*
%TD*%
D10*
%TO.C,R7*%
X142550000Y-58790000D03*
X142550000Y-59810000D03*
%TD*%
%TO.C,R9*%
X141850000Y-56890000D03*
X141850000Y-57910000D03*
%TD*%
D11*
%TO.C,D8*%
X145700000Y-75150000D03*
X146550000Y-75150000D03*
X146550000Y-76000000D03*
X145700000Y-76000000D03*
%TD*%
%TO.C,D30*%
X141700000Y-75150000D03*
X142550000Y-75150000D03*
X142550000Y-76000000D03*
X141700000Y-76000000D03*
%TD*%
%TO.C,D58*%
X135700000Y-65150000D03*
X136550000Y-65150000D03*
X136550000Y-66000000D03*
X135700000Y-66000000D03*
%TD*%
%TO.C,D34*%
X139700000Y-61150000D03*
X140550000Y-61150000D03*
X140550000Y-62000000D03*
X139700000Y-62000000D03*
%TD*%
%TO.C,D11*%
X145700000Y-81150000D03*
X146550000Y-81150000D03*
X146550000Y-82000000D03*
X145700000Y-82000000D03*
%TD*%
%TO.C,D49*%
X137700000Y-69150000D03*
X138550000Y-69150000D03*
X138550000Y-70000000D03*
X137700000Y-70000000D03*
%TD*%
%TO.C,D13*%
X143700000Y-63150000D03*
X144550000Y-63150000D03*
X144550000Y-64000000D03*
X143700000Y-64000000D03*
%TD*%
%TO.C,D50*%
X137700000Y-71150000D03*
X138550000Y-71150000D03*
X138550000Y-72000000D03*
X137700000Y-72000000D03*
%TD*%
%TO.C,D1*%
X145700000Y-61150000D03*
X146550000Y-61150000D03*
X146550000Y-62000000D03*
X145700000Y-62000000D03*
%TD*%
%TO.C,D60*%
X135700000Y-69150000D03*
X136550000Y-69150000D03*
X136550000Y-70000000D03*
X135700000Y-70000000D03*
%TD*%
%TO.C,D39*%
X139700000Y-71150000D03*
X140550000Y-71150000D03*
X140550000Y-72000000D03*
X139700000Y-72000000D03*
%TD*%
%TO.C,D45*%
X137700000Y-61150000D03*
X138550000Y-61150000D03*
X138550000Y-62000000D03*
X137700000Y-62000000D03*
%TD*%
D10*
%TO.C,R15*%
X139250000Y-56890000D03*
X139250000Y-57910000D03*
%TD*%
D11*
%TO.C,D51*%
X137700000Y-73150000D03*
X138550000Y-73150000D03*
X138550000Y-74000000D03*
X137700000Y-74000000D03*
%TD*%
D12*
%TO.C,C1*%
X121250000Y-71125000D03*
X121250000Y-69575000D03*
%TD*%
D10*
%TO.C,R17*%
X136550000Y-56890000D03*
X136550000Y-57910000D03*
%TD*%
%TO.C,R11*%
X140550000Y-56890000D03*
X140550000Y-57910000D03*
%TD*%
D13*
%TO.C,R10*%
X118050000Y-69525000D03*
X118050000Y-71175000D03*
%TD*%
D11*
%TO.C,D16*%
X143700000Y-69150000D03*
X144550000Y-69150000D03*
X144550000Y-70000000D03*
X143700000Y-70000000D03*
%TD*%
%TO.C,D43*%
X139700000Y-79150000D03*
X140550000Y-79150000D03*
X140550000Y-80000000D03*
X139700000Y-80000000D03*
%TD*%
D10*
%TO.C,R5*%
X145250000Y-58790000D03*
X145250000Y-59810000D03*
%TD*%
%TO.C,R20*%
X135850000Y-58790000D03*
X135850000Y-59810000D03*
%TD*%
D11*
%TO.C,D37*%
X139700000Y-67150000D03*
X140550000Y-67150000D03*
X140550000Y-68000000D03*
X139700000Y-68000000D03*
%TD*%
D10*
%TO.C,R12*%
X141250000Y-58790000D03*
X141250000Y-59810000D03*
%TD*%
D11*
%TO.C,D19*%
X143700000Y-75150000D03*
X144550000Y-75150000D03*
X144550000Y-76000000D03*
X143700000Y-76000000D03*
%TD*%
%TO.C,D3*%
X145700000Y-65150000D03*
X146550000Y-65150000D03*
X146550000Y-66000000D03*
X145700000Y-66000000D03*
%TD*%
%TO.C,D65*%
X135700000Y-79150000D03*
X136550000Y-79150000D03*
X136550000Y-80000000D03*
X135700000Y-80000000D03*
%TD*%
D12*
%TO.C,C2*%
X119650000Y-71125000D03*
X119650000Y-69575000D03*
%TD*%
D10*
%TO.C,R18*%
X137250000Y-58790000D03*
X137250000Y-59810000D03*
%TD*%
%TO.C,R4*%
X144550000Y-56890000D03*
X144550000Y-57910000D03*
%TD*%
%TO.C,R3*%
X145850000Y-56890000D03*
X145850000Y-57910000D03*
%TD*%
D11*
%TO.C,D20*%
X143700000Y-77150000D03*
X144550000Y-77150000D03*
X144550000Y-78000000D03*
X143700000Y-78000000D03*
%TD*%
%TO.C,D12*%
X143700000Y-61150000D03*
X144550000Y-61150000D03*
X144550000Y-62000000D03*
X143700000Y-62000000D03*
%TD*%
%TO.C,D56*%
X135700000Y-61150000D03*
X136550000Y-61150000D03*
X136550000Y-62000000D03*
X135700000Y-62000000D03*
%TD*%
%TO.C,D4*%
X145700000Y-67150000D03*
X146550000Y-67150000D03*
X146550000Y-68000000D03*
X145700000Y-68000000D03*
%TD*%
%TO.C,D40*%
X139700000Y-73150000D03*
X140550000Y-73150000D03*
X140550000Y-74000000D03*
X139700000Y-74000000D03*
%TD*%
%TO.C,D54*%
X137700000Y-79150000D03*
X138550000Y-79150000D03*
X138550000Y-80000000D03*
X137700000Y-80000000D03*
%TD*%
%TO.C,D63*%
X135700000Y-75150000D03*
X136550000Y-75150000D03*
X136550000Y-76000000D03*
X135700000Y-76000000D03*
%TD*%
%TO.C,D61*%
X135700000Y-71150000D03*
X136550000Y-71150000D03*
X136550000Y-72000000D03*
X135700000Y-72000000D03*
%TD*%
%TO.C,D17*%
X143700000Y-71150000D03*
X144550000Y-71150000D03*
X144550000Y-72000000D03*
X143700000Y-72000000D03*
%TD*%
%TO.C,D7*%
X145700000Y-73150000D03*
X146550000Y-73150000D03*
X146550000Y-74000000D03*
X145700000Y-74000000D03*
%TD*%
D10*
%TO.C,R14*%
X138550000Y-58790000D03*
X138550000Y-59810000D03*
%TD*%
D11*
%TO.C,D26*%
X141700000Y-67150000D03*
X142550000Y-67150000D03*
X142550000Y-68000000D03*
X141700000Y-68000000D03*
%TD*%
%TO.C,D66*%
X135700000Y-81150000D03*
X136550000Y-81150000D03*
X136550000Y-82000000D03*
X135700000Y-82000000D03*
%TD*%
D10*
%TO.C,R6*%
X143850000Y-58790000D03*
X143850000Y-59810000D03*
%TD*%
D11*
%TO.C,D2*%
X145700000Y-63150000D03*
X146550000Y-63150000D03*
X146550000Y-64000000D03*
X145700000Y-64000000D03*
%TD*%
D10*
%TO.C,R2*%
X147250000Y-56890000D03*
X147250000Y-57910000D03*
%TD*%
D11*
%TO.C,D27*%
X141700000Y-69150000D03*
X142550000Y-69150000D03*
X142550000Y-70000000D03*
X141700000Y-70000000D03*
%TD*%
%TO.C,D41*%
X139700000Y-75150000D03*
X140550000Y-75150000D03*
X140550000Y-76000000D03*
X139700000Y-76000000D03*
%TD*%
%TO.C,D9*%
X145700000Y-77150000D03*
X146550000Y-77150000D03*
X146550000Y-78000000D03*
X145700000Y-78000000D03*
%TD*%
%TO.C,D57*%
X135700000Y-63150000D03*
X136550000Y-63150000D03*
X136550000Y-64000000D03*
X135700000Y-64000000D03*
%TD*%
%TO.C,D31*%
X141700000Y-77150000D03*
X142550000Y-77150000D03*
X142550000Y-78000000D03*
X141700000Y-78000000D03*
%TD*%
%TO.C,D42*%
X139700000Y-77150000D03*
X140550000Y-77150000D03*
X140550000Y-78000000D03*
X139700000Y-78000000D03*
%TD*%
D10*
%TO.C,R1*%
X146550000Y-58790000D03*
X146550000Y-59810000D03*
%TD*%
D11*
%TO.C,D23*%
X141700000Y-61150000D03*
X142550000Y-61150000D03*
X142550000Y-62000000D03*
X141700000Y-62000000D03*
%TD*%
D14*
%TO.C,J1*%
X113900000Y-58610000D03*
D15*
X113900000Y-61150000D03*
X113900000Y-63690000D03*
X113900000Y-66230000D03*
X113900000Y-68770000D03*
X113900000Y-71310000D03*
X113900000Y-73850000D03*
X113900000Y-76390000D03*
%TD*%
D11*
%TO.C,D59*%
X135700000Y-67150000D03*
X136550000Y-67150000D03*
X136550000Y-68000000D03*
X135700000Y-68000000D03*
%TD*%
D16*
%TO.C,R19*%
X130125000Y-64835000D03*
X130125000Y-63815000D03*
%TD*%
D11*
%TO.C,D28*%
X141700000Y-71150000D03*
X142550000Y-71150000D03*
X142550000Y-72000000D03*
X141700000Y-72000000D03*
%TD*%
%TO.C,D6*%
X145700000Y-71150000D03*
X146550000Y-71150000D03*
X146550000Y-72000000D03*
X145700000Y-72000000D03*
%TD*%
%TO.C,D64*%
X135700000Y-77150000D03*
X136550000Y-77150000D03*
X136550000Y-78000000D03*
X135700000Y-78000000D03*
%TD*%
D17*
%TO.C,U1*%
X125356068Y-69502297D03*
X125638910Y-69785140D03*
X125921753Y-70067983D03*
X126204596Y-70350825D03*
X126487438Y-70633668D03*
X126770281Y-70916511D03*
X127053124Y-71199353D03*
X127335966Y-71482196D03*
X127618809Y-71765039D03*
X127901652Y-72047881D03*
D18*
X128856246Y-72047881D03*
X129139089Y-71765039D03*
X129421932Y-71482196D03*
X129704774Y-71199353D03*
X129987617Y-70916511D03*
X130270460Y-70633668D03*
X130553302Y-70350825D03*
X130836145Y-70067983D03*
X131118988Y-69785140D03*
X131401830Y-69502297D03*
D17*
X131401830Y-68547703D03*
X131118988Y-68264860D03*
X130836145Y-67982017D03*
X130553302Y-67699175D03*
X130270460Y-67416332D03*
X129987617Y-67133489D03*
X129704774Y-66850647D03*
X129421932Y-66567804D03*
X129139089Y-66284961D03*
X128856246Y-66002119D03*
D18*
X127901652Y-66002119D03*
X127618809Y-66284961D03*
X127335966Y-66567804D03*
X127053124Y-66850647D03*
X126770281Y-67133489D03*
X126487438Y-67416332D03*
X126204596Y-67699175D03*
X125921753Y-67982017D03*
X125638910Y-68264860D03*
X125356068Y-68547703D03*
D19*
X128378949Y-69025000D03*
%TD*%
M02*
