M48
; DRILL file {KiCad 7.0.1} date Thu Apr  6 12:09:23 2023
; FORMAT={-:-/ absolute / metric / decimal}
; #@! TF.CreationDate,2023-04-06T12:09:23+02:00
; #@! TF.GenerationSoftware,Kicad,Pcbnew,7.0.1
; #@! TF.FileFunction,Plated,1,2,Blind
FMAT,2
METRIC
; #@! TA.AperFunction,Plated,Buried,ViaDrill
T1C0.076
%
G90
G05
T1
X90.475Y-38.475
X90.475Y-39.975
X90.475Y-41.475
X90.475Y-42.975
X90.475Y-44.475
X90.475Y-45.975
X90.475Y-47.475
X90.475Y-48.975
X90.475Y-50.475
X90.475Y-51.975
X90.475Y-53.475
X90.475Y-54.125
X90.475Y-55.625
X90.475Y-57.125
X90.475Y-58.625
X90.475Y-60.125
X90.475Y-61.625
X90.475Y-63.125
X90.475Y-64.625
X90.475Y-66.125
X90.475Y-67.625
X90.475Y-69.125
X90.775Y-54.975
X90.775Y-56.475
X90.775Y-57.975
X90.775Y-59.475
X90.775Y-60.975
X90.775Y-62.475
X90.775Y-63.975
X90.775Y-65.475
X90.775Y-66.975
X90.775Y-68.475
X90.775Y-69.975
X91.05Y-53.025
X91.325Y-37.625
X91.325Y-39.125
X91.325Y-40.625
X91.325Y-42.125
X91.325Y-43.625
X91.325Y-45.125
X91.325Y-46.625
X91.325Y-48.125
X91.325Y-49.625
X91.325Y-51.125
X91.325Y-52.625
X91.35Y-68.475
X91.625Y-38.475
X91.625Y-39.975
X91.625Y-41.475
X91.625Y-42.975
X91.625Y-44.475
X91.625Y-45.975
X91.625Y-47.475
X91.625Y-48.975
X91.625Y-50.475
X91.625Y-51.975
X91.625Y-53.475
X91.625Y-54.125
X91.625Y-55.625
X91.625Y-57.125
X91.625Y-58.625
X91.625Y-60.125
X91.625Y-61.625
X91.625Y-63.125
X91.625Y-64.625
X91.625Y-66.125
X91.625Y-67.625
X91.625Y-69.125
X91.975Y-38.475
X91.975Y-39.975
X91.975Y-41.475
X91.975Y-42.975
X91.975Y-44.475
X91.975Y-45.975
X91.975Y-47.475
X91.975Y-48.975
X91.975Y-50.475
X91.975Y-51.975
X91.975Y-53.475
X91.975Y-54.125
X91.975Y-55.625
X91.975Y-57.125
X91.975Y-58.625
X91.975Y-60.125
X91.975Y-61.625
X91.975Y-63.125
X91.975Y-64.625
X91.975Y-66.125
X91.975Y-67.625
X91.975Y-69.125
X92.25Y-51.1
X92.275Y-54.975
X92.275Y-56.475
X92.275Y-57.975
X92.275Y-59.475
X92.275Y-60.975
X92.275Y-62.475
X92.275Y-63.975
X92.275Y-65.475
X92.275Y-66.975
X92.275Y-68.475
X92.275Y-69.975
X92.55Y-50.025
X92.55Y-66.575
X92.825Y-37.625
X92.825Y-39.125
X92.825Y-40.625
X92.825Y-42.125
X92.825Y-43.625
X92.825Y-45.125
X92.825Y-46.625
X92.825Y-48.125
X92.825Y-49.625
X92.825Y-51.125
X92.825Y-52.625
X92.85Y-65.475
X93.125Y-38.475
X93.125Y-39.975
X93.125Y-41.475
X93.125Y-42.975
X93.125Y-44.475
X93.125Y-45.975
X93.125Y-47.475
X93.125Y-48.975
X93.125Y-50.475
X93.125Y-51.975
X93.125Y-53.475
X93.125Y-54.125
X93.125Y-55.625
X93.125Y-57.125
X93.125Y-58.625
X93.125Y-60.125
X93.125Y-61.625
X93.125Y-63.125
X93.125Y-64.625
X93.125Y-66.125
X93.125Y-67.625
X93.125Y-69.125
X93.475Y-38.475
X93.475Y-39.975
X93.475Y-41.475
X93.475Y-42.975
X93.475Y-44.475
X93.475Y-45.975
X93.475Y-47.475
X93.475Y-48.975
X93.475Y-50.475
X93.475Y-51.975
X93.475Y-53.475
X93.475Y-54.125
X93.475Y-55.625
X93.475Y-57.125
X93.475Y-58.625
X93.475Y-60.125
X93.475Y-61.625
X93.475Y-63.125
X93.475Y-64.625
X93.475Y-66.125
X93.475Y-67.625
X93.475Y-69.125
X93.75Y-48.125
X93.775Y-54.975
X93.775Y-56.475
X93.775Y-57.975
X93.775Y-59.475
X93.775Y-60.975
X93.775Y-62.475
X93.775Y-63.975
X93.775Y-65.475
X93.775Y-66.975
X93.775Y-68.475
X93.775Y-69.975
X94.05Y-47.025
X94.05Y-63.575
X94.325Y-37.625
X94.325Y-39.125
X94.325Y-40.625
X94.325Y-42.125
X94.325Y-43.625
X94.325Y-45.125
X94.325Y-46.625
X94.325Y-48.125
X94.325Y-49.625
X94.325Y-51.125
X94.325Y-52.625
X94.35Y-62.475
X94.625Y-38.475
X94.625Y-39.975
X94.625Y-41.475
X94.625Y-42.975
X94.625Y-44.475
X94.625Y-45.975
X94.625Y-47.475
X94.625Y-48.975
X94.625Y-50.475
X94.625Y-51.975
X94.625Y-53.475
X94.625Y-54.125
X94.625Y-55.625
X94.625Y-57.125
X94.625Y-58.625
X94.625Y-60.125
X94.625Y-61.625
X94.625Y-63.125
X94.625Y-64.625
X94.625Y-66.125
X94.625Y-67.625
X94.625Y-69.125
X94.975Y-38.475
X94.975Y-39.975
X94.975Y-41.475
X94.975Y-42.975
X94.975Y-44.475
X94.975Y-45.975
X94.975Y-47.475
X94.975Y-48.975
X94.975Y-50.475
X94.975Y-51.975
X94.975Y-53.475
X94.975Y-54.125
X94.975Y-55.625
X94.975Y-57.125
X94.975Y-58.625
X94.975Y-60.125
X94.975Y-61.625
X94.975Y-63.125
X94.975Y-64.625
X94.975Y-66.125
X94.975Y-67.625
X94.975Y-69.125
X95.25Y-45.125
X95.275Y-54.975
X95.275Y-56.475
X95.275Y-57.975
X95.275Y-59.475
X95.275Y-60.975
X95.275Y-62.475
X95.275Y-63.975
X95.275Y-65.475
X95.275Y-66.975
X95.275Y-68.475
X95.275Y-69.975
X95.55Y-44.025
X95.55Y-60.575
X95.825Y-37.625
X95.825Y-39.125
X95.825Y-40.625
X95.825Y-42.125
X95.825Y-43.625
X95.825Y-45.125
X95.825Y-46.625
X95.825Y-48.125
X95.825Y-49.625
X95.825Y-51.125
X95.825Y-52.625
X95.85Y-59.475
X96.125Y-38.475
X96.125Y-39.975
X96.125Y-41.475
X96.125Y-42.975
X96.125Y-44.475
X96.125Y-45.975
X96.125Y-47.475
X96.125Y-48.975
X96.125Y-50.475
X96.125Y-51.975
X96.125Y-53.475
X96.125Y-54.125
X96.125Y-55.625
X96.125Y-57.125
X96.125Y-58.625
X96.125Y-60.125
X96.125Y-61.625
X96.125Y-63.125
X96.125Y-64.625
X96.125Y-66.125
X96.125Y-67.625
X96.125Y-69.125
X96.475Y-38.475
X96.475Y-39.975
X96.475Y-41.475
X96.475Y-42.975
X96.475Y-44.475
X96.475Y-45.975
X96.475Y-47.475
X96.475Y-48.975
X96.475Y-50.475
X96.475Y-51.975
X96.475Y-53.475
X96.475Y-54.125
X96.475Y-55.625
X96.475Y-57.125
X96.475Y-58.625
X96.475Y-60.125
X96.475Y-61.625
X96.475Y-63.125
X96.475Y-64.625
X96.475Y-66.125
X96.475Y-67.625
X96.475Y-69.125
X96.75Y-42.125
X96.775Y-54.975
X96.775Y-56.475
X96.775Y-57.975
X96.775Y-59.475
X96.775Y-60.975
X96.775Y-62.475
X96.775Y-63.975
X96.775Y-65.475
X96.775Y-66.975
X96.775Y-68.475
X96.775Y-69.975
X97.05Y-41.025
X97.05Y-57.575
X97.325Y-37.625
X97.325Y-39.125
X97.325Y-40.625
X97.325Y-42.125
X97.325Y-43.625
X97.325Y-45.125
X97.325Y-46.625
X97.325Y-48.125
X97.325Y-49.625
X97.325Y-51.125
X97.325Y-52.625
X97.35Y-56.5
X97.625Y-38.475
X97.625Y-39.975
X97.625Y-41.475
X97.625Y-42.975
X97.625Y-44.475
X97.625Y-45.975
X97.625Y-47.475
X97.625Y-48.975
X97.625Y-50.475
X97.625Y-51.975
X97.625Y-53.475
X97.625Y-54.125
X97.625Y-55.625
X97.625Y-57.125
X97.625Y-58.625
X97.625Y-60.125
X97.625Y-61.625
X97.625Y-63.125
X97.625Y-64.625
X97.625Y-66.125
X97.625Y-67.625
X97.625Y-69.125
X97.975Y-38.475
X97.975Y-39.975
X97.975Y-41.475
X97.975Y-42.975
X97.975Y-44.475
X97.975Y-45.975
X97.975Y-47.475
X97.975Y-48.975
X97.975Y-50.475
X97.975Y-51.975
X97.975Y-53.475
X97.975Y-54.125
X97.975Y-55.625
X97.975Y-57.125
X97.975Y-58.625
X97.975Y-60.125
X97.975Y-61.625
X97.975Y-63.125
X97.975Y-64.625
X97.975Y-66.125
X97.975Y-67.625
X97.975Y-69.125
X98.25Y-39.125
X98.275Y-54.975
X98.275Y-56.475
X98.275Y-57.975
X98.275Y-59.475
X98.275Y-60.975
X98.275Y-62.475
X98.275Y-63.975
X98.275Y-65.475
X98.275Y-66.975
X98.275Y-68.475
X98.275Y-69.975
X98.55Y-54.575
X98.825Y-37.625
X98.825Y-39.125
X98.825Y-40.625
X98.825Y-42.125
X98.825Y-43.625
X98.825Y-45.125
X98.825Y-46.625
X98.825Y-48.125
X98.825Y-49.625
X98.825Y-51.125
X98.825Y-52.625
X99.125Y-38.475
X99.125Y-39.975
X99.125Y-41.475
X99.125Y-42.975
X99.125Y-44.475
X99.125Y-45.975
X99.125Y-47.475
X99.125Y-48.975
X99.125Y-50.475
X99.125Y-51.975
X99.125Y-53.475
X99.125Y-54.125
X99.125Y-55.625
X99.125Y-57.125
X99.125Y-58.625
X99.125Y-60.125
X99.125Y-61.625
X99.125Y-63.125
X99.125Y-64.625
X99.125Y-66.125
X99.125Y-67.625
X99.125Y-69.125
X99.475Y-38.475
X99.475Y-39.975
X99.475Y-41.475
X99.475Y-42.975
X99.475Y-44.475
X99.475Y-45.975
X99.475Y-47.475
X99.475Y-48.975
X99.475Y-50.475
X99.475Y-51.975
X99.475Y-53.475
X99.475Y-54.125
X99.475Y-55.625
X99.475Y-57.125
X99.475Y-58.625
X99.475Y-60.125
X99.475Y-61.625
X99.475Y-63.125
X99.475Y-64.625
X99.475Y-66.125
X99.475Y-67.625
X99.475Y-69.125
X99.775Y-54.975
X99.775Y-56.475
X99.775Y-57.975
X99.775Y-59.475
X99.775Y-60.975
X99.775Y-62.475
X99.775Y-63.975
X99.775Y-65.475
X99.775Y-66.975
X99.775Y-68.475
X99.775Y-69.975
X100.05Y-53.025
X100.325Y-37.625
X100.325Y-39.125
X100.325Y-40.625
X100.325Y-42.125
X100.325Y-43.625
X100.325Y-45.125
X100.325Y-46.625
X100.325Y-48.125
X100.325Y-49.625
X100.325Y-51.125
X100.325Y-52.625
X100.35Y-68.475
X100.625Y-38.475
X100.625Y-39.975
X100.625Y-41.475
X100.625Y-42.975
X100.625Y-44.475
X100.625Y-45.975
X100.625Y-47.475
X100.625Y-48.975
X100.625Y-50.475
X100.625Y-51.975
X100.625Y-53.475
X100.625Y-54.125
X100.625Y-55.625
X100.625Y-57.125
X100.625Y-58.625
X100.625Y-60.125
X100.625Y-61.625
X100.625Y-63.125
X100.625Y-64.625
X100.625Y-66.125
X100.625Y-67.625
X100.625Y-69.125
X100.975Y-38.475
X100.975Y-39.975
X100.975Y-41.475
X100.975Y-42.975
X100.975Y-44.475
X100.975Y-45.975
X100.975Y-47.475
X100.975Y-48.975
X100.975Y-50.475
X100.975Y-51.975
X100.975Y-53.475
X100.975Y-54.125
X100.975Y-55.625
X100.975Y-57.125
X100.975Y-58.625
X100.975Y-60.125
X100.975Y-61.625
X100.975Y-63.125
X100.975Y-64.625
X100.975Y-66.125
X100.975Y-67.625
X100.975Y-69.125
X101.25Y-51.1
X101.275Y-54.975
X101.275Y-56.475
X101.275Y-57.975
X101.275Y-59.475
X101.275Y-60.975
X101.275Y-62.475
X101.275Y-63.975
X101.275Y-65.475
X101.275Y-66.975
X101.275Y-68.475
X101.275Y-69.975
X101.55Y-50.025
X101.55Y-66.575
X101.825Y-37.625
X101.825Y-39.125
X101.825Y-40.625
X101.825Y-42.125
X101.825Y-43.625
X101.825Y-45.125
X101.825Y-46.625
X101.825Y-48.125
X101.825Y-49.625
X101.825Y-51.125
X101.825Y-52.625
X101.85Y-65.475
X102.125Y-38.475
X102.125Y-39.975
X102.125Y-41.475
X102.125Y-42.975
X102.125Y-44.475
X102.125Y-45.975
X102.125Y-47.475
X102.125Y-48.975
X102.125Y-50.475
X102.125Y-51.975
X102.125Y-53.475
X102.125Y-54.125
X102.125Y-55.625
X102.125Y-57.125
X102.125Y-58.625
X102.125Y-60.125
X102.125Y-61.625
X102.125Y-63.125
X102.125Y-64.625
X102.125Y-66.125
X102.125Y-67.625
X102.125Y-69.125
X102.475Y-38.475
X102.475Y-39.975
X102.475Y-41.475
X102.475Y-42.975
X102.475Y-44.475
X102.475Y-45.975
X102.475Y-47.475
X102.475Y-48.975
X102.475Y-50.475
X102.475Y-51.975
X102.475Y-53.475
X102.475Y-54.125
X102.475Y-55.625
X102.475Y-57.125
X102.475Y-58.625
X102.475Y-60.125
X102.475Y-61.625
X102.475Y-63.125
X102.475Y-64.625
X102.475Y-66.125
X102.475Y-67.625
X102.475Y-69.125
X102.75Y-48.125
X102.775Y-54.975
X102.775Y-56.475
X102.775Y-57.975
X102.775Y-59.475
X102.775Y-60.975
X102.775Y-62.475
X102.775Y-63.975
X102.775Y-65.475
X102.775Y-66.975
X102.775Y-68.475
X102.775Y-69.975
X103.05Y-47.025
X103.05Y-63.575
X103.325Y-37.625
X103.325Y-39.125
X103.325Y-40.625
X103.325Y-42.125
X103.325Y-43.625
X103.325Y-45.125
X103.325Y-46.625
X103.325Y-48.125
X103.325Y-49.625
X103.325Y-51.125
X103.325Y-52.625
X103.35Y-62.475
X103.625Y-38.475
X103.625Y-39.975
X103.625Y-41.475
X103.625Y-42.975
X103.625Y-44.475
X103.625Y-45.975
X103.625Y-47.475
X103.625Y-48.975
X103.625Y-50.475
X103.625Y-51.975
X103.625Y-53.475
X103.625Y-54.125
X103.625Y-55.625
X103.625Y-57.125
X103.625Y-58.625
X103.625Y-60.125
X103.625Y-61.625
X103.625Y-63.125
X103.625Y-64.625
X103.625Y-66.125
X103.625Y-67.625
X103.625Y-69.125
X103.975Y-38.475
X103.975Y-39.975
X103.975Y-41.475
X103.975Y-42.975
X103.975Y-44.475
X103.975Y-45.975
X103.975Y-47.475
X103.975Y-48.975
X103.975Y-50.475
X103.975Y-51.975
X103.975Y-53.475
X103.975Y-54.125
X103.975Y-55.625
X103.975Y-57.125
X103.975Y-58.625
X103.975Y-60.125
X103.975Y-61.625
X103.975Y-63.125
X103.975Y-64.625
X103.975Y-66.125
X103.975Y-67.625
X103.975Y-69.125
X104.25Y-45.125
X104.275Y-54.975
X104.275Y-56.475
X104.275Y-57.975
X104.275Y-59.475
X104.275Y-60.975
X104.275Y-62.475
X104.275Y-63.975
X104.275Y-65.475
X104.275Y-66.975
X104.275Y-68.475
X104.275Y-69.975
X104.55Y-44.025
X104.55Y-60.575
X104.825Y-37.625
X104.825Y-39.125
X104.825Y-40.625
X104.825Y-42.125
X104.825Y-43.625
X104.825Y-45.125
X104.825Y-46.625
X104.825Y-48.125
X104.825Y-49.625
X104.825Y-51.125
X104.825Y-52.625
X104.85Y-59.475
X105.125Y-38.475
X105.125Y-39.975
X105.125Y-41.475
X105.125Y-42.975
X105.125Y-44.475
X105.125Y-45.975
X105.125Y-47.475
X105.125Y-48.975
X105.125Y-50.475
X105.125Y-51.975
X105.125Y-53.475
X105.125Y-54.125
X105.125Y-55.625
X105.125Y-57.125
X105.125Y-58.625
X105.125Y-60.125
X105.125Y-61.625
X105.125Y-63.125
X105.125Y-64.625
X105.125Y-66.125
X105.125Y-67.625
X105.125Y-69.125
X105.475Y-38.475
X105.475Y-39.975
X105.475Y-41.475
X105.475Y-42.975
X105.475Y-44.475
X105.475Y-45.975
X105.475Y-47.475
X105.475Y-48.975
X105.475Y-50.475
X105.475Y-51.975
X105.475Y-53.475
X105.475Y-54.125
X105.475Y-55.625
X105.475Y-57.125
X105.475Y-58.625
X105.475Y-60.125
X105.475Y-61.625
X105.475Y-63.125
X105.475Y-64.625
X105.475Y-66.125
X105.475Y-67.625
X105.475Y-69.125
X105.75Y-42.125
X105.775Y-54.975
X105.775Y-56.475
X105.775Y-57.975
X105.775Y-59.475
X105.775Y-60.975
X105.775Y-62.475
X105.775Y-63.975
X105.775Y-65.475
X105.775Y-66.975
X105.775Y-68.475
X105.775Y-69.975
X106.05Y-41.025
X106.05Y-57.575
X106.325Y-37.625
X106.325Y-39.125
X106.325Y-40.625
X106.325Y-42.125
X106.325Y-43.625
X106.325Y-45.125
X106.325Y-46.625
X106.325Y-48.125
X106.325Y-49.625
X106.325Y-51.125
X106.325Y-52.625
X106.35Y-56.5
X106.625Y-38.475
X106.625Y-39.975
X106.625Y-41.475
X106.625Y-42.975
X106.625Y-44.475
X106.625Y-45.975
X106.625Y-47.475
X106.625Y-48.975
X106.625Y-50.475
X106.625Y-51.975
X106.625Y-53.475
X106.625Y-54.125
X106.625Y-55.625
X106.625Y-57.125
X106.625Y-58.625
X106.625Y-60.125
X106.625Y-61.625
X106.625Y-63.125
X106.625Y-64.625
X106.625Y-66.125
X106.625Y-67.625
X106.625Y-69.125
X106.975Y-38.475
X106.975Y-39.975
X106.975Y-41.475
X106.975Y-42.975
X106.975Y-44.475
X106.975Y-45.975
X106.975Y-47.475
X106.975Y-48.975
X106.975Y-50.475
X106.975Y-51.975
X106.975Y-53.475
X106.975Y-54.125
X106.975Y-55.625
X106.975Y-57.125
X106.975Y-58.625
X106.975Y-60.125
X106.975Y-61.625
X106.975Y-63.125
X106.975Y-64.625
X106.975Y-66.125
X106.975Y-67.625
X106.975Y-69.125
X107.25Y-39.125
X107.275Y-54.975
X107.275Y-56.475
X107.275Y-57.975
X107.275Y-59.475
X107.275Y-60.975
X107.275Y-62.475
X107.275Y-63.975
X107.275Y-65.475
X107.275Y-66.975
X107.275Y-68.475
X107.275Y-69.975
X107.55Y-54.575
X107.825Y-37.625
X107.825Y-39.125
X107.825Y-40.625
X107.825Y-42.125
X107.825Y-43.625
X107.825Y-45.125
X107.825Y-46.625
X107.825Y-48.125
X107.825Y-49.625
X107.825Y-51.125
X107.825Y-52.625
X108.125Y-38.475
X108.125Y-39.975
X108.125Y-41.475
X108.125Y-42.975
X108.125Y-44.475
X108.125Y-45.975
X108.125Y-47.475
X108.125Y-48.975
X108.125Y-50.475
X108.125Y-51.975
X108.125Y-53.475
X108.125Y-54.125
X108.125Y-55.625
X108.125Y-57.125
X108.125Y-58.625
X108.125Y-60.125
X108.125Y-61.625
X108.125Y-63.125
X108.125Y-64.625
X108.125Y-66.125
X108.125Y-67.625
X108.125Y-69.125
X108.475Y-38.475
X108.475Y-39.975
X108.475Y-41.475
X108.475Y-42.975
X108.475Y-44.475
X108.475Y-45.975
X108.475Y-47.475
X108.475Y-48.975
X108.475Y-50.475
X108.475Y-51.975
X108.475Y-53.475
X108.475Y-54.125
X108.475Y-55.625
X108.475Y-57.125
X108.475Y-58.625
X108.475Y-60.125
X108.475Y-61.625
X108.475Y-63.125
X108.475Y-64.625
X108.475Y-66.125
X108.475Y-67.625
X108.475Y-69.125
X108.775Y-54.975
X108.775Y-56.475
X108.775Y-57.975
X108.775Y-59.475
X108.775Y-60.975
X108.775Y-62.475
X108.775Y-63.975
X108.775Y-65.475
X108.775Y-66.975
X108.775Y-68.475
X108.775Y-69.975
X109.05Y-53.025
X109.325Y-37.625
X109.325Y-39.125
X109.325Y-40.625
X109.325Y-42.125
X109.325Y-43.625
X109.325Y-45.125
X109.325Y-46.625
X109.325Y-48.125
X109.325Y-49.625
X109.325Y-51.125
X109.325Y-52.625
X109.35Y-68.475
X109.625Y-38.475
X109.625Y-39.975
X109.625Y-41.475
X109.625Y-42.975
X109.625Y-44.475
X109.625Y-45.975
X109.625Y-47.475
X109.625Y-48.975
X109.625Y-50.475
X109.625Y-51.975
X109.625Y-53.475
X109.625Y-54.125
X109.625Y-55.625
X109.625Y-57.125
X109.625Y-58.625
X109.625Y-60.125
X109.625Y-61.625
X109.625Y-63.125
X109.625Y-64.625
X109.625Y-66.125
X109.625Y-67.625
X109.625Y-69.125
X109.975Y-38.475
X109.975Y-39.975
X109.975Y-41.475
X109.975Y-42.975
X109.975Y-44.475
X109.975Y-45.975
X109.975Y-47.475
X109.975Y-48.975
X109.975Y-50.475
X109.975Y-51.975
X109.975Y-53.475
X109.975Y-54.125
X109.975Y-55.625
X109.975Y-57.125
X109.975Y-58.625
X109.975Y-60.125
X109.975Y-61.625
X109.975Y-63.125
X109.975Y-64.625
X109.975Y-66.125
X109.975Y-67.625
X109.975Y-69.125
X110.25Y-51.1
X110.275Y-54.975
X110.275Y-56.475
X110.275Y-57.975
X110.275Y-59.475
X110.275Y-60.975
X110.275Y-62.475
X110.275Y-63.975
X110.275Y-65.475
X110.275Y-66.975
X110.275Y-68.475
X110.275Y-69.975
X110.55Y-50.025
X110.55Y-66.575
X110.825Y-37.625
X110.825Y-39.125
X110.825Y-40.625
X110.825Y-42.125
X110.825Y-43.625
X110.825Y-45.125
X110.825Y-46.625
X110.825Y-48.125
X110.825Y-49.625
X110.825Y-51.125
X110.825Y-52.625
X110.85Y-65.475
X111.125Y-38.475
X111.125Y-39.975
X111.125Y-41.475
X111.125Y-42.975
X111.125Y-44.475
X111.125Y-45.975
X111.125Y-47.475
X111.125Y-48.975
X111.125Y-50.475
X111.125Y-51.975
X111.125Y-53.475
X111.125Y-54.125
X111.125Y-55.625
X111.125Y-57.125
X111.125Y-58.625
X111.125Y-60.125
X111.125Y-61.625
X111.125Y-63.125
X111.125Y-64.625
X111.125Y-66.125
X111.125Y-67.625
X111.125Y-69.125
X111.475Y-38.475
X111.475Y-39.975
X111.475Y-41.475
X111.475Y-42.975
X111.475Y-44.475
X111.475Y-45.975
X111.475Y-47.475
X111.475Y-48.975
X111.475Y-50.475
X111.475Y-51.975
X111.475Y-53.475
X111.475Y-54.125
X111.475Y-55.625
X111.475Y-57.125
X111.475Y-58.625
X111.475Y-60.125
X111.475Y-61.625
X111.475Y-63.125
X111.475Y-64.625
X111.475Y-66.125
X111.475Y-67.625
X111.475Y-69.125
X111.75Y-48.125
X111.775Y-54.975
X111.775Y-56.475
X111.775Y-57.975
X111.775Y-59.475
X111.775Y-60.975
X111.775Y-62.475
X111.775Y-63.975
X111.775Y-65.475
X111.775Y-66.975
X111.775Y-68.475
X111.775Y-69.975
X112.05Y-47.025
X112.05Y-63.575
X112.325Y-37.625
X112.325Y-39.125
X112.325Y-40.625
X112.325Y-42.125
X112.325Y-43.625
X112.325Y-45.125
X112.325Y-46.625
X112.325Y-48.125
X112.325Y-49.625
X112.325Y-51.125
X112.325Y-52.625
X112.35Y-62.475
X112.625Y-38.475
X112.625Y-39.975
X112.625Y-41.475
X112.625Y-42.975
X112.625Y-44.475
X112.625Y-45.975
X112.625Y-47.475
X112.625Y-48.975
X112.625Y-50.475
X112.625Y-51.975
X112.625Y-53.475
X112.625Y-54.125
X112.625Y-55.625
X112.625Y-57.125
X112.625Y-58.625
X112.625Y-60.125
X112.625Y-61.625
X112.625Y-63.125
X112.625Y-64.625
X112.625Y-66.125
X112.625Y-67.625
X112.625Y-69.125
X112.975Y-38.475
X112.975Y-39.975
X112.975Y-41.475
X112.975Y-42.975
X112.975Y-44.475
X112.975Y-45.975
X112.975Y-47.475
X112.975Y-48.975
X112.975Y-50.475
X112.975Y-51.975
X112.975Y-53.475
X112.975Y-54.125
X112.975Y-55.625
X112.975Y-57.125
X112.975Y-58.625
X112.975Y-60.125
X112.975Y-61.625
X112.975Y-63.125
X112.975Y-64.625
X112.975Y-66.125
X112.975Y-67.625
X112.975Y-69.125
X113.25Y-45.125
X113.275Y-54.975
X113.275Y-56.475
X113.275Y-57.975
X113.275Y-59.475
X113.275Y-60.975
X113.275Y-62.475
X113.275Y-63.975
X113.275Y-65.475
X113.275Y-66.975
X113.275Y-68.475
X113.275Y-69.975
X113.55Y-44.025
X113.55Y-60.575
X113.825Y-37.625
X113.825Y-39.125
X113.825Y-40.625
X113.825Y-42.125
X113.825Y-43.625
X113.825Y-45.125
X113.825Y-46.625
X113.825Y-48.125
X113.825Y-49.625
X113.825Y-51.125
X113.825Y-52.625
X113.85Y-59.475
X114.125Y-38.475
X114.125Y-39.975
X114.125Y-41.475
X114.125Y-42.975
X114.125Y-44.475
X114.125Y-45.975
X114.125Y-47.475
X114.125Y-48.975
X114.125Y-50.475
X114.125Y-51.975
X114.125Y-53.475
X114.125Y-54.125
X114.125Y-55.625
X114.125Y-57.125
X114.125Y-58.625
X114.125Y-60.125
X114.125Y-61.625
X114.125Y-63.125
X114.125Y-64.625
X114.125Y-66.125
X114.125Y-67.625
X114.125Y-69.125
X114.475Y-38.475
X114.475Y-39.975
X114.475Y-41.475
X114.475Y-42.975
X114.475Y-44.475
X114.475Y-45.975
X114.475Y-47.475
X114.475Y-48.975
X114.475Y-50.475
X114.475Y-51.975
X114.475Y-53.475
X114.475Y-54.125
X114.475Y-55.625
X114.475Y-57.125
X114.475Y-58.625
X114.475Y-60.125
X114.475Y-61.625
X114.475Y-63.125
X114.475Y-64.625
X114.475Y-66.125
X114.475Y-67.625
X114.475Y-69.125
X114.75Y-42.125
X114.775Y-54.975
X114.775Y-56.475
X114.775Y-57.975
X114.775Y-59.475
X114.775Y-60.975
X114.775Y-62.475
X114.775Y-63.975
X114.775Y-65.475
X114.775Y-66.975
X114.775Y-68.475
X114.775Y-69.975
X115.05Y-41.025
X115.05Y-57.575
X115.325Y-37.625
X115.325Y-39.125
X115.325Y-40.625
X115.325Y-42.125
X115.325Y-43.625
X115.325Y-45.125
X115.325Y-46.625
X115.325Y-48.125
X115.325Y-49.625
X115.325Y-51.125
X115.325Y-52.625
X115.35Y-56.5
X115.625Y-38.475
X115.625Y-39.975
X115.625Y-41.475
X115.625Y-42.975
X115.625Y-44.475
X115.625Y-45.975
X115.625Y-47.475
X115.625Y-48.975
X115.625Y-50.475
X115.625Y-51.975
X115.625Y-53.475
X115.625Y-54.125
X115.625Y-55.625
X115.625Y-57.125
X115.625Y-58.625
X115.625Y-60.125
X115.625Y-61.625
X115.625Y-63.125
X115.625Y-64.625
X115.625Y-66.125
X115.625Y-67.625
X115.625Y-69.125
X115.975Y-38.475
X115.975Y-39.975
X115.975Y-41.475
X115.975Y-42.975
X115.975Y-44.475
X115.975Y-45.975
X115.975Y-47.475
X115.975Y-48.975
X115.975Y-50.475
X115.975Y-51.975
X115.975Y-53.475
X115.975Y-54.125
X115.975Y-55.625
X115.975Y-57.125
X115.975Y-58.625
X115.975Y-60.125
X115.975Y-61.625
X115.975Y-63.125
X115.975Y-64.625
X115.975Y-66.125
X115.975Y-67.625
X115.975Y-69.125
X116.25Y-39.125
X116.275Y-54.975
X116.275Y-56.475
X116.275Y-57.975
X116.275Y-59.475
X116.275Y-60.975
X116.275Y-62.475
X116.275Y-63.975
X116.275Y-65.475
X116.275Y-66.975
X116.275Y-68.475
X116.275Y-69.975
X116.55Y-54.575
X116.825Y-37.625
X116.825Y-39.125
X116.825Y-40.625
X116.825Y-42.125
X116.825Y-43.625
X116.825Y-45.125
X116.825Y-46.625
X116.825Y-48.125
X116.825Y-49.625
X116.825Y-51.125
X116.825Y-52.625
X117.125Y-38.475
X117.125Y-39.975
X117.125Y-41.475
X117.125Y-42.975
X117.125Y-44.475
X117.125Y-45.975
X117.125Y-47.475
X117.125Y-48.975
X117.125Y-50.475
X117.125Y-51.975
X117.125Y-53.475
X117.125Y-54.125
X117.125Y-55.625
X117.125Y-57.125
X117.125Y-58.625
X117.125Y-60.125
X117.125Y-61.625
X117.125Y-63.125
X117.125Y-64.625
X117.125Y-66.125
X117.125Y-67.625
X117.125Y-69.125
T0
M30
